M48
; DRILL file KiCad 10.0.4 date 2026-07-20T14:33:13
; FORMAT={-:-/ absolute / metric / decimal}
; #@! TF.CreationDate,2026-07-20T14:33:13+05:30
; #@! TF.GenerationSoftware,Kicad,Pcbnew,10.0.4
; #@! TF.FileFunction,Plated,1,4,PTH
FMAT,2
METRIC
; #@! TA.AperFunction,Plated,PTH,ViaDrill
T1C0.300
; #@! TA.AperFunction,Plated,PTH,ComponentDrill
T2C0.800
; #@! TA.AperFunction,Plated,PTH,ComponentDrill
T3C0.900
; #@! TA.AperFunction,Plated,PTH,ComponentDrill
T4C1.000
; #@! TA.AperFunction,Plated,PTH,ComponentDrill
T5C1.100
%
G90
G05
T1
X130.32Y-112.8
X136.82Y-93.9
X159.74Y-105.26
X169.8Y-115.2
X174.19Y-105.5
X179.825Y-86.2
X181.71Y-115.5
X189.35Y-102.85
X189.5Y-92.8
X195.8Y-113.6
X196.0Y-92.8
T2
X116.5Y-83.4
X120.16Y-112.8
X121.58Y-83.4
X122.7Y-112.8
X125.24Y-112.8
X127.78Y-112.8
X129.2Y-83.4
X130.32Y-112.8
X136.82Y-83.4
X164.39Y-86.0
X164.7Y-105.0
X164.8Y-115.2
X165.0Y-95.5
X169.7Y-105.0
X169.8Y-115.2
X170.0Y-95.5
X172.01Y-86.0
X174.09Y-115.5
X174.19Y-95.5
X174.19Y-105.5
X181.71Y-115.5
X181.81Y-95.5
X181.81Y-105.5
T3
X179.825Y-86.2
X182.365Y-86.2
T4
X144.5Y-84.94
X144.5Y-87.48
X144.5Y-90.02
X144.5Y-92.56
X144.5Y-95.1
X144.5Y-97.64
X144.5Y-100.18
X144.5Y-102.72
X144.5Y-105.26
X144.5Y-107.8
X144.5Y-110.34
X144.5Y-112.88
X144.5Y-115.42
X144.5Y-117.96
X144.5Y-120.5
X159.74Y-84.94
X159.74Y-87.48
X159.74Y-90.02
X159.74Y-92.56
X159.74Y-95.1
X159.74Y-97.64
X159.74Y-100.18
X159.74Y-102.72
X159.74Y-105.26
X159.74Y-107.8
X159.74Y-110.34
X159.74Y-112.88
X159.74Y-115.42
X159.74Y-117.96
X159.74Y-120.5
T5
X189.3Y-113.6
X189.3Y-118.1
X189.35Y-102.85
X189.35Y-107.35
X189.5Y-92.8
X189.5Y-97.3
X195.8Y-113.6
X195.8Y-118.1
X195.85Y-102.85
X195.85Y-107.35
X196.0Y-92.8
X196.0Y-97.3
M30
