%TF.GenerationSoftware,KiCad,Pcbnew,10.0.4*%
%TF.CreationDate,2026-07-20T14:34:42+05:30*%
%TF.ProjectId,Learn_1,4c656172-6e5f-4312-9e6b-696361645f70,rev?*%
%TF.SameCoordinates,Original*%
%TF.FileFunction,Copper,L2,Inr*%
%TF.FilePolarity,Positive*%
%FSLAX46Y46*%
G04 Gerber Fmt 4.6, Leading zero omitted, Abs format (unit mm)*
G04 Created by KiCad (PCBNEW 10.0.4) date 2026-07-20 14:34:42*
%MOMM*%
%LPD*%
G01*
G04 APERTURE LIST*
G04 Aperture macros list*
%AMRoundRect*
0 Rectangle with rounded corners*
0 $1 Rounding radius*
0 $2 $3 $4 $5 $6 $7 $8 $9 X,Y pos of 4 corners*
0 Add a 4 corners polygon primitive as box body*
4,1,4,$2,$3,$4,$5,$6,$7,$8,$9,$2,$3,0*
0 Add four circle primitives for the rounded corners*
1,1,$1+$1,$2,$3*
1,1,$1+$1,$4,$5*
1,1,$1+$1,$6,$7*
1,1,$1+$1,$8,$9*
0 Add four rect primitives between the rounded corners*
20,1,$1+$1,$2,$3,$4,$5,0*
20,1,$1+$1,$4,$5,$6,$7,0*
20,1,$1+$1,$6,$7,$8,$9,0*
20,1,$1+$1,$8,$9,$2,$3,0*%
G04 Aperture macros list end*
%TA.AperFunction,ComponentPad*%
%ADD10C,2.000000*%
%TD*%
%TA.AperFunction,ComponentPad*%
%ADD11C,1.270000*%
%TD*%
%TA.AperFunction,ComponentPad*%
%ADD12C,1.600000*%
%TD*%
%TA.AperFunction,ComponentPad*%
%ADD13RoundRect,0.190500X-0.444500X-0.444500X0.444500X-0.444500X0.444500X0.444500X-0.444500X0.444500X0*%
%TD*%
%TA.AperFunction,ComponentPad*%
%ADD14O,1.600000X1.600000*%
%TD*%
%TA.AperFunction,ComponentPad*%
%ADD15R,1.600000X1.600000*%
%TD*%
%TA.AperFunction,ComponentPad*%
%ADD16C,1.800000*%
%TD*%
%TA.AperFunction,ComponentPad*%
%ADD17R,1.800000X1.800000*%
%TD*%
%TA.AperFunction,ViaPad*%
%ADD18C,0.600000*%
%TD*%
G04 APERTURE END LIST*
D10*
%TO.N,GND*%
%TO.C,UP*%
X189350000Y-102850000D03*
X195850000Y-102850000D03*
%TO.N,Net-(R2-Pad2)*%
X189350000Y-107350000D03*
X195850000Y-107350000D03*
%TD*%
D11*
%TO.N,Net-(A1-A4)*%
%TO.C,U2*%
X136820000Y-83400000D03*
%TO.N,Net-(A1-A5)*%
X129200000Y-83400000D03*
%TO.N,+5V*%
X121580000Y-83400000D03*
%TO.N,GND*%
X116500000Y-83400000D03*
%TD*%
D12*
%TO.N,Net-(R1-Pad2)*%
%TO.C,R1*%
X181810000Y-95500000D03*
%TO.N,+5V*%
X174190000Y-95500000D03*
%TD*%
%TO.N,Net-(D1-A)*%
%TO.C,R4*%
X172010000Y-86000000D03*
%TO.N,Net-(A1-D12)*%
X164390000Y-86000000D03*
%TD*%
D10*
%TO.N,Net-(R3-Pad2)*%
%TO.C,DOWN*%
X195800000Y-118100000D03*
X189300000Y-118100000D03*
%TO.N,GND*%
X195800000Y-113600000D03*
X189300000Y-113600000D03*
%TD*%
D12*
%TO.N,Net-(R2-Pad2)*%
%TO.C,R2*%
X181810000Y-105500000D03*
%TO.N,+5V*%
X174190000Y-105500000D03*
%TD*%
%TO.N,Net-(R3-Pad2)*%
%TO.C,R3*%
X181710000Y-115500000D03*
%TO.N,+5V*%
X174090000Y-115500000D03*
%TD*%
D10*
%TO.N,Net-(R1-Pad2)*%
%TO.C,MENU*%
X196000000Y-97300000D03*
X189500000Y-97300000D03*
%TO.N,GND*%
X196000000Y-92800000D03*
X189500000Y-92800000D03*
%TD*%
D13*
%TO.N,+5V*%
%TO.C,U1*%
X130320000Y-112800000D03*
%TO.N,GND*%
X127780000Y-112800000D03*
%TO.N,Net-(A1-A5)*%
X125240000Y-112800000D03*
%TO.N,Net-(A1-A4)*%
X122700000Y-112800000D03*
%TO.N,unconnected-(U1-INT-Pad1)*%
X120160000Y-112800000D03*
%TD*%
D12*
%TO.N,GND*%
%TO.C,C3*%
X169800000Y-115200000D03*
%TO.N,+5V*%
X164800000Y-115200000D03*
%TD*%
%TO.N,GND*%
%TO.C,C1*%
X170000000Y-95500000D03*
%TO.N,+5V*%
X165000000Y-95500000D03*
%TD*%
D14*
%TO.N,unconnected-(A1-VIN-Pad30)*%
%TO.C,A1*%
X144500000Y-120500000D03*
%TO.N,GND*%
X144500000Y-117960000D03*
%TO.N,unconnected-(A1-~{RESET}-Pad28)*%
X144500000Y-115420000D03*
%TO.N,+5V*%
X144500000Y-112880000D03*
%TO.N,unconnected-(A1-A7-Pad26)*%
X144500000Y-110340000D03*
%TO.N,unconnected-(A1-A6-Pad25)*%
X144500000Y-107800000D03*
%TO.N,Net-(A1-A5)*%
X144500000Y-105260000D03*
%TO.N,Net-(A1-A4)*%
X144500000Y-102720000D03*
%TO.N,unconnected-(A1-A3-Pad22)*%
X144500000Y-100180000D03*
%TO.N,unconnected-(A1-A2-Pad21)*%
X144500000Y-97640000D03*
%TO.N,unconnected-(A1-A1-Pad20)*%
X144500000Y-95100000D03*
%TO.N,unconnected-(A1-A0-Pad19)*%
X144500000Y-92560000D03*
%TO.N,unconnected-(A1-AREF-Pad18)*%
X144500000Y-90020000D03*
%TO.N,unconnected-(A1-3V3-Pad17)*%
X144500000Y-87480000D03*
%TO.N,unconnected-(A1-D13-Pad16)*%
X144500000Y-84940000D03*
%TO.N,Net-(A1-D12)*%
X159740000Y-84940000D03*
%TO.N,unconnected-(A1-D11-Pad14)*%
X159740000Y-87480000D03*
%TO.N,unconnected-(A1-D10-Pad13)*%
X159740000Y-90020000D03*
%TO.N,unconnected-(A1-D9-Pad12)*%
X159740000Y-92560000D03*
%TO.N,unconnected-(A1-D8-Pad11)*%
X159740000Y-95100000D03*
%TO.N,unconnected-(A1-D7-Pad10)*%
X159740000Y-97640000D03*
%TO.N,unconnected-(A1-D6-Pad9)*%
X159740000Y-100180000D03*
%TO.N,unconnected-(A1-D5-Pad8)*%
X159740000Y-102720000D03*
%TO.N,+5V*%
X159740000Y-105260000D03*
X159740000Y-107800000D03*
X159740000Y-110340000D03*
%TO.N,GND*%
X159740000Y-112880000D03*
%TO.N,unconnected-(A1-~{RESET}-Pad3)*%
X159740000Y-115420000D03*
%TO.N,unconnected-(A1-D0{slash}RX-Pad2)*%
X159740000Y-117960000D03*
D15*
%TO.N,unconnected-(A1-D1{slash}TX-Pad1)*%
X159740000Y-120500000D03*
%TD*%
D16*
%TO.N,Net-(D1-A)*%
%TO.C,D1*%
X182365000Y-86200000D03*
D17*
%TO.N,GND*%
X179825000Y-86200000D03*
%TD*%
D12*
%TO.N,GND*%
%TO.C,C2*%
X169700000Y-105000000D03*
%TO.N,+5V*%
X164700000Y-105000000D03*
%TD*%
D18*
%TO.N,Net-(A1-A4)*%
X136820000Y-93900000D03*
%TO.N,+5V*%
X130320000Y-112800000D03*
%TO.N,GND*%
X189350000Y-102850000D03*
X195800000Y-113600000D03*
%TO.N,Net-(R3-Pad2)*%
X181710000Y-115500000D03*
%TO.N,+5V*%
X174190000Y-105500000D03*
%TO.N,GND*%
X169800000Y-115200000D03*
%TO.N,+5V*%
X159740000Y-105260000D03*
%TO.N,GND*%
X179825000Y-86200000D03*
X196000000Y-92800000D03*
X189500000Y-92800000D03*
%TD*%
M02*
