%TF.GenerationSoftware,KiCad,Pcbnew,10.0.4*%
%TF.CreationDate,2026-07-20T14:34:42+05:30*%
%TF.ProjectId,Learn_1,4c656172-6e5f-4312-9e6b-696361645f70,rev?*%
%TF.SameCoordinates,Original*%
%TF.FileFunction,Copper,L4,Bot*%
%TF.FilePolarity,Positive*%
%FSLAX46Y46*%
G04 Gerber Fmt 4.6, Leading zero omitted, Abs format (unit mm)*
G04 Created by KiCad (PCBNEW 10.0.4) date 2026-07-20 14:34:42*
%MOMM*%
%LPD*%
G01*
G04 APERTURE LIST*
G04 Aperture macros list*
%AMRoundRect*
0 Rectangle with rounded corners*
0 $1 Rounding radius*
0 $2 $3 $4 $5 $6 $7 $8 $9 X,Y pos of 4 corners*
0 Add a 4 corners polygon primitive as box body*
4,1,4,$2,$3,$4,$5,$6,$7,$8,$9,$2,$3,0*
0 Add four circle primitives for the rounded corners*
1,1,$1+$1,$2,$3*
1,1,$1+$1,$4,$5*
1,1,$1+$1,$6,$7*
1,1,$1+$1,$8,$9*
0 Add four rect primitives between the rounded corners*
20,1,$1+$1,$2,$3,$4,$5,0*
20,1,$1+$1,$4,$5,$6,$7,0*
20,1,$1+$1,$6,$7,$8,$9,0*
20,1,$1+$1,$8,$9,$2,$3,0*%
G04 Aperture macros list end*
%TA.AperFunction,ComponentPad*%
%ADD10C,2.000000*%
%TD*%
%TA.AperFunction,ComponentPad*%
%ADD11C,1.270000*%
%TD*%
%TA.AperFunction,ComponentPad*%
%ADD12C,1.600000*%
%TD*%
%TA.AperFunction,ComponentPad*%
%ADD13RoundRect,0.190500X-0.444500X-0.444500X0.444500X-0.444500X0.444500X0.444500X-0.444500X0.444500X0*%
%TD*%
%TA.AperFunction,ComponentPad*%
%ADD14O,1.600000X1.600000*%
%TD*%
%TA.AperFunction,ComponentPad*%
%ADD15R,1.600000X1.600000*%
%TD*%
%TA.AperFunction,ComponentPad*%
%ADD16C,1.800000*%
%TD*%
%TA.AperFunction,ComponentPad*%
%ADD17R,1.800000X1.800000*%
%TD*%
%TA.AperFunction,ViaPad*%
%ADD18C,0.600000*%
%TD*%
%TA.AperFunction,Conductor*%
%ADD19C,0.127000*%
%TD*%
G04 APERTURE END LIST*
D10*
%TO.P,UP,1,1_1*%
%TO.N,GND*%
X189350000Y-102850000D03*
X195850000Y-102850000D03*
%TO.P,UP,2,2_2*%
%TO.N,Net-(R2-Pad2)*%
X189350000Y-107350000D03*
X195850000Y-107350000D03*
%TD*%
D11*
%TO.P,U2,4,SDA_4*%
%TO.N,Net-(A1-A4)*%
X136820000Y-83400000D03*
%TO.P,U2,3,SCL_3*%
%TO.N,Net-(A1-A5)*%
X129200000Y-83400000D03*
%TO.P,U2,2,VCC_2*%
%TO.N,+5V*%
X121580000Y-83400000D03*
%TO.P,U2,1,GND_1*%
%TO.N,GND*%
X116500000Y-83400000D03*
%TD*%
D12*
%TO.P,R1,2*%
%TO.N,Net-(R1-Pad2)*%
X181810000Y-95500000D03*
%TO.P,R1,1*%
%TO.N,+5V*%
X174190000Y-95500000D03*
%TD*%
%TO.P,R4,2*%
%TO.N,Net-(D1-A)*%
X172010000Y-86000000D03*
%TO.P,R4,1*%
%TO.N,Net-(A1-D12)*%
X164390000Y-86000000D03*
%TD*%
D10*
%TO.P,DOWN,2,2_2*%
%TO.N,Net-(R3-Pad2)*%
X195800000Y-118100000D03*
X189300000Y-118100000D03*
%TO.P,DOWN,1,1_1*%
%TO.N,GND*%
X195800000Y-113600000D03*
X189300000Y-113600000D03*
%TD*%
D12*
%TO.P,R2,2*%
%TO.N,Net-(R2-Pad2)*%
X181810000Y-105500000D03*
%TO.P,R2,1*%
%TO.N,+5V*%
X174190000Y-105500000D03*
%TD*%
%TO.P,R3,2*%
%TO.N,Net-(R3-Pad2)*%
X181710000Y-115500000D03*
%TO.P,R3,1*%
%TO.N,+5V*%
X174090000Y-115500000D03*
%TD*%
D10*
%TO.P,MENU,2,2_2*%
%TO.N,Net-(R1-Pad2)*%
X196000000Y-97300000D03*
X189500000Y-97300000D03*
%TO.P,MENU,1,1_1*%
%TO.N,GND*%
X196000000Y-92800000D03*
X189500000Y-92800000D03*
%TD*%
D13*
%TO.P,U1,5,VCC_5*%
%TO.N,+5V*%
X130320000Y-112800000D03*
%TO.P,U1,4,GND_4*%
%TO.N,GND*%
X127780000Y-112800000D03*
%TO.P,U1,3,SCL_3*%
%TO.N,Net-(A1-A5)*%
X125240000Y-112800000D03*
%TO.P,U1,2,SDA_2*%
%TO.N,Net-(A1-A4)*%
X122700000Y-112800000D03*
%TO.P,U1,1,INT_1*%
%TO.N,unconnected-(U1-INT-Pad1)*%
X120160000Y-112800000D03*
%TD*%
D12*
%TO.P,C3,2*%
%TO.N,GND*%
X169800000Y-115200000D03*
%TO.P,C3,1*%
%TO.N,+5V*%
X164800000Y-115200000D03*
%TD*%
%TO.P,C1,2*%
%TO.N,GND*%
X170000000Y-95500000D03*
%TO.P,C1,1*%
%TO.N,+5V*%
X165000000Y-95500000D03*
%TD*%
D14*
%TO.P,A1,30,VIN_30*%
%TO.N,unconnected-(A1-VIN-Pad30)*%
X144500000Y-120500000D03*
%TO.P,A1,29,GND_29*%
%TO.N,GND*%
X144500000Y-117960000D03*
%TO.P,A1,28,~{RESET}_28*%
%TO.N,unconnected-(A1-~{RESET}-Pad28)*%
X144500000Y-115420000D03*
%TO.P,A1,27,+5V_27*%
%TO.N,+5V*%
X144500000Y-112880000D03*
%TO.P,A1,26,A7_26*%
%TO.N,unconnected-(A1-A7-Pad26)*%
X144500000Y-110340000D03*
%TO.P,A1,25,A6_25*%
%TO.N,unconnected-(A1-A6-Pad25)*%
X144500000Y-107800000D03*
%TO.P,A1,24,A5_24*%
%TO.N,Net-(A1-A5)*%
X144500000Y-105260000D03*
%TO.P,A1,23,A4_23*%
%TO.N,Net-(A1-A4)*%
X144500000Y-102720000D03*
%TO.P,A1,22,A3_22*%
%TO.N,unconnected-(A1-A3-Pad22)*%
X144500000Y-100180000D03*
%TO.P,A1,21,A2_21*%
%TO.N,unconnected-(A1-A2-Pad21)*%
X144500000Y-97640000D03*
%TO.P,A1,20,A1_20*%
%TO.N,unconnected-(A1-A1-Pad20)*%
X144500000Y-95100000D03*
%TO.P,A1,19,A0_19*%
%TO.N,unconnected-(A1-A0-Pad19)*%
X144500000Y-92560000D03*
%TO.P,A1,18,AREF_18*%
%TO.N,unconnected-(A1-AREF-Pad18)*%
X144500000Y-90020000D03*
%TO.P,A1,17,3V3_17*%
%TO.N,unconnected-(A1-3V3-Pad17)*%
X144500000Y-87480000D03*
%TO.P,A1,16,D13_16*%
%TO.N,unconnected-(A1-D13-Pad16)*%
X144500000Y-84940000D03*
%TO.P,A1,15,D12_15*%
%TO.N,Net-(A1-D12)*%
X159740000Y-84940000D03*
%TO.P,A1,14,D11_14*%
%TO.N,unconnected-(A1-D11-Pad14)*%
X159740000Y-87480000D03*
%TO.P,A1,13,D10_13*%
%TO.N,unconnected-(A1-D10-Pad13)*%
X159740000Y-90020000D03*
%TO.P,A1,12,D9_12*%
%TO.N,unconnected-(A1-D9-Pad12)*%
X159740000Y-92560000D03*
%TO.P,A1,11,D8_11*%
%TO.N,unconnected-(A1-D8-Pad11)*%
X159740000Y-95100000D03*
%TO.P,A1,10,D7_10*%
%TO.N,unconnected-(A1-D7-Pad10)*%
X159740000Y-97640000D03*
%TO.P,A1,9,D6_9*%
%TO.N,unconnected-(A1-D6-Pad9)*%
X159740000Y-100180000D03*
%TO.P,A1,8,D5_8*%
%TO.N,unconnected-(A1-D5-Pad8)*%
X159740000Y-102720000D03*
%TO.P,A1,7,D4_7*%
%TO.N,+5V*%
X159740000Y-105260000D03*
%TO.P,A1,6,D3_6*%
X159740000Y-107800000D03*
%TO.P,A1,5,D2_5*%
X159740000Y-110340000D03*
%TO.P,A1,4,GND_4*%
%TO.N,GND*%
X159740000Y-112880000D03*
%TO.P,A1,3,~{RESET}_3*%
%TO.N,unconnected-(A1-~{RESET}-Pad3)*%
X159740000Y-115420000D03*
%TO.P,A1,2,D0/RX_2*%
%TO.N,unconnected-(A1-D0{slash}RX-Pad2)*%
X159740000Y-117960000D03*
D15*
%TO.P,A1,1,D1/TX_1*%
%TO.N,unconnected-(A1-D1{slash}TX-Pad1)*%
X159740000Y-120500000D03*
%TD*%
D16*
%TO.P,D1,2,A_2*%
%TO.N,Net-(D1-A)*%
X182365000Y-86200000D03*
D17*
%TO.P,D1,1,K_1*%
%TO.N,GND*%
X179825000Y-86200000D03*
%TD*%
D12*
%TO.P,C2,2*%
%TO.N,GND*%
X169700000Y-105000000D03*
%TO.P,C2,1*%
%TO.N,+5V*%
X164700000Y-105000000D03*
%TD*%
D18*
%TO.N,Net-(A1-A4)*%
X136820000Y-93900000D03*
%TO.N,+5V*%
X130320000Y-112800000D03*
%TO.N,GND*%
X189350000Y-102850000D03*
X195800000Y-113600000D03*
%TO.N,Net-(R3-Pad2)*%
X181710000Y-115500000D03*
%TO.N,+5V*%
X174190000Y-105500000D03*
%TO.N,GND*%
X169800000Y-115200000D03*
%TO.N,+5V*%
X159740000Y-105260000D03*
%TO.N,GND*%
X179825000Y-86200000D03*
X196000000Y-92800000D03*
X189500000Y-92800000D03*
%TD*%
%TO.N,Net-(A1-A4)*%
D19*
X122700000Y-108020000D02*
X122700000Y-112800000D01*
X136820000Y-93900000D02*
X122700000Y-108020000D01*
%TO.N,Net-(A1-A5)*%
X126346906Y-112800000D02*
X125240000Y-112800000D01*
X133886906Y-105260000D02*
X126346906Y-112800000D01*
X144500000Y-105260000D02*
X133886906Y-105260000D01*
%TO.N,GND*%
X116400000Y-77800000D02*
X116500000Y-77900000D01*
X116500000Y-77900000D02*
X116500000Y-83400000D01*
X196400000Y-77800000D02*
X116400000Y-77800000D01*
X195800000Y-113600000D02*
X199900000Y-109500000D01*
X199900000Y-109500000D02*
X199900000Y-81300000D01*
X199900000Y-81300000D02*
X196400000Y-77800000D01*
X187400000Y-111700000D02*
X189300000Y-113600000D01*
X187400000Y-104800000D02*
X187400000Y-111700000D01*
X189350000Y-102850000D02*
X187400000Y-104800000D01*
X188309500Y-101809500D02*
X189350000Y-102850000D01*
X188309500Y-93990500D02*
X188309500Y-101809500D01*
X189500000Y-92800000D02*
X188309500Y-93990500D01*
%TO.N,+5V*%
X173649505Y-106040495D02*
X174190000Y-105500000D01*
X165740495Y-106040495D02*
X173649505Y-106040495D01*
X164700000Y-105000000D02*
X165740495Y-106040495D01*
%TO.N,GND*%
X167400000Y-115200000D02*
X169800000Y-115200000D01*
X165080000Y-112880000D02*
X167400000Y-115200000D01*
X159740000Y-112880000D02*
X165080000Y-112880000D01*
X179300000Y-86200000D02*
X179825000Y-86200000D01*
X170000000Y-95500000D02*
X179300000Y-86200000D01*
X186425000Y-92800000D02*
X189500000Y-92800000D01*
X179825000Y-86200000D02*
X186425000Y-92800000D01*
%TD*%
%TA.AperFunction,Conductor*%
%TO.N,GND*%
G36*
X202542539Y-77420185D02*
G01*
X202588294Y-77472989D01*
X202599500Y-77524500D01*
X202599500Y-129475500D01*
X202579815Y-129542539D01*
X202527011Y-129588294D01*
X202475500Y-129599500D01*
X110224500Y-129599500D01*
X110157461Y-129579815D01*
X110111706Y-129527011D01*
X110100500Y-129475500D01*
X110100500Y-112299655D01*
X119024500Y-112299655D01*
X119024500Y-113300354D01*
X119030825Y-113369966D01*
X119030828Y-113369977D01*
X119080747Y-113530175D01*
X119080749Y-113530179D01*
X119167556Y-113673777D01*
X119167560Y-113673782D01*
X119286217Y-113792439D01*
X119286222Y-113792443D01*
X119406815Y-113865343D01*
X119429822Y-113879251D01*
X119590029Y-113929173D01*
X119659653Y-113935500D01*
X120660346Y-113935499D01*
X120660353Y-113935499D01*
X120729966Y-113929174D01*
X120729969Y-113929173D01*
X120729971Y-113929173D01*
X120890178Y-113879251D01*
X121000942Y-113812292D01*
X121033777Y-113792443D01*
X121033778Y-113792441D01*
X121033783Y-113792439D01*
X121152439Y-113673783D01*
X121239251Y-113530178D01*
X121289173Y-113369971D01*
X121295500Y-113300347D01*
X121295499Y-112299655D01*
X121564500Y-112299655D01*
X121564500Y-113300354D01*
X121570825Y-113369966D01*
X121570828Y-113369977D01*
X121620747Y-113530175D01*
X121620749Y-113530179D01*
X121707556Y-113673777D01*
X121707560Y-113673782D01*
X121826217Y-113792439D01*
X121826222Y-113792443D01*
X121946815Y-113865343D01*
X121969822Y-113879251D01*
X122130029Y-113929173D01*
X122199653Y-113935500D01*
X123200346Y-113935499D01*
X123200353Y-113935499D01*
X123269966Y-113929174D01*
X123269969Y-113929173D01*
X123269971Y-113929173D01*
X123430178Y-113879251D01*
X123540942Y-113812292D01*
X123573777Y-113792443D01*
X123573778Y-113792441D01*
X123573783Y-113792439D01*
X123692439Y-113673783D01*
X123779251Y-113530178D01*
X123829173Y-113369971D01*
X123835500Y-113300347D01*
X123835499Y-112299655D01*
X124104500Y-112299655D01*
X124104500Y-113300354D01*
X124110825Y-113369966D01*
X124110828Y-113369977D01*
X124160747Y-113530175D01*
X124160749Y-113530179D01*
X124247556Y-113673777D01*
X124247560Y-113673782D01*
X124366217Y-113792439D01*
X124366222Y-113792443D01*
X124486815Y-113865343D01*
X124509822Y-113879251D01*
X124670029Y-113929173D01*
X124739653Y-113935500D01*
X125740346Y-113935499D01*
X125740353Y-113935499D01*
X125809966Y-113929174D01*
X125809969Y-113929173D01*
X125809971Y-113929173D01*
X125970178Y-113879251D01*
X126080942Y-113812292D01*
X126113777Y-113792443D01*
X126113778Y-113792441D01*
X126113783Y-113792439D01*
X126232439Y-113673783D01*
X126319251Y-113530178D01*
X126346148Y-113443859D01*
X126351420Y-113435946D01*
X126352997Y-113426569D01*
X126370477Y-113407339D01*
X126384884Y-113385714D01*
X126394848Y-113380530D01*
X126399995Y-113374869D01*
X126432431Y-113360979D01*
X126516853Y-113338359D01*
X126586699Y-113340022D01*
X126644561Y-113379185D01*
X126667327Y-113421243D01*
X126701208Y-113529969D01*
X126701209Y-113529972D01*
X126787954Y-113673467D01*
X126787957Y-113673471D01*
X126906528Y-113792042D01*
X126906532Y-113792045D01*
X127050026Y-113878789D01*
X127210123Y-113928677D01*
X127279701Y-113934999D01*
X127529999Y-113934999D01*
X127530000Y-113934998D01*
X127530000Y-113115686D01*
X127534394Y-113120080D01*
X127625606Y-113172741D01*
X127727339Y-113200000D01*
X127832661Y-113200000D01*
X127934394Y-113172741D01*
X128025606Y-113120080D01*
X128030000Y-113115686D01*
X128030000Y-113934999D01*
X128280307Y-113934999D01*
X128349875Y-113928678D01*
X128349883Y-113928676D01*
X128509970Y-113878791D01*
X128509972Y-113878790D01*
X128653467Y-113792045D01*
X128653471Y-113792042D01*
X128772042Y-113673471D01*
X128772045Y-113673467D01*
X128858789Y-113529973D01*
X128908677Y-113369876D01*
X128915000Y-113300298D01*
X128915000Y-113050000D01*
X128095686Y-113050000D01*
X128100080Y-113045606D01*
X128152741Y-112954394D01*
X128180000Y-112852661D01*
X128180000Y-112747339D01*
X128152741Y-112645606D01*
X128100080Y-112554394D01*
X128095686Y-112550000D01*
X128914999Y-112550000D01*
X128914999Y-112299691D01*
X128914996Y-112299655D01*
X129184500Y-112299655D01*
X129184500Y-113300354D01*
X129190825Y-113369966D01*
X129190828Y-113369977D01*
X129240747Y-113530175D01*
X129240749Y-113530179D01*
X129327556Y-113673777D01*
X129327560Y-113673782D01*
X129446217Y-113792439D01*
X129446222Y-113792443D01*
X129566815Y-113865343D01*
X129589822Y-113879251D01*
X129750029Y-113929173D01*
X129819653Y-113935500D01*
X130820346Y-113935499D01*
X130820353Y-113935499D01*
X130889966Y-113929174D01*
X130889969Y-113929173D01*
X130889971Y-113929173D01*
X131050178Y-113879251D01*
X131160942Y-113812292D01*
X131193777Y-113792443D01*
X131193778Y-113792441D01*
X131193783Y-113792439D01*
X131312439Y-113673783D01*
X131399251Y-113530178D01*
X131449173Y-113369971D01*
X131455500Y-113300347D01*
X131455499Y-112299654D01*
X131455499Y-112299653D01*
X131455499Y-112299645D01*
X131449174Y-112230033D01*
X131449171Y-112230022D01*
X131399252Y-112069824D01*
X131399250Y-112069820D01*
X131312443Y-111926222D01*
X131312439Y-111926217D01*
X131193782Y-111807560D01*
X131193777Y-111807556D01*
X131050180Y-111720750D01*
X131050179Y-111720749D01*
X131050178Y-111720749D01*
X130889971Y-111670827D01*
X130889969Y-111670826D01*
X130889967Y-111670826D01*
X130841221Y-111666396D01*
X130820347Y-111664500D01*
X130820344Y-111664500D01*
X129819645Y-111664500D01*
X129750033Y-111670825D01*
X129750022Y-111670828D01*
X129589824Y-111720747D01*
X129589820Y-111720749D01*
X129446222Y-111807556D01*
X129446217Y-111807560D01*
X129327560Y-111926217D01*
X129327556Y-111926222D01*
X129240750Y-112069819D01*
X129240750Y-112069820D01*
X129240749Y-112069822D01*
X129231345Y-112100000D01*
X129190826Y-112230032D01*
X129184500Y-112299655D01*
X128914996Y-112299655D01*
X128908678Y-112230124D01*
X128908676Y-112230116D01*
X128858791Y-112070029D01*
X128858790Y-112070027D01*
X128772045Y-111926532D01*
X128772042Y-111926528D01*
X128653471Y-111807957D01*
X128653467Y-111807954D01*
X128509972Y-111721209D01*
X128509970Y-111721208D01*
X128487248Y-111714128D01*
X128429101Y-111675390D01*
X128401127Y-111611365D01*
X128412209Y-111542380D01*
X128436455Y-111508066D01*
X134084203Y-105860319D01*
X134145526Y-105826834D01*
X134171884Y-105824000D01*
X143251800Y-105824000D01*
X143318839Y-105843685D01*
X143362285Y-105891705D01*
X143387715Y-105941613D01*
X143508028Y-106107213D01*
X143652786Y-106251971D01*
X143807749Y-106364556D01*
X143818390Y-106372287D01*
X143909840Y-106418883D01*
X143911080Y-106419515D01*
X143961876Y-106467490D01*
X143978671Y-106535311D01*
X143956134Y-106601446D01*
X143911080Y-106640485D01*
X143818386Y-106687715D01*
X143652786Y-106808028D01*
X143508028Y-106952786D01*
X143387715Y-107118386D01*
X143294781Y-107300776D01*
X143231522Y-107495465D01*
X143199500Y-107697648D01*
X143199500Y-107902351D01*
X143231522Y-108104534D01*
X143294781Y-108299223D01*
X143387715Y-108481613D01*
X143508028Y-108647213D01*
X143652786Y-108791971D01*
X143807749Y-108904556D01*
X143818390Y-108912287D01*
X143909840Y-108958883D01*
X143911080Y-108959515D01*
X143961876Y-109007490D01*
X143978671Y-109075311D01*
X143956134Y-109141446D01*
X143911080Y-109180485D01*
X143818386Y-109227715D01*
X143652786Y-109348028D01*
X143508028Y-109492786D01*
X143387715Y-109658386D01*
X143294781Y-109840776D01*
X143231522Y-110035465D01*
X143199500Y-110237648D01*
X143199500Y-110442351D01*
X143231522Y-110644534D01*
X143294781Y-110839223D01*
X143387715Y-111021613D01*
X143508028Y-111187213D01*
X143652786Y-111331971D01*
X143807749Y-111444556D01*
X143818390Y-111452287D01*
X143909840Y-111498883D01*
X143911080Y-111499515D01*
X143961876Y-111547490D01*
X143978671Y-111615311D01*
X143956134Y-111681446D01*
X143911080Y-111720485D01*
X143818386Y-111767715D01*
X143652786Y-111888028D01*
X143508028Y-112032786D01*
X143387715Y-112198386D01*
X143294781Y-112380776D01*
X143231522Y-112575465D01*
X143199500Y-112777648D01*
X143199500Y-112982351D01*
X143231522Y-113184534D01*
X143294781Y-113379223D01*
X143358691Y-113504653D01*
X143370379Y-113527591D01*
X143387715Y-113561613D01*
X143508028Y-113727213D01*
X143652786Y-113871971D01*
X143765078Y-113953554D01*
X143818390Y-113992287D01*
X143909840Y-114038883D01*
X143911080Y-114039515D01*
X143961876Y-114087490D01*
X143978671Y-114155311D01*
X143956134Y-114221446D01*
X143911080Y-114260485D01*
X143818386Y-114307715D01*
X143652786Y-114428028D01*
X143508028Y-114572786D01*
X143387715Y-114738386D01*
X143294781Y-114920776D01*
X143231522Y-115115465D01*
X143199500Y-115317648D01*
X143199500Y-115522351D01*
X143231522Y-115724534D01*
X143294781Y-115919223D01*
X143387715Y-116101613D01*
X143508028Y-116267213D01*
X143652786Y-116411971D01*
X143807749Y-116524556D01*
X143818390Y-116532287D01*
X143890424Y-116568990D01*
X143911629Y-116579795D01*
X143962425Y-116627770D01*
X143979220Y-116695591D01*
X143956682Y-116761726D01*
X143911629Y-116800765D01*
X143818650Y-116848140D01*
X143653105Y-116968417D01*
X143653104Y-116968417D01*
X143508417Y-117113104D01*
X143508417Y-117113105D01*
X143388140Y-117278650D01*
X143295244Y-117460970D01*
X143232009Y-117655586D01*
X143223391Y-117710000D01*
X144066988Y-117710000D01*
X144034075Y-117767007D01*
X144000000Y-117894174D01*
X144000000Y-118025826D01*
X144034075Y-118152993D01*
X144066988Y-118210000D01*
X143223391Y-118210000D01*
X143232009Y-118264413D01*
X143295244Y-118459029D01*
X143388140Y-118641349D01*
X143508417Y-118806894D01*
X143508417Y-118806895D01*
X143653104Y-118951582D01*
X143818652Y-119071861D01*
X143911628Y-119119234D01*
X143962425Y-119167208D01*
X143979220Y-119235029D01*
X143956683Y-119301164D01*
X143911630Y-119340203D01*
X143818388Y-119387713D01*
X143652786Y-119508028D01*
X143508028Y-119652786D01*
X143387715Y-119818386D01*
X143294781Y-120000776D01*
X143231522Y-120195465D01*
X143199500Y-120397648D01*
X143199500Y-120602351D01*
X143231522Y-120804534D01*
X143294781Y-120999223D01*
X143387715Y-121181613D01*
X143508028Y-121347213D01*
X143652786Y-121491971D01*
X143807749Y-121604556D01*
X143818390Y-121612287D01*
X143907212Y-121657544D01*
X144000776Y-121705218D01*
X144000778Y-121705218D01*
X144000781Y-121705220D01*
X144105137Y-121739127D01*
X144195465Y-121768477D01*
X144296557Y-121784488D01*
X144397648Y-121800500D01*
X144397649Y-121800500D01*
X144602351Y-121800500D01*
X144602352Y-121800500D01*
X144804534Y-121768477D01*
X144999219Y-121705220D01*
X145181610Y-121612287D01*
X145277901Y-121542328D01*
X145347213Y-121491971D01*
X145347215Y-121491968D01*
X145347219Y-121491966D01*
X145491966Y-121347219D01*
X145491968Y-121347215D01*
X145491971Y-121347213D01*
X145544732Y-121274590D01*
X145612287Y-121181610D01*
X145705220Y-120999219D01*
X145768477Y-120804534D01*
X145800500Y-120602352D01*
X145800500Y-120397648D01*
X145768477Y-120195466D01*
X145705220Y-120000781D01*
X145705218Y-120000778D01*
X145705218Y-120000776D01*
X145671503Y-119934607D01*
X145612287Y-119818390D01*
X145604556Y-119807749D01*
X145491971Y-119652786D01*
X145347213Y-119508028D01*
X145181611Y-119387713D01*
X145088369Y-119340203D01*
X145037574Y-119292229D01*
X145020779Y-119224407D01*
X145043317Y-119158273D01*
X145088371Y-119119234D01*
X145181347Y-119071861D01*
X145346894Y-118951582D01*
X145346895Y-118951582D01*
X145491582Y-118806895D01*
X145491582Y-118806894D01*
X145611859Y-118641349D01*
X145704755Y-118459029D01*
X145767990Y-118264413D01*
X145776609Y-118210000D01*
X144933012Y-118210000D01*
X144965925Y-118152993D01*
X145000000Y-118025826D01*
X145000000Y-117894174D01*
X144965925Y-117767007D01*
X144933012Y-117710000D01*
X145776609Y-117710000D01*
X145767990Y-117655586D01*
X145704755Y-117460970D01*
X145611859Y-117278650D01*
X145491582Y-117113105D01*
X145491582Y-117113104D01*
X145346895Y-116968417D01*
X145181349Y-116848140D01*
X145088370Y-116800765D01*
X145037574Y-116752790D01*
X145020779Y-116684969D01*
X145043316Y-116618835D01*
X145088370Y-116579795D01*
X145088920Y-116579515D01*
X145181610Y-116532287D01*
X145202770Y-116516913D01*
X145347213Y-116411971D01*
X145347215Y-116411968D01*
X145347219Y-116411966D01*
X145491966Y-116267219D01*
X145491968Y-116267215D01*
X145491971Y-116267213D01*
X145581101Y-116144534D01*
X145612287Y-116101610D01*
X145705220Y-115919219D01*
X145768477Y-115724534D01*
X145800500Y-115522352D01*
X145800500Y-115317648D01*
X145768477Y-115115466D01*
X145705220Y-114920781D01*
X145705218Y-114920778D01*
X145705218Y-114920776D01*
X145657568Y-114827259D01*
X145612287Y-114738390D01*
X145550093Y-114652786D01*
X145491971Y-114572786D01*
X145347213Y-114428028D01*
X145181614Y-114307715D01*
X145175006Y-114304348D01*
X145088917Y-114260483D01*
X145038123Y-114212511D01*
X145021328Y-114144690D01*
X145043865Y-114078555D01*
X145088917Y-114039516D01*
X145181610Y-113992287D01*
X145256732Y-113937708D01*
X145347213Y-113871971D01*
X145347215Y-113871968D01*
X145347219Y-113871966D01*
X145491966Y-113727219D01*
X145491968Y-113727215D01*
X145491971Y-113727213D01*
X145544732Y-113654590D01*
X145612287Y-113561610D01*
X145705220Y-113379219D01*
X145768477Y-113184534D01*
X145800500Y-112982352D01*
X145800500Y-112777648D01*
X145779586Y-112645606D01*
X145768477Y-112575465D01*
X145731908Y-112462917D01*
X145705220Y-112380781D01*
X145705218Y-112380778D01*
X145705218Y-112380776D01*
X145671503Y-112314607D01*
X145612287Y-112198390D01*
X145567637Y-112136934D01*
X145491971Y-112032786D01*
X145347213Y-111888028D01*
X145181614Y-111767715D01*
X145175006Y-111764348D01*
X145088917Y-111720483D01*
X145038123Y-111672511D01*
X145021328Y-111604690D01*
X145043865Y-111538555D01*
X145088917Y-111499516D01*
X145181610Y-111452287D01*
X145202770Y-111436913D01*
X145347213Y-111331971D01*
X145347215Y-111331968D01*
X145347219Y-111331966D01*
X145491966Y-111187219D01*
X145491968Y-111187215D01*
X145491971Y-111187213D01*
X145544732Y-111114590D01*
X145612287Y-111021610D01*
X145705220Y-110839219D01*
X145768477Y-110644534D01*
X145800500Y-110442352D01*
X145800500Y-110237648D01*
X145768477Y-110035466D01*
X145705220Y-109840781D01*
X145705218Y-109840778D01*
X145705218Y-109840776D01*
X145671503Y-109774607D01*
X145612287Y-109658390D01*
X145604556Y-109647749D01*
X145491971Y-109492786D01*
X145347213Y-109348028D01*
X145181614Y-109227715D01*
X145175006Y-109224348D01*
X145088917Y-109180483D01*
X145038123Y-109132511D01*
X145021328Y-109064690D01*
X145043865Y-108998555D01*
X145088917Y-108959516D01*
X145181610Y-108912287D01*
X145202770Y-108896913D01*
X145347213Y-108791971D01*
X145347215Y-108791968D01*
X145347219Y-108791966D01*
X145491966Y-108647219D01*
X145491968Y-108647215D01*
X145491971Y-108647213D01*
X145544732Y-108574590D01*
X145612287Y-108481610D01*
X145705220Y-108299219D01*
X145768477Y-108104534D01*
X145800500Y-107902352D01*
X145800500Y-107697648D01*
X145768477Y-107495466D01*
X145705220Y-107300781D01*
X145705218Y-107300778D01*
X145705218Y-107300776D01*
X145670124Y-107231902D01*
X145612287Y-107118390D01*
X145604556Y-107107749D01*
X145491971Y-106952786D01*
X145347213Y-106808028D01*
X145181614Y-106687715D01*
X145175006Y-106684348D01*
X145088917Y-106640483D01*
X145038123Y-106592511D01*
X145021328Y-106524690D01*
X145043865Y-106458555D01*
X145088917Y-106419516D01*
X145181610Y-106372287D01*
X145202770Y-106356913D01*
X145347213Y-106251971D01*
X145347215Y-106251968D01*
X145347219Y-106251966D01*
X145491966Y-106107219D01*
X145491968Y-106107215D01*
X145491971Y-106107213D01*
X145575698Y-105991971D01*
X145612287Y-105941610D01*
X145705220Y-105759219D01*
X145768477Y-105564534D01*
X145800500Y-105362352D01*
X145800500Y-105157648D01*
X145789642Y-105089095D01*
X145768477Y-104955465D01*
X145720786Y-104808689D01*
X145705220Y-104760781D01*
X145705218Y-104760778D01*
X145705218Y-104760776D01*
X145663597Y-104679091D01*
X145612287Y-104578390D01*
X145561171Y-104508034D01*
X145491971Y-104412786D01*
X145347213Y-104268028D01*
X145181614Y-104147715D01*
X145152565Y-104132914D01*
X145088917Y-104100483D01*
X145038123Y-104052511D01*
X145021328Y-103984690D01*
X145043865Y-103918555D01*
X145088917Y-103879516D01*
X145181610Y-103832287D01*
X145233233Y-103794781D01*
X145347213Y-103711971D01*
X145347215Y-103711968D01*
X145347219Y-103711966D01*
X145491966Y-103567219D01*
X145491968Y-103567215D01*
X145491971Y-103567213D01*
X145544732Y-103494590D01*
X145612287Y-103401610D01*
X145705220Y-103219219D01*
X145768477Y-103024534D01*
X145800500Y-102822352D01*
X145800500Y-102617648D01*
X145783813Y-102512292D01*
X145768477Y-102415465D01*
X145705218Y-102220776D01*
X145625248Y-102063828D01*
X145612287Y-102038390D01*
X145570514Y-101980894D01*
X145491971Y-101872786D01*
X145347213Y-101728028D01*
X145181614Y-101607715D01*
X145175006Y-101604348D01*
X145088917Y-101560483D01*
X145038123Y-101512511D01*
X145021328Y-101444690D01*
X145043865Y-101378555D01*
X145088917Y-101339516D01*
X145181610Y-101292287D01*
X145202770Y-101276913D01*
X145347213Y-101171971D01*
X145347215Y-101171968D01*
X145347219Y-101171966D01*
X145491966Y-101027219D01*
X145491968Y-101027215D01*
X145491971Y-101027213D01*
X145544732Y-100954590D01*
X145612287Y-100861610D01*
X145705220Y-100679219D01*
X145768477Y-100484534D01*
X145800500Y-100282352D01*
X145800500Y-100077648D01*
X145768477Y-99875466D01*
X145705220Y-99680781D01*
X145705218Y-99680778D01*
X145705218Y-99680776D01*
X145671503Y-99614607D01*
X145612287Y-99498390D01*
X145604556Y-99487749D01*
X145491971Y-99332786D01*
X145347213Y-99188028D01*
X145181614Y-99067715D01*
X145175006Y-99064348D01*
X145088917Y-99020483D01*
X145038123Y-98972511D01*
X145021328Y-98904690D01*
X145043865Y-98838555D01*
X145088917Y-98799516D01*
X145181610Y-98752287D01*
X145266560Y-98690568D01*
X145347213Y-98631971D01*
X145347215Y-98631968D01*
X145347219Y-98631966D01*
X145491966Y-98487219D01*
X145491968Y-98487215D01*
X145491971Y-98487213D01*
X145544732Y-98414590D01*
X145612287Y-98321610D01*
X145705220Y-98139219D01*
X145768477Y-97944534D01*
X145800500Y-97742352D01*
X145800500Y-97537648D01*
X145768477Y-97335466D01*
X145705220Y-97140781D01*
X145705218Y-97140778D01*
X145705218Y-97140776D01*
X145671503Y-97074607D01*
X145612287Y-96958390D01*
X145604556Y-96947749D01*
X145491971Y-96792786D01*
X145347213Y-96648028D01*
X145181614Y-96527715D01*
X145111462Y-96491971D01*
X145088917Y-96480483D01*
X145038123Y-96432511D01*
X145021328Y-96364690D01*
X145043865Y-96298555D01*
X145088917Y-96259516D01*
X145181610Y-96212287D01*
X145202770Y-96196913D01*
X145347213Y-96091971D01*
X145347215Y-96091968D01*
X145347219Y-96091966D01*
X145491966Y-95947219D01*
X145491968Y-95947215D01*
X145491971Y-95947213D01*
X145572446Y-95836447D01*
X145612287Y-95781610D01*
X145703624Y-95602351D01*
X145705218Y-95599223D01*
X145705218Y-95599222D01*
X145705220Y-95599219D01*
X145768477Y-95404534D01*
X145800500Y-95202352D01*
X145800500Y-94997648D01*
X145768477Y-94795466D01*
X145761527Y-94774077D01*
X145727625Y-94669737D01*
X145705220Y-94600781D01*
X145705218Y-94600778D01*
X145705218Y-94600776D01*
X145671503Y-94534607D01*
X145612287Y-94418390D01*
X145604556Y-94407749D01*
X145491971Y-94252786D01*
X145347213Y-94108028D01*
X145181614Y-93987715D01*
X145175006Y-93984348D01*
X145088917Y-93940483D01*
X145038123Y-93892511D01*
X145021328Y-93824690D01*
X145043865Y-93758555D01*
X145088917Y-93719516D01*
X145181610Y-93672287D01*
X145202770Y-93656913D01*
X145347213Y-93551971D01*
X145347215Y-93551968D01*
X145347219Y-93551966D01*
X145491966Y-93407219D01*
X145491968Y-93407215D01*
X145491971Y-93407213D01*
X145560770Y-93312518D01*
X145612287Y-93241610D01*
X145705220Y-93059219D01*
X145768477Y-92864534D01*
X145800500Y-92662352D01*
X145800500Y-92457648D01*
X145768477Y-92255466D01*
X145705220Y-92060781D01*
X145705218Y-92060778D01*
X145705218Y-92060776D01*
X145639039Y-91930894D01*
X145612287Y-91878390D01*
X145604556Y-91867749D01*
X145491971Y-91712786D01*
X145347213Y-91568028D01*
X145181614Y-91447715D01*
X145175006Y-91444348D01*
X145088917Y-91400483D01*
X145038123Y-91352511D01*
X145021328Y-91284690D01*
X145043865Y-91218555D01*
X145088917Y-91179516D01*
X145181610Y-91132287D01*
X145202770Y-91116913D01*
X145347213Y-91011971D01*
X145347215Y-91011968D01*
X145347219Y-91011966D01*
X145491966Y-90867219D01*
X145491968Y-90867215D01*
X145491971Y-90867213D01*
X145544732Y-90794590D01*
X145612287Y-90701610D01*
X145705220Y-90519219D01*
X145768477Y-90324534D01*
X145800500Y-90122352D01*
X145800500Y-89917648D01*
X145768477Y-89715466D01*
X145705220Y-89520781D01*
X145705218Y-89520778D01*
X145705218Y-89520776D01*
X145671503Y-89454607D01*
X145612287Y-89338390D01*
X145604556Y-89327749D01*
X145491971Y-89172786D01*
X145347213Y-89028028D01*
X145181614Y-88907715D01*
X145175006Y-88904348D01*
X145088917Y-88860483D01*
X145038123Y-88812511D01*
X145021328Y-88744690D01*
X145043865Y-88678555D01*
X145088917Y-88639516D01*
X145181610Y-88592287D01*
X145202770Y-88576913D01*
X145347213Y-88471971D01*
X145347215Y-88471968D01*
X145347219Y-88471966D01*
X145491966Y-88327219D01*
X145491968Y-88327215D01*
X145491971Y-88327213D01*
X145544732Y-88254590D01*
X145612287Y-88161610D01*
X145705220Y-87979219D01*
X145768477Y-87784534D01*
X145800500Y-87582352D01*
X145800500Y-87377648D01*
X145773532Y-87207379D01*
X145768477Y-87175465D01*
X145705218Y-86980776D01*
X145671503Y-86914607D01*
X145612287Y-86798390D01*
X145604556Y-86787749D01*
X145491971Y-86632786D01*
X145347213Y-86488028D01*
X145181614Y-86367715D01*
X145167098Y-86360319D01*
X145088917Y-86320483D01*
X145038123Y-86272511D01*
X145021328Y-86204690D01*
X145043865Y-86138555D01*
X145088917Y-86099516D01*
X145181610Y-86052287D01*
X145217370Y-86026306D01*
X145347213Y-85931971D01*
X145347215Y-85931968D01*
X145347219Y-85931966D01*
X145491966Y-85787219D01*
X145491968Y-85787215D01*
X145491971Y-85787213D01*
X145558628Y-85695466D01*
X145612287Y-85621610D01*
X145705220Y-85439219D01*
X145768477Y-85244534D01*
X145800500Y-85042352D01*
X145800500Y-84837648D01*
X158439500Y-84837648D01*
X158439500Y-85042351D01*
X158471522Y-85244534D01*
X158534781Y-85439223D01*
X158627715Y-85621613D01*
X158748028Y-85787213D01*
X158892786Y-85931971D01*
X159022630Y-86026306D01*
X159058390Y-86052287D01*
X159131970Y-86089778D01*
X159151080Y-86099515D01*
X159201876Y-86147490D01*
X159218671Y-86215311D01*
X159196134Y-86281446D01*
X159151080Y-86320485D01*
X159058386Y-86367715D01*
X158892786Y-86488028D01*
X158748028Y-86632786D01*
X158627715Y-86798386D01*
X158534781Y-86980776D01*
X158471522Y-87175465D01*
X158439500Y-87377648D01*
X158439500Y-87582351D01*
X158471522Y-87784534D01*
X158534781Y-87979223D01*
X158627715Y-88161613D01*
X158748028Y-88327213D01*
X158892786Y-88471971D01*
X159047749Y-88584556D01*
X159058390Y-88592287D01*
X159149840Y-88638883D01*
X159151080Y-88639515D01*
X159201876Y-88687490D01*
X159218671Y-88755311D01*
X159196134Y-88821446D01*
X159151080Y-88860485D01*
X159058386Y-88907715D01*
X158892786Y-89028028D01*
X158748028Y-89172786D01*
X158627715Y-89338386D01*
X158534781Y-89520776D01*
X158471522Y-89715465D01*
X158439500Y-89917648D01*
X158439500Y-90122351D01*
X158471522Y-90324534D01*
X158534781Y-90519223D01*
X158627715Y-90701613D01*
X158748028Y-90867213D01*
X158892786Y-91011971D01*
X159047749Y-91124556D01*
X159058390Y-91132287D01*
X159149840Y-91178883D01*
X159151080Y-91179515D01*
X159201876Y-91227490D01*
X159218671Y-91295311D01*
X159196134Y-91361446D01*
X159151080Y-91400485D01*
X159058386Y-91447715D01*
X158892786Y-91568028D01*
X158748028Y-91712786D01*
X158627715Y-91878386D01*
X158534781Y-92060776D01*
X158471522Y-92255465D01*
X158439500Y-92457648D01*
X158439500Y-92662351D01*
X158471522Y-92864534D01*
X158534781Y-93059223D01*
X158627715Y-93241613D01*
X158748028Y-93407213D01*
X158892786Y-93551971D01*
X159047749Y-93664556D01*
X159058390Y-93672287D01*
X159149840Y-93718883D01*
X159151080Y-93719515D01*
X159201876Y-93767490D01*
X159218671Y-93835311D01*
X159196134Y-93901446D01*
X159151080Y-93940485D01*
X159058386Y-93987715D01*
X158892786Y-94108028D01*
X158748028Y-94252786D01*
X158627715Y-94418386D01*
X158534781Y-94600776D01*
X158471522Y-94795465D01*
X158439500Y-94997648D01*
X158439500Y-95202351D01*
X158471522Y-95404534D01*
X158534781Y-95599223D01*
X158627715Y-95781613D01*
X158748028Y-95947213D01*
X158892786Y-96091971D01*
X159047749Y-96204556D01*
X159058390Y-96212287D01*
X159149840Y-96258883D01*
X159151080Y-96259515D01*
X159201876Y-96307490D01*
X159218671Y-96375311D01*
X159196134Y-96441446D01*
X159151080Y-96480485D01*
X159058386Y-96527715D01*
X158892786Y-96648028D01*
X158748028Y-96792786D01*
X158627715Y-96958386D01*
X158534781Y-97140776D01*
X158471522Y-97335465D01*
X158439500Y-97537648D01*
X158439500Y-97742351D01*
X158471522Y-97944534D01*
X158534781Y-98139223D01*
X158598691Y-98264653D01*
X158605243Y-98277511D01*
X158627715Y-98321613D01*
X158748028Y-98487213D01*
X158892786Y-98631971D01*
X159047749Y-98744556D01*
X159058390Y-98752287D01*
X159149840Y-98798883D01*
X159151080Y-98799515D01*
X159201876Y-98847490D01*
X159218671Y-98915311D01*
X159196134Y-98981446D01*
X159151080Y-99020485D01*
X159058386Y-99067715D01*
X158892786Y-99188028D01*
X158748028Y-99332786D01*
X158627715Y-99498386D01*
X158534781Y-99680776D01*
X158471522Y-99875465D01*
X158439500Y-100077648D01*
X158439500Y-100282351D01*
X158471522Y-100484534D01*
X158534781Y-100679223D01*
X158627715Y-100861613D01*
X158748028Y-101027213D01*
X158892786Y-101171971D01*
X159047749Y-101284556D01*
X159058390Y-101292287D01*
X159149840Y-101338883D01*
X159151080Y-101339515D01*
X159201876Y-101387490D01*
X159218671Y-101455311D01*
X159196134Y-101521446D01*
X159151080Y-101560485D01*
X159058386Y-101607715D01*
X158892786Y-101728028D01*
X158748028Y-101872786D01*
X158627715Y-102038386D01*
X158534781Y-102220776D01*
X158471522Y-102415465D01*
X158439500Y-102617648D01*
X158439500Y-102822351D01*
X158471522Y-103024534D01*
X158534781Y-103219223D01*
X158627715Y-103401613D01*
X158748028Y-103567213D01*
X158892786Y-103711971D01*
X159006767Y-103794781D01*
X159058390Y-103832287D01*
X159149840Y-103878883D01*
X159151080Y-103879515D01*
X159201876Y-103927490D01*
X159218671Y-103995311D01*
X159196134Y-104061446D01*
X159151080Y-104100485D01*
X159058386Y-104147715D01*
X158892786Y-104268028D01*
X158748028Y-104412786D01*
X158627715Y-104578386D01*
X158534781Y-104760776D01*
X158471522Y-104955465D01*
X158445054Y-105122580D01*
X158439500Y-105157648D01*
X158439500Y-105362352D01*
X158442931Y-105384015D01*
X158471522Y-105564534D01*
X158534781Y-105759223D01*
X158586293Y-105860319D01*
X158599605Y-105886446D01*
X158627715Y-105941613D01*
X158748028Y-106107213D01*
X158892786Y-106251971D01*
X159047749Y-106364556D01*
X159058390Y-106372287D01*
X159149840Y-106418883D01*
X159151080Y-106419515D01*
X159201876Y-106467490D01*
X159218671Y-106535311D01*
X159196134Y-106601446D01*
X159151080Y-106640485D01*
X159058386Y-106687715D01*
X158892786Y-106808028D01*
X158748028Y-106952786D01*
X158627715Y-107118386D01*
X158534781Y-107300776D01*
X158471522Y-107495465D01*
X158439500Y-107697648D01*
X158439500Y-107902351D01*
X158471522Y-108104534D01*
X158534781Y-108299223D01*
X158627715Y-108481613D01*
X158748028Y-108647213D01*
X158892786Y-108791971D01*
X159047749Y-108904556D01*
X159058390Y-108912287D01*
X159149840Y-108958883D01*
X159151080Y-108959515D01*
X159201876Y-109007490D01*
X159218671Y-109075311D01*
X159196134Y-109141446D01*
X159151080Y-109180485D01*
X159058386Y-109227715D01*
X158892786Y-109348028D01*
X158748028Y-109492786D01*
X158627715Y-109658386D01*
X158534781Y-109840776D01*
X158471522Y-110035465D01*
X158439500Y-110237648D01*
X158439500Y-110442351D01*
X158471522Y-110644534D01*
X158534781Y-110839223D01*
X158627715Y-111021613D01*
X158748028Y-111187213D01*
X158892786Y-111331971D01*
X159047749Y-111444556D01*
X159058390Y-111452287D01*
X159130424Y-111488990D01*
X159151629Y-111499795D01*
X159202425Y-111547770D01*
X159219220Y-111615591D01*
X159196682Y-111681726D01*
X159151629Y-111720765D01*
X159058650Y-111768140D01*
X158893105Y-111888417D01*
X158893104Y-111888417D01*
X158748417Y-112033104D01*
X158748417Y-112033105D01*
X158628140Y-112198650D01*
X158535244Y-112380970D01*
X158472009Y-112575586D01*
X158463391Y-112630000D01*
X159306988Y-112630000D01*
X159274075Y-112687007D01*
X159240000Y-112814174D01*
X159240000Y-112945826D01*
X159274075Y-113072993D01*
X159306988Y-113130000D01*
X158463391Y-113130000D01*
X158472009Y-113184413D01*
X158535244Y-113379029D01*
X158628140Y-113561349D01*
X158748417Y-113726894D01*
X158748417Y-113726895D01*
X158893104Y-113871582D01*
X159058652Y-113991861D01*
X159151628Y-114039234D01*
X159202425Y-114087208D01*
X159219220Y-114155029D01*
X159196683Y-114221164D01*
X159151630Y-114260203D01*
X159058388Y-114307713D01*
X158892786Y-114428028D01*
X158748028Y-114572786D01*
X158627715Y-114738386D01*
X158534781Y-114920776D01*
X158471522Y-115115465D01*
X158439500Y-115317648D01*
X158439500Y-115522351D01*
X158471522Y-115724534D01*
X158534781Y-115919223D01*
X158627715Y-116101613D01*
X158748028Y-116267213D01*
X158892786Y-116411971D01*
X159047749Y-116524556D01*
X159058390Y-116532287D01*
X159149840Y-116578883D01*
X159151080Y-116579515D01*
X159201876Y-116627490D01*
X159218671Y-116695311D01*
X159196134Y-116761446D01*
X159151080Y-116800485D01*
X159058386Y-116847715D01*
X158892786Y-116968028D01*
X158748028Y-117112786D01*
X158627715Y-117278386D01*
X158534781Y-117460776D01*
X158471522Y-117655465D01*
X158439500Y-117857648D01*
X158439500Y-118062351D01*
X158471522Y-118264534D01*
X158534781Y-118459223D01*
X158627715Y-118641613D01*
X158748028Y-118807213D01*
X158892784Y-118951969D01*
X158929068Y-118978330D01*
X158971735Y-119033659D01*
X158977715Y-119103273D01*
X158945109Y-119165068D01*
X158884271Y-119199426D01*
X158869440Y-119201938D01*
X158832519Y-119205907D01*
X158697671Y-119256202D01*
X158697664Y-119256206D01*
X158582455Y-119342452D01*
X158582452Y-119342455D01*
X158496206Y-119457664D01*
X158496202Y-119457671D01*
X158445908Y-119592517D01*
X158439501Y-119652116D01*
X158439501Y-119652123D01*
X158439500Y-119652135D01*
X158439500Y-121347870D01*
X158439501Y-121347876D01*
X158445908Y-121407483D01*
X158496202Y-121542328D01*
X158496206Y-121542335D01*
X158582452Y-121657544D01*
X158582455Y-121657547D01*
X158697664Y-121743793D01*
X158697671Y-121743797D01*
X158832517Y-121794091D01*
X158832516Y-121794091D01*
X158839444Y-121794835D01*
X158892127Y-121800500D01*
X160587872Y-121800499D01*
X160647483Y-121794091D01*
X160782331Y-121743796D01*
X160897546Y-121657546D01*
X160983796Y-121542331D01*
X161034091Y-121407483D01*
X161040500Y-121347873D01*
X161040499Y-119652128D01*
X161034091Y-119592517D01*
X160983796Y-119457669D01*
X160983795Y-119457668D01*
X160983793Y-119457664D01*
X160897547Y-119342455D01*
X160897544Y-119342452D01*
X160782335Y-119256206D01*
X160782328Y-119256202D01*
X160647482Y-119205908D01*
X160647483Y-119205908D01*
X160610560Y-119201939D01*
X160546009Y-119175201D01*
X160506160Y-119117809D01*
X160503667Y-119047984D01*
X160539319Y-118987895D01*
X160550930Y-118978331D01*
X160587219Y-118951966D01*
X160731966Y-118807219D01*
X160731968Y-118807215D01*
X160731971Y-118807213D01*
X160827307Y-118675992D01*
X160852287Y-118641610D01*
X160945220Y-118459219D01*
X161008477Y-118264534D01*
X161040500Y-118062352D01*
X161040500Y-117981902D01*
X187799500Y-117981902D01*
X187799500Y-118218097D01*
X187836446Y-118451368D01*
X187909433Y-118675996D01*
X187976130Y-118806895D01*
X188016657Y-118886433D01*
X188155483Y-119077510D01*
X188322490Y-119244517D01*
X188513567Y-119383343D01*
X188522144Y-119387713D01*
X188724003Y-119490566D01*
X188724005Y-119490566D01*
X188724008Y-119490568D01*
X188777763Y-119508034D01*
X188948631Y-119563553D01*
X189181903Y-119600500D01*
X189181908Y-119600500D01*
X189418097Y-119600500D01*
X189651368Y-119563553D01*
X189875992Y-119490568D01*
X190086433Y-119383343D01*
X190277510Y-119244517D01*
X190444517Y-119077510D01*
X190583343Y-118886433D01*
X190690568Y-118675992D01*
X190763553Y-118451368D01*
X190767583Y-118425925D01*
X190800500Y-118218097D01*
X190800500Y-117981902D01*
X194299500Y-117981902D01*
X194299500Y-118218097D01*
X194336446Y-118451368D01*
X194409433Y-118675996D01*
X194476130Y-118806895D01*
X194516657Y-118886433D01*
X194655483Y-119077510D01*
X194822490Y-119244517D01*
X195013567Y-119383343D01*
X195022144Y-119387713D01*
X195224003Y-119490566D01*
X195224005Y-119490566D01*
X195224008Y-119490568D01*
X195277763Y-119508034D01*
X195448631Y-119563553D01*
X195681903Y-119600500D01*
X195681908Y-119600500D01*
X195918097Y-119600500D01*
X196151368Y-119563553D01*
X196375992Y-119490568D01*
X196586433Y-119383343D01*
X196777510Y-119244517D01*
X196944517Y-119077510D01*
X197083343Y-118886433D01*
X197190568Y-118675992D01*
X197263553Y-118451368D01*
X197267583Y-118425925D01*
X197300500Y-118218097D01*
X197300500Y-117981902D01*
X197263553Y-117748631D01*
X197190566Y-117524003D01*
X197083342Y-117313566D01*
X197057782Y-117278386D01*
X196944517Y-117122490D01*
X196777510Y-116955483D01*
X196586433Y-116816657D01*
X196554694Y-116800485D01*
X196375996Y-116709433D01*
X196151368Y-116636446D01*
X195918097Y-116599500D01*
X195918092Y-116599500D01*
X195681908Y-116599500D01*
X195681903Y-116599500D01*
X195448631Y-116636446D01*
X195224003Y-116709433D01*
X195013566Y-116816657D01*
X194904550Y-116895862D01*
X194822490Y-116955483D01*
X194822488Y-116955485D01*
X194822487Y-116955485D01*
X194655485Y-117122487D01*
X194655485Y-117122488D01*
X194655483Y-117122490D01*
X194595862Y-117204550D01*
X194516657Y-117313566D01*
X194409433Y-117524003D01*
X194336446Y-117748631D01*
X194299500Y-117981902D01*
X190800500Y-117981902D01*
X190763553Y-117748631D01*
X190690566Y-117524003D01*
X190583342Y-117313566D01*
X190557782Y-117278386D01*
X190444517Y-117122490D01*
X190277510Y-116955483D01*
X190086433Y-116816657D01*
X190054694Y-116800485D01*
X189875996Y-116709433D01*
X189651368Y-116636446D01*
X189418097Y-116599500D01*
X189418092Y-116599500D01*
X189181908Y-116599500D01*
X189181903Y-116599500D01*
X188948631Y-116636446D01*
X188724003Y-116709433D01*
X188513566Y-116816657D01*
X188404550Y-116895862D01*
X188322490Y-116955483D01*
X188322488Y-116955485D01*
X188322487Y-116955485D01*
X188155485Y-117122487D01*
X188155485Y-117122488D01*
X188155483Y-117122490D01*
X188095862Y-117204550D01*
X188016657Y-117313566D01*
X187909433Y-117524003D01*
X187836446Y-117748631D01*
X187799500Y-117981902D01*
X161040500Y-117981902D01*
X161040500Y-117857648D01*
X161023233Y-117748631D01*
X161008477Y-117655465D01*
X160945218Y-117460776D01*
X160911503Y-117394607D01*
X160852287Y-117278390D01*
X160844556Y-117267749D01*
X160731971Y-117112786D01*
X160587213Y-116968028D01*
X160421614Y-116847715D01*
X160360659Y-116816657D01*
X160328917Y-116800483D01*
X160278123Y-116752511D01*
X160261328Y-116684690D01*
X160283865Y-116618555D01*
X160328917Y-116579516D01*
X160421610Y-116532287D01*
X160442770Y-116516913D01*
X160587213Y-116411971D01*
X160587215Y-116411968D01*
X160587219Y-116411966D01*
X160731966Y-116267219D01*
X160731968Y-116267215D01*
X160731971Y-116267213D01*
X160821101Y-116144534D01*
X160852287Y-116101610D01*
X160945220Y-115919219D01*
X161008477Y-115724534D01*
X161040500Y-115522352D01*
X161040500Y-115317648D01*
X161008477Y-115115466D01*
X161002688Y-115097648D01*
X163499500Y-115097648D01*
X163499500Y-115302351D01*
X163531522Y-115504534D01*
X163594781Y-115699223D01*
X163648441Y-115804534D01*
X163687585Y-115881359D01*
X163687715Y-115881613D01*
X163808028Y-116047213D01*
X163952786Y-116191971D01*
X164073226Y-116279474D01*
X164118390Y-116312287D01*
X164234607Y-116371503D01*
X164300776Y-116405218D01*
X164300778Y-116405218D01*
X164300781Y-116405220D01*
X164405137Y-116439127D01*
X164495465Y-116468477D01*
X164596557Y-116484488D01*
X164697648Y-116500500D01*
X164697649Y-116500500D01*
X164902351Y-116500500D01*
X164902352Y-116500500D01*
X165104534Y-116468477D01*
X165299219Y-116405220D01*
X165481610Y-116312287D01*
X165574590Y-116244732D01*
X165647213Y-116191971D01*
X165647215Y-116191968D01*
X165647219Y-116191966D01*
X165791966Y-116047219D01*
X165791968Y-116047215D01*
X165791971Y-116047213D01*
X165844732Y-115974590D01*
X165912287Y-115881610D01*
X166005220Y-115699219D01*
X166068477Y-115504534D01*
X166100500Y-115302352D01*
X166100500Y-115097682D01*
X168500000Y-115097682D01*
X168500000Y-115302317D01*
X168532009Y-115504417D01*
X168595244Y-115699031D01*
X168688141Y-115881350D01*
X168688147Y-115881359D01*
X168720523Y-115925921D01*
X168720524Y-115925922D01*
X169400000Y-115246446D01*
X169400000Y-115252661D01*
X169427259Y-115354394D01*
X169479920Y-115445606D01*
X169554394Y-115520080D01*
X169645606Y-115572741D01*
X169747339Y-115600000D01*
X169753553Y-115600000D01*
X169074076Y-116279474D01*
X169118650Y-116311859D01*
X169300968Y-116404755D01*
X169495582Y-116467990D01*
X169697683Y-116500000D01*
X169902317Y-116500000D01*
X170104417Y-116467990D01*
X170299031Y-116404755D01*
X170481349Y-116311859D01*
X170525921Y-116279474D01*
X169846447Y-115600000D01*
X169852661Y-115600000D01*
X169954394Y-115572741D01*
X170045606Y-115520080D01*
X170120080Y-115445606D01*
X170172741Y-115354394D01*
X170200000Y-115252661D01*
X170200000Y-115246448D01*
X170879474Y-115925922D01*
X170879474Y-115925921D01*
X170911859Y-115881349D01*
X171004755Y-115699031D01*
X171067990Y-115504417D01*
X171084901Y-115397648D01*
X172789500Y-115397648D01*
X172789500Y-115602351D01*
X172821522Y-115804534D01*
X172884781Y-115999223D01*
X172977715Y-116181613D01*
X173098028Y-116347213D01*
X173242786Y-116491971D01*
X173363668Y-116579795D01*
X173408390Y-116612287D01*
X173524607Y-116671503D01*
X173590776Y-116705218D01*
X173590778Y-116705218D01*
X173590781Y-116705220D01*
X173695137Y-116739127D01*
X173785465Y-116768477D01*
X173886557Y-116784488D01*
X173987648Y-116800500D01*
X173987649Y-116800500D01*
X174192351Y-116800500D01*
X174192352Y-116800500D01*
X174394534Y-116768477D01*
X174589219Y-116705220D01*
X174771610Y-116612287D01*
X174864590Y-116544732D01*
X174937213Y-116491971D01*
X174937215Y-116491968D01*
X174937219Y-116491966D01*
X175081966Y-116347219D01*
X175081968Y-116347215D01*
X175081971Y-116347213D01*
X175194762Y-116191967D01*
X175202287Y-116181610D01*
X175295220Y-115999219D01*
X175358477Y-115804534D01*
X175390500Y-115602352D01*
X175390500Y-115397648D01*
X180409500Y-115397648D01*
X180409500Y-115602351D01*
X180441522Y-115804534D01*
X180504781Y-115999223D01*
X180597715Y-116181613D01*
X180718028Y-116347213D01*
X180862786Y-116491971D01*
X180983668Y-116579795D01*
X181028390Y-116612287D01*
X181144607Y-116671503D01*
X181210776Y-116705218D01*
X181210778Y-116705218D01*
X181210781Y-116705220D01*
X181315137Y-116739127D01*
X181405465Y-116768477D01*
X181506557Y-116784488D01*
X181607648Y-116800500D01*
X181607649Y-116800500D01*
X181812351Y-116800500D01*
X181812352Y-116800500D01*
X182014534Y-116768477D01*
X182209219Y-116705220D01*
X182391610Y-116612287D01*
X182484590Y-116544732D01*
X182557213Y-116491971D01*
X182557215Y-116491968D01*
X182557219Y-116491966D01*
X182701966Y-116347219D01*
X182701968Y-116347215D01*
X182701971Y-116347213D01*
X182814762Y-116191967D01*
X182822287Y-116181610D01*
X182915220Y-115999219D01*
X182978477Y-115804534D01*
X183010500Y-115602352D01*
X183010500Y-115397648D01*
X182978477Y-115195466D01*
X182915220Y-115000781D01*
X182915218Y-115000778D01*
X182915218Y-115000776D01*
X182829066Y-114831694D01*
X182822285Y-114818386D01*
X182701971Y-114652786D01*
X182557213Y-114508028D01*
X182391613Y-114387715D01*
X182391612Y-114387714D01*
X182391610Y-114387713D01*
X182323052Y-114352781D01*
X182209223Y-114294781D01*
X182014534Y-114231522D01*
X181839995Y-114203878D01*
X181812352Y-114199500D01*
X181607648Y-114199500D01*
X181583329Y-114203351D01*
X181405465Y-114231522D01*
X181210776Y-114294781D01*
X181028386Y-114387715D01*
X180862786Y-114508028D01*
X180718028Y-114652786D01*
X180597715Y-114818386D01*
X180504781Y-115000776D01*
X180441522Y-115195465D01*
X180409500Y-115397648D01*
X175390500Y-115397648D01*
X175358477Y-115195466D01*
X175295220Y-115000781D01*
X175295218Y-115000778D01*
X175295218Y-115000776D01*
X175241559Y-114895466D01*
X175202287Y-114818390D01*
X175188926Y-114800000D01*
X175081971Y-114652786D01*
X174937213Y-114508028D01*
X174771613Y-114387715D01*
X174771612Y-114387714D01*
X174771610Y-114387713D01*
X174703052Y-114352781D01*
X174589223Y-114294781D01*
X174394534Y-114231522D01*
X174219995Y-114203878D01*
X174192352Y-114199500D01*
X173987648Y-114199500D01*
X173963329Y-114203351D01*
X173785465Y-114231522D01*
X173590776Y-114294781D01*
X173408386Y-114387715D01*
X173242786Y-114508028D01*
X173098028Y-114652786D01*
X172977715Y-114818386D01*
X172884781Y-115000776D01*
X172821522Y-115195465D01*
X172789500Y-115397648D01*
X171084901Y-115397648D01*
X171088745Y-115373378D01*
X171100000Y-115302317D01*
X171100000Y-115097682D01*
X171067990Y-114895582D01*
X171004755Y-114700968D01*
X170911859Y-114518650D01*
X170879474Y-114474077D01*
X170879474Y-114474076D01*
X170200000Y-115153551D01*
X170200000Y-115147339D01*
X170172741Y-115045606D01*
X170120080Y-114954394D01*
X170045606Y-114879920D01*
X169954394Y-114827259D01*
X169852661Y-114800000D01*
X169846446Y-114800000D01*
X170525922Y-114120524D01*
X170525921Y-114120523D01*
X170481359Y-114088147D01*
X170481350Y-114088141D01*
X170299031Y-113995244D01*
X170104417Y-113932009D01*
X169902317Y-113900000D01*
X169697683Y-113900000D01*
X169495582Y-113932009D01*
X169300968Y-113995244D01*
X169118644Y-114088143D01*
X169074077Y-114120523D01*
X169074077Y-114120524D01*
X169753554Y-114800000D01*
X169747339Y-114800000D01*
X169645606Y-114827259D01*
X169554394Y-114879920D01*
X169479920Y-114954394D01*
X169427259Y-115045606D01*
X169400000Y-115147339D01*
X169400000Y-115153553D01*
X168720524Y-114474077D01*
X168720523Y-114474077D01*
X168688143Y-114518644D01*
X168595244Y-114700968D01*
X168532009Y-114895582D01*
X168500000Y-115097682D01*
X166100500Y-115097682D01*
X166100500Y-115097648D01*
X166083466Y-114990102D01*
X166068477Y-114895465D01*
X166017440Y-114738390D01*
X166005220Y-114700781D01*
X166005218Y-114700778D01*
X166005218Y-114700776D01*
X165940003Y-114572786D01*
X165912287Y-114518390D01*
X165880092Y-114474077D01*
X165791971Y-114352786D01*
X165647213Y-114208028D01*
X165481613Y-114087715D01*
X165481612Y-114087714D01*
X165481610Y-114087713D01*
X165424653Y-114058691D01*
X165299223Y-113994781D01*
X165104534Y-113931522D01*
X164929995Y-113903878D01*
X164902352Y-113899500D01*
X164697648Y-113899500D01*
X164673329Y-113903351D01*
X164495465Y-113931522D01*
X164300776Y-113994781D01*
X164118386Y-114087715D01*
X163952786Y-114208028D01*
X163808028Y-114352786D01*
X163687715Y-114518386D01*
X163594781Y-114700776D01*
X163531522Y-114895465D01*
X163499500Y-115097648D01*
X161002688Y-115097648D01*
X160945220Y-114920781D01*
X160945218Y-114920778D01*
X160945218Y-114920776D01*
X160897568Y-114827259D01*
X160852287Y-114738390D01*
X160790093Y-114652786D01*
X160731971Y-114572786D01*
X160587213Y-114428028D01*
X160421611Y-114307713D01*
X160328369Y-114260203D01*
X160277574Y-114212229D01*
X160260779Y-114144407D01*
X160283317Y-114078273D01*
X160328371Y-114039234D01*
X160421347Y-113991861D01*
X160586894Y-113871582D01*
X160586895Y-113871582D01*
X160731582Y-113726895D01*
X160731582Y-113726894D01*
X160851859Y-113561349D01*
X160892317Y-113481947D01*
X187800000Y-113481947D01*
X187800000Y-113718052D01*
X187836934Y-113951247D01*
X187909897Y-114175802D01*
X188017087Y-114386174D01*
X188077338Y-114469104D01*
X188077340Y-114469105D01*
X188776212Y-113770233D01*
X188787482Y-113812292D01*
X188859890Y-113937708D01*
X188962292Y-114040110D01*
X189087708Y-114112518D01*
X189129765Y-114123787D01*
X188430893Y-114822658D01*
X188513828Y-114882914D01*
X188724197Y-114990102D01*
X188948752Y-115063065D01*
X188948751Y-115063065D01*
X189181948Y-115100000D01*
X189418052Y-115100000D01*
X189651247Y-115063065D01*
X189875802Y-114990102D01*
X190086163Y-114882918D01*
X190086169Y-114882914D01*
X190169104Y-114822658D01*
X190169105Y-114822658D01*
X189470233Y-114123787D01*
X189512292Y-114112518D01*
X189637708Y-114040110D01*
X189740110Y-113937708D01*
X189812518Y-113812292D01*
X189823787Y-113770234D01*
X190522658Y-114469105D01*
X190522658Y-114469104D01*
X190582914Y-114386169D01*
X190582918Y-114386163D01*
X190690102Y-114175802D01*
X190763065Y-113951247D01*
X190800000Y-113718052D01*
X190800000Y-113481947D01*
X194300000Y-113481947D01*
X194300000Y-113718052D01*
X194336934Y-113951247D01*
X194409897Y-114175802D01*
X194517087Y-114386174D01*
X194577338Y-114469104D01*
X194577340Y-114469105D01*
X195276212Y-113770233D01*
X195287482Y-113812292D01*
X195359890Y-113937708D01*
X195462292Y-114040110D01*
X195587708Y-114112518D01*
X195629765Y-114123787D01*
X194930893Y-114822658D01*
X195013828Y-114882914D01*
X195224197Y-114990102D01*
X195448752Y-115063065D01*
X195448751Y-115063065D01*
X195681948Y-115100000D01*
X195918052Y-115100000D01*
X196151247Y-115063065D01*
X196375802Y-114990102D01*
X196586163Y-114882918D01*
X196586169Y-114882914D01*
X196669104Y-114822658D01*
X196669105Y-114822658D01*
X195970233Y-114123787D01*
X196012292Y-114112518D01*
X196137708Y-114040110D01*
X196240110Y-113937708D01*
X196312518Y-113812292D01*
X196323787Y-113770233D01*
X197022658Y-114469105D01*
X197022658Y-114469104D01*
X197082914Y-114386169D01*
X197082918Y-114386163D01*
X197190102Y-114175802D01*
X197263065Y-113951247D01*
X197300000Y-113718052D01*
X197300000Y-113481947D01*
X197263065Y-113248752D01*
X197190102Y-113024197D01*
X197082914Y-112813828D01*
X197022658Y-112730894D01*
X197022658Y-112730893D01*
X196323787Y-113429765D01*
X196312518Y-113387708D01*
X196240110Y-113262292D01*
X196137708Y-113159890D01*
X196012292Y-113087482D01*
X195970234Y-113076212D01*
X196669105Y-112377340D01*
X196669104Y-112377338D01*
X196586174Y-112317087D01*
X196375802Y-112209897D01*
X196151247Y-112136934D01*
X196151248Y-112136934D01*
X195918052Y-112100000D01*
X195681948Y-112100000D01*
X195448752Y-112136934D01*
X195224197Y-112209897D01*
X195013830Y-112317084D01*
X194930894Y-112377340D01*
X195629766Y-113076212D01*
X195587708Y-113087482D01*
X195462292Y-113159890D01*
X195359890Y-113262292D01*
X195287482Y-113387708D01*
X195276212Y-113429765D01*
X194577340Y-112730894D01*
X194517084Y-112813830D01*
X194409897Y-113024197D01*
X194336934Y-113248752D01*
X194300000Y-113481947D01*
X190800000Y-113481947D01*
X190763065Y-113248752D01*
X190690102Y-113024197D01*
X190582914Y-112813828D01*
X190522658Y-112730894D01*
X190522658Y-112730893D01*
X189823787Y-113429765D01*
X189812518Y-113387708D01*
X189740110Y-113262292D01*
X189637708Y-113159890D01*
X189512292Y-113087482D01*
X189470234Y-113076212D01*
X190169105Y-112377340D01*
X190169104Y-112377339D01*
X190086174Y-112317087D01*
X189875802Y-112209897D01*
X189651247Y-112136934D01*
X189651248Y-112136934D01*
X189418052Y-112100000D01*
X189181948Y-112100000D01*
X188948752Y-112136934D01*
X188724197Y-112209897D01*
X188513830Y-112317084D01*
X188430894Y-112377340D01*
X189129766Y-113076212D01*
X189087708Y-113087482D01*
X188962292Y-113159890D01*
X188859890Y-113262292D01*
X188787482Y-113387708D01*
X188776212Y-113429766D01*
X188077340Y-112730894D01*
X188017084Y-112813830D01*
X187909897Y-113024197D01*
X187836934Y-113248752D01*
X187800000Y-113481947D01*
X160892317Y-113481947D01*
X160923483Y-113420780D01*
X160944755Y-113379029D01*
X161007990Y-113184413D01*
X161016609Y-113130000D01*
X160173012Y-113130000D01*
X160205925Y-113072993D01*
X160240000Y-112945826D01*
X160240000Y-112814174D01*
X160205925Y-112687007D01*
X160173012Y-112630000D01*
X161016609Y-112630000D01*
X161007990Y-112575586D01*
X160971382Y-112462917D01*
X160944755Y-112380970D01*
X160851859Y-112198650D01*
X160731582Y-112033105D01*
X160731582Y-112033104D01*
X160586895Y-111888417D01*
X160421349Y-111768140D01*
X160328370Y-111720765D01*
X160277574Y-111672790D01*
X160260779Y-111604969D01*
X160283316Y-111538835D01*
X160328370Y-111499795D01*
X160328920Y-111499515D01*
X160421610Y-111452287D01*
X160442770Y-111436913D01*
X160587213Y-111331971D01*
X160587215Y-111331968D01*
X160587219Y-111331966D01*
X160731966Y-111187219D01*
X160731968Y-111187215D01*
X160731971Y-111187213D01*
X160784732Y-111114590D01*
X160852287Y-111021610D01*
X160945220Y-110839219D01*
X161008477Y-110644534D01*
X161040500Y-110442352D01*
X161040500Y-110237648D01*
X161008477Y-110035466D01*
X160945220Y-109840781D01*
X160945218Y-109840778D01*
X160945218Y-109840776D01*
X160911503Y-109774607D01*
X160852287Y-109658390D01*
X160844556Y-109647749D01*
X160731971Y-109492786D01*
X160587213Y-109348028D01*
X160421614Y-109227715D01*
X160415006Y-109224348D01*
X160328917Y-109180483D01*
X160278123Y-109132511D01*
X160261328Y-109064690D01*
X160283865Y-108998555D01*
X160328917Y-108959516D01*
X160421610Y-108912287D01*
X160442770Y-108896913D01*
X160587213Y-108791971D01*
X160587215Y-108791968D01*
X160587219Y-108791966D01*
X160731966Y-108647219D01*
X160731968Y-108647215D01*
X160731971Y-108647213D01*
X160784732Y-108574590D01*
X160852287Y-108481610D01*
X160945220Y-108299219D01*
X161008477Y-108104534D01*
X161040500Y-107902352D01*
X161040500Y-107697648D01*
X161008477Y-107495466D01*
X160945220Y-107300781D01*
X160910124Y-107231902D01*
X187849500Y-107231902D01*
X187849500Y-107468097D01*
X187886446Y-107701368D01*
X187959433Y-107925996D01*
X188066657Y-108136433D01*
X188205483Y-108327510D01*
X188372490Y-108494517D01*
X188563567Y-108633343D01*
X188662991Y-108684002D01*
X188774003Y-108740566D01*
X188774005Y-108740566D01*
X188774008Y-108740568D01*
X188894412Y-108779689D01*
X188998631Y-108813553D01*
X189231903Y-108850500D01*
X189231908Y-108850500D01*
X189468097Y-108850500D01*
X189701368Y-108813553D01*
X189767790Y-108791971D01*
X189925992Y-108740568D01*
X190136433Y-108633343D01*
X190327510Y-108494517D01*
X190494517Y-108327510D01*
X190633343Y-108136433D01*
X190740568Y-107925992D01*
X190813553Y-107701368D01*
X190817936Y-107673693D01*
X190850500Y-107468097D01*
X190850500Y-107231902D01*
X194349500Y-107231902D01*
X194349500Y-107468097D01*
X194386446Y-107701368D01*
X194459433Y-107925996D01*
X194566657Y-108136433D01*
X194705483Y-108327510D01*
X194872490Y-108494517D01*
X195063567Y-108633343D01*
X195162991Y-108684002D01*
X195274003Y-108740566D01*
X195274005Y-108740566D01*
X195274008Y-108740568D01*
X195394412Y-108779689D01*
X195498631Y-108813553D01*
X195731903Y-108850500D01*
X195731908Y-108850500D01*
X195968097Y-108850500D01*
X196201368Y-108813553D01*
X196267790Y-108791971D01*
X196425992Y-108740568D01*
X196636433Y-108633343D01*
X196827510Y-108494517D01*
X196994517Y-108327510D01*
X197133343Y-108136433D01*
X197240568Y-107925992D01*
X197313553Y-107701368D01*
X197317936Y-107673693D01*
X197350500Y-107468097D01*
X197350500Y-107231902D01*
X197313553Y-106998631D01*
X197279689Y-106894412D01*
X197240568Y-106774008D01*
X197240566Y-106774005D01*
X197240566Y-106774003D01*
X197158167Y-106612287D01*
X197133343Y-106563567D01*
X196994517Y-106372490D01*
X196827510Y-106205483D01*
X196636433Y-106066657D01*
X196425996Y-105959433D01*
X196201368Y-105886446D01*
X195968097Y-105849500D01*
X195968092Y-105849500D01*
X195731908Y-105849500D01*
X195731903Y-105849500D01*
X195498631Y-105886446D01*
X195274003Y-105959433D01*
X195063566Y-106066657D01*
X194954550Y-106145862D01*
X194872490Y-106205483D01*
X194872488Y-106205485D01*
X194872487Y-106205485D01*
X194705485Y-106372487D01*
X194705485Y-106372488D01*
X194705483Y-106372490D01*
X194695087Y-106386799D01*
X194566657Y-106563566D01*
X194459433Y-106774003D01*
X194386446Y-106998631D01*
X194349500Y-107231902D01*
X190850500Y-107231902D01*
X190813553Y-106998631D01*
X190779689Y-106894412D01*
X190740568Y-106774008D01*
X190740566Y-106774005D01*
X190740566Y-106774003D01*
X190658167Y-106612287D01*
X190633343Y-106563567D01*
X190494517Y-106372490D01*
X190327510Y-106205483D01*
X190136433Y-106066657D01*
X189925996Y-105959433D01*
X189701368Y-105886446D01*
X189468097Y-105849500D01*
X189468092Y-105849500D01*
X189231908Y-105849500D01*
X189231903Y-105849500D01*
X188998631Y-105886446D01*
X188774003Y-105959433D01*
X188563566Y-106066657D01*
X188454550Y-106145862D01*
X188372490Y-106205483D01*
X188372488Y-106205485D01*
X188372487Y-106205485D01*
X188205485Y-106372487D01*
X188205485Y-106372488D01*
X188205483Y-106372490D01*
X188195087Y-106386799D01*
X188066657Y-106563566D01*
X187959433Y-106774003D01*
X187886446Y-106998631D01*
X187849500Y-107231902D01*
X160910124Y-107231902D01*
X160852287Y-107118390D01*
X160844556Y-107107749D01*
X160731971Y-106952786D01*
X160587213Y-106808028D01*
X160421614Y-106687715D01*
X160415006Y-106684348D01*
X160328917Y-106640483D01*
X160278123Y-106592511D01*
X160261328Y-106524690D01*
X160283865Y-106458555D01*
X160328917Y-106419516D01*
X160421610Y-106372287D01*
X160442770Y-106356913D01*
X160587213Y-106251971D01*
X160587215Y-106251968D01*
X160587219Y-106251966D01*
X160731966Y-106107219D01*
X160731968Y-106107215D01*
X160731971Y-106107213D01*
X160815698Y-105991971D01*
X160852287Y-105941610D01*
X160945220Y-105759219D01*
X161008477Y-105564534D01*
X161040500Y-105362352D01*
X161040500Y-105157648D01*
X161008477Y-104955466D01*
X161008475Y-104955462D01*
X161008475Y-104955457D01*
X161000562Y-104931105D01*
X161000559Y-104931095D01*
X160989691Y-104897648D01*
X163399500Y-104897648D01*
X163399500Y-105102352D01*
X163402704Y-105122580D01*
X163431522Y-105304534D01*
X163494781Y-105499223D01*
X163587715Y-105681613D01*
X163708028Y-105847213D01*
X163852786Y-105991971D01*
X163955585Y-106066657D01*
X164018390Y-106112287D01*
X164134607Y-106171503D01*
X164200776Y-106205218D01*
X164200778Y-106205218D01*
X164200781Y-106205220D01*
X164305137Y-106239127D01*
X164395465Y-106268477D01*
X164477171Y-106281418D01*
X164597648Y-106300500D01*
X164597649Y-106300500D01*
X164802351Y-106300500D01*
X164802352Y-106300500D01*
X165004534Y-106268477D01*
X165057805Y-106251167D01*
X165073015Y-106250733D01*
X165087275Y-106245415D01*
X165107230Y-106249756D01*
X165127643Y-106249173D01*
X165141729Y-106257260D01*
X165155548Y-106260267D01*
X165183802Y-106281418D01*
X165284841Y-106382457D01*
X165284851Y-106382468D01*
X165289181Y-106386798D01*
X165289182Y-106386799D01*
X165394191Y-106491808D01*
X165513169Y-106560500D01*
X165522799Y-106566060D01*
X165666242Y-106604495D01*
X165666243Y-106604495D01*
X173463327Y-106604495D01*
X173519622Y-106618010D01*
X173690776Y-106705218D01*
X173690778Y-106705218D01*
X173690781Y-106705220D01*
X173795137Y-106739127D01*
X173885465Y-106768477D01*
X173986557Y-106784488D01*
X174087648Y-106800500D01*
X174087649Y-106800500D01*
X174292351Y-106800500D01*
X174292352Y-106800500D01*
X174494534Y-106768477D01*
X174689219Y-106705220D01*
X174871610Y-106612287D01*
X174982773Y-106531523D01*
X175037213Y-106491971D01*
X175037215Y-106491968D01*
X175037219Y-106491966D01*
X175181966Y-106347219D01*
X175181968Y-106347215D01*
X175181971Y-106347213D01*
X175245140Y-106260267D01*
X175302287Y-106181610D01*
X175395220Y-105999219D01*
X175458477Y-105804534D01*
X175490500Y-105602352D01*
X175490500Y-105397648D01*
X180509500Y-105397648D01*
X180509500Y-105602351D01*
X180541522Y-105804534D01*
X180604781Y-105999223D01*
X180697715Y-106181613D01*
X180818028Y-106347213D01*
X180962786Y-106491971D01*
X181117664Y-106604494D01*
X181128390Y-106612287D01*
X181244607Y-106671503D01*
X181310776Y-106705218D01*
X181310778Y-106705218D01*
X181310781Y-106705220D01*
X181415137Y-106739127D01*
X181505465Y-106768477D01*
X181606557Y-106784488D01*
X181707648Y-106800500D01*
X181707649Y-106800500D01*
X181912351Y-106800500D01*
X181912352Y-106800500D01*
X182114534Y-106768477D01*
X182309219Y-106705220D01*
X182491610Y-106612287D01*
X182602773Y-106531523D01*
X182657213Y-106491971D01*
X182657215Y-106491968D01*
X182657219Y-106491966D01*
X182801966Y-106347219D01*
X182801968Y-106347215D01*
X182801971Y-106347213D01*
X182865140Y-106260267D01*
X182922287Y-106181610D01*
X183015220Y-105999219D01*
X183078477Y-105804534D01*
X183110500Y-105602352D01*
X183110500Y-105397648D01*
X183078477Y-105195466D01*
X183053175Y-105117596D01*
X183015218Y-105000776D01*
X182936154Y-104845606D01*
X182922287Y-104818390D01*
X182880432Y-104760781D01*
X182801971Y-104652786D01*
X182657213Y-104508028D01*
X182491613Y-104387715D01*
X182491612Y-104387714D01*
X182491610Y-104387713D01*
X182417594Y-104350000D01*
X182309223Y-104294781D01*
X182114534Y-104231522D01*
X181939995Y-104203878D01*
X181912352Y-104199500D01*
X181707648Y-104199500D01*
X181683329Y-104203351D01*
X181505465Y-104231522D01*
X181310776Y-104294781D01*
X181128386Y-104387715D01*
X180962786Y-104508028D01*
X180818028Y-104652786D01*
X180697715Y-104818386D01*
X180604781Y-105000776D01*
X180541522Y-105195465D01*
X180509500Y-105397648D01*
X175490500Y-105397648D01*
X175458477Y-105195466D01*
X175433175Y-105117596D01*
X175395218Y-105000776D01*
X175316154Y-104845606D01*
X175302287Y-104818390D01*
X175260432Y-104760781D01*
X175181971Y-104652786D01*
X175037213Y-104508028D01*
X174871613Y-104387715D01*
X174871612Y-104387714D01*
X174871610Y-104387713D01*
X174797594Y-104350000D01*
X174689223Y-104294781D01*
X174494534Y-104231522D01*
X174319995Y-104203878D01*
X174292352Y-104199500D01*
X174087648Y-104199500D01*
X174063329Y-104203351D01*
X173885465Y-104231522D01*
X173690776Y-104294781D01*
X173508386Y-104387715D01*
X173342786Y-104508028D01*
X173198028Y-104652786D01*
X173077715Y-104818386D01*
X172984781Y-105000776D01*
X172921522Y-105195465D01*
X172893579Y-105371893D01*
X172863650Y-105435028D01*
X172804338Y-105471959D01*
X172771106Y-105476495D01*
X171082749Y-105476495D01*
X171015710Y-105456810D01*
X170969955Y-105404006D01*
X170960011Y-105334848D01*
X170964819Y-105314174D01*
X170967990Y-105304413D01*
X171000000Y-105102317D01*
X171000000Y-104897682D01*
X170967990Y-104695582D01*
X170904755Y-104500968D01*
X170811859Y-104318650D01*
X170779474Y-104274077D01*
X170779474Y-104274076D01*
X170100000Y-104953551D01*
X170100000Y-104947339D01*
X170072741Y-104845606D01*
X170020080Y-104754394D01*
X169945606Y-104679920D01*
X169854394Y-104627259D01*
X169752661Y-104600000D01*
X169746446Y-104600000D01*
X170408729Y-103937718D01*
X170425922Y-103920524D01*
X170425921Y-103920523D01*
X170381359Y-103888147D01*
X170381350Y-103888141D01*
X170199031Y-103795244D01*
X170004417Y-103732009D01*
X169802317Y-103700000D01*
X169597683Y-103700000D01*
X169395582Y-103732009D01*
X169200968Y-103795244D01*
X169018644Y-103888143D01*
X168974077Y-103920523D01*
X168974077Y-103920524D01*
X169653554Y-104600000D01*
X169647339Y-104600000D01*
X169545606Y-104627259D01*
X169454394Y-104679920D01*
X169379920Y-104754394D01*
X169327259Y-104845606D01*
X169300000Y-104947339D01*
X169300000Y-104953553D01*
X168620524Y-104274077D01*
X168620523Y-104274077D01*
X168588143Y-104318644D01*
X168495244Y-104500968D01*
X168432009Y-104695582D01*
X168400000Y-104897682D01*
X168400000Y-105102317D01*
X168432009Y-105304413D01*
X168435181Y-105314174D01*
X168437178Y-105384015D01*
X168401099Y-105443849D01*
X168338399Y-105474678D01*
X168317251Y-105476495D01*
X166083274Y-105476495D01*
X166016235Y-105456810D01*
X165970480Y-105404006D01*
X165960536Y-105334848D01*
X165965342Y-105314181D01*
X165968477Y-105304534D01*
X166000500Y-105102352D01*
X166000500Y-104897648D01*
X165978821Y-104760776D01*
X165968477Y-104695465D01*
X165930435Y-104578386D01*
X165905220Y-104500781D01*
X165905218Y-104500778D01*
X165905218Y-104500776D01*
X165847610Y-104387715D01*
X165812287Y-104318390D01*
X165795134Y-104294781D01*
X165691971Y-104152786D01*
X165547213Y-104008028D01*
X165381613Y-103887715D01*
X165381612Y-103887714D01*
X165381610Y-103887713D01*
X165272825Y-103832284D01*
X165199223Y-103794781D01*
X165004534Y-103731522D01*
X164829995Y-103703878D01*
X164802352Y-103699500D01*
X164597648Y-103699500D01*
X164573329Y-103703351D01*
X164395465Y-103731522D01*
X164200776Y-103794781D01*
X164018386Y-103887715D01*
X163852786Y-104008028D01*
X163708028Y-104152786D01*
X163587715Y-104318386D01*
X163494781Y-104500776D01*
X163431522Y-104695465D01*
X163399500Y-104897648D01*
X160989691Y-104897648D01*
X160945218Y-104760776D01*
X160903597Y-104679091D01*
X160852287Y-104578390D01*
X160801171Y-104508034D01*
X160731971Y-104412786D01*
X160587213Y-104268028D01*
X160421614Y-104147715D01*
X160392565Y-104132914D01*
X160328917Y-104100483D01*
X160278123Y-104052511D01*
X160261328Y-103984690D01*
X160283865Y-103918555D01*
X160328917Y-103879516D01*
X160421610Y-103832287D01*
X160473233Y-103794781D01*
X160587213Y-103711971D01*
X160587215Y-103711968D01*
X160587219Y-103711966D01*
X160731966Y-103567219D01*
X160731968Y-103567215D01*
X160731971Y-103567213D01*
X160784732Y-103494590D01*
X160852287Y-103401610D01*
X160945220Y-103219219D01*
X161008477Y-103024534D01*
X161040500Y-102822352D01*
X161040500Y-102731947D01*
X187850000Y-102731947D01*
X187850000Y-102968052D01*
X187886934Y-103201247D01*
X187959897Y-103425802D01*
X188067087Y-103636174D01*
X188127338Y-103719104D01*
X188127340Y-103719105D01*
X188826212Y-103020233D01*
X188837482Y-103062292D01*
X188909890Y-103187708D01*
X189012292Y-103290110D01*
X189137708Y-103362518D01*
X189179765Y-103373787D01*
X188480893Y-104072658D01*
X188563828Y-104132914D01*
X188774197Y-104240102D01*
X188998752Y-104313065D01*
X188998751Y-104313065D01*
X189231948Y-104350000D01*
X189468052Y-104350000D01*
X189701247Y-104313065D01*
X189925802Y-104240102D01*
X190136163Y-104132918D01*
X190136169Y-104132914D01*
X190219104Y-104072658D01*
X190219105Y-104072658D01*
X189520233Y-103373787D01*
X189562292Y-103362518D01*
X189687708Y-103290110D01*
X189790110Y-103187708D01*
X189862518Y-103062292D01*
X189873787Y-103020233D01*
X190572658Y-103719105D01*
X190572658Y-103719104D01*
X190632914Y-103636169D01*
X190632918Y-103636163D01*
X190740102Y-103425802D01*
X190813065Y-103201247D01*
X190850000Y-102968052D01*
X190850000Y-102731947D01*
X194350000Y-102731947D01*
X194350000Y-102968052D01*
X194386934Y-103201247D01*
X194459897Y-103425802D01*
X194567087Y-103636174D01*
X194627338Y-103719104D01*
X194627340Y-103719105D01*
X195326212Y-103020233D01*
X195337482Y-103062292D01*
X195409890Y-103187708D01*
X195512292Y-103290110D01*
X195637708Y-103362518D01*
X195679765Y-103373787D01*
X194980893Y-104072658D01*
X195063828Y-104132914D01*
X195274197Y-104240102D01*
X195498752Y-104313065D01*
X195498751Y-104313065D01*
X195731948Y-104350000D01*
X195968052Y-104350000D01*
X196201247Y-104313065D01*
X196425802Y-104240102D01*
X196636163Y-104132918D01*
X196636169Y-104132914D01*
X196719104Y-104072658D01*
X196719105Y-104072658D01*
X196020233Y-103373787D01*
X196062292Y-103362518D01*
X196187708Y-103290110D01*
X196290110Y-103187708D01*
X196362518Y-103062292D01*
X196373787Y-103020234D01*
X197072658Y-103719105D01*
X197072658Y-103719104D01*
X197132914Y-103636169D01*
X197132918Y-103636163D01*
X197240102Y-103425802D01*
X197313065Y-103201247D01*
X197350000Y-102968052D01*
X197350000Y-102731947D01*
X197313065Y-102498752D01*
X197240102Y-102274197D01*
X197132914Y-102063828D01*
X197072658Y-101980894D01*
X197072658Y-101980893D01*
X196373787Y-102679765D01*
X196362518Y-102637708D01*
X196290110Y-102512292D01*
X196187708Y-102409890D01*
X196062292Y-102337482D01*
X196020234Y-102326212D01*
X196719105Y-101627340D01*
X196719104Y-101627338D01*
X196636174Y-101567087D01*
X196425802Y-101459897D01*
X196201247Y-101386934D01*
X196201248Y-101386934D01*
X195968052Y-101350000D01*
X195731948Y-101350000D01*
X195498752Y-101386934D01*
X195274197Y-101459897D01*
X195063830Y-101567084D01*
X194980894Y-101627340D01*
X195679766Y-102326212D01*
X195637708Y-102337482D01*
X195512292Y-102409890D01*
X195409890Y-102512292D01*
X195337482Y-102637708D01*
X195326212Y-102679765D01*
X194627340Y-101980894D01*
X194567084Y-102063830D01*
X194459897Y-102274197D01*
X194386934Y-102498752D01*
X194350000Y-102731947D01*
X190850000Y-102731947D01*
X190813065Y-102498752D01*
X190740102Y-102274197D01*
X190632914Y-102063828D01*
X190572658Y-101980894D01*
X190572658Y-101980893D01*
X189873787Y-102679765D01*
X189862518Y-102637708D01*
X189790110Y-102512292D01*
X189687708Y-102409890D01*
X189562292Y-102337482D01*
X189520234Y-102326212D01*
X190219105Y-101627340D01*
X190219104Y-101627339D01*
X190136174Y-101567087D01*
X189925802Y-101459897D01*
X189701247Y-101386934D01*
X189701248Y-101386934D01*
X189468052Y-101350000D01*
X189231948Y-101350000D01*
X188998752Y-101386934D01*
X188774197Y-101459897D01*
X188563830Y-101567084D01*
X188480894Y-101627340D01*
X189179766Y-102326212D01*
X189137708Y-102337482D01*
X189012292Y-102409890D01*
X188909890Y-102512292D01*
X188837482Y-102637708D01*
X188826212Y-102679766D01*
X188127340Y-101980894D01*
X188067084Y-102063830D01*
X187959897Y-102274197D01*
X187886934Y-102498752D01*
X187850000Y-102731947D01*
X161040500Y-102731947D01*
X161040500Y-102617648D01*
X161023813Y-102512292D01*
X161008477Y-102415465D01*
X160945218Y-102220776D01*
X160865248Y-102063828D01*
X160852287Y-102038390D01*
X160810514Y-101980894D01*
X160731971Y-101872786D01*
X160587213Y-101728028D01*
X160421614Y-101607715D01*
X160415006Y-101604348D01*
X160328917Y-101560483D01*
X160278123Y-101512511D01*
X160261328Y-101444690D01*
X160283865Y-101378555D01*
X160328917Y-101339516D01*
X160421610Y-101292287D01*
X160442770Y-101276913D01*
X160587213Y-101171971D01*
X160587215Y-101171968D01*
X160587219Y-101171966D01*
X160731966Y-101027219D01*
X160731968Y-101027215D01*
X160731971Y-101027213D01*
X160784732Y-100954590D01*
X160852287Y-100861610D01*
X160945220Y-100679219D01*
X161008477Y-100484534D01*
X161040500Y-100282352D01*
X161040500Y-100077648D01*
X161008477Y-99875466D01*
X160945220Y-99680781D01*
X160945218Y-99680778D01*
X160945218Y-99680776D01*
X160911503Y-99614607D01*
X160852287Y-99498390D01*
X160844556Y-99487749D01*
X160731971Y-99332786D01*
X160587213Y-99188028D01*
X160421614Y-99067715D01*
X160415006Y-99064348D01*
X160328917Y-99020483D01*
X160278123Y-98972511D01*
X160261328Y-98904690D01*
X160283865Y-98838555D01*
X160328917Y-98799516D01*
X160421610Y-98752287D01*
X160506560Y-98690568D01*
X160587213Y-98631971D01*
X160587215Y-98631968D01*
X160587219Y-98631966D01*
X160731966Y-98487219D01*
X160731968Y-98487215D01*
X160731971Y-98487213D01*
X160784732Y-98414590D01*
X160852287Y-98321610D01*
X160945220Y-98139219D01*
X161008477Y-97944534D01*
X161040500Y-97742352D01*
X161040500Y-97537648D01*
X161008477Y-97335466D01*
X160958581Y-97181902D01*
X187999500Y-97181902D01*
X187999500Y-97418097D01*
X188036446Y-97651368D01*
X188109433Y-97875996D01*
X188216657Y-98086433D01*
X188355483Y-98277510D01*
X188522490Y-98444517D01*
X188713567Y-98583343D01*
X188808995Y-98631966D01*
X188924003Y-98690566D01*
X188924005Y-98690566D01*
X188924008Y-98690568D01*
X189044412Y-98729689D01*
X189148631Y-98763553D01*
X189381903Y-98800500D01*
X189381908Y-98800500D01*
X189618097Y-98800500D01*
X189851368Y-98763553D01*
X189886050Y-98752284D01*
X190075992Y-98690568D01*
X190286433Y-98583343D01*
X190477510Y-98444517D01*
X190644517Y-98277510D01*
X190783343Y-98086433D01*
X190890568Y-97875992D01*
X190963553Y-97651368D01*
X191000500Y-97418097D01*
X191000500Y-97181902D01*
X194499500Y-97181902D01*
X194499500Y-97418097D01*
X194536446Y-97651368D01*
X194609433Y-97875996D01*
X194716657Y-98086433D01*
X194855483Y-98277510D01*
X195022490Y-98444517D01*
X195213567Y-98583343D01*
X195308995Y-98631966D01*
X195424003Y-98690566D01*
X195424005Y-98690566D01*
X195424008Y-98690568D01*
X195544412Y-98729689D01*
X195648631Y-98763553D01*
X195881903Y-98800500D01*
X195881908Y-98800500D01*
X196118097Y-98800500D01*
X196351368Y-98763553D01*
X196386050Y-98752284D01*
X196575992Y-98690568D01*
X196786433Y-98583343D01*
X196977510Y-98444517D01*
X197144517Y-98277510D01*
X197283343Y-98086433D01*
X197390568Y-97875992D01*
X197463553Y-97651368D01*
X197500500Y-97418097D01*
X197500500Y-97181902D01*
X197463553Y-96948631D01*
X197405017Y-96768477D01*
X197390568Y-96724008D01*
X197390566Y-96724005D01*
X197390566Y-96724003D01*
X197316924Y-96579474D01*
X197283343Y-96513567D01*
X197144517Y-96322490D01*
X196977510Y-96155483D01*
X196786433Y-96016657D01*
X196751840Y-95999031D01*
X196575996Y-95909433D01*
X196351368Y-95836446D01*
X196118097Y-95799500D01*
X196118092Y-95799500D01*
X195881908Y-95799500D01*
X195881903Y-95799500D01*
X195648631Y-95836446D01*
X195424003Y-95909433D01*
X195213566Y-96016657D01*
X195109913Y-96091966D01*
X195022490Y-96155483D01*
X195022488Y-96155485D01*
X195022487Y-96155485D01*
X194855485Y-96322487D01*
X194855485Y-96322488D01*
X194855483Y-96322490D01*
X194817106Y-96375311D01*
X194716657Y-96513566D01*
X194609433Y-96724003D01*
X194536446Y-96948631D01*
X194499500Y-97181902D01*
X191000500Y-97181902D01*
X190963553Y-96948631D01*
X190905017Y-96768477D01*
X190890568Y-96724008D01*
X190890566Y-96724005D01*
X190890566Y-96724003D01*
X190816924Y-96579474D01*
X190783343Y-96513567D01*
X190644517Y-96322490D01*
X190477510Y-96155483D01*
X190286433Y-96016657D01*
X190251840Y-95999031D01*
X190075996Y-95909433D01*
X189851368Y-95836446D01*
X189618097Y-95799500D01*
X189618092Y-95799500D01*
X189381908Y-95799500D01*
X189381903Y-95799500D01*
X189148631Y-95836446D01*
X188924003Y-95909433D01*
X188713566Y-96016657D01*
X188609913Y-96091966D01*
X188522490Y-96155483D01*
X188522488Y-96155485D01*
X188522487Y-96155485D01*
X188355485Y-96322487D01*
X188355485Y-96322488D01*
X188355483Y-96322490D01*
X188317106Y-96375311D01*
X188216657Y-96513566D01*
X188109433Y-96724003D01*
X188036446Y-96948631D01*
X187999500Y-97181902D01*
X160958581Y-97181902D01*
X160945220Y-97140781D01*
X160852287Y-96958390D01*
X160844556Y-96947749D01*
X160731971Y-96792786D01*
X160587213Y-96648028D01*
X160421614Y-96527715D01*
X160351462Y-96491971D01*
X160328917Y-96480483D01*
X160278123Y-96432511D01*
X160261328Y-96364690D01*
X160283865Y-96298555D01*
X160328917Y-96259516D01*
X160421610Y-96212287D01*
X160442770Y-96196913D01*
X160587213Y-96091971D01*
X160587215Y-96091968D01*
X160587219Y-96091966D01*
X160731966Y-95947219D01*
X160731968Y-95947215D01*
X160731971Y-95947213D01*
X160812446Y-95836447D01*
X160852287Y-95781610D01*
X160943624Y-95602351D01*
X160945218Y-95599223D01*
X160945218Y-95599222D01*
X160945220Y-95599219D01*
X161008477Y-95404534D01*
X161009568Y-95397648D01*
X163699500Y-95397648D01*
X163699500Y-95602351D01*
X163731522Y-95804534D01*
X163794781Y-95999223D01*
X163858691Y-96124653D01*
X163887585Y-96181359D01*
X163887715Y-96181613D01*
X164008028Y-96347213D01*
X164152786Y-96491971D01*
X164273226Y-96579474D01*
X164318390Y-96612287D01*
X164434607Y-96671503D01*
X164500776Y-96705218D01*
X164500778Y-96705218D01*
X164500781Y-96705220D01*
X164558605Y-96724008D01*
X164695465Y-96768477D01*
X164796557Y-96784488D01*
X164897648Y-96800500D01*
X164897649Y-96800500D01*
X165102351Y-96800500D01*
X165102352Y-96800500D01*
X165304534Y-96768477D01*
X165499219Y-96705220D01*
X165681610Y-96612287D01*
X165774590Y-96544732D01*
X165847213Y-96491971D01*
X165847215Y-96491968D01*
X165847219Y-96491966D01*
X165991966Y-96347219D01*
X165991968Y-96347215D01*
X165991971Y-96347213D01*
X166055686Y-96259515D01*
X166112287Y-96181610D01*
X166205220Y-95999219D01*
X166268477Y-95804534D01*
X166300500Y-95602352D01*
X166300500Y-95397682D01*
X168700000Y-95397682D01*
X168700000Y-95602317D01*
X168732009Y-95804417D01*
X168795244Y-95999031D01*
X168888141Y-96181350D01*
X168888147Y-96181359D01*
X168920523Y-96225921D01*
X168920524Y-96225922D01*
X169600000Y-95546446D01*
X169600000Y-95552661D01*
X169627259Y-95654394D01*
X169679920Y-95745606D01*
X169754394Y-95820080D01*
X169845606Y-95872741D01*
X169947339Y-95900000D01*
X169953553Y-95900000D01*
X169274076Y-96579474D01*
X169318650Y-96611859D01*
X169500968Y-96704755D01*
X169695582Y-96767990D01*
X169897683Y-96800000D01*
X170102317Y-96800000D01*
X170304417Y-96767990D01*
X170499031Y-96704755D01*
X170681349Y-96611859D01*
X170725921Y-96579474D01*
X170046447Y-95900000D01*
X170052661Y-95900000D01*
X170154394Y-95872741D01*
X170245606Y-95820080D01*
X170320080Y-95745606D01*
X170372741Y-95654394D01*
X170400000Y-95552661D01*
X170400000Y-95546448D01*
X171079474Y-96225922D01*
X171079474Y-96225921D01*
X171111859Y-96181349D01*
X171204755Y-95999031D01*
X171267990Y-95804417D01*
X171300000Y-95602317D01*
X171300000Y-95397682D01*
X171299995Y-95397648D01*
X172889500Y-95397648D01*
X172889500Y-95602351D01*
X172921522Y-95804534D01*
X172984781Y-95999223D01*
X173048691Y-96124653D01*
X173077585Y-96181359D01*
X173077715Y-96181613D01*
X173198028Y-96347213D01*
X173342786Y-96491971D01*
X173463226Y-96579474D01*
X173508390Y-96612287D01*
X173624607Y-96671503D01*
X173690776Y-96705218D01*
X173690778Y-96705218D01*
X173690781Y-96705220D01*
X173748605Y-96724008D01*
X173885465Y-96768477D01*
X173986557Y-96784488D01*
X174087648Y-96800500D01*
X174087649Y-96800500D01*
X174292351Y-96800500D01*
X174292352Y-96800500D01*
X174494534Y-96768477D01*
X174689219Y-96705220D01*
X174871610Y-96612287D01*
X174964590Y-96544732D01*
X175037213Y-96491971D01*
X175037215Y-96491968D01*
X175037219Y-96491966D01*
X175181966Y-96347219D01*
X175181968Y-96347215D01*
X175181971Y-96347213D01*
X175245686Y-96259515D01*
X175302287Y-96181610D01*
X175395220Y-95999219D01*
X175458477Y-95804534D01*
X175490500Y-95602352D01*
X175490500Y-95397648D01*
X180509500Y-95397648D01*
X180509500Y-95602351D01*
X180541522Y-95804534D01*
X180604781Y-95999223D01*
X180668691Y-96124653D01*
X180697585Y-96181359D01*
X180697715Y-96181613D01*
X180818028Y-96347213D01*
X180962786Y-96491971D01*
X181083226Y-96579474D01*
X181128390Y-96612287D01*
X181244607Y-96671503D01*
X181310776Y-96705218D01*
X181310778Y-96705218D01*
X181310781Y-96705220D01*
X181368605Y-96724008D01*
X181505465Y-96768477D01*
X181606557Y-96784488D01*
X181707648Y-96800500D01*
X181707649Y-96800500D01*
X181912351Y-96800500D01*
X181912352Y-96800500D01*
X182114534Y-96768477D01*
X182309219Y-96705220D01*
X182491610Y-96612287D01*
X182584590Y-96544732D01*
X182657213Y-96491971D01*
X182657215Y-96491968D01*
X182657219Y-96491966D01*
X182801966Y-96347219D01*
X182801968Y-96347215D01*
X182801971Y-96347213D01*
X182865686Y-96259515D01*
X182922287Y-96181610D01*
X183015220Y-95999219D01*
X183078477Y-95804534D01*
X183110500Y-95602352D01*
X183110500Y-95397648D01*
X183102257Y-95345606D01*
X183078477Y-95195465D01*
X183047458Y-95100000D01*
X183015220Y-95000781D01*
X183015218Y-95000778D01*
X183015218Y-95000776D01*
X182922419Y-94818650D01*
X182922287Y-94818390D01*
X182890092Y-94774077D01*
X182801971Y-94652786D01*
X182657213Y-94508028D01*
X182491613Y-94387715D01*
X182491612Y-94387714D01*
X182491610Y-94387713D01*
X182434653Y-94358691D01*
X182309223Y-94294781D01*
X182114534Y-94231522D01*
X181939995Y-94203878D01*
X181912352Y-94199500D01*
X181707648Y-94199500D01*
X181683329Y-94203351D01*
X181505465Y-94231522D01*
X181310776Y-94294781D01*
X181128386Y-94387715D01*
X180962786Y-94508028D01*
X180818028Y-94652786D01*
X180697715Y-94818386D01*
X180604781Y-95000776D01*
X180541522Y-95195465D01*
X180509500Y-95397648D01*
X175490500Y-95397648D01*
X175482257Y-95345606D01*
X175458477Y-95195465D01*
X175427458Y-95100000D01*
X175395220Y-95000781D01*
X175395218Y-95000778D01*
X175395218Y-95000776D01*
X175302419Y-94818650D01*
X175302287Y-94818390D01*
X175270092Y-94774077D01*
X175181971Y-94652786D01*
X175037213Y-94508028D01*
X174871613Y-94387715D01*
X174871612Y-94387714D01*
X174871610Y-94387713D01*
X174814653Y-94358691D01*
X174689223Y-94294781D01*
X174494534Y-94231522D01*
X174319995Y-94203878D01*
X174292352Y-94199500D01*
X174087648Y-94199500D01*
X174063329Y-94203351D01*
X173885465Y-94231522D01*
X173690776Y-94294781D01*
X173508386Y-94387715D01*
X173342786Y-94508028D01*
X173198028Y-94652786D01*
X173077715Y-94818386D01*
X172984781Y-95000776D01*
X172921522Y-95195465D01*
X172889500Y-95397648D01*
X171299995Y-95397648D01*
X171267990Y-95195582D01*
X171204755Y-95000968D01*
X171111859Y-94818650D01*
X171079474Y-94774077D01*
X171079474Y-94774076D01*
X170400000Y-95453551D01*
X170400000Y-95447339D01*
X170372741Y-95345606D01*
X170320080Y-95254394D01*
X170245606Y-95179920D01*
X170154394Y-95127259D01*
X170052661Y-95100000D01*
X170046446Y-95100000D01*
X170725922Y-94420524D01*
X170725921Y-94420523D01*
X170681359Y-94388147D01*
X170681350Y-94388141D01*
X170499031Y-94295244D01*
X170304417Y-94232009D01*
X170102317Y-94200000D01*
X169897683Y-94200000D01*
X169695582Y-94232009D01*
X169500968Y-94295244D01*
X169318644Y-94388143D01*
X169274077Y-94420523D01*
X169274077Y-94420524D01*
X169953554Y-95100000D01*
X169947339Y-95100000D01*
X169845606Y-95127259D01*
X169754394Y-95179920D01*
X169679920Y-95254394D01*
X169627259Y-95345606D01*
X169600000Y-95447339D01*
X169600000Y-95453553D01*
X168920524Y-94774077D01*
X168920523Y-94774077D01*
X168888143Y-94818644D01*
X168795244Y-95000968D01*
X168732009Y-95195582D01*
X168700000Y-95397682D01*
X166300500Y-95397682D01*
X166300500Y-95397648D01*
X166292257Y-95345606D01*
X166268477Y-95195465D01*
X166237458Y-95100000D01*
X166205220Y-95000781D01*
X166205218Y-95000778D01*
X166205218Y-95000776D01*
X166112419Y-94818650D01*
X166112287Y-94818390D01*
X166080092Y-94774077D01*
X165991971Y-94652786D01*
X165847213Y-94508028D01*
X165681613Y-94387715D01*
X165681612Y-94387714D01*
X165681610Y-94387713D01*
X165624653Y-94358691D01*
X165499223Y-94294781D01*
X165304534Y-94231522D01*
X165129995Y-94203878D01*
X165102352Y-94199500D01*
X164897648Y-94199500D01*
X164873329Y-94203351D01*
X164695465Y-94231522D01*
X164500776Y-94294781D01*
X164318386Y-94387715D01*
X164152786Y-94508028D01*
X164008028Y-94652786D01*
X163887715Y-94818386D01*
X163794781Y-95000776D01*
X163731522Y-95195465D01*
X163699500Y-95397648D01*
X161009568Y-95397648D01*
X161040500Y-95202352D01*
X161040500Y-94997648D01*
X161008477Y-94795466D01*
X161001527Y-94774077D01*
X160967625Y-94669737D01*
X160945220Y-94600781D01*
X160945218Y-94600778D01*
X160945218Y-94600776D01*
X160911503Y-94534607D01*
X160852287Y-94418390D01*
X160844556Y-94407749D01*
X160731971Y-94252786D01*
X160587219Y-94108034D01*
X160587211Y-94108028D01*
X160542738Y-94075717D01*
X160542737Y-94075715D01*
X160421614Y-93987715D01*
X160415006Y-93984348D01*
X160328917Y-93940483D01*
X160278123Y-93892511D01*
X160261328Y-93824690D01*
X160283865Y-93758555D01*
X160328917Y-93719516D01*
X160421610Y-93672287D01*
X160442770Y-93656913D01*
X160587213Y-93551971D01*
X160587215Y-93551968D01*
X160587219Y-93551966D01*
X160731966Y-93407219D01*
X160731968Y-93407215D01*
X160731971Y-93407213D01*
X160800770Y-93312518D01*
X160852287Y-93241610D01*
X160945220Y-93059219D01*
X161008477Y-92864534D01*
X161037396Y-92681947D01*
X188000000Y-92681947D01*
X188000000Y-92918052D01*
X188036934Y-93151247D01*
X188109897Y-93375802D01*
X188217087Y-93586174D01*
X188277338Y-93669104D01*
X188277340Y-93669105D01*
X188976212Y-92970233D01*
X188987482Y-93012292D01*
X189059890Y-93137708D01*
X189162292Y-93240110D01*
X189287708Y-93312518D01*
X189329765Y-93323787D01*
X188630893Y-94022658D01*
X188713828Y-94082914D01*
X188924197Y-94190102D01*
X189148752Y-94263065D01*
X189148751Y-94263065D01*
X189381948Y-94300000D01*
X189618052Y-94300000D01*
X189851247Y-94263065D01*
X190075802Y-94190102D01*
X190286163Y-94082918D01*
X190286169Y-94082914D01*
X190369104Y-94022658D01*
X190369105Y-94022658D01*
X189670233Y-93323787D01*
X189712292Y-93312518D01*
X189837708Y-93240110D01*
X189940110Y-93137708D01*
X190012518Y-93012292D01*
X190023787Y-92970233D01*
X190722658Y-93669105D01*
X190722658Y-93669104D01*
X190782914Y-93586169D01*
X190782918Y-93586163D01*
X190890102Y-93375802D01*
X190963065Y-93151247D01*
X191000000Y-92918052D01*
X191000000Y-92681947D01*
X194500000Y-92681947D01*
X194500000Y-92918052D01*
X194536934Y-93151247D01*
X194609897Y-93375802D01*
X194717087Y-93586174D01*
X194777338Y-93669104D01*
X194777340Y-93669105D01*
X195476212Y-92970233D01*
X195487482Y-93012292D01*
X195559890Y-93137708D01*
X195662292Y-93240110D01*
X195787708Y-93312518D01*
X195829765Y-93323787D01*
X195130893Y-94022658D01*
X195213828Y-94082914D01*
X195424197Y-94190102D01*
X195648752Y-94263065D01*
X195648751Y-94263065D01*
X195881948Y-94300000D01*
X196118052Y-94300000D01*
X196351247Y-94263065D01*
X196575802Y-94190102D01*
X196786163Y-94082918D01*
X196786169Y-94082914D01*
X196869104Y-94022658D01*
X196869105Y-94022658D01*
X196170233Y-93323787D01*
X196212292Y-93312518D01*
X196337708Y-93240110D01*
X196440110Y-93137708D01*
X196512518Y-93012292D01*
X196523787Y-92970233D01*
X197222658Y-93669105D01*
X197222658Y-93669104D01*
X197282914Y-93586169D01*
X197282918Y-93586163D01*
X197390102Y-93375802D01*
X197463065Y-93151247D01*
X197500000Y-92918052D01*
X197500000Y-92681947D01*
X197463065Y-92448752D01*
X197390102Y-92224197D01*
X197282914Y-92013828D01*
X197222658Y-91930894D01*
X197222658Y-91930893D01*
X196523787Y-92629765D01*
X196512518Y-92587708D01*
X196440110Y-92462292D01*
X196337708Y-92359890D01*
X196212292Y-92287482D01*
X196170234Y-92276212D01*
X196869105Y-91577340D01*
X196869104Y-91577338D01*
X196786174Y-91517087D01*
X196575802Y-91409897D01*
X196351247Y-91336934D01*
X196351248Y-91336934D01*
X196118052Y-91300000D01*
X195881948Y-91300000D01*
X195648752Y-91336934D01*
X195424197Y-91409897D01*
X195213830Y-91517084D01*
X195130894Y-91577340D01*
X195829766Y-92276212D01*
X195787708Y-92287482D01*
X195662292Y-92359890D01*
X195559890Y-92462292D01*
X195487482Y-92587708D01*
X195476212Y-92629766D01*
X194777340Y-91930894D01*
X194717084Y-92013830D01*
X194609897Y-92224197D01*
X194536934Y-92448752D01*
X194500000Y-92681947D01*
X191000000Y-92681947D01*
X190963065Y-92448752D01*
X190890102Y-92224197D01*
X190782914Y-92013828D01*
X190722658Y-91930894D01*
X190722658Y-91930893D01*
X190023787Y-92629765D01*
X190012518Y-92587708D01*
X189940110Y-92462292D01*
X189837708Y-92359890D01*
X189712292Y-92287482D01*
X189670234Y-92276212D01*
X190369105Y-91577340D01*
X190369104Y-91577339D01*
X190286174Y-91517087D01*
X190075802Y-91409897D01*
X189851247Y-91336934D01*
X189851248Y-91336934D01*
X189618052Y-91300000D01*
X189381948Y-91300000D01*
X189148752Y-91336934D01*
X188924197Y-91409897D01*
X188713830Y-91517084D01*
X188630894Y-91577340D01*
X189329766Y-92276212D01*
X189287708Y-92287482D01*
X189162292Y-92359890D01*
X189059890Y-92462292D01*
X188987482Y-92587708D01*
X188976212Y-92629765D01*
X188277340Y-91930894D01*
X188217084Y-92013830D01*
X188109897Y-92224197D01*
X188036934Y-92448752D01*
X188000000Y-92681947D01*
X161037396Y-92681947D01*
X161040500Y-92662352D01*
X161040500Y-92457648D01*
X161008477Y-92255466D01*
X160945220Y-92060781D01*
X160945218Y-92060778D01*
X160945218Y-92060776D01*
X160879039Y-91930894D01*
X160852287Y-91878390D01*
X160844556Y-91867749D01*
X160731971Y-91712786D01*
X160587213Y-91568028D01*
X160421614Y-91447715D01*
X160415006Y-91444348D01*
X160328917Y-91400483D01*
X160278123Y-91352511D01*
X160261328Y-91284690D01*
X160283865Y-91218555D01*
X160328917Y-91179516D01*
X160421610Y-91132287D01*
X160442770Y-91116913D01*
X160587213Y-91011971D01*
X160587215Y-91011968D01*
X160587219Y-91011966D01*
X160731966Y-90867219D01*
X160731968Y-90867215D01*
X160731971Y-90867213D01*
X160784732Y-90794590D01*
X160852287Y-90701610D01*
X160945220Y-90519219D01*
X161008477Y-90324534D01*
X161040500Y-90122352D01*
X161040500Y-89917648D01*
X161008477Y-89715466D01*
X160945220Y-89520781D01*
X160945218Y-89520778D01*
X160945218Y-89520776D01*
X160911503Y-89454607D01*
X160852287Y-89338390D01*
X160844556Y-89327749D01*
X160731971Y-89172786D01*
X160587213Y-89028028D01*
X160421614Y-88907715D01*
X160415006Y-88904348D01*
X160328917Y-88860483D01*
X160278123Y-88812511D01*
X160261328Y-88744690D01*
X160283865Y-88678555D01*
X160328917Y-88639516D01*
X160421610Y-88592287D01*
X160442770Y-88576913D01*
X160587213Y-88471971D01*
X160587215Y-88471968D01*
X160587219Y-88471966D01*
X160731966Y-88327219D01*
X160731968Y-88327215D01*
X160731971Y-88327213D01*
X160784732Y-88254590D01*
X160852287Y-88161610D01*
X160945220Y-87979219D01*
X161008477Y-87784534D01*
X161040500Y-87582352D01*
X161040500Y-87377648D01*
X161013532Y-87207379D01*
X161008477Y-87175465D01*
X160945218Y-86980776D01*
X160911503Y-86914607D01*
X160852287Y-86798390D01*
X160844556Y-86787749D01*
X160731971Y-86632786D01*
X160587213Y-86488028D01*
X160421614Y-86367715D01*
X160407098Y-86360319D01*
X160328917Y-86320483D01*
X160278123Y-86272511D01*
X160261328Y-86204690D01*
X160283865Y-86138555D01*
X160328917Y-86099516D01*
X160421610Y-86052287D01*
X160457370Y-86026306D01*
X160587213Y-85931971D01*
X160587215Y-85931968D01*
X160587219Y-85931966D01*
X160621537Y-85897648D01*
X163089500Y-85897648D01*
X163089500Y-86102351D01*
X163121522Y-86304534D01*
X163184781Y-86499223D01*
X163277715Y-86681613D01*
X163398028Y-86847213D01*
X163542786Y-86991971D01*
X163697749Y-87104556D01*
X163708390Y-87112287D01*
X163824607Y-87171503D01*
X163890776Y-87205218D01*
X163890778Y-87205218D01*
X163890781Y-87205220D01*
X163995137Y-87239127D01*
X164085465Y-87268477D01*
X164186557Y-87284488D01*
X164287648Y-87300500D01*
X164287649Y-87300500D01*
X164492351Y-87300500D01*
X164492352Y-87300500D01*
X164694534Y-87268477D01*
X164889219Y-87205220D01*
X165071610Y-87112287D01*
X165164590Y-87044732D01*
X165237213Y-86991971D01*
X165237215Y-86991968D01*
X165237219Y-86991966D01*
X165381966Y-86847219D01*
X165381968Y-86847215D01*
X165381971Y-86847213D01*
X165461606Y-86737603D01*
X165502287Y-86681610D01*
X165595220Y-86499219D01*
X165658477Y-86304534D01*
X165690500Y-86102352D01*
X165690500Y-85897648D01*
X170709500Y-85897648D01*
X170709500Y-86102351D01*
X170741522Y-86304534D01*
X170804781Y-86499223D01*
X170897715Y-86681613D01*
X171018028Y-86847213D01*
X171162786Y-86991971D01*
X171317749Y-87104556D01*
X171328390Y-87112287D01*
X171444607Y-87171503D01*
X171510776Y-87205218D01*
X171510778Y-87205218D01*
X171510781Y-87205220D01*
X171615137Y-87239127D01*
X171705465Y-87268477D01*
X171806557Y-87284488D01*
X171907648Y-87300500D01*
X171907649Y-87300500D01*
X172112351Y-87300500D01*
X172112352Y-87300500D01*
X172314534Y-87268477D01*
X172509219Y-87205220D01*
X172691610Y-87112287D01*
X172784590Y-87044732D01*
X172857213Y-86991971D01*
X172857215Y-86991968D01*
X172857219Y-86991966D01*
X173001966Y-86847219D01*
X173001968Y-86847215D01*
X173001971Y-86847213D01*
X173081606Y-86737603D01*
X173122287Y-86681610D01*
X173215220Y-86499219D01*
X173278477Y-86304534D01*
X173310500Y-86102352D01*
X173310500Y-85897648D01*
X173295841Y-85805095D01*
X173278477Y-85695465D01*
X173215218Y-85500776D01*
X173122284Y-85318384D01*
X173074166Y-85252155D01*
X178425000Y-85252155D01*
X178425000Y-85950000D01*
X179449722Y-85950000D01*
X179405667Y-86026306D01*
X179375000Y-86140756D01*
X179375000Y-86259244D01*
X179405667Y-86373694D01*
X179449722Y-86450000D01*
X178425000Y-86450000D01*
X178425000Y-87147844D01*
X178431401Y-87207372D01*
X178431403Y-87207379D01*
X178481645Y-87342086D01*
X178481649Y-87342093D01*
X178567809Y-87457187D01*
X178567812Y-87457190D01*
X178682906Y-87543350D01*
X178682913Y-87543354D01*
X178817620Y-87593596D01*
X178817627Y-87593598D01*
X178877155Y-87599999D01*
X178877172Y-87600000D01*
X179575000Y-87600000D01*
X179575000Y-86575277D01*
X179651306Y-86619333D01*
X179765756Y-86650000D01*
X179884244Y-86650000D01*
X179998694Y-86619333D01*
X180075000Y-86575277D01*
X180075000Y-87600000D01*
X180772828Y-87600000D01*
X180772844Y-87599999D01*
X180832372Y-87593598D01*
X180832379Y-87593596D01*
X180967086Y-87543354D01*
X180967093Y-87543350D01*
X181082187Y-87457190D01*
X181082190Y-87457187D01*
X181168350Y-87342093D01*
X181168354Y-87342086D01*
X181198213Y-87262031D01*
X181240084Y-87206097D01*
X181305548Y-87181680D01*
X181373821Y-87196531D01*
X181402076Y-87217683D01*
X181452636Y-87268243D01*
X181452641Y-87268247D01*
X181603220Y-87377648D01*
X181630978Y-87397815D01*
X181747501Y-87457187D01*
X181827393Y-87497895D01*
X181827396Y-87497896D01*
X181932221Y-87531955D01*
X182037049Y-87566015D01*
X182254778Y-87600500D01*
X182254779Y-87600500D01*
X182475221Y-87600500D01*
X182475222Y-87600500D01*
X182692951Y-87566015D01*
X182902606Y-87497895D01*
X183099022Y-87397815D01*
X183277365Y-87268242D01*
X183433242Y-87112365D01*
X183562815Y-86934022D01*
X183662895Y-86737606D01*
X183731015Y-86527951D01*
X183765500Y-86310222D01*
X183765500Y-86089778D01*
X183731015Y-85872049D01*
X183696955Y-85767221D01*
X183662896Y-85662396D01*
X183662895Y-85662393D01*
X183628237Y-85594375D01*
X183562815Y-85465978D01*
X183455584Y-85318386D01*
X183433247Y-85287641D01*
X183433243Y-85287636D01*
X183277363Y-85131756D01*
X183277358Y-85131752D01*
X183099025Y-85002187D01*
X183099024Y-85002186D01*
X183099022Y-85002185D01*
X183036096Y-84970122D01*
X182902606Y-84902104D01*
X182902603Y-84902103D01*
X182692952Y-84833985D01*
X182584086Y-84816742D01*
X182475222Y-84799500D01*
X182254778Y-84799500D01*
X182182201Y-84810995D01*
X182037047Y-84833985D01*
X181827396Y-84902103D01*
X181827393Y-84902104D01*
X181630974Y-85002187D01*
X181452641Y-85131752D01*
X181452636Y-85131756D01*
X181402075Y-85182317D01*
X181340752Y-85215801D01*
X181271060Y-85210816D01*
X181215127Y-85168945D01*
X181198213Y-85137968D01*
X181168354Y-85057913D01*
X181168350Y-85057906D01*
X181082190Y-84942812D01*
X181082187Y-84942809D01*
X180967093Y-84856649D01*
X180967086Y-84856645D01*
X180832379Y-84806403D01*
X180832372Y-84806401D01*
X180772844Y-84800000D01*
X180075000Y-84800000D01*
X180075000Y-85824722D01*
X179998694Y-85780667D01*
X179884244Y-85750000D01*
X179765756Y-85750000D01*
X179651306Y-85780667D01*
X179575000Y-85824722D01*
X179575000Y-84800000D01*
X178877155Y-84800000D01*
X178817627Y-84806401D01*
X178817620Y-84806403D01*
X178682913Y-84856645D01*
X178682906Y-84856649D01*
X178567812Y-84942809D01*
X178567809Y-84942812D01*
X178481649Y-85057906D01*
X178481645Y-85057913D01*
X178431403Y-85192620D01*
X178431401Y-85192627D01*
X178425000Y-85252155D01*
X173074166Y-85252155D01*
X173001971Y-85152787D01*
X173001967Y-85152782D01*
X172857213Y-85008028D01*
X172691613Y-84887715D01*
X172691612Y-84887714D01*
X172691610Y-84887713D01*
X172630636Y-84856645D01*
X172509223Y-84794781D01*
X172314534Y-84731522D01*
X172139995Y-84703878D01*
X172112352Y-84699500D01*
X171907648Y-84699500D01*
X171883329Y-84703351D01*
X171705465Y-84731522D01*
X171510776Y-84794781D01*
X171328386Y-84887715D01*
X171162786Y-85008028D01*
X171018028Y-85152786D01*
X170897715Y-85318386D01*
X170804781Y-85500776D01*
X170741522Y-85695465D01*
X170709500Y-85897648D01*
X165690500Y-85897648D01*
X165675841Y-85805095D01*
X165658477Y-85695465D01*
X165595218Y-85500776D01*
X165561503Y-85434607D01*
X165502287Y-85318390D01*
X165479943Y-85287636D01*
X165381971Y-85152786D01*
X165237213Y-85008028D01*
X165071613Y-84887715D01*
X165071612Y-84887714D01*
X165071610Y-84887713D01*
X165010636Y-84856645D01*
X164889223Y-84794781D01*
X164694534Y-84731522D01*
X164519995Y-84703878D01*
X164492352Y-84699500D01*
X164287648Y-84699500D01*
X164263329Y-84703351D01*
X164085465Y-84731522D01*
X163890776Y-84794781D01*
X163708386Y-84887715D01*
X163542786Y-85008028D01*
X163398028Y-85152786D01*
X163277715Y-85318386D01*
X163184781Y-85500776D01*
X163121522Y-85695465D01*
X163089500Y-85897648D01*
X160621537Y-85897648D01*
X160731966Y-85787219D01*
X160731968Y-85787215D01*
X160731971Y-85787213D01*
X160798628Y-85695466D01*
X160852287Y-85621610D01*
X160945220Y-85439219D01*
X161008477Y-85244534D01*
X161040500Y-85042352D01*
X161040500Y-84837648D01*
X161008477Y-84635466D01*
X160945220Y-84440781D01*
X160945218Y-84440778D01*
X160945218Y-84440776D01*
X160904746Y-84361347D01*
X160852287Y-84258390D01*
X160844556Y-84247749D01*
X160731971Y-84092786D01*
X160587213Y-83948028D01*
X160421613Y-83827715D01*
X160421612Y-83827714D01*
X160421610Y-83827713D01*
X160313722Y-83772741D01*
X160239223Y-83734781D01*
X160044534Y-83671522D01*
X159869995Y-83643878D01*
X159842352Y-83639500D01*
X159637648Y-83639500D01*
X159613329Y-83643351D01*
X159435465Y-83671522D01*
X159240776Y-83734781D01*
X159058386Y-83827715D01*
X158892786Y-83948028D01*
X158748028Y-84092786D01*
X158627715Y-84258386D01*
X158534781Y-84440776D01*
X158471522Y-84635465D01*
X158439500Y-84837648D01*
X145800500Y-84837648D01*
X145768477Y-84635466D01*
X145705220Y-84440781D01*
X145705218Y-84440778D01*
X145705218Y-84440776D01*
X145664746Y-84361347D01*
X145612287Y-84258390D01*
X145604556Y-84247749D01*
X145491971Y-84092786D01*
X145347213Y-83948028D01*
X145181613Y-83827715D01*
X145181612Y-83827714D01*
X145181610Y-83827713D01*
X145073722Y-83772741D01*
X144999223Y-83734781D01*
X144804534Y-83671522D01*
X144629995Y-83643878D01*
X144602352Y-83639500D01*
X144397648Y-83639500D01*
X144373329Y-83643351D01*
X144195465Y-83671522D01*
X144000776Y-83734781D01*
X143818386Y-83827715D01*
X143652786Y-83948028D01*
X143508028Y-84092786D01*
X143387715Y-84258386D01*
X143294781Y-84440776D01*
X143231522Y-84635465D01*
X143199500Y-84837648D01*
X143199500Y-85042351D01*
X143231522Y-85244534D01*
X143294781Y-85439223D01*
X143387715Y-85621613D01*
X143508028Y-85787213D01*
X143652786Y-85931971D01*
X143782630Y-86026306D01*
X143818390Y-86052287D01*
X143891970Y-86089778D01*
X143911080Y-86099515D01*
X143961876Y-86147490D01*
X143978671Y-86215311D01*
X143956134Y-86281446D01*
X143911080Y-86320485D01*
X143818386Y-86367715D01*
X143652786Y-86488028D01*
X143508028Y-86632786D01*
X143387715Y-86798386D01*
X143294781Y-86980776D01*
X143231522Y-87175465D01*
X143199500Y-87377648D01*
X143199500Y-87582351D01*
X143231522Y-87784534D01*
X143294781Y-87979223D01*
X143387715Y-88161613D01*
X143508028Y-88327213D01*
X143652786Y-88471971D01*
X143807749Y-88584556D01*
X143818390Y-88592287D01*
X143909840Y-88638883D01*
X143911080Y-88639515D01*
X143961876Y-88687490D01*
X143978671Y-88755311D01*
X143956134Y-88821446D01*
X143911080Y-88860485D01*
X143818386Y-88907715D01*
X143652786Y-89028028D01*
X143508028Y-89172786D01*
X143387715Y-89338386D01*
X143294781Y-89520776D01*
X143231522Y-89715465D01*
X143199500Y-89917648D01*
X143199500Y-90122351D01*
X143231522Y-90324534D01*
X143294781Y-90519223D01*
X143387715Y-90701613D01*
X143508028Y-90867213D01*
X143652786Y-91011971D01*
X143807749Y-91124556D01*
X143818390Y-91132287D01*
X143909840Y-91178883D01*
X143911080Y-91179515D01*
X143961876Y-91227490D01*
X143978671Y-91295311D01*
X143956134Y-91361446D01*
X143911080Y-91400485D01*
X143818386Y-91447715D01*
X143652786Y-91568028D01*
X143508028Y-91712786D01*
X143387715Y-91878386D01*
X143294781Y-92060776D01*
X143231522Y-92255465D01*
X143199500Y-92457648D01*
X143199500Y-92662351D01*
X143231522Y-92864534D01*
X143294781Y-93059223D01*
X143387715Y-93241613D01*
X143508028Y-93407213D01*
X143652786Y-93551971D01*
X143807749Y-93664556D01*
X143818390Y-93672287D01*
X143909840Y-93718883D01*
X143911080Y-93719515D01*
X143961876Y-93767490D01*
X143978671Y-93835311D01*
X143956134Y-93901446D01*
X143911080Y-93940485D01*
X143818386Y-93987715D01*
X143652786Y-94108028D01*
X143508028Y-94252786D01*
X143387715Y-94418386D01*
X143294781Y-94600776D01*
X143231522Y-94795465D01*
X143199500Y-94997648D01*
X143199500Y-95202351D01*
X143231522Y-95404534D01*
X143294781Y-95599223D01*
X143387715Y-95781613D01*
X143508028Y-95947213D01*
X143652786Y-96091971D01*
X143807749Y-96204556D01*
X143818390Y-96212287D01*
X143909840Y-96258883D01*
X143911080Y-96259515D01*
X143961876Y-96307490D01*
X143978671Y-96375311D01*
X143956134Y-96441446D01*
X143911080Y-96480485D01*
X143818386Y-96527715D01*
X143652786Y-96648028D01*
X143508028Y-96792786D01*
X143387715Y-96958386D01*
X143294781Y-97140776D01*
X143231522Y-97335465D01*
X143199500Y-97537648D01*
X143199500Y-97742351D01*
X143231522Y-97944534D01*
X143294781Y-98139223D01*
X143358691Y-98264653D01*
X143365243Y-98277511D01*
X143387715Y-98321613D01*
X143508028Y-98487213D01*
X143652786Y-98631971D01*
X143807749Y-98744556D01*
X143818390Y-98752287D01*
X143909840Y-98798883D01*
X143911080Y-98799515D01*
X143961876Y-98847490D01*
X143978671Y-98915311D01*
X143956134Y-98981446D01*
X143911080Y-99020485D01*
X143818386Y-99067715D01*
X143652786Y-99188028D01*
X143508028Y-99332786D01*
X143387715Y-99498386D01*
X143294781Y-99680776D01*
X143231522Y-99875465D01*
X143199500Y-100077648D01*
X143199500Y-100282351D01*
X143231522Y-100484534D01*
X143294781Y-100679223D01*
X143387715Y-100861613D01*
X143508028Y-101027213D01*
X143652786Y-101171971D01*
X143807749Y-101284556D01*
X143818390Y-101292287D01*
X143909840Y-101338883D01*
X143911080Y-101339515D01*
X143961876Y-101387490D01*
X143978671Y-101455311D01*
X143956134Y-101521446D01*
X143911080Y-101560485D01*
X143818386Y-101607715D01*
X143652786Y-101728028D01*
X143508028Y-101872786D01*
X143387715Y-102038386D01*
X143294781Y-102220776D01*
X143231522Y-102415465D01*
X143199500Y-102617648D01*
X143199500Y-102822351D01*
X143231522Y-103024534D01*
X143294781Y-103219223D01*
X143387715Y-103401613D01*
X143508028Y-103567213D01*
X143652786Y-103711971D01*
X143766767Y-103794781D01*
X143818390Y-103832287D01*
X143909840Y-103878883D01*
X143911080Y-103879515D01*
X143961876Y-103927490D01*
X143978671Y-103995311D01*
X143956134Y-104061446D01*
X143911080Y-104100485D01*
X143818386Y-104147715D01*
X143652786Y-104268028D01*
X143508028Y-104412786D01*
X143387715Y-104578386D01*
X143362285Y-104628295D01*
X143314310Y-104679091D01*
X143251800Y-104696000D01*
X133812653Y-104696000D01*
X133684780Y-104730263D01*
X133684779Y-104730262D01*
X133669211Y-104734434D01*
X133669206Y-104734436D01*
X133540605Y-104808684D01*
X133540599Y-104808689D01*
X133435591Y-104913698D01*
X126415153Y-111934135D01*
X126353830Y-111967620D01*
X126284138Y-111962636D01*
X126239375Y-111929888D01*
X126237743Y-111931521D01*
X126113782Y-111807560D01*
X126113777Y-111807556D01*
X125970180Y-111720750D01*
X125970179Y-111720749D01*
X125970178Y-111720749D01*
X125809971Y-111670827D01*
X125809969Y-111670826D01*
X125809967Y-111670826D01*
X125761221Y-111666396D01*
X125740347Y-111664500D01*
X125740344Y-111664500D01*
X124739645Y-111664500D01*
X124670033Y-111670825D01*
X124670022Y-111670828D01*
X124509824Y-111720747D01*
X124509820Y-111720749D01*
X124366222Y-111807556D01*
X124366217Y-111807560D01*
X124247560Y-111926217D01*
X124247556Y-111926222D01*
X124160750Y-112069819D01*
X124160750Y-112069820D01*
X124160749Y-112069822D01*
X124151345Y-112100000D01*
X124110826Y-112230032D01*
X124104500Y-112299655D01*
X123835499Y-112299655D01*
X123835499Y-112299654D01*
X123835499Y-112299653D01*
X123835499Y-112299645D01*
X123829174Y-112230033D01*
X123829171Y-112230022D01*
X123779252Y-112069824D01*
X123779250Y-112069820D01*
X123692443Y-111926222D01*
X123692439Y-111926217D01*
X123573782Y-111807560D01*
X123573777Y-111807556D01*
X123430179Y-111720749D01*
X123430175Y-111720747D01*
X123351110Y-111696110D01*
X123292962Y-111657373D01*
X123264988Y-111593347D01*
X123264000Y-111577725D01*
X123264000Y-108304978D01*
X123283685Y-108237939D01*
X123300319Y-108217297D01*
X136780798Y-94736819D01*
X136842121Y-94703334D01*
X136868479Y-94700500D01*
X136898844Y-94700500D01*
X136898845Y-94700499D01*
X137053497Y-94669737D01*
X137199179Y-94609394D01*
X137330289Y-94521789D01*
X137441789Y-94410289D01*
X137529394Y-94279179D01*
X137589737Y-94133497D01*
X137620500Y-93978842D01*
X137620500Y-93821158D01*
X137620500Y-93821155D01*
X137620499Y-93821153D01*
X137600282Y-93719515D01*
X137589737Y-93666503D01*
X137556462Y-93586169D01*
X137529397Y-93520827D01*
X137529390Y-93520814D01*
X137441789Y-93389711D01*
X137441786Y-93389707D01*
X137330292Y-93278213D01*
X137330288Y-93278210D01*
X137199185Y-93190609D01*
X137199172Y-93190602D01*
X137053501Y-93130264D01*
X137053489Y-93130261D01*
X136898845Y-93099500D01*
X136898842Y-93099500D01*
X136741158Y-93099500D01*
X136741155Y-93099500D01*
X136586510Y-93130261D01*
X136586498Y-93130264D01*
X136440827Y-93190602D01*
X136440814Y-93190609D01*
X136309711Y-93278210D01*
X136309707Y-93278213D01*
X136198213Y-93389707D01*
X136198210Y-93389711D01*
X136110609Y-93520814D01*
X136110602Y-93520827D01*
X136050264Y-93666498D01*
X136050261Y-93666510D01*
X136019500Y-93821153D01*
X136019500Y-93851521D01*
X135999815Y-93918560D01*
X135983181Y-93939202D01*
X122248689Y-107673693D01*
X122248685Y-107673699D01*
X122174434Y-107802305D01*
X122174433Y-107802306D01*
X122141295Y-107925988D01*
X122141294Y-107925993D01*
X122136000Y-107945748D01*
X122136000Y-111577725D01*
X122116315Y-111644764D01*
X122063511Y-111690519D01*
X122048890Y-111696110D01*
X121969824Y-111720747D01*
X121969820Y-111720749D01*
X121826222Y-111807556D01*
X121826217Y-111807560D01*
X121707560Y-111926217D01*
X121707556Y-111926222D01*
X121620750Y-112069819D01*
X121620750Y-112069820D01*
X121620749Y-112069822D01*
X121611345Y-112100000D01*
X121570826Y-112230032D01*
X121564500Y-112299655D01*
X121295499Y-112299655D01*
X121295499Y-112299654D01*
X121295499Y-112299653D01*
X121295499Y-112299645D01*
X121289174Y-112230033D01*
X121289171Y-112230022D01*
X121239252Y-112069824D01*
X121239250Y-112069820D01*
X121152443Y-111926222D01*
X121152439Y-111926217D01*
X121033782Y-111807560D01*
X121033777Y-111807556D01*
X120890180Y-111720750D01*
X120890179Y-111720749D01*
X120890178Y-111720749D01*
X120729971Y-111670827D01*
X120729969Y-111670826D01*
X120729967Y-111670826D01*
X120681221Y-111666396D01*
X120660347Y-111664500D01*
X120660344Y-111664500D01*
X119659645Y-111664500D01*
X119590033Y-111670825D01*
X119590022Y-111670828D01*
X119429824Y-111720747D01*
X119429820Y-111720749D01*
X119286222Y-111807556D01*
X119286217Y-111807560D01*
X119167560Y-111926217D01*
X119167556Y-111926222D01*
X119080750Y-112069819D01*
X119080750Y-112069820D01*
X119080749Y-112069822D01*
X119071345Y-112100000D01*
X119030826Y-112230032D01*
X119024500Y-112299655D01*
X110100500Y-112299655D01*
X110100500Y-83310668D01*
X115365000Y-83310668D01*
X115365000Y-83489331D01*
X115392946Y-83665780D01*
X115448155Y-83835693D01*
X115529260Y-83994869D01*
X115538651Y-84007793D01*
X115538652Y-84007794D01*
X116100000Y-83446446D01*
X116100000Y-83452661D01*
X116127259Y-83554394D01*
X116179920Y-83645606D01*
X116254394Y-83720080D01*
X116345606Y-83772741D01*
X116447339Y-83800000D01*
X116453554Y-83800000D01*
X115892205Y-84361347D01*
X115892205Y-84361348D01*
X115905129Y-84370738D01*
X116064306Y-84451844D01*
X116234219Y-84507053D01*
X116410669Y-84535000D01*
X116589331Y-84535000D01*
X116765780Y-84507053D01*
X116935693Y-84451844D01*
X117094867Y-84370739D01*
X117094872Y-84370737D01*
X117107794Y-84361347D01*
X116546447Y-83800000D01*
X116552661Y-83800000D01*
X116654394Y-83772741D01*
X116745606Y-83720080D01*
X116820080Y-83645606D01*
X116872741Y-83554394D01*
X116900000Y-83452661D01*
X116900000Y-83446446D01*
X117461347Y-84007794D01*
X117470737Y-83994872D01*
X117470739Y-83994867D01*
X117551844Y-83835693D01*
X117607053Y-83665780D01*
X117635000Y-83489331D01*
X117635000Y-83310668D01*
X117634995Y-83310634D01*
X120444500Y-83310634D01*
X120444500Y-83489365D01*
X120472460Y-83665898D01*
X120472460Y-83665901D01*
X120527689Y-83835878D01*
X120527691Y-83835881D01*
X120608833Y-83995132D01*
X120713889Y-84139728D01*
X120840272Y-84266111D01*
X120984868Y-84371167D01*
X121144119Y-84452309D01*
X121144121Y-84452310D01*
X121302670Y-84503825D01*
X121314103Y-84507540D01*
X121490634Y-84535500D01*
X121490635Y-84535500D01*
X121669365Y-84535500D01*
X121669366Y-84535500D01*
X121845897Y-84507540D01*
X121845900Y-84507539D01*
X121845901Y-84507539D01*
X122015878Y-84452310D01*
X122015878Y-84452309D01*
X122015881Y-84452309D01*
X122175132Y-84371167D01*
X122319728Y-84266111D01*
X122446111Y-84139728D01*
X122551167Y-83995132D01*
X122632309Y-83835881D01*
X122643967Y-83800000D01*
X122687539Y-83665901D01*
X122687539Y-83665900D01*
X122687540Y-83665897D01*
X122715500Y-83489366D01*
X122715500Y-83310634D01*
X128064500Y-83310634D01*
X128064500Y-83489365D01*
X128092460Y-83665898D01*
X128092460Y-83665901D01*
X128147689Y-83835878D01*
X128147691Y-83835881D01*
X128228833Y-83995132D01*
X128333889Y-84139728D01*
X128460272Y-84266111D01*
X128604868Y-84371167D01*
X128764119Y-84452309D01*
X128764121Y-84452310D01*
X128922670Y-84503825D01*
X128934103Y-84507540D01*
X129110634Y-84535500D01*
X129110635Y-84535500D01*
X129289365Y-84535500D01*
X129289366Y-84535500D01*
X129465897Y-84507540D01*
X129465900Y-84507539D01*
X129465901Y-84507539D01*
X129635878Y-84452310D01*
X129635878Y-84452309D01*
X129635881Y-84452309D01*
X129795132Y-84371167D01*
X129939728Y-84266111D01*
X130066111Y-84139728D01*
X130171167Y-83995132D01*
X130252309Y-83835881D01*
X130263967Y-83800000D01*
X130307539Y-83665901D01*
X130307539Y-83665900D01*
X130307540Y-83665897D01*
X130335500Y-83489366D01*
X130335500Y-83310634D01*
X135684500Y-83310634D01*
X135684500Y-83489365D01*
X135712460Y-83665898D01*
X135712460Y-83665901D01*
X135767689Y-83835878D01*
X135767691Y-83835881D01*
X135848833Y-83995132D01*
X135953889Y-84139728D01*
X136080272Y-84266111D01*
X136224868Y-84371167D01*
X136384119Y-84452309D01*
X136384121Y-84452310D01*
X136542670Y-84503825D01*
X136554103Y-84507540D01*
X136730634Y-84535500D01*
X136730635Y-84535500D01*
X136909365Y-84535500D01*
X136909366Y-84535500D01*
X137085897Y-84507540D01*
X137085900Y-84507539D01*
X137085901Y-84507539D01*
X137255878Y-84452310D01*
X137255878Y-84452309D01*
X137255881Y-84452309D01*
X137415132Y-84371167D01*
X137559728Y-84266111D01*
X137686111Y-84139728D01*
X137791167Y-83995132D01*
X137872309Y-83835881D01*
X137883967Y-83800000D01*
X137927539Y-83665901D01*
X137927539Y-83665900D01*
X137927540Y-83665897D01*
X137955500Y-83489366D01*
X137955500Y-83310634D01*
X137927540Y-83134103D01*
X137927539Y-83134099D01*
X137927539Y-83134098D01*
X137872310Y-82964121D01*
X137872308Y-82964118D01*
X137791300Y-82805129D01*
X137791167Y-82804868D01*
X137686111Y-82660272D01*
X137559728Y-82533889D01*
X137415132Y-82428833D01*
X137255881Y-82347691D01*
X137255878Y-82347689D01*
X137085899Y-82292460D01*
X136968209Y-82273820D01*
X136909366Y-82264500D01*
X136730634Y-82264500D01*
X136671790Y-82273820D01*
X136554101Y-82292460D01*
X136554098Y-82292460D01*
X136384121Y-82347689D01*
X136384118Y-82347691D01*
X136224867Y-82428833D01*
X136080270Y-82533890D01*
X135953890Y-82660270D01*
X135848833Y-82804867D01*
X135767691Y-82964118D01*
X135767689Y-82964121D01*
X135712460Y-83134098D01*
X135712460Y-83134101D01*
X135684500Y-83310634D01*
X130335500Y-83310634D01*
X130307540Y-83134103D01*
X130307539Y-83134099D01*
X130307539Y-83134098D01*
X130252310Y-82964121D01*
X130252308Y-82964118D01*
X130171300Y-82805129D01*
X130171167Y-82804868D01*
X130066111Y-82660272D01*
X129939728Y-82533889D01*
X129795132Y-82428833D01*
X129635881Y-82347691D01*
X129635878Y-82347689D01*
X129465899Y-82292460D01*
X129348209Y-82273820D01*
X129289366Y-82264500D01*
X129110634Y-82264500D01*
X129051790Y-82273820D01*
X128934101Y-82292460D01*
X128934098Y-82292460D01*
X128764121Y-82347689D01*
X128764118Y-82347691D01*
X128604867Y-82428833D01*
X128460270Y-82533890D01*
X128333890Y-82660270D01*
X128228833Y-82804867D01*
X128147691Y-82964118D01*
X128147689Y-82964121D01*
X128092460Y-83134098D01*
X128092460Y-83134101D01*
X128064500Y-83310634D01*
X122715500Y-83310634D01*
X122687540Y-83134103D01*
X122687539Y-83134099D01*
X122687539Y-83134098D01*
X122632310Y-82964121D01*
X122632308Y-82964118D01*
X122551300Y-82805129D01*
X122551167Y-82804868D01*
X122446111Y-82660272D01*
X122319728Y-82533889D01*
X122175132Y-82428833D01*
X122015881Y-82347691D01*
X122015878Y-82347689D01*
X121845899Y-82292460D01*
X121728209Y-82273820D01*
X121669366Y-82264500D01*
X121490634Y-82264500D01*
X121431790Y-82273820D01*
X121314101Y-82292460D01*
X121314098Y-82292460D01*
X121144121Y-82347689D01*
X121144118Y-82347691D01*
X120984867Y-82428833D01*
X120840270Y-82533890D01*
X120713890Y-82660270D01*
X120608833Y-82804867D01*
X120527691Y-82964118D01*
X120527689Y-82964121D01*
X120472460Y-83134098D01*
X120472460Y-83134101D01*
X120444500Y-83310634D01*
X117634995Y-83310634D01*
X117607053Y-83134219D01*
X117551844Y-82964306D01*
X117470738Y-82805129D01*
X117461347Y-82792205D01*
X116900000Y-83353552D01*
X116900000Y-83347339D01*
X116872741Y-83245606D01*
X116820080Y-83154394D01*
X116745606Y-83079920D01*
X116654394Y-83027259D01*
X116552661Y-83000000D01*
X116546447Y-83000000D01*
X117107794Y-82438652D01*
X117107793Y-82438651D01*
X117094869Y-82429260D01*
X116935693Y-82348155D01*
X116765780Y-82292946D01*
X116589331Y-82265000D01*
X116410669Y-82265000D01*
X116234219Y-82292946D01*
X116064306Y-82348155D01*
X115905127Y-82429262D01*
X115892205Y-82438651D01*
X115892204Y-82438651D01*
X116453554Y-83000000D01*
X116447339Y-83000000D01*
X116345606Y-83027259D01*
X116254394Y-83079920D01*
X116179920Y-83154394D01*
X116127259Y-83245606D01*
X116100000Y-83347339D01*
X116100000Y-83353553D01*
X115538651Y-82792204D01*
X115538651Y-82792205D01*
X115529262Y-82805127D01*
X115448155Y-82964306D01*
X115392946Y-83134219D01*
X115365000Y-83310668D01*
X110100500Y-83310668D01*
X110100500Y-77524500D01*
X110120185Y-77457461D01*
X110172989Y-77411706D01*
X110224500Y-77400500D01*
X202475500Y-77400500D01*
X202542539Y-77420185D01*
G37*
%TD.AperFunction*%
%TD*%
M02*
