%TF.GenerationSoftware,KiCad,Pcbnew,10.0.4*%
%TF.CreationDate,2026-07-20T14:34:47+05:30*%
%TF.ProjectId,Learn_1,4c656172-6e5f-4312-9e6b-696361645f70,rev?*%
%TF.SameCoordinates,Original*%
%TF.FileFunction,Soldermask,Top*%
%TF.FilePolarity,Negative*%
%FSLAX46Y46*%
G04 Gerber Fmt 4.6, Leading zero omitted, Abs format (unit mm)*
G04 Created by KiCad (PCBNEW 10.0.4) date 2026-07-20 14:34:47*
%MOMM*%
%LPD*%
G01*
G04 APERTURE LIST*
G04 APERTURE END LIST*
G36*
X160540000Y-121300000D02*
G01*
X158940000Y-121300000D01*
X158940000Y-119700000D01*
X160540000Y-119700000D01*
X160540000Y-121300000D01*
G37*
G36*
X144732228Y-119734448D02*
G01*
X144877117Y-119794463D01*
X145007515Y-119881592D01*
X145118408Y-119992485D01*
X145205537Y-120122883D01*
X145265552Y-120267772D01*
X145296148Y-120421586D01*
X145296148Y-120578414D01*
X145265552Y-120732228D01*
X145205537Y-120877117D01*
X145118408Y-121007515D01*
X145007515Y-121118408D01*
X144877117Y-121205537D01*
X144732228Y-121265552D01*
X144578414Y-121296148D01*
X144421586Y-121296148D01*
X144267772Y-121265552D01*
X144122883Y-121205537D01*
X143992485Y-121118408D01*
X143881592Y-121007515D01*
X143794463Y-120877117D01*
X143734448Y-120732228D01*
X143703852Y-120578414D01*
X143703852Y-120421586D01*
X143734448Y-120267772D01*
X143794463Y-120122883D01*
X143881592Y-119992485D01*
X143992485Y-119881592D01*
X144122883Y-119794463D01*
X144267772Y-119734448D01*
X144421586Y-119703852D01*
X144578414Y-119703852D01*
X144732228Y-119734448D01*
G37*
G36*
X189590285Y-117143060D02*
G01*
X189771397Y-117218079D01*
X189934393Y-117326990D01*
X190073010Y-117465607D01*
X190181921Y-117628603D01*
X190256940Y-117809715D01*
X190295185Y-118001983D01*
X190295185Y-118198017D01*
X190256940Y-118390285D01*
X190181921Y-118571397D01*
X190073010Y-118734393D01*
X189934393Y-118873010D01*
X189771397Y-118981921D01*
X189590285Y-119056940D01*
X189398017Y-119095185D01*
X189201983Y-119095185D01*
X189009715Y-119056940D01*
X188828603Y-118981921D01*
X188665607Y-118873010D01*
X188526990Y-118734393D01*
X188418079Y-118571397D01*
X188343060Y-118390285D01*
X188304815Y-118198017D01*
X188304815Y-118001983D01*
X188343060Y-117809715D01*
X188418079Y-117628603D01*
X188526990Y-117465607D01*
X188665607Y-117326990D01*
X188828603Y-117218079D01*
X189009715Y-117143060D01*
X189201983Y-117104815D01*
X189398017Y-117104815D01*
X189590285Y-117143060D01*
G37*
G36*
X196090285Y-117143060D02*
G01*
X196271397Y-117218079D01*
X196434393Y-117326990D01*
X196573010Y-117465607D01*
X196681921Y-117628603D01*
X196756940Y-117809715D01*
X196795185Y-118001983D01*
X196795185Y-118198017D01*
X196756940Y-118390285D01*
X196681921Y-118571397D01*
X196573010Y-118734393D01*
X196434393Y-118873010D01*
X196271397Y-118981921D01*
X196090285Y-119056940D01*
X195898017Y-119095185D01*
X195701983Y-119095185D01*
X195509715Y-119056940D01*
X195328603Y-118981921D01*
X195165607Y-118873010D01*
X195026990Y-118734393D01*
X194918079Y-118571397D01*
X194843060Y-118390285D01*
X194804815Y-118198017D01*
X194804815Y-118001983D01*
X194843060Y-117809715D01*
X194918079Y-117628603D01*
X195026990Y-117465607D01*
X195165607Y-117326990D01*
X195328603Y-117218079D01*
X195509715Y-117143060D01*
X195701983Y-117104815D01*
X195898017Y-117104815D01*
X196090285Y-117143060D01*
G37*
G36*
X144732228Y-117194448D02*
G01*
X144877117Y-117254463D01*
X145007515Y-117341592D01*
X145118408Y-117452485D01*
X145205537Y-117582883D01*
X145265552Y-117727772D01*
X145296148Y-117881586D01*
X145296148Y-118038414D01*
X145265552Y-118192228D01*
X145205537Y-118337117D01*
X145118408Y-118467515D01*
X145007515Y-118578408D01*
X144877117Y-118665537D01*
X144732228Y-118725552D01*
X144578414Y-118756148D01*
X144421586Y-118756148D01*
X144267772Y-118725552D01*
X144122883Y-118665537D01*
X143992485Y-118578408D01*
X143881592Y-118467515D01*
X143794463Y-118337117D01*
X143734448Y-118192228D01*
X143703852Y-118038414D01*
X143703852Y-117881586D01*
X143734448Y-117727772D01*
X143794463Y-117582883D01*
X143881592Y-117452485D01*
X143992485Y-117341592D01*
X144122883Y-117254463D01*
X144267772Y-117194448D01*
X144421586Y-117163852D01*
X144578414Y-117163852D01*
X144732228Y-117194448D01*
G37*
G36*
X159972228Y-117194448D02*
G01*
X160117117Y-117254463D01*
X160247515Y-117341592D01*
X160358408Y-117452485D01*
X160445537Y-117582883D01*
X160505552Y-117727772D01*
X160536148Y-117881586D01*
X160536148Y-118038414D01*
X160505552Y-118192228D01*
X160445537Y-118337117D01*
X160358408Y-118467515D01*
X160247515Y-118578408D01*
X160117117Y-118665537D01*
X159972228Y-118725552D01*
X159818414Y-118756148D01*
X159661586Y-118756148D01*
X159507772Y-118725552D01*
X159362883Y-118665537D01*
X159232485Y-118578408D01*
X159121592Y-118467515D01*
X159034463Y-118337117D01*
X158974448Y-118192228D01*
X158943852Y-118038414D01*
X158943852Y-117881586D01*
X158974448Y-117727772D01*
X159034463Y-117582883D01*
X159121592Y-117452485D01*
X159232485Y-117341592D01*
X159362883Y-117254463D01*
X159507772Y-117194448D01*
X159661586Y-117163852D01*
X159818414Y-117163852D01*
X159972228Y-117194448D01*
G37*
G36*
X174322228Y-114734448D02*
G01*
X174467117Y-114794463D01*
X174597515Y-114881592D01*
X174708408Y-114992485D01*
X174795537Y-115122883D01*
X174855552Y-115267772D01*
X174886148Y-115421586D01*
X174886148Y-115578414D01*
X174855552Y-115732228D01*
X174795537Y-115877117D01*
X174708408Y-116007515D01*
X174597515Y-116118408D01*
X174467117Y-116205537D01*
X174322228Y-116265552D01*
X174168414Y-116296148D01*
X174011586Y-116296148D01*
X173857772Y-116265552D01*
X173712883Y-116205537D01*
X173582485Y-116118408D01*
X173471592Y-116007515D01*
X173384463Y-115877117D01*
X173324448Y-115732228D01*
X173293852Y-115578414D01*
X173293852Y-115421586D01*
X173324448Y-115267772D01*
X173384463Y-115122883D01*
X173471592Y-114992485D01*
X173582485Y-114881592D01*
X173712883Y-114794463D01*
X173857772Y-114734448D01*
X174011586Y-114703852D01*
X174168414Y-114703852D01*
X174322228Y-114734448D01*
G37*
G36*
X181942228Y-114734448D02*
G01*
X182087117Y-114794463D01*
X182217515Y-114881592D01*
X182328408Y-114992485D01*
X182415537Y-115122883D01*
X182475552Y-115267772D01*
X182506148Y-115421586D01*
X182506148Y-115578414D01*
X182475552Y-115732228D01*
X182415537Y-115877117D01*
X182328408Y-116007515D01*
X182217515Y-116118408D01*
X182087117Y-116205537D01*
X181942228Y-116265552D01*
X181788414Y-116296148D01*
X181631586Y-116296148D01*
X181477772Y-116265552D01*
X181332883Y-116205537D01*
X181202485Y-116118408D01*
X181091592Y-116007515D01*
X181004463Y-115877117D01*
X180944448Y-115732228D01*
X180913852Y-115578414D01*
X180913852Y-115421586D01*
X180944448Y-115267772D01*
X181004463Y-115122883D01*
X181091592Y-114992485D01*
X181202485Y-114881592D01*
X181332883Y-114794463D01*
X181477772Y-114734448D01*
X181631586Y-114703852D01*
X181788414Y-114703852D01*
X181942228Y-114734448D01*
G37*
G36*
X144732228Y-114654448D02*
G01*
X144877117Y-114714463D01*
X145007515Y-114801592D01*
X145118408Y-114912485D01*
X145205537Y-115042883D01*
X145265552Y-115187772D01*
X145296148Y-115341586D01*
X145296148Y-115498414D01*
X145265552Y-115652228D01*
X145205537Y-115797117D01*
X145118408Y-115927515D01*
X145007515Y-116038408D01*
X144877117Y-116125537D01*
X144732228Y-116185552D01*
X144578414Y-116216148D01*
X144421586Y-116216148D01*
X144267772Y-116185552D01*
X144122883Y-116125537D01*
X143992485Y-116038408D01*
X143881592Y-115927515D01*
X143794463Y-115797117D01*
X143734448Y-115652228D01*
X143703852Y-115498414D01*
X143703852Y-115341586D01*
X143734448Y-115187772D01*
X143794463Y-115042883D01*
X143881592Y-114912485D01*
X143992485Y-114801592D01*
X144122883Y-114714463D01*
X144267772Y-114654448D01*
X144421586Y-114623852D01*
X144578414Y-114623852D01*
X144732228Y-114654448D01*
G37*
G36*
X159972228Y-114654448D02*
G01*
X160117117Y-114714463D01*
X160247515Y-114801592D01*
X160358408Y-114912485D01*
X160445537Y-115042883D01*
X160505552Y-115187772D01*
X160536148Y-115341586D01*
X160536148Y-115498414D01*
X160505552Y-115652228D01*
X160445537Y-115797117D01*
X160358408Y-115927515D01*
X160247515Y-116038408D01*
X160117117Y-116125537D01*
X159972228Y-116185552D01*
X159818414Y-116216148D01*
X159661586Y-116216148D01*
X159507772Y-116185552D01*
X159362883Y-116125537D01*
X159232485Y-116038408D01*
X159121592Y-115927515D01*
X159034463Y-115797117D01*
X158974448Y-115652228D01*
X158943852Y-115498414D01*
X158943852Y-115341586D01*
X158974448Y-115187772D01*
X159034463Y-115042883D01*
X159121592Y-114912485D01*
X159232485Y-114801592D01*
X159362883Y-114714463D01*
X159507772Y-114654448D01*
X159661586Y-114623852D01*
X159818414Y-114623852D01*
X159972228Y-114654448D01*
G37*
G36*
X165032228Y-114434448D02*
G01*
X165177117Y-114494463D01*
X165307515Y-114581592D01*
X165418408Y-114692485D01*
X165505537Y-114822883D01*
X165565552Y-114967772D01*
X165596148Y-115121586D01*
X165596148Y-115278414D01*
X165565552Y-115432228D01*
X165505537Y-115577117D01*
X165418408Y-115707515D01*
X165307515Y-115818408D01*
X165177117Y-115905537D01*
X165032228Y-115965552D01*
X164878414Y-115996148D01*
X164721586Y-115996148D01*
X164567772Y-115965552D01*
X164422883Y-115905537D01*
X164292485Y-115818408D01*
X164181592Y-115707515D01*
X164094463Y-115577117D01*
X164034448Y-115432228D01*
X164003852Y-115278414D01*
X164003852Y-115121586D01*
X164034448Y-114967772D01*
X164094463Y-114822883D01*
X164181592Y-114692485D01*
X164292485Y-114581592D01*
X164422883Y-114494463D01*
X164567772Y-114434448D01*
X164721586Y-114403852D01*
X164878414Y-114403852D01*
X165032228Y-114434448D01*
G37*
G36*
X170032228Y-114434448D02*
G01*
X170177117Y-114494463D01*
X170307515Y-114581592D01*
X170418408Y-114692485D01*
X170505537Y-114822883D01*
X170565552Y-114967772D01*
X170596148Y-115121586D01*
X170596148Y-115278414D01*
X170565552Y-115432228D01*
X170505537Y-115577117D01*
X170418408Y-115707515D01*
X170307515Y-115818408D01*
X170177117Y-115905537D01*
X170032228Y-115965552D01*
X169878414Y-115996148D01*
X169721586Y-115996148D01*
X169567772Y-115965552D01*
X169422883Y-115905537D01*
X169292485Y-115818408D01*
X169181592Y-115707515D01*
X169094463Y-115577117D01*
X169034448Y-115432228D01*
X169003852Y-115278414D01*
X169003852Y-115121586D01*
X169034448Y-114967772D01*
X169094463Y-114822883D01*
X169181592Y-114692485D01*
X169292485Y-114581592D01*
X169422883Y-114494463D01*
X169567772Y-114434448D01*
X169721586Y-114403852D01*
X169878414Y-114403852D01*
X170032228Y-114434448D01*
G37*
G36*
X189590285Y-112643060D02*
G01*
X189771397Y-112718079D01*
X189934393Y-112826990D01*
X190073010Y-112965607D01*
X190181921Y-113128603D01*
X190256940Y-113309715D01*
X190295185Y-113501983D01*
X190295185Y-113698017D01*
X190256940Y-113890285D01*
X190181921Y-114071397D01*
X190073010Y-114234393D01*
X189934393Y-114373010D01*
X189771397Y-114481921D01*
X189590285Y-114556940D01*
X189398017Y-114595185D01*
X189201983Y-114595185D01*
X189009715Y-114556940D01*
X188828603Y-114481921D01*
X188665607Y-114373010D01*
X188526990Y-114234393D01*
X188418079Y-114071397D01*
X188343060Y-113890285D01*
X188304815Y-113698017D01*
X188304815Y-113501983D01*
X188343060Y-113309715D01*
X188418079Y-113128603D01*
X188526990Y-112965607D01*
X188665607Y-112826990D01*
X188828603Y-112718079D01*
X189009715Y-112643060D01*
X189201983Y-112604815D01*
X189398017Y-112604815D01*
X189590285Y-112643060D01*
G37*
G36*
X196090285Y-112643060D02*
G01*
X196271397Y-112718079D01*
X196434393Y-112826990D01*
X196573010Y-112965607D01*
X196681921Y-113128603D01*
X196756940Y-113309715D01*
X196795185Y-113501983D01*
X196795185Y-113698017D01*
X196756940Y-113890285D01*
X196681921Y-114071397D01*
X196573010Y-114234393D01*
X196434393Y-114373010D01*
X196271397Y-114481921D01*
X196090285Y-114556940D01*
X195898017Y-114595185D01*
X195701983Y-114595185D01*
X195509715Y-114556940D01*
X195328603Y-114481921D01*
X195165607Y-114373010D01*
X195026990Y-114234393D01*
X194918079Y-114071397D01*
X194843060Y-113890285D01*
X194804815Y-113698017D01*
X194804815Y-113501983D01*
X194843060Y-113309715D01*
X194918079Y-113128603D01*
X195026990Y-112965607D01*
X195165607Y-112826990D01*
X195328603Y-112718079D01*
X195509715Y-112643060D01*
X195701983Y-112604815D01*
X195898017Y-112604815D01*
X196090285Y-112643060D01*
G37*
G36*
X144732228Y-112114448D02*
G01*
X144877117Y-112174463D01*
X145007515Y-112261592D01*
X145118408Y-112372485D01*
X145205537Y-112502883D01*
X145265552Y-112647772D01*
X145296148Y-112801586D01*
X145296148Y-112958414D01*
X145265552Y-113112228D01*
X145205537Y-113257117D01*
X145118408Y-113387515D01*
X145007515Y-113498408D01*
X144877117Y-113585537D01*
X144732228Y-113645552D01*
X144578414Y-113676148D01*
X144421586Y-113676148D01*
X144267772Y-113645552D01*
X144122883Y-113585537D01*
X143992485Y-113498408D01*
X143881592Y-113387515D01*
X143794463Y-113257117D01*
X143734448Y-113112228D01*
X143703852Y-112958414D01*
X143703852Y-112801586D01*
X143734448Y-112647772D01*
X143794463Y-112502883D01*
X143881592Y-112372485D01*
X143992485Y-112261592D01*
X144122883Y-112174463D01*
X144267772Y-112114448D01*
X144421586Y-112083852D01*
X144578414Y-112083852D01*
X144732228Y-112114448D01*
G37*
G36*
X159972228Y-112114448D02*
G01*
X160117117Y-112174463D01*
X160247515Y-112261592D01*
X160358408Y-112372485D01*
X160445537Y-112502883D01*
X160505552Y-112647772D01*
X160536148Y-112801586D01*
X160536148Y-112958414D01*
X160505552Y-113112228D01*
X160445537Y-113257117D01*
X160358408Y-113387515D01*
X160247515Y-113498408D01*
X160117117Y-113585537D01*
X159972228Y-113645552D01*
X159818414Y-113676148D01*
X159661586Y-113676148D01*
X159507772Y-113645552D01*
X159362883Y-113585537D01*
X159232485Y-113498408D01*
X159121592Y-113387515D01*
X159034463Y-113257117D01*
X158974448Y-113112228D01*
X158943852Y-112958414D01*
X158943852Y-112801586D01*
X158974448Y-112647772D01*
X159034463Y-112502883D01*
X159121592Y-112372485D01*
X159232485Y-112261592D01*
X159362883Y-112174463D01*
X159507772Y-112114448D01*
X159661586Y-112083852D01*
X159818414Y-112083852D01*
X159972228Y-112114448D01*
G37*
G36*
X120677401Y-112179501D02*
G01*
X120739204Y-112220796D01*
X120780499Y-112282599D01*
X120795000Y-112355500D01*
X120795000Y-113244500D01*
X120780499Y-113317401D01*
X120739204Y-113379204D01*
X120677401Y-113420499D01*
X120604500Y-113435000D01*
X119715500Y-113435000D01*
X119642599Y-113420499D01*
X119580796Y-113379204D01*
X119539501Y-113317401D01*
X119525000Y-113244500D01*
X119525000Y-112355500D01*
X119539501Y-112282599D01*
X119580796Y-112220796D01*
X119642599Y-112179501D01*
X119715500Y-112165000D01*
X120604500Y-112165000D01*
X120677401Y-112179501D01*
G37*
G36*
X123217401Y-112179501D02*
G01*
X123279204Y-112220796D01*
X123320499Y-112282599D01*
X123335000Y-112355500D01*
X123335000Y-113244500D01*
X123320499Y-113317401D01*
X123279204Y-113379204D01*
X123217401Y-113420499D01*
X123144500Y-113435000D01*
X122255500Y-113435000D01*
X122182599Y-113420499D01*
X122120796Y-113379204D01*
X122079501Y-113317401D01*
X122065000Y-113244500D01*
X122065000Y-112355500D01*
X122079501Y-112282599D01*
X122120796Y-112220796D01*
X122182599Y-112179501D01*
X122255500Y-112165000D01*
X123144500Y-112165000D01*
X123217401Y-112179501D01*
G37*
G36*
X125757401Y-112179501D02*
G01*
X125819204Y-112220796D01*
X125860499Y-112282599D01*
X125875000Y-112355500D01*
X125875000Y-113244500D01*
X125860499Y-113317401D01*
X125819204Y-113379204D01*
X125757401Y-113420499D01*
X125684500Y-113435000D01*
X124795500Y-113435000D01*
X124722599Y-113420499D01*
X124660796Y-113379204D01*
X124619501Y-113317401D01*
X124605000Y-113244500D01*
X124605000Y-112355500D01*
X124619501Y-112282599D01*
X124660796Y-112220796D01*
X124722599Y-112179501D01*
X124795500Y-112165000D01*
X125684500Y-112165000D01*
X125757401Y-112179501D01*
G37*
G36*
X128297401Y-112179501D02*
G01*
X128359204Y-112220796D01*
X128400499Y-112282599D01*
X128415000Y-112355500D01*
X128415000Y-113244500D01*
X128400499Y-113317401D01*
X128359204Y-113379204D01*
X128297401Y-113420499D01*
X128224500Y-113435000D01*
X127335500Y-113435000D01*
X127262599Y-113420499D01*
X127200796Y-113379204D01*
X127159501Y-113317401D01*
X127145000Y-113244500D01*
X127145000Y-112355500D01*
X127159501Y-112282599D01*
X127200796Y-112220796D01*
X127262599Y-112179501D01*
X127335500Y-112165000D01*
X128224500Y-112165000D01*
X128297401Y-112179501D01*
G37*
G36*
X130837401Y-112179501D02*
G01*
X130899204Y-112220796D01*
X130940499Y-112282599D01*
X130955000Y-112355500D01*
X130955000Y-113244500D01*
X130940499Y-113317401D01*
X130899204Y-113379204D01*
X130837401Y-113420499D01*
X130764500Y-113435000D01*
X129875500Y-113435000D01*
X129802599Y-113420499D01*
X129740796Y-113379204D01*
X129699501Y-113317401D01*
X129685000Y-113244500D01*
X129685000Y-112355500D01*
X129699501Y-112282599D01*
X129740796Y-112220796D01*
X129802599Y-112179501D01*
X129875500Y-112165000D01*
X130764500Y-112165000D01*
X130837401Y-112179501D01*
G37*
G36*
X144732228Y-109574448D02*
G01*
X144877117Y-109634463D01*
X145007515Y-109721592D01*
X145118408Y-109832485D01*
X145205537Y-109962883D01*
X145265552Y-110107772D01*
X145296148Y-110261586D01*
X145296148Y-110418414D01*
X145265552Y-110572228D01*
X145205537Y-110717117D01*
X145118408Y-110847515D01*
X145007515Y-110958408D01*
X144877117Y-111045537D01*
X144732228Y-111105552D01*
X144578414Y-111136148D01*
X144421586Y-111136148D01*
X144267772Y-111105552D01*
X144122883Y-111045537D01*
X143992485Y-110958408D01*
X143881592Y-110847515D01*
X143794463Y-110717117D01*
X143734448Y-110572228D01*
X143703852Y-110418414D01*
X143703852Y-110261586D01*
X143734448Y-110107772D01*
X143794463Y-109962883D01*
X143881592Y-109832485D01*
X143992485Y-109721592D01*
X144122883Y-109634463D01*
X144267772Y-109574448D01*
X144421586Y-109543852D01*
X144578414Y-109543852D01*
X144732228Y-109574448D01*
G37*
G36*
X159972228Y-109574448D02*
G01*
X160117117Y-109634463D01*
X160247515Y-109721592D01*
X160358408Y-109832485D01*
X160445537Y-109962883D01*
X160505552Y-110107772D01*
X160536148Y-110261586D01*
X160536148Y-110418414D01*
X160505552Y-110572228D01*
X160445537Y-110717117D01*
X160358408Y-110847515D01*
X160247515Y-110958408D01*
X160117117Y-111045537D01*
X159972228Y-111105552D01*
X159818414Y-111136148D01*
X159661586Y-111136148D01*
X159507772Y-111105552D01*
X159362883Y-111045537D01*
X159232485Y-110958408D01*
X159121592Y-110847515D01*
X159034463Y-110717117D01*
X158974448Y-110572228D01*
X158943852Y-110418414D01*
X158943852Y-110261586D01*
X158974448Y-110107772D01*
X159034463Y-109962883D01*
X159121592Y-109832485D01*
X159232485Y-109721592D01*
X159362883Y-109634463D01*
X159507772Y-109574448D01*
X159661586Y-109543852D01*
X159818414Y-109543852D01*
X159972228Y-109574448D01*
G37*
G36*
X144732228Y-107034448D02*
G01*
X144877117Y-107094463D01*
X145007515Y-107181592D01*
X145118408Y-107292485D01*
X145205537Y-107422883D01*
X145265552Y-107567772D01*
X145296148Y-107721586D01*
X145296148Y-107878414D01*
X145265552Y-108032228D01*
X145205537Y-108177117D01*
X145118408Y-108307515D01*
X145007515Y-108418408D01*
X144877117Y-108505537D01*
X144732228Y-108565552D01*
X144578414Y-108596148D01*
X144421586Y-108596148D01*
X144267772Y-108565552D01*
X144122883Y-108505537D01*
X143992485Y-108418408D01*
X143881592Y-108307515D01*
X143794463Y-108177117D01*
X143734448Y-108032228D01*
X143703852Y-107878414D01*
X143703852Y-107721586D01*
X143734448Y-107567772D01*
X143794463Y-107422883D01*
X143881592Y-107292485D01*
X143992485Y-107181592D01*
X144122883Y-107094463D01*
X144267772Y-107034448D01*
X144421586Y-107003852D01*
X144578414Y-107003852D01*
X144732228Y-107034448D01*
G37*
G36*
X159972228Y-107034448D02*
G01*
X160117117Y-107094463D01*
X160247515Y-107181592D01*
X160358408Y-107292485D01*
X160445537Y-107422883D01*
X160505552Y-107567772D01*
X160536148Y-107721586D01*
X160536148Y-107878414D01*
X160505552Y-108032228D01*
X160445537Y-108177117D01*
X160358408Y-108307515D01*
X160247515Y-108418408D01*
X160117117Y-108505537D01*
X159972228Y-108565552D01*
X159818414Y-108596148D01*
X159661586Y-108596148D01*
X159507772Y-108565552D01*
X159362883Y-108505537D01*
X159232485Y-108418408D01*
X159121592Y-108307515D01*
X159034463Y-108177117D01*
X158974448Y-108032228D01*
X158943852Y-107878414D01*
X158943852Y-107721586D01*
X158974448Y-107567772D01*
X159034463Y-107422883D01*
X159121592Y-107292485D01*
X159232485Y-107181592D01*
X159362883Y-107094463D01*
X159507772Y-107034448D01*
X159661586Y-107003852D01*
X159818414Y-107003852D01*
X159972228Y-107034448D01*
G37*
G36*
X189640285Y-106393060D02*
G01*
X189821397Y-106468079D01*
X189984393Y-106576990D01*
X190123010Y-106715607D01*
X190231921Y-106878603D01*
X190306940Y-107059715D01*
X190345185Y-107251983D01*
X190345185Y-107448017D01*
X190306940Y-107640285D01*
X190231921Y-107821397D01*
X190123010Y-107984393D01*
X189984393Y-108123010D01*
X189821397Y-108231921D01*
X189640285Y-108306940D01*
X189448017Y-108345185D01*
X189251983Y-108345185D01*
X189059715Y-108306940D01*
X188878603Y-108231921D01*
X188715607Y-108123010D01*
X188576990Y-107984393D01*
X188468079Y-107821397D01*
X188393060Y-107640285D01*
X188354815Y-107448017D01*
X188354815Y-107251983D01*
X188393060Y-107059715D01*
X188468079Y-106878603D01*
X188576990Y-106715607D01*
X188715607Y-106576990D01*
X188878603Y-106468079D01*
X189059715Y-106393060D01*
X189251983Y-106354815D01*
X189448017Y-106354815D01*
X189640285Y-106393060D01*
G37*
G36*
X196140285Y-106393060D02*
G01*
X196321397Y-106468079D01*
X196484393Y-106576990D01*
X196623010Y-106715607D01*
X196731921Y-106878603D01*
X196806940Y-107059715D01*
X196845185Y-107251983D01*
X196845185Y-107448017D01*
X196806940Y-107640285D01*
X196731921Y-107821397D01*
X196623010Y-107984393D01*
X196484393Y-108123010D01*
X196321397Y-108231921D01*
X196140285Y-108306940D01*
X195948017Y-108345185D01*
X195751983Y-108345185D01*
X195559715Y-108306940D01*
X195378603Y-108231921D01*
X195215607Y-108123010D01*
X195076990Y-107984393D01*
X194968079Y-107821397D01*
X194893060Y-107640285D01*
X194854815Y-107448017D01*
X194854815Y-107251983D01*
X194893060Y-107059715D01*
X194968079Y-106878603D01*
X195076990Y-106715607D01*
X195215607Y-106576990D01*
X195378603Y-106468079D01*
X195559715Y-106393060D01*
X195751983Y-106354815D01*
X195948017Y-106354815D01*
X196140285Y-106393060D01*
G37*
G36*
X174422228Y-104734448D02*
G01*
X174567117Y-104794463D01*
X174697515Y-104881592D01*
X174808408Y-104992485D01*
X174895537Y-105122883D01*
X174955552Y-105267772D01*
X174986148Y-105421586D01*
X174986148Y-105578414D01*
X174955552Y-105732228D01*
X174895537Y-105877117D01*
X174808408Y-106007515D01*
X174697515Y-106118408D01*
X174567117Y-106205537D01*
X174422228Y-106265552D01*
X174268414Y-106296148D01*
X174111586Y-106296148D01*
X173957772Y-106265552D01*
X173812883Y-106205537D01*
X173682485Y-106118408D01*
X173571592Y-106007515D01*
X173484463Y-105877117D01*
X173424448Y-105732228D01*
X173393852Y-105578414D01*
X173393852Y-105421586D01*
X173424448Y-105267772D01*
X173484463Y-105122883D01*
X173571592Y-104992485D01*
X173682485Y-104881592D01*
X173812883Y-104794463D01*
X173957772Y-104734448D01*
X174111586Y-104703852D01*
X174268414Y-104703852D01*
X174422228Y-104734448D01*
G37*
G36*
X182042228Y-104734448D02*
G01*
X182187117Y-104794463D01*
X182317515Y-104881592D01*
X182428408Y-104992485D01*
X182515537Y-105122883D01*
X182575552Y-105267772D01*
X182606148Y-105421586D01*
X182606148Y-105578414D01*
X182575552Y-105732228D01*
X182515537Y-105877117D01*
X182428408Y-106007515D01*
X182317515Y-106118408D01*
X182187117Y-106205537D01*
X182042228Y-106265552D01*
X181888414Y-106296148D01*
X181731586Y-106296148D01*
X181577772Y-106265552D01*
X181432883Y-106205537D01*
X181302485Y-106118408D01*
X181191592Y-106007515D01*
X181104463Y-105877117D01*
X181044448Y-105732228D01*
X181013852Y-105578414D01*
X181013852Y-105421586D01*
X181044448Y-105267772D01*
X181104463Y-105122883D01*
X181191592Y-104992485D01*
X181302485Y-104881592D01*
X181432883Y-104794463D01*
X181577772Y-104734448D01*
X181731586Y-104703852D01*
X181888414Y-104703852D01*
X182042228Y-104734448D01*
G37*
G36*
X144732228Y-104494448D02*
G01*
X144877117Y-104554463D01*
X145007515Y-104641592D01*
X145118408Y-104752485D01*
X145205537Y-104882883D01*
X145265552Y-105027772D01*
X145296148Y-105181586D01*
X145296148Y-105338414D01*
X145265552Y-105492228D01*
X145205537Y-105637117D01*
X145118408Y-105767515D01*
X145007515Y-105878408D01*
X144877117Y-105965537D01*
X144732228Y-106025552D01*
X144578414Y-106056148D01*
X144421586Y-106056148D01*
X144267772Y-106025552D01*
X144122883Y-105965537D01*
X143992485Y-105878408D01*
X143881592Y-105767515D01*
X143794463Y-105637117D01*
X143734448Y-105492228D01*
X143703852Y-105338414D01*
X143703852Y-105181586D01*
X143734448Y-105027772D01*
X143794463Y-104882883D01*
X143881592Y-104752485D01*
X143992485Y-104641592D01*
X144122883Y-104554463D01*
X144267772Y-104494448D01*
X144421586Y-104463852D01*
X144578414Y-104463852D01*
X144732228Y-104494448D01*
G37*
G36*
X159972228Y-104494448D02*
G01*
X160117117Y-104554463D01*
X160247515Y-104641592D01*
X160358408Y-104752485D01*
X160445537Y-104882883D01*
X160505552Y-105027772D01*
X160536148Y-105181586D01*
X160536148Y-105338414D01*
X160505552Y-105492228D01*
X160445537Y-105637117D01*
X160358408Y-105767515D01*
X160247515Y-105878408D01*
X160117117Y-105965537D01*
X159972228Y-106025552D01*
X159818414Y-106056148D01*
X159661586Y-106056148D01*
X159507772Y-106025552D01*
X159362883Y-105965537D01*
X159232485Y-105878408D01*
X159121592Y-105767515D01*
X159034463Y-105637117D01*
X158974448Y-105492228D01*
X158943852Y-105338414D01*
X158943852Y-105181586D01*
X158974448Y-105027772D01*
X159034463Y-104882883D01*
X159121592Y-104752485D01*
X159232485Y-104641592D01*
X159362883Y-104554463D01*
X159507772Y-104494448D01*
X159661586Y-104463852D01*
X159818414Y-104463852D01*
X159972228Y-104494448D01*
G37*
G36*
X164932228Y-104234448D02*
G01*
X165077117Y-104294463D01*
X165207515Y-104381592D01*
X165318408Y-104492485D01*
X165405537Y-104622883D01*
X165465552Y-104767772D01*
X165496148Y-104921586D01*
X165496148Y-105078414D01*
X165465552Y-105232228D01*
X165405537Y-105377117D01*
X165318408Y-105507515D01*
X165207515Y-105618408D01*
X165077117Y-105705537D01*
X164932228Y-105765552D01*
X164778414Y-105796148D01*
X164621586Y-105796148D01*
X164467772Y-105765552D01*
X164322883Y-105705537D01*
X164192485Y-105618408D01*
X164081592Y-105507515D01*
X163994463Y-105377117D01*
X163934448Y-105232228D01*
X163903852Y-105078414D01*
X163903852Y-104921586D01*
X163934448Y-104767772D01*
X163994463Y-104622883D01*
X164081592Y-104492485D01*
X164192485Y-104381592D01*
X164322883Y-104294463D01*
X164467772Y-104234448D01*
X164621586Y-104203852D01*
X164778414Y-104203852D01*
X164932228Y-104234448D01*
G37*
G36*
X169932228Y-104234448D02*
G01*
X170077117Y-104294463D01*
X170207515Y-104381592D01*
X170318408Y-104492485D01*
X170405537Y-104622883D01*
X170465552Y-104767772D01*
X170496148Y-104921586D01*
X170496148Y-105078414D01*
X170465552Y-105232228D01*
X170405537Y-105377117D01*
X170318408Y-105507515D01*
X170207515Y-105618408D01*
X170077117Y-105705537D01*
X169932228Y-105765552D01*
X169778414Y-105796148D01*
X169621586Y-105796148D01*
X169467772Y-105765552D01*
X169322883Y-105705537D01*
X169192485Y-105618408D01*
X169081592Y-105507515D01*
X168994463Y-105377117D01*
X168934448Y-105232228D01*
X168903852Y-105078414D01*
X168903852Y-104921586D01*
X168934448Y-104767772D01*
X168994463Y-104622883D01*
X169081592Y-104492485D01*
X169192485Y-104381592D01*
X169322883Y-104294463D01*
X169467772Y-104234448D01*
X169621586Y-104203852D01*
X169778414Y-104203852D01*
X169932228Y-104234448D01*
G37*
G36*
X189640285Y-101893060D02*
G01*
X189821397Y-101968079D01*
X189984393Y-102076990D01*
X190123010Y-102215607D01*
X190231921Y-102378603D01*
X190306940Y-102559715D01*
X190345185Y-102751983D01*
X190345185Y-102948017D01*
X190306940Y-103140285D01*
X190231921Y-103321397D01*
X190123010Y-103484393D01*
X189984393Y-103623010D01*
X189821397Y-103731921D01*
X189640285Y-103806940D01*
X189448017Y-103845185D01*
X189251983Y-103845185D01*
X189059715Y-103806940D01*
X188878603Y-103731921D01*
X188715607Y-103623010D01*
X188576990Y-103484393D01*
X188468079Y-103321397D01*
X188393060Y-103140285D01*
X188354815Y-102948017D01*
X188354815Y-102751983D01*
X188393060Y-102559715D01*
X188468079Y-102378603D01*
X188576990Y-102215607D01*
X188715607Y-102076990D01*
X188878603Y-101968079D01*
X189059715Y-101893060D01*
X189251983Y-101854815D01*
X189448017Y-101854815D01*
X189640285Y-101893060D01*
G37*
G36*
X196140285Y-101893060D02*
G01*
X196321397Y-101968079D01*
X196484393Y-102076990D01*
X196623010Y-102215607D01*
X196731921Y-102378603D01*
X196806940Y-102559715D01*
X196845185Y-102751983D01*
X196845185Y-102948017D01*
X196806940Y-103140285D01*
X196731921Y-103321397D01*
X196623010Y-103484393D01*
X196484393Y-103623010D01*
X196321397Y-103731921D01*
X196140285Y-103806940D01*
X195948017Y-103845185D01*
X195751983Y-103845185D01*
X195559715Y-103806940D01*
X195378603Y-103731921D01*
X195215607Y-103623010D01*
X195076990Y-103484393D01*
X194968079Y-103321397D01*
X194893060Y-103140285D01*
X194854815Y-102948017D01*
X194854815Y-102751983D01*
X194893060Y-102559715D01*
X194968079Y-102378603D01*
X195076990Y-102215607D01*
X195215607Y-102076990D01*
X195378603Y-101968079D01*
X195559715Y-101893060D01*
X195751983Y-101854815D01*
X195948017Y-101854815D01*
X196140285Y-101893060D01*
G37*
G36*
X144732228Y-101954448D02*
G01*
X144877117Y-102014463D01*
X145007515Y-102101592D01*
X145118408Y-102212485D01*
X145205537Y-102342883D01*
X145265552Y-102487772D01*
X145296148Y-102641586D01*
X145296148Y-102798414D01*
X145265552Y-102952228D01*
X145205537Y-103097117D01*
X145118408Y-103227515D01*
X145007515Y-103338408D01*
X144877117Y-103425537D01*
X144732228Y-103485552D01*
X144578414Y-103516148D01*
X144421586Y-103516148D01*
X144267772Y-103485552D01*
X144122883Y-103425537D01*
X143992485Y-103338408D01*
X143881592Y-103227515D01*
X143794463Y-103097117D01*
X143734448Y-102952228D01*
X143703852Y-102798414D01*
X143703852Y-102641586D01*
X143734448Y-102487772D01*
X143794463Y-102342883D01*
X143881592Y-102212485D01*
X143992485Y-102101592D01*
X144122883Y-102014463D01*
X144267772Y-101954448D01*
X144421586Y-101923852D01*
X144578414Y-101923852D01*
X144732228Y-101954448D01*
G37*
G36*
X159972228Y-101954448D02*
G01*
X160117117Y-102014463D01*
X160247515Y-102101592D01*
X160358408Y-102212485D01*
X160445537Y-102342883D01*
X160505552Y-102487772D01*
X160536148Y-102641586D01*
X160536148Y-102798414D01*
X160505552Y-102952228D01*
X160445537Y-103097117D01*
X160358408Y-103227515D01*
X160247515Y-103338408D01*
X160117117Y-103425537D01*
X159972228Y-103485552D01*
X159818414Y-103516148D01*
X159661586Y-103516148D01*
X159507772Y-103485552D01*
X159362883Y-103425537D01*
X159232485Y-103338408D01*
X159121592Y-103227515D01*
X159034463Y-103097117D01*
X158974448Y-102952228D01*
X158943852Y-102798414D01*
X158943852Y-102641586D01*
X158974448Y-102487772D01*
X159034463Y-102342883D01*
X159121592Y-102212485D01*
X159232485Y-102101592D01*
X159362883Y-102014463D01*
X159507772Y-101954448D01*
X159661586Y-101923852D01*
X159818414Y-101923852D01*
X159972228Y-101954448D01*
G37*
G36*
X144732228Y-99414448D02*
G01*
X144877117Y-99474463D01*
X145007515Y-99561592D01*
X145118408Y-99672485D01*
X145205537Y-99802883D01*
X145265552Y-99947772D01*
X145296148Y-100101586D01*
X145296148Y-100258414D01*
X145265552Y-100412228D01*
X145205537Y-100557117D01*
X145118408Y-100687515D01*
X145007515Y-100798408D01*
X144877117Y-100885537D01*
X144732228Y-100945552D01*
X144578414Y-100976148D01*
X144421586Y-100976148D01*
X144267772Y-100945552D01*
X144122883Y-100885537D01*
X143992485Y-100798408D01*
X143881592Y-100687515D01*
X143794463Y-100557117D01*
X143734448Y-100412228D01*
X143703852Y-100258414D01*
X143703852Y-100101586D01*
X143734448Y-99947772D01*
X143794463Y-99802883D01*
X143881592Y-99672485D01*
X143992485Y-99561592D01*
X144122883Y-99474463D01*
X144267772Y-99414448D01*
X144421586Y-99383852D01*
X144578414Y-99383852D01*
X144732228Y-99414448D01*
G37*
G36*
X159972228Y-99414448D02*
G01*
X160117117Y-99474463D01*
X160247515Y-99561592D01*
X160358408Y-99672485D01*
X160445537Y-99802883D01*
X160505552Y-99947772D01*
X160536148Y-100101586D01*
X160536148Y-100258414D01*
X160505552Y-100412228D01*
X160445537Y-100557117D01*
X160358408Y-100687515D01*
X160247515Y-100798408D01*
X160117117Y-100885537D01*
X159972228Y-100945552D01*
X159818414Y-100976148D01*
X159661586Y-100976148D01*
X159507772Y-100945552D01*
X159362883Y-100885537D01*
X159232485Y-100798408D01*
X159121592Y-100687515D01*
X159034463Y-100557117D01*
X158974448Y-100412228D01*
X158943852Y-100258414D01*
X158943852Y-100101586D01*
X158974448Y-99947772D01*
X159034463Y-99802883D01*
X159121592Y-99672485D01*
X159232485Y-99561592D01*
X159362883Y-99474463D01*
X159507772Y-99414448D01*
X159661586Y-99383852D01*
X159818414Y-99383852D01*
X159972228Y-99414448D01*
G37*
G36*
X144732228Y-96874448D02*
G01*
X144877117Y-96934463D01*
X145007515Y-97021592D01*
X145118408Y-97132485D01*
X145205537Y-97262883D01*
X145265552Y-97407772D01*
X145296148Y-97561586D01*
X145296148Y-97718414D01*
X145265552Y-97872228D01*
X145205537Y-98017117D01*
X145118408Y-98147515D01*
X145007515Y-98258408D01*
X144877117Y-98345537D01*
X144732228Y-98405552D01*
X144578414Y-98436148D01*
X144421586Y-98436148D01*
X144267772Y-98405552D01*
X144122883Y-98345537D01*
X143992485Y-98258408D01*
X143881592Y-98147515D01*
X143794463Y-98017117D01*
X143734448Y-97872228D01*
X143703852Y-97718414D01*
X143703852Y-97561586D01*
X143734448Y-97407772D01*
X143794463Y-97262883D01*
X143881592Y-97132485D01*
X143992485Y-97021592D01*
X144122883Y-96934463D01*
X144267772Y-96874448D01*
X144421586Y-96843852D01*
X144578414Y-96843852D01*
X144732228Y-96874448D01*
G37*
G36*
X159972228Y-96874448D02*
G01*
X160117117Y-96934463D01*
X160247515Y-97021592D01*
X160358408Y-97132485D01*
X160445537Y-97262883D01*
X160505552Y-97407772D01*
X160536148Y-97561586D01*
X160536148Y-97718414D01*
X160505552Y-97872228D01*
X160445537Y-98017117D01*
X160358408Y-98147515D01*
X160247515Y-98258408D01*
X160117117Y-98345537D01*
X159972228Y-98405552D01*
X159818414Y-98436148D01*
X159661586Y-98436148D01*
X159507772Y-98405552D01*
X159362883Y-98345537D01*
X159232485Y-98258408D01*
X159121592Y-98147515D01*
X159034463Y-98017117D01*
X158974448Y-97872228D01*
X158943852Y-97718414D01*
X158943852Y-97561586D01*
X158974448Y-97407772D01*
X159034463Y-97262883D01*
X159121592Y-97132485D01*
X159232485Y-97021592D01*
X159362883Y-96934463D01*
X159507772Y-96874448D01*
X159661586Y-96843852D01*
X159818414Y-96843852D01*
X159972228Y-96874448D01*
G37*
G36*
X189790285Y-96343060D02*
G01*
X189971397Y-96418079D01*
X190134393Y-96526990D01*
X190273010Y-96665607D01*
X190381921Y-96828603D01*
X190456940Y-97009715D01*
X190495185Y-97201983D01*
X190495185Y-97398017D01*
X190456940Y-97590285D01*
X190381921Y-97771397D01*
X190273010Y-97934393D01*
X190134393Y-98073010D01*
X189971397Y-98181921D01*
X189790285Y-98256940D01*
X189598017Y-98295185D01*
X189401983Y-98295185D01*
X189209715Y-98256940D01*
X189028603Y-98181921D01*
X188865607Y-98073010D01*
X188726990Y-97934393D01*
X188618079Y-97771397D01*
X188543060Y-97590285D01*
X188504815Y-97398017D01*
X188504815Y-97201983D01*
X188543060Y-97009715D01*
X188618079Y-96828603D01*
X188726990Y-96665607D01*
X188865607Y-96526990D01*
X189028603Y-96418079D01*
X189209715Y-96343060D01*
X189401983Y-96304815D01*
X189598017Y-96304815D01*
X189790285Y-96343060D01*
G37*
G36*
X196290285Y-96343060D02*
G01*
X196471397Y-96418079D01*
X196634393Y-96526990D01*
X196773010Y-96665607D01*
X196881921Y-96828603D01*
X196956940Y-97009715D01*
X196995185Y-97201983D01*
X196995185Y-97398017D01*
X196956940Y-97590285D01*
X196881921Y-97771397D01*
X196773010Y-97934393D01*
X196634393Y-98073010D01*
X196471397Y-98181921D01*
X196290285Y-98256940D01*
X196098017Y-98295185D01*
X195901983Y-98295185D01*
X195709715Y-98256940D01*
X195528603Y-98181921D01*
X195365607Y-98073010D01*
X195226990Y-97934393D01*
X195118079Y-97771397D01*
X195043060Y-97590285D01*
X195004815Y-97398017D01*
X195004815Y-97201983D01*
X195043060Y-97009715D01*
X195118079Y-96828603D01*
X195226990Y-96665607D01*
X195365607Y-96526990D01*
X195528603Y-96418079D01*
X195709715Y-96343060D01*
X195901983Y-96304815D01*
X196098017Y-96304815D01*
X196290285Y-96343060D01*
G37*
G36*
X165232228Y-94734448D02*
G01*
X165377117Y-94794463D01*
X165507515Y-94881592D01*
X165618408Y-94992485D01*
X165705537Y-95122883D01*
X165765552Y-95267772D01*
X165796148Y-95421586D01*
X165796148Y-95578414D01*
X165765552Y-95732228D01*
X165705537Y-95877117D01*
X165618408Y-96007515D01*
X165507515Y-96118408D01*
X165377117Y-96205537D01*
X165232228Y-96265552D01*
X165078414Y-96296148D01*
X164921586Y-96296148D01*
X164767772Y-96265552D01*
X164622883Y-96205537D01*
X164492485Y-96118408D01*
X164381592Y-96007515D01*
X164294463Y-95877117D01*
X164234448Y-95732228D01*
X164203852Y-95578414D01*
X164203852Y-95421586D01*
X164234448Y-95267772D01*
X164294463Y-95122883D01*
X164381592Y-94992485D01*
X164492485Y-94881592D01*
X164622883Y-94794463D01*
X164767772Y-94734448D01*
X164921586Y-94703852D01*
X165078414Y-94703852D01*
X165232228Y-94734448D01*
G37*
G36*
X170232228Y-94734448D02*
G01*
X170377117Y-94794463D01*
X170507515Y-94881592D01*
X170618408Y-94992485D01*
X170705537Y-95122883D01*
X170765552Y-95267772D01*
X170796148Y-95421586D01*
X170796148Y-95578414D01*
X170765552Y-95732228D01*
X170705537Y-95877117D01*
X170618408Y-96007515D01*
X170507515Y-96118408D01*
X170377117Y-96205537D01*
X170232228Y-96265552D01*
X170078414Y-96296148D01*
X169921586Y-96296148D01*
X169767772Y-96265552D01*
X169622883Y-96205537D01*
X169492485Y-96118408D01*
X169381592Y-96007515D01*
X169294463Y-95877117D01*
X169234448Y-95732228D01*
X169203852Y-95578414D01*
X169203852Y-95421586D01*
X169234448Y-95267772D01*
X169294463Y-95122883D01*
X169381592Y-94992485D01*
X169492485Y-94881592D01*
X169622883Y-94794463D01*
X169767772Y-94734448D01*
X169921586Y-94703852D01*
X170078414Y-94703852D01*
X170232228Y-94734448D01*
G37*
G36*
X174422228Y-94734448D02*
G01*
X174567117Y-94794463D01*
X174697515Y-94881592D01*
X174808408Y-94992485D01*
X174895537Y-95122883D01*
X174955552Y-95267772D01*
X174986148Y-95421586D01*
X174986148Y-95578414D01*
X174955552Y-95732228D01*
X174895537Y-95877117D01*
X174808408Y-96007515D01*
X174697515Y-96118408D01*
X174567117Y-96205537D01*
X174422228Y-96265552D01*
X174268414Y-96296148D01*
X174111586Y-96296148D01*
X173957772Y-96265552D01*
X173812883Y-96205537D01*
X173682485Y-96118408D01*
X173571592Y-96007515D01*
X173484463Y-95877117D01*
X173424448Y-95732228D01*
X173393852Y-95578414D01*
X173393852Y-95421586D01*
X173424448Y-95267772D01*
X173484463Y-95122883D01*
X173571592Y-94992485D01*
X173682485Y-94881592D01*
X173812883Y-94794463D01*
X173957772Y-94734448D01*
X174111586Y-94703852D01*
X174268414Y-94703852D01*
X174422228Y-94734448D01*
G37*
G36*
X182042228Y-94734448D02*
G01*
X182187117Y-94794463D01*
X182317515Y-94881592D01*
X182428408Y-94992485D01*
X182515537Y-95122883D01*
X182575552Y-95267772D01*
X182606148Y-95421586D01*
X182606148Y-95578414D01*
X182575552Y-95732228D01*
X182515537Y-95877117D01*
X182428408Y-96007515D01*
X182317515Y-96118408D01*
X182187117Y-96205537D01*
X182042228Y-96265552D01*
X181888414Y-96296148D01*
X181731586Y-96296148D01*
X181577772Y-96265552D01*
X181432883Y-96205537D01*
X181302485Y-96118408D01*
X181191592Y-96007515D01*
X181104463Y-95877117D01*
X181044448Y-95732228D01*
X181013852Y-95578414D01*
X181013852Y-95421586D01*
X181044448Y-95267772D01*
X181104463Y-95122883D01*
X181191592Y-94992485D01*
X181302485Y-94881592D01*
X181432883Y-94794463D01*
X181577772Y-94734448D01*
X181731586Y-94703852D01*
X181888414Y-94703852D01*
X182042228Y-94734448D01*
G37*
G36*
X144732228Y-94334448D02*
G01*
X144877117Y-94394463D01*
X145007515Y-94481592D01*
X145118408Y-94592485D01*
X145205537Y-94722883D01*
X145265552Y-94867772D01*
X145296148Y-95021586D01*
X145296148Y-95178414D01*
X145265552Y-95332228D01*
X145205537Y-95477117D01*
X145118408Y-95607515D01*
X145007515Y-95718408D01*
X144877117Y-95805537D01*
X144732228Y-95865552D01*
X144578414Y-95896148D01*
X144421586Y-95896148D01*
X144267772Y-95865552D01*
X144122883Y-95805537D01*
X143992485Y-95718408D01*
X143881592Y-95607515D01*
X143794463Y-95477117D01*
X143734448Y-95332228D01*
X143703852Y-95178414D01*
X143703852Y-95021586D01*
X143734448Y-94867772D01*
X143794463Y-94722883D01*
X143881592Y-94592485D01*
X143992485Y-94481592D01*
X144122883Y-94394463D01*
X144267772Y-94334448D01*
X144421586Y-94303852D01*
X144578414Y-94303852D01*
X144732228Y-94334448D01*
G37*
G36*
X159972228Y-94334448D02*
G01*
X160117117Y-94394463D01*
X160247515Y-94481592D01*
X160358408Y-94592485D01*
X160445537Y-94722883D01*
X160505552Y-94867772D01*
X160536148Y-95021586D01*
X160536148Y-95178414D01*
X160505552Y-95332228D01*
X160445537Y-95477117D01*
X160358408Y-95607515D01*
X160247515Y-95718408D01*
X160117117Y-95805537D01*
X159972228Y-95865552D01*
X159818414Y-95896148D01*
X159661586Y-95896148D01*
X159507772Y-95865552D01*
X159362883Y-95805537D01*
X159232485Y-95718408D01*
X159121592Y-95607515D01*
X159034463Y-95477117D01*
X158974448Y-95332228D01*
X158943852Y-95178414D01*
X158943852Y-95021586D01*
X158974448Y-94867772D01*
X159034463Y-94722883D01*
X159121592Y-94592485D01*
X159232485Y-94481592D01*
X159362883Y-94394463D01*
X159507772Y-94334448D01*
X159661586Y-94303852D01*
X159818414Y-94303852D01*
X159972228Y-94334448D01*
G37*
G36*
X189790285Y-91843060D02*
G01*
X189971397Y-91918079D01*
X190134393Y-92026990D01*
X190273010Y-92165607D01*
X190381921Y-92328603D01*
X190456940Y-92509715D01*
X190495185Y-92701983D01*
X190495185Y-92898017D01*
X190456940Y-93090285D01*
X190381921Y-93271397D01*
X190273010Y-93434393D01*
X190134393Y-93573010D01*
X189971397Y-93681921D01*
X189790285Y-93756940D01*
X189598017Y-93795185D01*
X189401983Y-93795185D01*
X189209715Y-93756940D01*
X189028603Y-93681921D01*
X188865607Y-93573010D01*
X188726990Y-93434393D01*
X188618079Y-93271397D01*
X188543060Y-93090285D01*
X188504815Y-92898017D01*
X188504815Y-92701983D01*
X188543060Y-92509715D01*
X188618079Y-92328603D01*
X188726990Y-92165607D01*
X188865607Y-92026990D01*
X189028603Y-91918079D01*
X189209715Y-91843060D01*
X189401983Y-91804815D01*
X189598017Y-91804815D01*
X189790285Y-91843060D01*
G37*
G36*
X196290285Y-91843060D02*
G01*
X196471397Y-91918079D01*
X196634393Y-92026990D01*
X196773010Y-92165607D01*
X196881921Y-92328603D01*
X196956940Y-92509715D01*
X196995185Y-92701983D01*
X196995185Y-92898017D01*
X196956940Y-93090285D01*
X196881921Y-93271397D01*
X196773010Y-93434393D01*
X196634393Y-93573010D01*
X196471397Y-93681921D01*
X196290285Y-93756940D01*
X196098017Y-93795185D01*
X195901983Y-93795185D01*
X195709715Y-93756940D01*
X195528603Y-93681921D01*
X195365607Y-93573010D01*
X195226990Y-93434393D01*
X195118079Y-93271397D01*
X195043060Y-93090285D01*
X195004815Y-92898017D01*
X195004815Y-92701983D01*
X195043060Y-92509715D01*
X195118079Y-92328603D01*
X195226990Y-92165607D01*
X195365607Y-92026990D01*
X195528603Y-91918079D01*
X195709715Y-91843060D01*
X195901983Y-91804815D01*
X196098017Y-91804815D01*
X196290285Y-91843060D01*
G37*
G36*
X144732228Y-91794448D02*
G01*
X144877117Y-91854463D01*
X145007515Y-91941592D01*
X145118408Y-92052485D01*
X145205537Y-92182883D01*
X145265552Y-92327772D01*
X145296148Y-92481586D01*
X145296148Y-92638414D01*
X145265552Y-92792228D01*
X145205537Y-92937117D01*
X145118408Y-93067515D01*
X145007515Y-93178408D01*
X144877117Y-93265537D01*
X144732228Y-93325552D01*
X144578414Y-93356148D01*
X144421586Y-93356148D01*
X144267772Y-93325552D01*
X144122883Y-93265537D01*
X143992485Y-93178408D01*
X143881592Y-93067515D01*
X143794463Y-92937117D01*
X143734448Y-92792228D01*
X143703852Y-92638414D01*
X143703852Y-92481586D01*
X143734448Y-92327772D01*
X143794463Y-92182883D01*
X143881592Y-92052485D01*
X143992485Y-91941592D01*
X144122883Y-91854463D01*
X144267772Y-91794448D01*
X144421586Y-91763852D01*
X144578414Y-91763852D01*
X144732228Y-91794448D01*
G37*
G36*
X159972228Y-91794448D02*
G01*
X160117117Y-91854463D01*
X160247515Y-91941592D01*
X160358408Y-92052485D01*
X160445537Y-92182883D01*
X160505552Y-92327772D01*
X160536148Y-92481586D01*
X160536148Y-92638414D01*
X160505552Y-92792228D01*
X160445537Y-92937117D01*
X160358408Y-93067515D01*
X160247515Y-93178408D01*
X160117117Y-93265537D01*
X159972228Y-93325552D01*
X159818414Y-93356148D01*
X159661586Y-93356148D01*
X159507772Y-93325552D01*
X159362883Y-93265537D01*
X159232485Y-93178408D01*
X159121592Y-93067515D01*
X159034463Y-92937117D01*
X158974448Y-92792228D01*
X158943852Y-92638414D01*
X158943852Y-92481586D01*
X158974448Y-92327772D01*
X159034463Y-92182883D01*
X159121592Y-92052485D01*
X159232485Y-91941592D01*
X159362883Y-91854463D01*
X159507772Y-91794448D01*
X159661586Y-91763852D01*
X159818414Y-91763852D01*
X159972228Y-91794448D01*
G37*
G36*
X144732228Y-89254448D02*
G01*
X144877117Y-89314463D01*
X145007515Y-89401592D01*
X145118408Y-89512485D01*
X145205537Y-89642883D01*
X145265552Y-89787772D01*
X145296148Y-89941586D01*
X145296148Y-90098414D01*
X145265552Y-90252228D01*
X145205537Y-90397117D01*
X145118408Y-90527515D01*
X145007515Y-90638408D01*
X144877117Y-90725537D01*
X144732228Y-90785552D01*
X144578414Y-90816148D01*
X144421586Y-90816148D01*
X144267772Y-90785552D01*
X144122883Y-90725537D01*
X143992485Y-90638408D01*
X143881592Y-90527515D01*
X143794463Y-90397117D01*
X143734448Y-90252228D01*
X143703852Y-90098414D01*
X143703852Y-89941586D01*
X143734448Y-89787772D01*
X143794463Y-89642883D01*
X143881592Y-89512485D01*
X143992485Y-89401592D01*
X144122883Y-89314463D01*
X144267772Y-89254448D01*
X144421586Y-89223852D01*
X144578414Y-89223852D01*
X144732228Y-89254448D01*
G37*
G36*
X159972228Y-89254448D02*
G01*
X160117117Y-89314463D01*
X160247515Y-89401592D01*
X160358408Y-89512485D01*
X160445537Y-89642883D01*
X160505552Y-89787772D01*
X160536148Y-89941586D01*
X160536148Y-90098414D01*
X160505552Y-90252228D01*
X160445537Y-90397117D01*
X160358408Y-90527515D01*
X160247515Y-90638408D01*
X160117117Y-90725537D01*
X159972228Y-90785552D01*
X159818414Y-90816148D01*
X159661586Y-90816148D01*
X159507772Y-90785552D01*
X159362883Y-90725537D01*
X159232485Y-90638408D01*
X159121592Y-90527515D01*
X159034463Y-90397117D01*
X158974448Y-90252228D01*
X158943852Y-90098414D01*
X158943852Y-89941586D01*
X158974448Y-89787772D01*
X159034463Y-89642883D01*
X159121592Y-89512485D01*
X159232485Y-89401592D01*
X159362883Y-89314463D01*
X159507772Y-89254448D01*
X159661586Y-89223852D01*
X159818414Y-89223852D01*
X159972228Y-89254448D01*
G37*
G36*
X144732228Y-86714448D02*
G01*
X144877117Y-86774463D01*
X145007515Y-86861592D01*
X145118408Y-86972485D01*
X145205537Y-87102883D01*
X145265552Y-87247772D01*
X145296148Y-87401586D01*
X145296148Y-87558414D01*
X145265552Y-87712228D01*
X145205537Y-87857117D01*
X145118408Y-87987515D01*
X145007515Y-88098408D01*
X144877117Y-88185537D01*
X144732228Y-88245552D01*
X144578414Y-88276148D01*
X144421586Y-88276148D01*
X144267772Y-88245552D01*
X144122883Y-88185537D01*
X143992485Y-88098408D01*
X143881592Y-87987515D01*
X143794463Y-87857117D01*
X143734448Y-87712228D01*
X143703852Y-87558414D01*
X143703852Y-87401586D01*
X143734448Y-87247772D01*
X143794463Y-87102883D01*
X143881592Y-86972485D01*
X143992485Y-86861592D01*
X144122883Y-86774463D01*
X144267772Y-86714448D01*
X144421586Y-86683852D01*
X144578414Y-86683852D01*
X144732228Y-86714448D01*
G37*
G36*
X159972228Y-86714448D02*
G01*
X160117117Y-86774463D01*
X160247515Y-86861592D01*
X160358408Y-86972485D01*
X160445537Y-87102883D01*
X160505552Y-87247772D01*
X160536148Y-87401586D01*
X160536148Y-87558414D01*
X160505552Y-87712228D01*
X160445537Y-87857117D01*
X160358408Y-87987515D01*
X160247515Y-88098408D01*
X160117117Y-88185537D01*
X159972228Y-88245552D01*
X159818414Y-88276148D01*
X159661586Y-88276148D01*
X159507772Y-88245552D01*
X159362883Y-88185537D01*
X159232485Y-88098408D01*
X159121592Y-87987515D01*
X159034463Y-87857117D01*
X158974448Y-87712228D01*
X158943852Y-87558414D01*
X158943852Y-87401586D01*
X158974448Y-87247772D01*
X159034463Y-87102883D01*
X159121592Y-86972485D01*
X159232485Y-86861592D01*
X159362883Y-86774463D01*
X159507772Y-86714448D01*
X159661586Y-86683852D01*
X159818414Y-86683852D01*
X159972228Y-86714448D01*
G37*
G36*
X180725000Y-87100000D02*
G01*
X178925000Y-87100000D01*
X178925000Y-85300000D01*
X180725000Y-85300000D01*
X180725000Y-87100000D01*
G37*
G36*
X182626256Y-85338754D02*
G01*
X182789257Y-85406271D01*
X182935954Y-85504291D01*
X183060709Y-85629046D01*
X183158729Y-85775743D01*
X183226246Y-85938744D01*
X183260666Y-86111785D01*
X183260666Y-86288215D01*
X183226246Y-86461256D01*
X183158729Y-86624257D01*
X183060709Y-86770954D01*
X182935954Y-86895709D01*
X182789257Y-86993729D01*
X182626256Y-87061246D01*
X182453215Y-87095666D01*
X182276785Y-87095666D01*
X182103744Y-87061246D01*
X181940743Y-86993729D01*
X181794046Y-86895709D01*
X181669291Y-86770954D01*
X181571271Y-86624257D01*
X181503754Y-86461256D01*
X181469334Y-86288215D01*
X181469334Y-86111785D01*
X181503754Y-85938744D01*
X181571271Y-85775743D01*
X181669291Y-85629046D01*
X181794046Y-85504291D01*
X181940743Y-85406271D01*
X182103744Y-85338754D01*
X182276785Y-85304334D01*
X182453215Y-85304334D01*
X182626256Y-85338754D01*
G37*
G36*
X164622228Y-85234448D02*
G01*
X164767117Y-85294463D01*
X164897515Y-85381592D01*
X165008408Y-85492485D01*
X165095537Y-85622883D01*
X165155552Y-85767772D01*
X165186148Y-85921586D01*
X165186148Y-86078414D01*
X165155552Y-86232228D01*
X165095537Y-86377117D01*
X165008408Y-86507515D01*
X164897515Y-86618408D01*
X164767117Y-86705537D01*
X164622228Y-86765552D01*
X164468414Y-86796148D01*
X164311586Y-86796148D01*
X164157772Y-86765552D01*
X164012883Y-86705537D01*
X163882485Y-86618408D01*
X163771592Y-86507515D01*
X163684463Y-86377117D01*
X163624448Y-86232228D01*
X163593852Y-86078414D01*
X163593852Y-85921586D01*
X163624448Y-85767772D01*
X163684463Y-85622883D01*
X163771592Y-85492485D01*
X163882485Y-85381592D01*
X164012883Y-85294463D01*
X164157772Y-85234448D01*
X164311586Y-85203852D01*
X164468414Y-85203852D01*
X164622228Y-85234448D01*
G37*
G36*
X172242228Y-85234448D02*
G01*
X172387117Y-85294463D01*
X172517515Y-85381592D01*
X172628408Y-85492485D01*
X172715537Y-85622883D01*
X172775552Y-85767772D01*
X172806148Y-85921586D01*
X172806148Y-86078414D01*
X172775552Y-86232228D01*
X172715537Y-86377117D01*
X172628408Y-86507515D01*
X172517515Y-86618408D01*
X172387117Y-86705537D01*
X172242228Y-86765552D01*
X172088414Y-86796148D01*
X171931586Y-86796148D01*
X171777772Y-86765552D01*
X171632883Y-86705537D01*
X171502485Y-86618408D01*
X171391592Y-86507515D01*
X171304463Y-86377117D01*
X171244448Y-86232228D01*
X171213852Y-86078414D01*
X171213852Y-85921586D01*
X171244448Y-85767772D01*
X171304463Y-85622883D01*
X171391592Y-85492485D01*
X171502485Y-85381592D01*
X171632883Y-85294463D01*
X171777772Y-85234448D01*
X171931586Y-85203852D01*
X172088414Y-85203852D01*
X172242228Y-85234448D01*
G37*
G36*
X144732228Y-84174448D02*
G01*
X144877117Y-84234463D01*
X145007515Y-84321592D01*
X145118408Y-84432485D01*
X145205537Y-84562883D01*
X145265552Y-84707772D01*
X145296148Y-84861586D01*
X145296148Y-85018414D01*
X145265552Y-85172228D01*
X145205537Y-85317117D01*
X145118408Y-85447515D01*
X145007515Y-85558408D01*
X144877117Y-85645537D01*
X144732228Y-85705552D01*
X144578414Y-85736148D01*
X144421586Y-85736148D01*
X144267772Y-85705552D01*
X144122883Y-85645537D01*
X143992485Y-85558408D01*
X143881592Y-85447515D01*
X143794463Y-85317117D01*
X143734448Y-85172228D01*
X143703852Y-85018414D01*
X143703852Y-84861586D01*
X143734448Y-84707772D01*
X143794463Y-84562883D01*
X143881592Y-84432485D01*
X143992485Y-84321592D01*
X144122883Y-84234463D01*
X144267772Y-84174448D01*
X144421586Y-84143852D01*
X144578414Y-84143852D01*
X144732228Y-84174448D01*
G37*
G36*
X159972228Y-84174448D02*
G01*
X160117117Y-84234463D01*
X160247515Y-84321592D01*
X160358408Y-84432485D01*
X160445537Y-84562883D01*
X160505552Y-84707772D01*
X160536148Y-84861586D01*
X160536148Y-85018414D01*
X160505552Y-85172228D01*
X160445537Y-85317117D01*
X160358408Y-85447515D01*
X160247515Y-85558408D01*
X160117117Y-85645537D01*
X159972228Y-85705552D01*
X159818414Y-85736148D01*
X159661586Y-85736148D01*
X159507772Y-85705552D01*
X159362883Y-85645537D01*
X159232485Y-85558408D01*
X159121592Y-85447515D01*
X159034463Y-85317117D01*
X158974448Y-85172228D01*
X158943852Y-85018414D01*
X158943852Y-84861586D01*
X158974448Y-84707772D01*
X159034463Y-84562883D01*
X159121592Y-84432485D01*
X159232485Y-84321592D01*
X159362883Y-84234463D01*
X159507772Y-84174448D01*
X159661586Y-84143852D01*
X159818414Y-84143852D01*
X159972228Y-84174448D01*
G37*
G36*
X116684331Y-82792343D02*
G01*
X116799337Y-82839980D01*
X116902840Y-82909138D01*
X116990862Y-82997160D01*
X117060020Y-83100663D01*
X117107657Y-83215669D01*
X117131942Y-83337759D01*
X117131942Y-83462241D01*
X117107657Y-83584331D01*
X117060020Y-83699337D01*
X116990862Y-83802840D01*
X116902840Y-83890862D01*
X116799337Y-83960020D01*
X116684331Y-84007657D01*
X116562241Y-84031942D01*
X116437759Y-84031942D01*
X116315669Y-84007657D01*
X116200663Y-83960020D01*
X116097160Y-83890862D01*
X116009138Y-83802840D01*
X115939980Y-83699337D01*
X115892343Y-83584331D01*
X115868058Y-83462241D01*
X115868058Y-83337759D01*
X115892343Y-83215669D01*
X115939980Y-83100663D01*
X116009138Y-82997160D01*
X116097160Y-82909138D01*
X116200663Y-82839980D01*
X116315669Y-82792343D01*
X116437759Y-82768058D01*
X116562241Y-82768058D01*
X116684331Y-82792343D01*
G37*
G36*
X121764331Y-82792343D02*
G01*
X121879337Y-82839980D01*
X121982840Y-82909138D01*
X122070862Y-82997160D01*
X122140020Y-83100663D01*
X122187657Y-83215669D01*
X122211942Y-83337759D01*
X122211942Y-83462241D01*
X122187657Y-83584331D01*
X122140020Y-83699337D01*
X122070862Y-83802840D01*
X121982840Y-83890862D01*
X121879337Y-83960020D01*
X121764331Y-84007657D01*
X121642241Y-84031942D01*
X121517759Y-84031942D01*
X121395669Y-84007657D01*
X121280663Y-83960020D01*
X121177160Y-83890862D01*
X121089138Y-83802840D01*
X121019980Y-83699337D01*
X120972343Y-83584331D01*
X120948058Y-83462241D01*
X120948058Y-83337759D01*
X120972343Y-83215669D01*
X121019980Y-83100663D01*
X121089138Y-82997160D01*
X121177160Y-82909138D01*
X121280663Y-82839980D01*
X121395669Y-82792343D01*
X121517759Y-82768058D01*
X121642241Y-82768058D01*
X121764331Y-82792343D01*
G37*
G36*
X129384331Y-82792343D02*
G01*
X129499337Y-82839980D01*
X129602840Y-82909138D01*
X129690862Y-82997160D01*
X129760020Y-83100663D01*
X129807657Y-83215669D01*
X129831942Y-83337759D01*
X129831942Y-83462241D01*
X129807657Y-83584331D01*
X129760020Y-83699337D01*
X129690862Y-83802840D01*
X129602840Y-83890862D01*
X129499337Y-83960020D01*
X129384331Y-84007657D01*
X129262241Y-84031942D01*
X129137759Y-84031942D01*
X129015669Y-84007657D01*
X128900663Y-83960020D01*
X128797160Y-83890862D01*
X128709138Y-83802840D01*
X128639980Y-83699337D01*
X128592343Y-83584331D01*
X128568058Y-83462241D01*
X128568058Y-83337759D01*
X128592343Y-83215669D01*
X128639980Y-83100663D01*
X128709138Y-82997160D01*
X128797160Y-82909138D01*
X128900663Y-82839980D01*
X129015669Y-82792343D01*
X129137759Y-82768058D01*
X129262241Y-82768058D01*
X129384331Y-82792343D01*
G37*
G36*
X137004331Y-82792343D02*
G01*
X137119337Y-82839980D01*
X137222840Y-82909138D01*
X137310862Y-82997160D01*
X137380020Y-83100663D01*
X137427657Y-83215669D01*
X137451942Y-83337759D01*
X137451942Y-83462241D01*
X137427657Y-83584331D01*
X137380020Y-83699337D01*
X137310862Y-83802840D01*
X137222840Y-83890862D01*
X137119337Y-83960020D01*
X137004331Y-84007657D01*
X136882241Y-84031942D01*
X136757759Y-84031942D01*
X136635669Y-84007657D01*
X136520663Y-83960020D01*
X136417160Y-83890862D01*
X136329138Y-83802840D01*
X136259980Y-83699337D01*
X136212343Y-83584331D01*
X136188058Y-83462241D01*
X136188058Y-83337759D01*
X136212343Y-83215669D01*
X136259980Y-83100663D01*
X136329138Y-82997160D01*
X136417160Y-82909138D01*
X136520663Y-82839980D01*
X136635669Y-82792343D01*
X136757759Y-82768058D01*
X136882241Y-82768058D01*
X137004331Y-82792343D01*
G37*
M02*
