%TF.GenerationSoftware,KiCad,Pcbnew,10.0.4*%
%TF.CreationDate,2026-07-20T14:34:47+05:30*%
%TF.ProjectId,Learn_1,4c656172-6e5f-4312-9e6b-696361645f70,rev?*%
%TF.SameCoordinates,Original*%
%TF.FileFunction,Legend,Top*%
%TF.FilePolarity,Positive*%
%FSLAX46Y46*%
G04 Gerber Fmt 4.6, Leading zero omitted, Abs format (unit mm)*
G04 Created by KiCad (PCBNEW 10.0.4) date 2026-07-20 14:34:47*
%MOMM*%
%LPD*%
G01*
G04 APERTURE LIST*
%ADD10C,0.100000*%
%ADD11C,0.300000*%
%ADD12C,0.150000*%
%ADD13C,0.120000*%
G04 APERTURE END LIST*
D10*
X120689598Y-89072419D02*
X120689598Y-89786704D01*
X120689598Y-89786704D02*
X120641979Y-89929561D01*
X120641979Y-89929561D02*
X120546741Y-90024800D01*
X120546741Y-90024800D02*
X120403884Y-90072419D01*
X120403884Y-90072419D02*
X120308646Y-90072419D01*
X121641979Y-90072419D02*
X121165789Y-90072419D01*
X121165789Y-90072419D02*
X121165789Y-89072419D01*
X122546741Y-89977180D02*
X122499122Y-90024800D01*
X122499122Y-90024800D02*
X122356265Y-90072419D01*
X122356265Y-90072419D02*
X122261027Y-90072419D01*
X122261027Y-90072419D02*
X122118170Y-90024800D01*
X122118170Y-90024800D02*
X122022932Y-89929561D01*
X122022932Y-89929561D02*
X121975313Y-89834323D01*
X121975313Y-89834323D02*
X121927694Y-89643847D01*
X121927694Y-89643847D02*
X121927694Y-89500990D01*
X121927694Y-89500990D02*
X121975313Y-89310514D01*
X121975313Y-89310514D02*
X122022932Y-89215276D01*
X122022932Y-89215276D02*
X122118170Y-89120038D01*
X122118170Y-89120038D02*
X122261027Y-89072419D01*
X122261027Y-89072419D02*
X122356265Y-89072419D01*
X122356265Y-89072419D02*
X122499122Y-89120038D01*
X122499122Y-89120038D02*
X122546741Y-89167657D01*
X123261027Y-89072419D02*
X123261027Y-89786704D01*
X123261027Y-89786704D02*
X123213408Y-89929561D01*
X123213408Y-89929561D02*
X123118170Y-90024800D01*
X123118170Y-90024800D02*
X122975313Y-90072419D01*
X122975313Y-90072419D02*
X122880075Y-90072419D01*
X124213408Y-90072419D02*
X123737218Y-90072419D01*
X123737218Y-90072419D02*
X123737218Y-89072419D01*
X125118170Y-89977180D02*
X125070551Y-90024800D01*
X125070551Y-90024800D02*
X124927694Y-90072419D01*
X124927694Y-90072419D02*
X124832456Y-90072419D01*
X124832456Y-90072419D02*
X124689599Y-90024800D01*
X124689599Y-90024800D02*
X124594361Y-89929561D01*
X124594361Y-89929561D02*
X124546742Y-89834323D01*
X124546742Y-89834323D02*
X124499123Y-89643847D01*
X124499123Y-89643847D02*
X124499123Y-89500990D01*
X124499123Y-89500990D02*
X124546742Y-89310514D01*
X124546742Y-89310514D02*
X124594361Y-89215276D01*
X124594361Y-89215276D02*
X124689599Y-89120038D01*
X124689599Y-89120038D02*
X124832456Y-89072419D01*
X124832456Y-89072419D02*
X124927694Y-89072419D01*
X124927694Y-89072419D02*
X125070551Y-89120038D01*
X125070551Y-89120038D02*
X125118170Y-89167657D01*
X125832456Y-89072419D02*
X125832456Y-89786704D01*
X125832456Y-89786704D02*
X125784837Y-89929561D01*
X125784837Y-89929561D02*
X125689599Y-90024800D01*
X125689599Y-90024800D02*
X125546742Y-90072419D01*
X125546742Y-90072419D02*
X125451504Y-90072419D01*
X126784837Y-90072419D02*
X126308647Y-90072419D01*
X126308647Y-90072419D02*
X126308647Y-89072419D01*
X127689599Y-89977180D02*
X127641980Y-90024800D01*
X127641980Y-90024800D02*
X127499123Y-90072419D01*
X127499123Y-90072419D02*
X127403885Y-90072419D01*
X127403885Y-90072419D02*
X127261028Y-90024800D01*
X127261028Y-90024800D02*
X127165790Y-89929561D01*
X127165790Y-89929561D02*
X127118171Y-89834323D01*
X127118171Y-89834323D02*
X127070552Y-89643847D01*
X127070552Y-89643847D02*
X127070552Y-89500990D01*
X127070552Y-89500990D02*
X127118171Y-89310514D01*
X127118171Y-89310514D02*
X127165790Y-89215276D01*
X127165790Y-89215276D02*
X127261028Y-89120038D01*
X127261028Y-89120038D02*
X127403885Y-89072419D01*
X127403885Y-89072419D02*
X127499123Y-89072419D01*
X127499123Y-89072419D02*
X127641980Y-89120038D01*
X127641980Y-89120038D02*
X127689599Y-89167657D01*
X128403885Y-89072419D02*
X128403885Y-89786704D01*
X128403885Y-89786704D02*
X128356266Y-89929561D01*
X128356266Y-89929561D02*
X128261028Y-90024800D01*
X128261028Y-90024800D02*
X128118171Y-90072419D01*
X128118171Y-90072419D02*
X128022933Y-90072419D01*
X129356266Y-90072419D02*
X128880076Y-90072419D01*
X128880076Y-90072419D02*
X128880076Y-89072419D01*
X130261028Y-89977180D02*
X130213409Y-90024800D01*
X130213409Y-90024800D02*
X130070552Y-90072419D01*
X130070552Y-90072419D02*
X129975314Y-90072419D01*
X129975314Y-90072419D02*
X129832457Y-90024800D01*
X129832457Y-90024800D02*
X129737219Y-89929561D01*
X129737219Y-89929561D02*
X129689600Y-89834323D01*
X129689600Y-89834323D02*
X129641981Y-89643847D01*
X129641981Y-89643847D02*
X129641981Y-89500990D01*
X129641981Y-89500990D02*
X129689600Y-89310514D01*
X129689600Y-89310514D02*
X129737219Y-89215276D01*
X129737219Y-89215276D02*
X129832457Y-89120038D01*
X129832457Y-89120038D02*
X129975314Y-89072419D01*
X129975314Y-89072419D02*
X130070552Y-89072419D01*
X130070552Y-89072419D02*
X130213409Y-89120038D01*
X130213409Y-89120038D02*
X130261028Y-89167657D01*
X134861027Y-126081228D02*
X134884836Y-126057419D01*
X134884836Y-126057419D02*
X134932455Y-126033609D01*
X134932455Y-126033609D02*
X135051503Y-126033609D01*
X135051503Y-126033609D02*
X135099122Y-126057419D01*
X135099122Y-126057419D02*
X135122931Y-126081228D01*
X135122931Y-126081228D02*
X135146741Y-126128847D01*
X135146741Y-126128847D02*
X135146741Y-126176466D01*
X135146741Y-126176466D02*
X135122931Y-126247895D01*
X135122931Y-126247895D02*
X134837217Y-126533609D01*
X134837217Y-126533609D02*
X135146741Y-126533609D01*
X135456264Y-126033609D02*
X135503883Y-126033609D01*
X135503883Y-126033609D02*
X135551502Y-126057419D01*
X135551502Y-126057419D02*
X135575312Y-126081228D01*
X135575312Y-126081228D02*
X135599121Y-126128847D01*
X135599121Y-126128847D02*
X135622931Y-126224085D01*
X135622931Y-126224085D02*
X135622931Y-126343133D01*
X135622931Y-126343133D02*
X135599121Y-126438371D01*
X135599121Y-126438371D02*
X135575312Y-126485990D01*
X135575312Y-126485990D02*
X135551502Y-126509800D01*
X135551502Y-126509800D02*
X135503883Y-126533609D01*
X135503883Y-126533609D02*
X135456264Y-126533609D01*
X135456264Y-126533609D02*
X135408645Y-126509800D01*
X135408645Y-126509800D02*
X135384836Y-126485990D01*
X135384836Y-126485990D02*
X135361026Y-126438371D01*
X135361026Y-126438371D02*
X135337217Y-126343133D01*
X135337217Y-126343133D02*
X135337217Y-126224085D01*
X135337217Y-126224085D02*
X135361026Y-126128847D01*
X135361026Y-126128847D02*
X135384836Y-126081228D01*
X135384836Y-126081228D02*
X135408645Y-126057419D01*
X135408645Y-126057419D02*
X135456264Y-126033609D01*
X136194359Y-126009800D02*
X135765788Y-126652657D01*
X136456264Y-126033609D02*
X136503883Y-126033609D01*
X136503883Y-126033609D02*
X136551502Y-126057419D01*
X136551502Y-126057419D02*
X136575312Y-126081228D01*
X136575312Y-126081228D02*
X136599121Y-126128847D01*
X136599121Y-126128847D02*
X136622931Y-126224085D01*
X136622931Y-126224085D02*
X136622931Y-126343133D01*
X136622931Y-126343133D02*
X136599121Y-126438371D01*
X136599121Y-126438371D02*
X136575312Y-126485990D01*
X136575312Y-126485990D02*
X136551502Y-126509800D01*
X136551502Y-126509800D02*
X136503883Y-126533609D01*
X136503883Y-126533609D02*
X136456264Y-126533609D01*
X136456264Y-126533609D02*
X136408645Y-126509800D01*
X136408645Y-126509800D02*
X136384836Y-126485990D01*
X136384836Y-126485990D02*
X136361026Y-126438371D01*
X136361026Y-126438371D02*
X136337217Y-126343133D01*
X136337217Y-126343133D02*
X136337217Y-126224085D01*
X136337217Y-126224085D02*
X136361026Y-126128847D01*
X136361026Y-126128847D02*
X136384836Y-126081228D01*
X136384836Y-126081228D02*
X136408645Y-126057419D01*
X136408645Y-126057419D02*
X136456264Y-126033609D01*
X136789597Y-126033609D02*
X137122930Y-126033609D01*
X137122930Y-126033609D02*
X136908645Y-126533609D01*
X137670549Y-126009800D02*
X137241978Y-126652657D01*
X137813407Y-126081228D02*
X137837216Y-126057419D01*
X137837216Y-126057419D02*
X137884835Y-126033609D01*
X137884835Y-126033609D02*
X138003883Y-126033609D01*
X138003883Y-126033609D02*
X138051502Y-126057419D01*
X138051502Y-126057419D02*
X138075311Y-126081228D01*
X138075311Y-126081228D02*
X138099121Y-126128847D01*
X138099121Y-126128847D02*
X138099121Y-126176466D01*
X138099121Y-126176466D02*
X138075311Y-126247895D01*
X138075311Y-126247895D02*
X137789597Y-126533609D01*
X137789597Y-126533609D02*
X138099121Y-126533609D01*
X138408644Y-126033609D02*
X138456263Y-126033609D01*
X138456263Y-126033609D02*
X138503882Y-126057419D01*
X138503882Y-126057419D02*
X138527692Y-126081228D01*
X138527692Y-126081228D02*
X138551501Y-126128847D01*
X138551501Y-126128847D02*
X138575311Y-126224085D01*
X138575311Y-126224085D02*
X138575311Y-126343133D01*
X138575311Y-126343133D02*
X138551501Y-126438371D01*
X138551501Y-126438371D02*
X138527692Y-126485990D01*
X138527692Y-126485990D02*
X138503882Y-126509800D01*
X138503882Y-126509800D02*
X138456263Y-126533609D01*
X138456263Y-126533609D02*
X138408644Y-126533609D01*
X138408644Y-126533609D02*
X138361025Y-126509800D01*
X138361025Y-126509800D02*
X138337216Y-126485990D01*
X138337216Y-126485990D02*
X138313406Y-126438371D01*
X138313406Y-126438371D02*
X138289597Y-126343133D01*
X138289597Y-126343133D02*
X138289597Y-126224085D01*
X138289597Y-126224085D02*
X138313406Y-126128847D01*
X138313406Y-126128847D02*
X138337216Y-126081228D01*
X138337216Y-126081228D02*
X138361025Y-126057419D01*
X138361025Y-126057419D02*
X138408644Y-126033609D01*
X138765787Y-126081228D02*
X138789596Y-126057419D01*
X138789596Y-126057419D02*
X138837215Y-126033609D01*
X138837215Y-126033609D02*
X138956263Y-126033609D01*
X138956263Y-126033609D02*
X139003882Y-126057419D01*
X139003882Y-126057419D02*
X139027691Y-126081228D01*
X139027691Y-126081228D02*
X139051501Y-126128847D01*
X139051501Y-126128847D02*
X139051501Y-126176466D01*
X139051501Y-126176466D02*
X139027691Y-126247895D01*
X139027691Y-126247895D02*
X138741977Y-126533609D01*
X138741977Y-126533609D02*
X139051501Y-126533609D01*
X139480072Y-126033609D02*
X139384834Y-126033609D01*
X139384834Y-126033609D02*
X139337215Y-126057419D01*
X139337215Y-126057419D02*
X139313405Y-126081228D01*
X139313405Y-126081228D02*
X139265786Y-126152657D01*
X139265786Y-126152657D02*
X139241977Y-126247895D01*
X139241977Y-126247895D02*
X139241977Y-126438371D01*
X139241977Y-126438371D02*
X139265786Y-126485990D01*
X139265786Y-126485990D02*
X139289596Y-126509800D01*
X139289596Y-126509800D02*
X139337215Y-126533609D01*
X139337215Y-126533609D02*
X139432453Y-126533609D01*
X139432453Y-126533609D02*
X139480072Y-126509800D01*
X139480072Y-126509800D02*
X139503881Y-126485990D01*
X139503881Y-126485990D02*
X139527691Y-126438371D01*
X139527691Y-126438371D02*
X139527691Y-126319323D01*
X139527691Y-126319323D02*
X139503881Y-126271704D01*
X139503881Y-126271704D02*
X139480072Y-126247895D01*
X139480072Y-126247895D02*
X139432453Y-126224085D01*
X139432453Y-126224085D02*
X139337215Y-126224085D01*
X139337215Y-126224085D02*
X139289596Y-126247895D01*
X139289596Y-126247895D02*
X139265786Y-126271704D01*
X139265786Y-126271704D02*
X139241977Y-126319323D01*
X140122928Y-126343133D02*
X140503881Y-126343133D01*
X141075309Y-126200276D02*
X141194357Y-126533609D01*
X141194357Y-126533609D02*
X141313404Y-126200276D01*
X141765785Y-126533609D02*
X141480071Y-126533609D01*
X141622928Y-126533609D02*
X141622928Y-126033609D01*
X141622928Y-126033609D02*
X141575309Y-126105038D01*
X141575309Y-126105038D02*
X141527690Y-126152657D01*
X141527690Y-126152657D02*
X141480071Y-126176466D01*
X141980070Y-126485990D02*
X142003880Y-126509800D01*
X142003880Y-126509800D02*
X141980070Y-126533609D01*
X141980070Y-126533609D02*
X141956261Y-126509800D01*
X141956261Y-126509800D02*
X141980070Y-126485990D01*
X141980070Y-126485990D02*
X141980070Y-126533609D01*
X142313403Y-126033609D02*
X142361022Y-126033609D01*
X142361022Y-126033609D02*
X142408641Y-126057419D01*
X142408641Y-126057419D02*
X142432451Y-126081228D01*
X142432451Y-126081228D02*
X142456260Y-126128847D01*
X142456260Y-126128847D02*
X142480070Y-126224085D01*
X142480070Y-126224085D02*
X142480070Y-126343133D01*
X142480070Y-126343133D02*
X142456260Y-126438371D01*
X142456260Y-126438371D02*
X142432451Y-126485990D01*
X142432451Y-126485990D02*
X142408641Y-126509800D01*
X142408641Y-126509800D02*
X142361022Y-126533609D01*
X142361022Y-126533609D02*
X142313403Y-126533609D01*
X142313403Y-126533609D02*
X142265784Y-126509800D01*
X142265784Y-126509800D02*
X142241975Y-126485990D01*
X142241975Y-126485990D02*
X142218165Y-126438371D01*
X142218165Y-126438371D02*
X142194356Y-126343133D01*
X142194356Y-126343133D02*
X142194356Y-126224085D01*
X142194356Y-126224085D02*
X142218165Y-126128847D01*
X142218165Y-126128847D02*
X142241975Y-126081228D01*
X142241975Y-126081228D02*
X142265784Y-126057419D01*
X142265784Y-126057419D02*
X142313403Y-126033609D01*
D11*
X135925939Y-122266215D02*
X135925939Y-120466215D01*
X135925939Y-120466215D02*
X136354510Y-120466215D01*
X136354510Y-120466215D02*
X136611653Y-120551929D01*
X136611653Y-120551929D02*
X136783082Y-120723358D01*
X136783082Y-120723358D02*
X136868796Y-120894786D01*
X136868796Y-120894786D02*
X136954510Y-121237643D01*
X136954510Y-121237643D02*
X136954510Y-121494786D01*
X136954510Y-121494786D02*
X136868796Y-121837643D01*
X136868796Y-121837643D02*
X136783082Y-122009072D01*
X136783082Y-122009072D02*
X136611653Y-122180501D01*
X136611653Y-122180501D02*
X136354510Y-122266215D01*
X136354510Y-122266215D02*
X135925939Y-122266215D01*
X137725939Y-122266215D02*
X137725939Y-120466215D01*
X138925939Y-121409072D02*
X138925939Y-122266215D01*
X138325939Y-120466215D02*
X138925939Y-121409072D01*
X138925939Y-121409072D02*
X139525939Y-120466215D01*
X135840225Y-125078400D02*
X136097368Y-125164114D01*
X136097368Y-125164114D02*
X136525939Y-125164114D01*
X136525939Y-125164114D02*
X136697368Y-125078400D01*
X136697368Y-125078400D02*
X136783082Y-124992685D01*
X136783082Y-124992685D02*
X136868796Y-124821257D01*
X136868796Y-124821257D02*
X136868796Y-124649828D01*
X136868796Y-124649828D02*
X136783082Y-124478400D01*
X136783082Y-124478400D02*
X136697368Y-124392685D01*
X136697368Y-124392685D02*
X136525939Y-124306971D01*
X136525939Y-124306971D02*
X136183082Y-124221257D01*
X136183082Y-124221257D02*
X136011653Y-124135542D01*
X136011653Y-124135542D02*
X135925939Y-124049828D01*
X135925939Y-124049828D02*
X135840225Y-123878400D01*
X135840225Y-123878400D02*
X135840225Y-123706971D01*
X135840225Y-123706971D02*
X135925939Y-123535542D01*
X135925939Y-123535542D02*
X136011653Y-123449828D01*
X136011653Y-123449828D02*
X136183082Y-123364114D01*
X136183082Y-123364114D02*
X136611653Y-123364114D01*
X136611653Y-123364114D02*
X136868796Y-123449828D01*
X137640225Y-125164114D02*
X137640225Y-123364114D01*
X137640225Y-123364114D02*
X138325939Y-123364114D01*
X138325939Y-123364114D02*
X138497368Y-123449828D01*
X138497368Y-123449828D02*
X138583082Y-123535542D01*
X138583082Y-123535542D02*
X138668796Y-123706971D01*
X138668796Y-123706971D02*
X138668796Y-123964114D01*
X138668796Y-123964114D02*
X138583082Y-124135542D01*
X138583082Y-124135542D02*
X138497368Y-124221257D01*
X138497368Y-124221257D02*
X138325939Y-124306971D01*
X138325939Y-124306971D02*
X137640225Y-124306971D01*
X139783082Y-123364114D02*
X139954511Y-123364114D01*
X139954511Y-123364114D02*
X140125939Y-123449828D01*
X140125939Y-123449828D02*
X140211654Y-123535542D01*
X140211654Y-123535542D02*
X140297368Y-123706971D01*
X140297368Y-123706971D02*
X140383082Y-124049828D01*
X140383082Y-124049828D02*
X140383082Y-124478400D01*
X140383082Y-124478400D02*
X140297368Y-124821257D01*
X140297368Y-124821257D02*
X140211654Y-124992685D01*
X140211654Y-124992685D02*
X140125939Y-125078400D01*
X140125939Y-125078400D02*
X139954511Y-125164114D01*
X139954511Y-125164114D02*
X139783082Y-125164114D01*
X139783082Y-125164114D02*
X139611654Y-125078400D01*
X139611654Y-125078400D02*
X139525939Y-124992685D01*
X139525939Y-124992685D02*
X139440225Y-124821257D01*
X139440225Y-124821257D02*
X139354511Y-124478400D01*
X139354511Y-124478400D02*
X139354511Y-124049828D01*
X139354511Y-124049828D02*
X139440225Y-123706971D01*
X139440225Y-123706971D02*
X139525939Y-123535542D01*
X139525939Y-123535542D02*
X139611654Y-123449828D01*
X139611654Y-123449828D02*
X139783082Y-123364114D01*
X141068797Y-123535542D02*
X141154511Y-123449828D01*
X141154511Y-123449828D02*
X141325940Y-123364114D01*
X141325940Y-123364114D02*
X141754511Y-123364114D01*
X141754511Y-123364114D02*
X141925940Y-123449828D01*
X141925940Y-123449828D02*
X142011654Y-123535542D01*
X142011654Y-123535542D02*
X142097368Y-123706971D01*
X142097368Y-123706971D02*
X142097368Y-123878400D01*
X142097368Y-123878400D02*
X142011654Y-124135542D01*
X142011654Y-124135542D02*
X140983082Y-125164114D01*
X140983082Y-125164114D02*
X142097368Y-125164114D01*
D10*
X168127693Y-86272419D02*
X167556265Y-86272419D01*
X167841979Y-86272419D02*
X167841979Y-85272419D01*
X167841979Y-85272419D02*
X167746741Y-85415276D01*
X167746741Y-85415276D02*
X167651503Y-85510514D01*
X167651503Y-85510514D02*
X167556265Y-85558133D01*
X168556265Y-86272419D02*
X168556265Y-85272419D01*
X168651503Y-85891466D02*
X168937217Y-86272419D01*
X168937217Y-85605752D02*
X168556265Y-85986704D01*
X166127693Y-115572419D02*
X165556265Y-115572419D01*
X165841979Y-115572419D02*
X165841979Y-114572419D01*
X165841979Y-114572419D02*
X165746741Y-114715276D01*
X165746741Y-114715276D02*
X165651503Y-114810514D01*
X165651503Y-114810514D02*
X165556265Y-114858133D01*
X166746741Y-114572419D02*
X166841979Y-114572419D01*
X166841979Y-114572419D02*
X166937217Y-114620038D01*
X166937217Y-114620038D02*
X166984836Y-114667657D01*
X166984836Y-114667657D02*
X167032455Y-114762895D01*
X167032455Y-114762895D02*
X167080074Y-114953371D01*
X167080074Y-114953371D02*
X167080074Y-115191466D01*
X167080074Y-115191466D02*
X167032455Y-115381942D01*
X167032455Y-115381942D02*
X166984836Y-115477180D01*
X166984836Y-115477180D02*
X166937217Y-115524800D01*
X166937217Y-115524800D02*
X166841979Y-115572419D01*
X166841979Y-115572419D02*
X166746741Y-115572419D01*
X166746741Y-115572419D02*
X166651503Y-115524800D01*
X166651503Y-115524800D02*
X166603884Y-115477180D01*
X166603884Y-115477180D02*
X166556265Y-115381942D01*
X166556265Y-115381942D02*
X166508646Y-115191466D01*
X166508646Y-115191466D02*
X166508646Y-114953371D01*
X166508646Y-114953371D02*
X166556265Y-114762895D01*
X166556265Y-114762895D02*
X166603884Y-114667657D01*
X166603884Y-114667657D02*
X166651503Y-114620038D01*
X166651503Y-114620038D02*
X166746741Y-114572419D01*
X167699122Y-114572419D02*
X167794360Y-114572419D01*
X167794360Y-114572419D02*
X167889598Y-114620038D01*
X167889598Y-114620038D02*
X167937217Y-114667657D01*
X167937217Y-114667657D02*
X167984836Y-114762895D01*
X167984836Y-114762895D02*
X168032455Y-114953371D01*
X168032455Y-114953371D02*
X168032455Y-115191466D01*
X168032455Y-115191466D02*
X167984836Y-115381942D01*
X167984836Y-115381942D02*
X167937217Y-115477180D01*
X167937217Y-115477180D02*
X167889598Y-115524800D01*
X167889598Y-115524800D02*
X167794360Y-115572419D01*
X167794360Y-115572419D02*
X167699122Y-115572419D01*
X167699122Y-115572419D02*
X167603884Y-115524800D01*
X167603884Y-115524800D02*
X167556265Y-115477180D01*
X167556265Y-115477180D02*
X167508646Y-115381942D01*
X167508646Y-115381942D02*
X167461027Y-115191466D01*
X167461027Y-115191466D02*
X167461027Y-114953371D01*
X167461027Y-114953371D02*
X167508646Y-114762895D01*
X167508646Y-114762895D02*
X167556265Y-114667657D01*
X167556265Y-114667657D02*
X167603884Y-114620038D01*
X167603884Y-114620038D02*
X167699122Y-114572419D01*
X168461027Y-114905752D02*
X168461027Y-115572419D01*
X168461027Y-115000990D02*
X168508646Y-114953371D01*
X168508646Y-114953371D02*
X168603884Y-114905752D01*
X168603884Y-114905752D02*
X168746741Y-114905752D01*
X168746741Y-114905752D02*
X168841979Y-114953371D01*
X168841979Y-114953371D02*
X168889598Y-115048609D01*
X168889598Y-115048609D02*
X168889598Y-115572419D01*
X166127693Y-105372419D02*
X165556265Y-105372419D01*
X165841979Y-105372419D02*
X165841979Y-104372419D01*
X165841979Y-104372419D02*
X165746741Y-104515276D01*
X165746741Y-104515276D02*
X165651503Y-104610514D01*
X165651503Y-104610514D02*
X165556265Y-104658133D01*
X166746741Y-104372419D02*
X166841979Y-104372419D01*
X166841979Y-104372419D02*
X166937217Y-104420038D01*
X166937217Y-104420038D02*
X166984836Y-104467657D01*
X166984836Y-104467657D02*
X167032455Y-104562895D01*
X167032455Y-104562895D02*
X167080074Y-104753371D01*
X167080074Y-104753371D02*
X167080074Y-104991466D01*
X167080074Y-104991466D02*
X167032455Y-105181942D01*
X167032455Y-105181942D02*
X166984836Y-105277180D01*
X166984836Y-105277180D02*
X166937217Y-105324800D01*
X166937217Y-105324800D02*
X166841979Y-105372419D01*
X166841979Y-105372419D02*
X166746741Y-105372419D01*
X166746741Y-105372419D02*
X166651503Y-105324800D01*
X166651503Y-105324800D02*
X166603884Y-105277180D01*
X166603884Y-105277180D02*
X166556265Y-105181942D01*
X166556265Y-105181942D02*
X166508646Y-104991466D01*
X166508646Y-104991466D02*
X166508646Y-104753371D01*
X166508646Y-104753371D02*
X166556265Y-104562895D01*
X166556265Y-104562895D02*
X166603884Y-104467657D01*
X166603884Y-104467657D02*
X166651503Y-104420038D01*
X166651503Y-104420038D02*
X166746741Y-104372419D01*
X167699122Y-104372419D02*
X167794360Y-104372419D01*
X167794360Y-104372419D02*
X167889598Y-104420038D01*
X167889598Y-104420038D02*
X167937217Y-104467657D01*
X167937217Y-104467657D02*
X167984836Y-104562895D01*
X167984836Y-104562895D02*
X168032455Y-104753371D01*
X168032455Y-104753371D02*
X168032455Y-104991466D01*
X168032455Y-104991466D02*
X167984836Y-105181942D01*
X167984836Y-105181942D02*
X167937217Y-105277180D01*
X167937217Y-105277180D02*
X167889598Y-105324800D01*
X167889598Y-105324800D02*
X167794360Y-105372419D01*
X167794360Y-105372419D02*
X167699122Y-105372419D01*
X167699122Y-105372419D02*
X167603884Y-105324800D01*
X167603884Y-105324800D02*
X167556265Y-105277180D01*
X167556265Y-105277180D02*
X167508646Y-105181942D01*
X167508646Y-105181942D02*
X167461027Y-104991466D01*
X167461027Y-104991466D02*
X167461027Y-104753371D01*
X167461027Y-104753371D02*
X167508646Y-104562895D01*
X167508646Y-104562895D02*
X167556265Y-104467657D01*
X167556265Y-104467657D02*
X167603884Y-104420038D01*
X167603884Y-104420038D02*
X167699122Y-104372419D01*
X168461027Y-104705752D02*
X168461027Y-105372419D01*
X168461027Y-104800990D02*
X168508646Y-104753371D01*
X168508646Y-104753371D02*
X168603884Y-104705752D01*
X168603884Y-104705752D02*
X168746741Y-104705752D01*
X168746741Y-104705752D02*
X168841979Y-104753371D01*
X168841979Y-104753371D02*
X168889598Y-104848609D01*
X168889598Y-104848609D02*
X168889598Y-105372419D01*
X166427693Y-95872419D02*
X165856265Y-95872419D01*
X166141979Y-95872419D02*
X166141979Y-94872419D01*
X166141979Y-94872419D02*
X166046741Y-95015276D01*
X166046741Y-95015276D02*
X165951503Y-95110514D01*
X165951503Y-95110514D02*
X165856265Y-95158133D01*
X167046741Y-94872419D02*
X167141979Y-94872419D01*
X167141979Y-94872419D02*
X167237217Y-94920038D01*
X167237217Y-94920038D02*
X167284836Y-94967657D01*
X167284836Y-94967657D02*
X167332455Y-95062895D01*
X167332455Y-95062895D02*
X167380074Y-95253371D01*
X167380074Y-95253371D02*
X167380074Y-95491466D01*
X167380074Y-95491466D02*
X167332455Y-95681942D01*
X167332455Y-95681942D02*
X167284836Y-95777180D01*
X167284836Y-95777180D02*
X167237217Y-95824800D01*
X167237217Y-95824800D02*
X167141979Y-95872419D01*
X167141979Y-95872419D02*
X167046741Y-95872419D01*
X167046741Y-95872419D02*
X166951503Y-95824800D01*
X166951503Y-95824800D02*
X166903884Y-95777180D01*
X166903884Y-95777180D02*
X166856265Y-95681942D01*
X166856265Y-95681942D02*
X166808646Y-95491466D01*
X166808646Y-95491466D02*
X166808646Y-95253371D01*
X166808646Y-95253371D02*
X166856265Y-95062895D01*
X166856265Y-95062895D02*
X166903884Y-94967657D01*
X166903884Y-94967657D02*
X166951503Y-94920038D01*
X166951503Y-94920038D02*
X167046741Y-94872419D01*
X167999122Y-94872419D02*
X168094360Y-94872419D01*
X168094360Y-94872419D02*
X168189598Y-94920038D01*
X168189598Y-94920038D02*
X168237217Y-94967657D01*
X168237217Y-94967657D02*
X168284836Y-95062895D01*
X168284836Y-95062895D02*
X168332455Y-95253371D01*
X168332455Y-95253371D02*
X168332455Y-95491466D01*
X168332455Y-95491466D02*
X168284836Y-95681942D01*
X168284836Y-95681942D02*
X168237217Y-95777180D01*
X168237217Y-95777180D02*
X168189598Y-95824800D01*
X168189598Y-95824800D02*
X168094360Y-95872419D01*
X168094360Y-95872419D02*
X167999122Y-95872419D01*
X167999122Y-95872419D02*
X167903884Y-95824800D01*
X167903884Y-95824800D02*
X167856265Y-95777180D01*
X167856265Y-95777180D02*
X167808646Y-95681942D01*
X167808646Y-95681942D02*
X167761027Y-95491466D01*
X167761027Y-95491466D02*
X167761027Y-95253371D01*
X167761027Y-95253371D02*
X167808646Y-95062895D01*
X167808646Y-95062895D02*
X167856265Y-94967657D01*
X167856265Y-94967657D02*
X167903884Y-94920038D01*
X167903884Y-94920038D02*
X167999122Y-94872419D01*
X168761027Y-95205752D02*
X168761027Y-95872419D01*
X168761027Y-95300990D02*
X168808646Y-95253371D01*
X168808646Y-95253371D02*
X168903884Y-95205752D01*
X168903884Y-95205752D02*
X169046741Y-95205752D01*
X169046741Y-95205752D02*
X169141979Y-95253371D01*
X169141979Y-95253371D02*
X169189598Y-95348609D01*
X169189598Y-95348609D02*
X169189598Y-95872419D01*
X178427693Y-115872419D02*
X177856265Y-115872419D01*
X178141979Y-115872419D02*
X178141979Y-114872419D01*
X178141979Y-114872419D02*
X178046741Y-115015276D01*
X178046741Y-115015276D02*
X177951503Y-115110514D01*
X177951503Y-115110514D02*
X177856265Y-115158133D01*
X178856265Y-115872419D02*
X178856265Y-114872419D01*
X178951503Y-115491466D02*
X179237217Y-115872419D01*
X179237217Y-115205752D02*
X178856265Y-115586704D01*
X178627693Y-105772419D02*
X178056265Y-105772419D01*
X178341979Y-105772419D02*
X178341979Y-104772419D01*
X178341979Y-104772419D02*
X178246741Y-104915276D01*
X178246741Y-104915276D02*
X178151503Y-105010514D01*
X178151503Y-105010514D02*
X178056265Y-105058133D01*
X179056265Y-105772419D02*
X179056265Y-104772419D01*
X179151503Y-105391466D02*
X179437217Y-105772419D01*
X179437217Y-105105752D02*
X179056265Y-105486704D01*
X178827693Y-95672419D02*
X178256265Y-95672419D01*
X178541979Y-95672419D02*
X178541979Y-94672419D01*
X178541979Y-94672419D02*
X178446741Y-94815276D01*
X178446741Y-94815276D02*
X178351503Y-94910514D01*
X178351503Y-94910514D02*
X178256265Y-94958133D01*
X179256265Y-95672419D02*
X179256265Y-94672419D01*
X179351503Y-95291466D02*
X179637217Y-95672419D01*
X179637217Y-95005752D02*
X179256265Y-95386704D01*
X122103884Y-121072419D02*
X122103884Y-120072419D01*
X122103884Y-120072419D02*
X122437217Y-120786704D01*
X122437217Y-120786704D02*
X122770550Y-120072419D01*
X122770550Y-120072419D02*
X122770550Y-121072419D01*
X123199122Y-120786704D02*
X123675312Y-120786704D01*
X123103884Y-121072419D02*
X123437217Y-120072419D01*
X123437217Y-120072419D02*
X123770550Y-121072419D01*
X124008646Y-120072419D02*
X124675312Y-121072419D01*
X124675312Y-120072419D02*
X124008646Y-121072419D01*
X124961027Y-120072419D02*
X125580074Y-120072419D01*
X125580074Y-120072419D02*
X125246741Y-120453371D01*
X125246741Y-120453371D02*
X125389598Y-120453371D01*
X125389598Y-120453371D02*
X125484836Y-120500990D01*
X125484836Y-120500990D02*
X125532455Y-120548609D01*
X125532455Y-120548609D02*
X125580074Y-120643847D01*
X125580074Y-120643847D02*
X125580074Y-120881942D01*
X125580074Y-120881942D02*
X125532455Y-120977180D01*
X125532455Y-120977180D02*
X125484836Y-121024800D01*
X125484836Y-121024800D02*
X125389598Y-121072419D01*
X125389598Y-121072419D02*
X125103884Y-121072419D01*
X125103884Y-121072419D02*
X125008646Y-121024800D01*
X125008646Y-121024800D02*
X124961027Y-120977180D01*
X126199122Y-120072419D02*
X126294360Y-120072419D01*
X126294360Y-120072419D02*
X126389598Y-120120038D01*
X126389598Y-120120038D02*
X126437217Y-120167657D01*
X126437217Y-120167657D02*
X126484836Y-120262895D01*
X126484836Y-120262895D02*
X126532455Y-120453371D01*
X126532455Y-120453371D02*
X126532455Y-120691466D01*
X126532455Y-120691466D02*
X126484836Y-120881942D01*
X126484836Y-120881942D02*
X126437217Y-120977180D01*
X126437217Y-120977180D02*
X126389598Y-121024800D01*
X126389598Y-121024800D02*
X126294360Y-121072419D01*
X126294360Y-121072419D02*
X126199122Y-121072419D01*
X126199122Y-121072419D02*
X126103884Y-121024800D01*
X126103884Y-121024800D02*
X126056265Y-120977180D01*
X126056265Y-120977180D02*
X126008646Y-120881942D01*
X126008646Y-120881942D02*
X125961027Y-120691466D01*
X125961027Y-120691466D02*
X125961027Y-120453371D01*
X125961027Y-120453371D02*
X126008646Y-120262895D01*
X126008646Y-120262895D02*
X126056265Y-120167657D01*
X126056265Y-120167657D02*
X126103884Y-120120038D01*
X126103884Y-120120038D02*
X126199122Y-120072419D01*
X127484836Y-121072419D02*
X126913408Y-121072419D01*
X127199122Y-121072419D02*
X127199122Y-120072419D01*
X127199122Y-120072419D02*
X127103884Y-120215276D01*
X127103884Y-120215276D02*
X127008646Y-120310514D01*
X127008646Y-120310514D02*
X126913408Y-120358133D01*
X128103884Y-120072419D02*
X128199122Y-120072419D01*
X128199122Y-120072419D02*
X128294360Y-120120038D01*
X128294360Y-120120038D02*
X128341979Y-120167657D01*
X128341979Y-120167657D02*
X128389598Y-120262895D01*
X128389598Y-120262895D02*
X128437217Y-120453371D01*
X128437217Y-120453371D02*
X128437217Y-120691466D01*
X128437217Y-120691466D02*
X128389598Y-120881942D01*
X128389598Y-120881942D02*
X128341979Y-120977180D01*
X128341979Y-120977180D02*
X128294360Y-121024800D01*
X128294360Y-121024800D02*
X128199122Y-121072419D01*
X128199122Y-121072419D02*
X128103884Y-121072419D01*
X128103884Y-121072419D02*
X128008646Y-121024800D01*
X128008646Y-121024800D02*
X127961027Y-120977180D01*
X127961027Y-120977180D02*
X127913408Y-120881942D01*
X127913408Y-120881942D02*
X127865789Y-120691466D01*
X127865789Y-120691466D02*
X127865789Y-120453371D01*
X127865789Y-120453371D02*
X127913408Y-120262895D01*
X127913408Y-120262895D02*
X127961027Y-120167657D01*
X127961027Y-120167657D02*
X128008646Y-120120038D01*
X128008646Y-120120038D02*
X128103884Y-120072419D01*
X128818170Y-120167657D02*
X128865789Y-120120038D01*
X128865789Y-120120038D02*
X128961027Y-120072419D01*
X128961027Y-120072419D02*
X129199122Y-120072419D01*
X129199122Y-120072419D02*
X129294360Y-120120038D01*
X129294360Y-120120038D02*
X129341979Y-120167657D01*
X129341979Y-120167657D02*
X129389598Y-120262895D01*
X129389598Y-120262895D02*
X129389598Y-120358133D01*
X129389598Y-120358133D02*
X129341979Y-120500990D01*
X129341979Y-120500990D02*
X128770551Y-121072419D01*
X128770551Y-121072419D02*
X129389598Y-121072419D01*
X121856265Y-98824800D02*
X121999122Y-98872419D01*
X121999122Y-98872419D02*
X122237217Y-98872419D01*
X122237217Y-98872419D02*
X122332455Y-98824800D01*
X122332455Y-98824800D02*
X122380074Y-98777180D01*
X122380074Y-98777180D02*
X122427693Y-98681942D01*
X122427693Y-98681942D02*
X122427693Y-98586704D01*
X122427693Y-98586704D02*
X122380074Y-98491466D01*
X122380074Y-98491466D02*
X122332455Y-98443847D01*
X122332455Y-98443847D02*
X122237217Y-98396228D01*
X122237217Y-98396228D02*
X122046741Y-98348609D01*
X122046741Y-98348609D02*
X121951503Y-98300990D01*
X121951503Y-98300990D02*
X121903884Y-98253371D01*
X121903884Y-98253371D02*
X121856265Y-98158133D01*
X121856265Y-98158133D02*
X121856265Y-98062895D01*
X121856265Y-98062895D02*
X121903884Y-97967657D01*
X121903884Y-97967657D02*
X121951503Y-97920038D01*
X121951503Y-97920038D02*
X122046741Y-97872419D01*
X122046741Y-97872419D02*
X122284836Y-97872419D01*
X122284836Y-97872419D02*
X122427693Y-97920038D01*
X122808646Y-98824800D02*
X122951503Y-98872419D01*
X122951503Y-98872419D02*
X123189598Y-98872419D01*
X123189598Y-98872419D02*
X123284836Y-98824800D01*
X123284836Y-98824800D02*
X123332455Y-98777180D01*
X123332455Y-98777180D02*
X123380074Y-98681942D01*
X123380074Y-98681942D02*
X123380074Y-98586704D01*
X123380074Y-98586704D02*
X123332455Y-98491466D01*
X123332455Y-98491466D02*
X123284836Y-98443847D01*
X123284836Y-98443847D02*
X123189598Y-98396228D01*
X123189598Y-98396228D02*
X122999122Y-98348609D01*
X122999122Y-98348609D02*
X122903884Y-98300990D01*
X122903884Y-98300990D02*
X122856265Y-98253371D01*
X122856265Y-98253371D02*
X122808646Y-98158133D01*
X122808646Y-98158133D02*
X122808646Y-98062895D01*
X122808646Y-98062895D02*
X122856265Y-97967657D01*
X122856265Y-97967657D02*
X122903884Y-97920038D01*
X122903884Y-97920038D02*
X122999122Y-97872419D01*
X122999122Y-97872419D02*
X123237217Y-97872419D01*
X123237217Y-97872419D02*
X123380074Y-97920038D01*
X123808646Y-98872419D02*
X123808646Y-97872419D01*
X123808646Y-97872419D02*
X124046741Y-97872419D01*
X124046741Y-97872419D02*
X124189598Y-97920038D01*
X124189598Y-97920038D02*
X124284836Y-98015276D01*
X124284836Y-98015276D02*
X124332455Y-98110514D01*
X124332455Y-98110514D02*
X124380074Y-98300990D01*
X124380074Y-98300990D02*
X124380074Y-98443847D01*
X124380074Y-98443847D02*
X124332455Y-98634323D01*
X124332455Y-98634323D02*
X124284836Y-98729561D01*
X124284836Y-98729561D02*
X124189598Y-98824800D01*
X124189598Y-98824800D02*
X124046741Y-98872419D01*
X124046741Y-98872419D02*
X123808646Y-98872419D01*
X125332455Y-98872419D02*
X124761027Y-98872419D01*
X125046741Y-98872419D02*
X125046741Y-97872419D01*
X125046741Y-97872419D02*
X124951503Y-98015276D01*
X124951503Y-98015276D02*
X124856265Y-98110514D01*
X124856265Y-98110514D02*
X124761027Y-98158133D01*
X125665789Y-97872419D02*
X126284836Y-97872419D01*
X126284836Y-97872419D02*
X125951503Y-98253371D01*
X125951503Y-98253371D02*
X126094360Y-98253371D01*
X126094360Y-98253371D02*
X126189598Y-98300990D01*
X126189598Y-98300990D02*
X126237217Y-98348609D01*
X126237217Y-98348609D02*
X126284836Y-98443847D01*
X126284836Y-98443847D02*
X126284836Y-98681942D01*
X126284836Y-98681942D02*
X126237217Y-98777180D01*
X126237217Y-98777180D02*
X126189598Y-98824800D01*
X126189598Y-98824800D02*
X126094360Y-98872419D01*
X126094360Y-98872419D02*
X125808646Y-98872419D01*
X125808646Y-98872419D02*
X125713408Y-98824800D01*
X125713408Y-98824800D02*
X125665789Y-98777180D01*
X126903884Y-97872419D02*
X126999122Y-97872419D01*
X126999122Y-97872419D02*
X127094360Y-97920038D01*
X127094360Y-97920038D02*
X127141979Y-97967657D01*
X127141979Y-97967657D02*
X127189598Y-98062895D01*
X127189598Y-98062895D02*
X127237217Y-98253371D01*
X127237217Y-98253371D02*
X127237217Y-98491466D01*
X127237217Y-98491466D02*
X127189598Y-98681942D01*
X127189598Y-98681942D02*
X127141979Y-98777180D01*
X127141979Y-98777180D02*
X127094360Y-98824800D01*
X127094360Y-98824800D02*
X126999122Y-98872419D01*
X126999122Y-98872419D02*
X126903884Y-98872419D01*
X126903884Y-98872419D02*
X126808646Y-98824800D01*
X126808646Y-98824800D02*
X126761027Y-98777180D01*
X126761027Y-98777180D02*
X126713408Y-98681942D01*
X126713408Y-98681942D02*
X126665789Y-98491466D01*
X126665789Y-98491466D02*
X126665789Y-98253371D01*
X126665789Y-98253371D02*
X126713408Y-98062895D01*
X126713408Y-98062895D02*
X126761027Y-97967657D01*
X126761027Y-97967657D02*
X126808646Y-97920038D01*
X126808646Y-97920038D02*
X126903884Y-97872419D01*
X128094360Y-97872419D02*
X127903884Y-97872419D01*
X127903884Y-97872419D02*
X127808646Y-97920038D01*
X127808646Y-97920038D02*
X127761027Y-97967657D01*
X127761027Y-97967657D02*
X127665789Y-98110514D01*
X127665789Y-98110514D02*
X127618170Y-98300990D01*
X127618170Y-98300990D02*
X127618170Y-98681942D01*
X127618170Y-98681942D02*
X127665789Y-98777180D01*
X127665789Y-98777180D02*
X127713408Y-98824800D01*
X127713408Y-98824800D02*
X127808646Y-98872419D01*
X127808646Y-98872419D02*
X127999122Y-98872419D01*
X127999122Y-98872419D02*
X128094360Y-98824800D01*
X128094360Y-98824800D02*
X128141979Y-98777180D01*
X128141979Y-98777180D02*
X128189598Y-98681942D01*
X128189598Y-98681942D02*
X128189598Y-98443847D01*
X128189598Y-98443847D02*
X128141979Y-98348609D01*
X128141979Y-98348609D02*
X128094360Y-98300990D01*
X128094360Y-98300990D02*
X127999122Y-98253371D01*
X127999122Y-98253371D02*
X127808646Y-98253371D01*
X127808646Y-98253371D02*
X127713408Y-98300990D01*
X127713408Y-98300990D02*
X127665789Y-98348609D01*
X127665789Y-98348609D02*
X127618170Y-98443847D01*
X129570551Y-97872419D02*
X129761027Y-97872419D01*
X129761027Y-97872419D02*
X129856265Y-97920038D01*
X129856265Y-97920038D02*
X129951503Y-98015276D01*
X129951503Y-98015276D02*
X129999122Y-98205752D01*
X129999122Y-98205752D02*
X129999122Y-98539085D01*
X129999122Y-98539085D02*
X129951503Y-98729561D01*
X129951503Y-98729561D02*
X129856265Y-98824800D01*
X129856265Y-98824800D02*
X129761027Y-98872419D01*
X129761027Y-98872419D02*
X129570551Y-98872419D01*
X129570551Y-98872419D02*
X129475313Y-98824800D01*
X129475313Y-98824800D02*
X129380075Y-98729561D01*
X129380075Y-98729561D02*
X129332456Y-98539085D01*
X129332456Y-98539085D02*
X129332456Y-98205752D01*
X129332456Y-98205752D02*
X129380075Y-98015276D01*
X129380075Y-98015276D02*
X129475313Y-97920038D01*
X129475313Y-97920038D02*
X129570551Y-97872419D01*
X130903884Y-98872419D02*
X130427694Y-98872419D01*
X130427694Y-98872419D02*
X130427694Y-97872419D01*
X131237218Y-98348609D02*
X131570551Y-98348609D01*
X131713408Y-98872419D02*
X131237218Y-98872419D01*
X131237218Y-98872419D02*
X131237218Y-97872419D01*
X131237218Y-97872419D02*
X131713408Y-97872419D01*
X132141980Y-98872419D02*
X132141980Y-97872419D01*
X132141980Y-97872419D02*
X132380075Y-97872419D01*
X132380075Y-97872419D02*
X132522932Y-97920038D01*
X132522932Y-97920038D02*
X132618170Y-98015276D01*
X132618170Y-98015276D02*
X132665789Y-98110514D01*
X132665789Y-98110514D02*
X132713408Y-98300990D01*
X132713408Y-98300990D02*
X132713408Y-98443847D01*
X132713408Y-98443847D02*
X132665789Y-98634323D01*
X132665789Y-98634323D02*
X132618170Y-98729561D01*
X132618170Y-98729561D02*
X132522932Y-98824800D01*
X132522932Y-98824800D02*
X132380075Y-98872419D01*
X132380075Y-98872419D02*
X132141980Y-98872419D01*
X147556265Y-112086704D02*
X148032455Y-112086704D01*
X147461027Y-112372419D02*
X147794360Y-111372419D01*
X147794360Y-111372419D02*
X148127693Y-112372419D01*
X148461027Y-112372419D02*
X148461027Y-111705752D01*
X148461027Y-111896228D02*
X148508646Y-111800990D01*
X148508646Y-111800990D02*
X148556265Y-111753371D01*
X148556265Y-111753371D02*
X148651503Y-111705752D01*
X148651503Y-111705752D02*
X148746741Y-111705752D01*
X149508646Y-112372419D02*
X149508646Y-111372419D01*
X149508646Y-112324800D02*
X149413408Y-112372419D01*
X149413408Y-112372419D02*
X149222932Y-112372419D01*
X149222932Y-112372419D02*
X149127694Y-112324800D01*
X149127694Y-112324800D02*
X149080075Y-112277180D01*
X149080075Y-112277180D02*
X149032456Y-112181942D01*
X149032456Y-112181942D02*
X149032456Y-111896228D01*
X149032456Y-111896228D02*
X149080075Y-111800990D01*
X149080075Y-111800990D02*
X149127694Y-111753371D01*
X149127694Y-111753371D02*
X149222932Y-111705752D01*
X149222932Y-111705752D02*
X149413408Y-111705752D01*
X149413408Y-111705752D02*
X149508646Y-111753371D01*
X150413408Y-111705752D02*
X150413408Y-112372419D01*
X149984837Y-111705752D02*
X149984837Y-112229561D01*
X149984837Y-112229561D02*
X150032456Y-112324800D01*
X150032456Y-112324800D02*
X150127694Y-112372419D01*
X150127694Y-112372419D02*
X150270551Y-112372419D01*
X150270551Y-112372419D02*
X150365789Y-112324800D01*
X150365789Y-112324800D02*
X150413408Y-112277180D01*
X150889599Y-112372419D02*
X150889599Y-111705752D01*
X150889599Y-111372419D02*
X150841980Y-111420038D01*
X150841980Y-111420038D02*
X150889599Y-111467657D01*
X150889599Y-111467657D02*
X150937218Y-111420038D01*
X150937218Y-111420038D02*
X150889599Y-111372419D01*
X150889599Y-111372419D02*
X150889599Y-111467657D01*
X151365789Y-111705752D02*
X151365789Y-112372419D01*
X151365789Y-111800990D02*
X151413408Y-111753371D01*
X151413408Y-111753371D02*
X151508646Y-111705752D01*
X151508646Y-111705752D02*
X151651503Y-111705752D01*
X151651503Y-111705752D02*
X151746741Y-111753371D01*
X151746741Y-111753371D02*
X151794360Y-111848609D01*
X151794360Y-111848609D02*
X151794360Y-112372419D01*
X152413408Y-112372419D02*
X152318170Y-112324800D01*
X152318170Y-112324800D02*
X152270551Y-112277180D01*
X152270551Y-112277180D02*
X152222932Y-112181942D01*
X152222932Y-112181942D02*
X152222932Y-111896228D01*
X152222932Y-111896228D02*
X152270551Y-111800990D01*
X152270551Y-111800990D02*
X152318170Y-111753371D01*
X152318170Y-111753371D02*
X152413408Y-111705752D01*
X152413408Y-111705752D02*
X152556265Y-111705752D01*
X152556265Y-111705752D02*
X152651503Y-111753371D01*
X152651503Y-111753371D02*
X152699122Y-111800990D01*
X152699122Y-111800990D02*
X152746741Y-111896228D01*
X152746741Y-111896228D02*
X152746741Y-112181942D01*
X152746741Y-112181942D02*
X152699122Y-112277180D01*
X152699122Y-112277180D02*
X152651503Y-112324800D01*
X152651503Y-112324800D02*
X152556265Y-112372419D01*
X152556265Y-112372419D02*
X152413408Y-112372419D01*
X153937218Y-112372419D02*
X153937218Y-111372419D01*
X153937218Y-111372419D02*
X154508646Y-112372419D01*
X154508646Y-112372419D02*
X154508646Y-111372419D01*
X155413408Y-112372419D02*
X155413408Y-111848609D01*
X155413408Y-111848609D02*
X155365789Y-111753371D01*
X155365789Y-111753371D02*
X155270551Y-111705752D01*
X155270551Y-111705752D02*
X155080075Y-111705752D01*
X155080075Y-111705752D02*
X154984837Y-111753371D01*
X155413408Y-112324800D02*
X155318170Y-112372419D01*
X155318170Y-112372419D02*
X155080075Y-112372419D01*
X155080075Y-112372419D02*
X154984837Y-112324800D01*
X154984837Y-112324800D02*
X154937218Y-112229561D01*
X154937218Y-112229561D02*
X154937218Y-112134323D01*
X154937218Y-112134323D02*
X154984837Y-112039085D01*
X154984837Y-112039085D02*
X155080075Y-111991466D01*
X155080075Y-111991466D02*
X155318170Y-111991466D01*
X155318170Y-111991466D02*
X155413408Y-111943847D01*
X155889599Y-111705752D02*
X155889599Y-112372419D01*
X155889599Y-111800990D02*
X155937218Y-111753371D01*
X155937218Y-111753371D02*
X156032456Y-111705752D01*
X156032456Y-111705752D02*
X156175313Y-111705752D01*
X156175313Y-111705752D02*
X156270551Y-111753371D01*
X156270551Y-111753371D02*
X156318170Y-111848609D01*
X156318170Y-111848609D02*
X156318170Y-112372419D01*
X156937218Y-112372419D02*
X156841980Y-112324800D01*
X156841980Y-112324800D02*
X156794361Y-112277180D01*
X156794361Y-112277180D02*
X156746742Y-112181942D01*
X156746742Y-112181942D02*
X156746742Y-111896228D01*
X156746742Y-111896228D02*
X156794361Y-111800990D01*
X156794361Y-111800990D02*
X156841980Y-111753371D01*
X156841980Y-111753371D02*
X156937218Y-111705752D01*
X156937218Y-111705752D02*
X157080075Y-111705752D01*
X157080075Y-111705752D02*
X157175313Y-111753371D01*
X157175313Y-111753371D02*
X157222932Y-111800990D01*
X157222932Y-111800990D02*
X157270551Y-111896228D01*
X157270551Y-111896228D02*
X157270551Y-112181942D01*
X157270551Y-112181942D02*
X157222932Y-112277180D01*
X157222932Y-112277180D02*
X157175313Y-112324800D01*
X157175313Y-112324800D02*
X157080075Y-112372419D01*
X157080075Y-112372419D02*
X156937218Y-112372419D01*
D11*
D12*
X191814286Y-100304819D02*
X191814286Y-101114342D01*
X191814286Y-101114342D02*
X191861905Y-101209580D01*
X191861905Y-101209580D02*
X191909524Y-101257200D01*
X191909524Y-101257200D02*
X192004762Y-101304819D01*
X192004762Y-101304819D02*
X192195238Y-101304819D01*
X192195238Y-101304819D02*
X192290476Y-101257200D01*
X192290476Y-101257200D02*
X192338095Y-101209580D01*
X192338095Y-101209580D02*
X192385714Y-101114342D01*
X192385714Y-101114342D02*
X192385714Y-100304819D01*
X192861905Y-101304819D02*
X192861905Y-100304819D01*
X192861905Y-100304819D02*
X193242857Y-100304819D01*
X193242857Y-100304819D02*
X193338095Y-100352438D01*
X193338095Y-100352438D02*
X193385714Y-100400057D01*
X193385714Y-100400057D02*
X193433333Y-100495295D01*
X193433333Y-100495295D02*
X193433333Y-100638152D01*
X193433333Y-100638152D02*
X193385714Y-100733390D01*
X193385714Y-100733390D02*
X193338095Y-100781009D01*
X193338095Y-100781009D02*
X193242857Y-100828628D01*
X193242857Y-100828628D02*
X192861905Y-100828628D01*
D10*
X125898095Y-92517419D02*
X125898095Y-93326942D01*
X125898095Y-93326942D02*
X125945714Y-93422180D01*
X125945714Y-93422180D02*
X125993333Y-93469800D01*
X125993333Y-93469800D02*
X126088571Y-93517419D01*
X126088571Y-93517419D02*
X126279047Y-93517419D01*
X126279047Y-93517419D02*
X126374285Y-93469800D01*
X126374285Y-93469800D02*
X126421904Y-93422180D01*
X126421904Y-93422180D02*
X126469523Y-93326942D01*
X126469523Y-93326942D02*
X126469523Y-92517419D01*
X126898095Y-92612657D02*
X126945714Y-92565038D01*
X126945714Y-92565038D02*
X127040952Y-92517419D01*
X127040952Y-92517419D02*
X127279047Y-92517419D01*
X127279047Y-92517419D02*
X127374285Y-92565038D01*
X127374285Y-92565038D02*
X127421904Y-92612657D01*
X127421904Y-92612657D02*
X127469523Y-92707895D01*
X127469523Y-92707895D02*
X127469523Y-92803133D01*
X127469523Y-92803133D02*
X127421904Y-92945990D01*
X127421904Y-92945990D02*
X126850476Y-93517419D01*
X126850476Y-93517419D02*
X127469523Y-93517419D01*
X136984800Y-87303734D02*
X137032419Y-87160877D01*
X137032419Y-87160877D02*
X137032419Y-86922782D01*
X137032419Y-86922782D02*
X136984800Y-86827544D01*
X136984800Y-86827544D02*
X136937180Y-86779925D01*
X136937180Y-86779925D02*
X136841942Y-86732306D01*
X136841942Y-86732306D02*
X136746704Y-86732306D01*
X136746704Y-86732306D02*
X136651466Y-86779925D01*
X136651466Y-86779925D02*
X136603847Y-86827544D01*
X136603847Y-86827544D02*
X136556228Y-86922782D01*
X136556228Y-86922782D02*
X136508609Y-87113258D01*
X136508609Y-87113258D02*
X136460990Y-87208496D01*
X136460990Y-87208496D02*
X136413371Y-87256115D01*
X136413371Y-87256115D02*
X136318133Y-87303734D01*
X136318133Y-87303734D02*
X136222895Y-87303734D01*
X136222895Y-87303734D02*
X136127657Y-87256115D01*
X136127657Y-87256115D02*
X136080038Y-87208496D01*
X136080038Y-87208496D02*
X136032419Y-87113258D01*
X136032419Y-87113258D02*
X136032419Y-86875163D01*
X136032419Y-86875163D02*
X136080038Y-86732306D01*
X137032419Y-86303734D02*
X136032419Y-86303734D01*
X136032419Y-86303734D02*
X136032419Y-86065639D01*
X136032419Y-86065639D02*
X136080038Y-85922782D01*
X136080038Y-85922782D02*
X136175276Y-85827544D01*
X136175276Y-85827544D02*
X136270514Y-85779925D01*
X136270514Y-85779925D02*
X136460990Y-85732306D01*
X136460990Y-85732306D02*
X136603847Y-85732306D01*
X136603847Y-85732306D02*
X136794323Y-85779925D01*
X136794323Y-85779925D02*
X136889561Y-85827544D01*
X136889561Y-85827544D02*
X136984800Y-85922782D01*
X136984800Y-85922782D02*
X137032419Y-86065639D01*
X137032419Y-86065639D02*
X137032419Y-86303734D01*
X136746704Y-85351353D02*
X136746704Y-84875163D01*
X137032419Y-85446591D02*
X136032419Y-85113258D01*
X136032419Y-85113258D02*
X137032419Y-84779925D01*
X129484800Y-87443734D02*
X129532419Y-87300877D01*
X129532419Y-87300877D02*
X129532419Y-87062782D01*
X129532419Y-87062782D02*
X129484800Y-86967544D01*
X129484800Y-86967544D02*
X129437180Y-86919925D01*
X129437180Y-86919925D02*
X129341942Y-86872306D01*
X129341942Y-86872306D02*
X129246704Y-86872306D01*
X129246704Y-86872306D02*
X129151466Y-86919925D01*
X129151466Y-86919925D02*
X129103847Y-86967544D01*
X129103847Y-86967544D02*
X129056228Y-87062782D01*
X129056228Y-87062782D02*
X129008609Y-87253258D01*
X129008609Y-87253258D02*
X128960990Y-87348496D01*
X128960990Y-87348496D02*
X128913371Y-87396115D01*
X128913371Y-87396115D02*
X128818133Y-87443734D01*
X128818133Y-87443734D02*
X128722895Y-87443734D01*
X128722895Y-87443734D02*
X128627657Y-87396115D01*
X128627657Y-87396115D02*
X128580038Y-87348496D01*
X128580038Y-87348496D02*
X128532419Y-87253258D01*
X128532419Y-87253258D02*
X128532419Y-87015163D01*
X128532419Y-87015163D02*
X128580038Y-86872306D01*
X129437180Y-85872306D02*
X129484800Y-85919925D01*
X129484800Y-85919925D02*
X129532419Y-86062782D01*
X129532419Y-86062782D02*
X129532419Y-86158020D01*
X129532419Y-86158020D02*
X129484800Y-86300877D01*
X129484800Y-86300877D02*
X129389561Y-86396115D01*
X129389561Y-86396115D02*
X129294323Y-86443734D01*
X129294323Y-86443734D02*
X129103847Y-86491353D01*
X129103847Y-86491353D02*
X128960990Y-86491353D01*
X128960990Y-86491353D02*
X128770514Y-86443734D01*
X128770514Y-86443734D02*
X128675276Y-86396115D01*
X128675276Y-86396115D02*
X128580038Y-86300877D01*
X128580038Y-86300877D02*
X128532419Y-86158020D01*
X128532419Y-86158020D02*
X128532419Y-86062782D01*
X128532419Y-86062782D02*
X128580038Y-85919925D01*
X128580038Y-85919925D02*
X128627657Y-85872306D01*
X129532419Y-84967544D02*
X129532419Y-85443734D01*
X129532419Y-85443734D02*
X128532419Y-85443734D01*
X120532419Y-87538972D02*
X121532419Y-87205639D01*
X121532419Y-87205639D02*
X120532419Y-86872306D01*
X121437180Y-85967544D02*
X121484800Y-86015163D01*
X121484800Y-86015163D02*
X121532419Y-86158020D01*
X121532419Y-86158020D02*
X121532419Y-86253258D01*
X121532419Y-86253258D02*
X121484800Y-86396115D01*
X121484800Y-86396115D02*
X121389561Y-86491353D01*
X121389561Y-86491353D02*
X121294323Y-86538972D01*
X121294323Y-86538972D02*
X121103847Y-86586591D01*
X121103847Y-86586591D02*
X120960990Y-86586591D01*
X120960990Y-86586591D02*
X120770514Y-86538972D01*
X120770514Y-86538972D02*
X120675276Y-86491353D01*
X120675276Y-86491353D02*
X120580038Y-86396115D01*
X120580038Y-86396115D02*
X120532419Y-86253258D01*
X120532419Y-86253258D02*
X120532419Y-86158020D01*
X120532419Y-86158020D02*
X120580038Y-86015163D01*
X120580038Y-86015163D02*
X120627657Y-85967544D01*
X121437180Y-84967544D02*
X121484800Y-85015163D01*
X121484800Y-85015163D02*
X121532419Y-85158020D01*
X121532419Y-85158020D02*
X121532419Y-85253258D01*
X121532419Y-85253258D02*
X121484800Y-85396115D01*
X121484800Y-85396115D02*
X121389561Y-85491353D01*
X121389561Y-85491353D02*
X121294323Y-85538972D01*
X121294323Y-85538972D02*
X121103847Y-85586591D01*
X121103847Y-85586591D02*
X120960990Y-85586591D01*
X120960990Y-85586591D02*
X120770514Y-85538972D01*
X120770514Y-85538972D02*
X120675276Y-85491353D01*
X120675276Y-85491353D02*
X120580038Y-85396115D01*
X120580038Y-85396115D02*
X120532419Y-85253258D01*
X120532419Y-85253258D02*
X120532419Y-85158020D01*
X120532419Y-85158020D02*
X120580038Y-85015163D01*
X120580038Y-85015163D02*
X120627657Y-84967544D01*
X115720038Y-86872306D02*
X115672419Y-86967544D01*
X115672419Y-86967544D02*
X115672419Y-87110401D01*
X115672419Y-87110401D02*
X115720038Y-87253258D01*
X115720038Y-87253258D02*
X115815276Y-87348496D01*
X115815276Y-87348496D02*
X115910514Y-87396115D01*
X115910514Y-87396115D02*
X116100990Y-87443734D01*
X116100990Y-87443734D02*
X116243847Y-87443734D01*
X116243847Y-87443734D02*
X116434323Y-87396115D01*
X116434323Y-87396115D02*
X116529561Y-87348496D01*
X116529561Y-87348496D02*
X116624800Y-87253258D01*
X116624800Y-87253258D02*
X116672419Y-87110401D01*
X116672419Y-87110401D02*
X116672419Y-87015163D01*
X116672419Y-87015163D02*
X116624800Y-86872306D01*
X116624800Y-86872306D02*
X116577180Y-86824687D01*
X116577180Y-86824687D02*
X116243847Y-86824687D01*
X116243847Y-86824687D02*
X116243847Y-87015163D01*
X116672419Y-86396115D02*
X115672419Y-86396115D01*
X115672419Y-86396115D02*
X116672419Y-85824687D01*
X116672419Y-85824687D02*
X115672419Y-85824687D01*
X116672419Y-85348496D02*
X115672419Y-85348496D01*
X115672419Y-85348496D02*
X115672419Y-85110401D01*
X115672419Y-85110401D02*
X115720038Y-84967544D01*
X115720038Y-84967544D02*
X115815276Y-84872306D01*
X115815276Y-84872306D02*
X115910514Y-84824687D01*
X115910514Y-84824687D02*
X116100990Y-84777068D01*
X116100990Y-84777068D02*
X116243847Y-84777068D01*
X116243847Y-84777068D02*
X116434323Y-84824687D01*
X116434323Y-84824687D02*
X116529561Y-84872306D01*
X116529561Y-84872306D02*
X116624800Y-84967544D01*
X116624800Y-84967544D02*
X116672419Y-85110401D01*
X116672419Y-85110401D02*
X116672419Y-85348496D01*
D12*
X177833333Y-93584819D02*
X177500000Y-93108628D01*
X177261905Y-93584819D02*
X177261905Y-92584819D01*
X177261905Y-92584819D02*
X177642857Y-92584819D01*
X177642857Y-92584819D02*
X177738095Y-92632438D01*
X177738095Y-92632438D02*
X177785714Y-92680057D01*
X177785714Y-92680057D02*
X177833333Y-92775295D01*
X177833333Y-92775295D02*
X177833333Y-92918152D01*
X177833333Y-92918152D02*
X177785714Y-93013390D01*
X177785714Y-93013390D02*
X177738095Y-93061009D01*
X177738095Y-93061009D02*
X177642857Y-93108628D01*
X177642857Y-93108628D02*
X177261905Y-93108628D01*
X178785714Y-93584819D02*
X178214286Y-93584819D01*
X178500000Y-93584819D02*
X178500000Y-92584819D01*
X178500000Y-92584819D02*
X178404762Y-92727676D01*
X178404762Y-92727676D02*
X178309524Y-92822914D01*
X178309524Y-92822914D02*
X178214286Y-92870533D01*
X168033333Y-84084819D02*
X167700000Y-83608628D01*
X167461905Y-84084819D02*
X167461905Y-83084819D01*
X167461905Y-83084819D02*
X167842857Y-83084819D01*
X167842857Y-83084819D02*
X167938095Y-83132438D01*
X167938095Y-83132438D02*
X167985714Y-83180057D01*
X167985714Y-83180057D02*
X168033333Y-83275295D01*
X168033333Y-83275295D02*
X168033333Y-83418152D01*
X168033333Y-83418152D02*
X167985714Y-83513390D01*
X167985714Y-83513390D02*
X167938095Y-83561009D01*
X167938095Y-83561009D02*
X167842857Y-83608628D01*
X167842857Y-83608628D02*
X167461905Y-83608628D01*
X168890476Y-83418152D02*
X168890476Y-84084819D01*
X168652381Y-83037200D02*
X168414286Y-83751485D01*
X168414286Y-83751485D02*
X169033333Y-83751485D01*
X190669048Y-112054819D02*
X190669048Y-111054819D01*
X190669048Y-111054819D02*
X190907143Y-111054819D01*
X190907143Y-111054819D02*
X191050000Y-111102438D01*
X191050000Y-111102438D02*
X191145238Y-111197676D01*
X191145238Y-111197676D02*
X191192857Y-111292914D01*
X191192857Y-111292914D02*
X191240476Y-111483390D01*
X191240476Y-111483390D02*
X191240476Y-111626247D01*
X191240476Y-111626247D02*
X191192857Y-111816723D01*
X191192857Y-111816723D02*
X191145238Y-111911961D01*
X191145238Y-111911961D02*
X191050000Y-112007200D01*
X191050000Y-112007200D02*
X190907143Y-112054819D01*
X190907143Y-112054819D02*
X190669048Y-112054819D01*
X191859524Y-111054819D02*
X192050000Y-111054819D01*
X192050000Y-111054819D02*
X192145238Y-111102438D01*
X192145238Y-111102438D02*
X192240476Y-111197676D01*
X192240476Y-111197676D02*
X192288095Y-111388152D01*
X192288095Y-111388152D02*
X192288095Y-111721485D01*
X192288095Y-111721485D02*
X192240476Y-111911961D01*
X192240476Y-111911961D02*
X192145238Y-112007200D01*
X192145238Y-112007200D02*
X192050000Y-112054819D01*
X192050000Y-112054819D02*
X191859524Y-112054819D01*
X191859524Y-112054819D02*
X191764286Y-112007200D01*
X191764286Y-112007200D02*
X191669048Y-111911961D01*
X191669048Y-111911961D02*
X191621429Y-111721485D01*
X191621429Y-111721485D02*
X191621429Y-111388152D01*
X191621429Y-111388152D02*
X191669048Y-111197676D01*
X191669048Y-111197676D02*
X191764286Y-111102438D01*
X191764286Y-111102438D02*
X191859524Y-111054819D01*
X192621429Y-111054819D02*
X192859524Y-112054819D01*
X192859524Y-112054819D02*
X193050000Y-111340533D01*
X193050000Y-111340533D02*
X193240476Y-112054819D01*
X193240476Y-112054819D02*
X193478572Y-111054819D01*
X193859524Y-112054819D02*
X193859524Y-111054819D01*
X193859524Y-111054819D02*
X194430952Y-112054819D01*
X194430952Y-112054819D02*
X194430952Y-111054819D01*
X177833333Y-103584819D02*
X177500000Y-103108628D01*
X177261905Y-103584819D02*
X177261905Y-102584819D01*
X177261905Y-102584819D02*
X177642857Y-102584819D01*
X177642857Y-102584819D02*
X177738095Y-102632438D01*
X177738095Y-102632438D02*
X177785714Y-102680057D01*
X177785714Y-102680057D02*
X177833333Y-102775295D01*
X177833333Y-102775295D02*
X177833333Y-102918152D01*
X177833333Y-102918152D02*
X177785714Y-103013390D01*
X177785714Y-103013390D02*
X177738095Y-103061009D01*
X177738095Y-103061009D02*
X177642857Y-103108628D01*
X177642857Y-103108628D02*
X177261905Y-103108628D01*
X178214286Y-102680057D02*
X178261905Y-102632438D01*
X178261905Y-102632438D02*
X178357143Y-102584819D01*
X178357143Y-102584819D02*
X178595238Y-102584819D01*
X178595238Y-102584819D02*
X178690476Y-102632438D01*
X178690476Y-102632438D02*
X178738095Y-102680057D01*
X178738095Y-102680057D02*
X178785714Y-102775295D01*
X178785714Y-102775295D02*
X178785714Y-102870533D01*
X178785714Y-102870533D02*
X178738095Y-103013390D01*
X178738095Y-103013390D02*
X178166667Y-103584819D01*
X178166667Y-103584819D02*
X178785714Y-103584819D01*
X177733333Y-113584819D02*
X177400000Y-113108628D01*
X177161905Y-113584819D02*
X177161905Y-112584819D01*
X177161905Y-112584819D02*
X177542857Y-112584819D01*
X177542857Y-112584819D02*
X177638095Y-112632438D01*
X177638095Y-112632438D02*
X177685714Y-112680057D01*
X177685714Y-112680057D02*
X177733333Y-112775295D01*
X177733333Y-112775295D02*
X177733333Y-112918152D01*
X177733333Y-112918152D02*
X177685714Y-113013390D01*
X177685714Y-113013390D02*
X177638095Y-113061009D01*
X177638095Y-113061009D02*
X177542857Y-113108628D01*
X177542857Y-113108628D02*
X177161905Y-113108628D01*
X178066667Y-112584819D02*
X178685714Y-112584819D01*
X178685714Y-112584819D02*
X178352381Y-112965771D01*
X178352381Y-112965771D02*
X178495238Y-112965771D01*
X178495238Y-112965771D02*
X178590476Y-113013390D01*
X178590476Y-113013390D02*
X178638095Y-113061009D01*
X178638095Y-113061009D02*
X178685714Y-113156247D01*
X178685714Y-113156247D02*
X178685714Y-113394342D01*
X178685714Y-113394342D02*
X178638095Y-113489580D01*
X178638095Y-113489580D02*
X178590476Y-113537200D01*
X178590476Y-113537200D02*
X178495238Y-113584819D01*
X178495238Y-113584819D02*
X178209524Y-113584819D01*
X178209524Y-113584819D02*
X178114286Y-113537200D01*
X178114286Y-113537200D02*
X178066667Y-113489580D01*
X190916667Y-91254819D02*
X190916667Y-90254819D01*
X190916667Y-90254819D02*
X191250000Y-90969104D01*
X191250000Y-90969104D02*
X191583333Y-90254819D01*
X191583333Y-90254819D02*
X191583333Y-91254819D01*
X192059524Y-90731009D02*
X192392857Y-90731009D01*
X192535714Y-91254819D02*
X192059524Y-91254819D01*
X192059524Y-91254819D02*
X192059524Y-90254819D01*
X192059524Y-90254819D02*
X192535714Y-90254819D01*
X192964286Y-91254819D02*
X192964286Y-90254819D01*
X192964286Y-90254819D02*
X193535714Y-91254819D01*
X193535714Y-91254819D02*
X193535714Y-90254819D01*
X194011905Y-90254819D02*
X194011905Y-91064342D01*
X194011905Y-91064342D02*
X194059524Y-91159580D01*
X194059524Y-91159580D02*
X194107143Y-91207200D01*
X194107143Y-91207200D02*
X194202381Y-91254819D01*
X194202381Y-91254819D02*
X194392857Y-91254819D01*
X194392857Y-91254819D02*
X194488095Y-91207200D01*
X194488095Y-91207200D02*
X194535714Y-91159580D01*
X194535714Y-91159580D02*
X194583333Y-91064342D01*
X194583333Y-91064342D02*
X194583333Y-90254819D01*
D10*
X132838095Y-123657419D02*
X132838095Y-124466942D01*
X132838095Y-124466942D02*
X132885714Y-124562180D01*
X132885714Y-124562180D02*
X132933333Y-124609800D01*
X132933333Y-124609800D02*
X133028571Y-124657419D01*
X133028571Y-124657419D02*
X133219047Y-124657419D01*
X133219047Y-124657419D02*
X133314285Y-124609800D01*
X133314285Y-124609800D02*
X133361904Y-124562180D01*
X133361904Y-124562180D02*
X133409523Y-124466942D01*
X133409523Y-124466942D02*
X133409523Y-123657419D01*
X134409523Y-124657419D02*
X133838095Y-124657419D01*
X134123809Y-124657419D02*
X134123809Y-123657419D01*
X134123809Y-123657419D02*
X134028571Y-123800276D01*
X134028571Y-123800276D02*
X133933333Y-123895514D01*
X133933333Y-123895514D02*
X133838095Y-123943133D01*
X129772419Y-116938972D02*
X130772419Y-116605639D01*
X130772419Y-116605639D02*
X129772419Y-116272306D01*
X130677180Y-115367544D02*
X130724800Y-115415163D01*
X130724800Y-115415163D02*
X130772419Y-115558020D01*
X130772419Y-115558020D02*
X130772419Y-115653258D01*
X130772419Y-115653258D02*
X130724800Y-115796115D01*
X130724800Y-115796115D02*
X130629561Y-115891353D01*
X130629561Y-115891353D02*
X130534323Y-115938972D01*
X130534323Y-115938972D02*
X130343847Y-115986591D01*
X130343847Y-115986591D02*
X130200990Y-115986591D01*
X130200990Y-115986591D02*
X130010514Y-115938972D01*
X130010514Y-115938972D02*
X129915276Y-115891353D01*
X129915276Y-115891353D02*
X129820038Y-115796115D01*
X129820038Y-115796115D02*
X129772419Y-115653258D01*
X129772419Y-115653258D02*
X129772419Y-115558020D01*
X129772419Y-115558020D02*
X129820038Y-115415163D01*
X129820038Y-115415163D02*
X129867657Y-115367544D01*
X130677180Y-114367544D02*
X130724800Y-114415163D01*
X130724800Y-114415163D02*
X130772419Y-114558020D01*
X130772419Y-114558020D02*
X130772419Y-114653258D01*
X130772419Y-114653258D02*
X130724800Y-114796115D01*
X130724800Y-114796115D02*
X130629561Y-114891353D01*
X130629561Y-114891353D02*
X130534323Y-114938972D01*
X130534323Y-114938972D02*
X130343847Y-114986591D01*
X130343847Y-114986591D02*
X130200990Y-114986591D01*
X130200990Y-114986591D02*
X130010514Y-114938972D01*
X130010514Y-114938972D02*
X129915276Y-114891353D01*
X129915276Y-114891353D02*
X129820038Y-114796115D01*
X129820038Y-114796115D02*
X129772419Y-114653258D01*
X129772419Y-114653258D02*
X129772419Y-114558020D01*
X129772419Y-114558020D02*
X129820038Y-114415163D01*
X129820038Y-114415163D02*
X129867657Y-114367544D01*
X127320038Y-116372306D02*
X127272419Y-116467544D01*
X127272419Y-116467544D02*
X127272419Y-116610401D01*
X127272419Y-116610401D02*
X127320038Y-116753258D01*
X127320038Y-116753258D02*
X127415276Y-116848496D01*
X127415276Y-116848496D02*
X127510514Y-116896115D01*
X127510514Y-116896115D02*
X127700990Y-116943734D01*
X127700990Y-116943734D02*
X127843847Y-116943734D01*
X127843847Y-116943734D02*
X128034323Y-116896115D01*
X128034323Y-116896115D02*
X128129561Y-116848496D01*
X128129561Y-116848496D02*
X128224800Y-116753258D01*
X128224800Y-116753258D02*
X128272419Y-116610401D01*
X128272419Y-116610401D02*
X128272419Y-116515163D01*
X128272419Y-116515163D02*
X128224800Y-116372306D01*
X128224800Y-116372306D02*
X128177180Y-116324687D01*
X128177180Y-116324687D02*
X127843847Y-116324687D01*
X127843847Y-116324687D02*
X127843847Y-116515163D01*
X128272419Y-115896115D02*
X127272419Y-115896115D01*
X127272419Y-115896115D02*
X128272419Y-115324687D01*
X128272419Y-115324687D02*
X127272419Y-115324687D01*
X128272419Y-114848496D02*
X127272419Y-114848496D01*
X127272419Y-114848496D02*
X127272419Y-114610401D01*
X127272419Y-114610401D02*
X127320038Y-114467544D01*
X127320038Y-114467544D02*
X127415276Y-114372306D01*
X127415276Y-114372306D02*
X127510514Y-114324687D01*
X127510514Y-114324687D02*
X127700990Y-114277068D01*
X127700990Y-114277068D02*
X127843847Y-114277068D01*
X127843847Y-114277068D02*
X128034323Y-114324687D01*
X128034323Y-114324687D02*
X128129561Y-114372306D01*
X128129561Y-114372306D02*
X128224800Y-114467544D01*
X128224800Y-114467544D02*
X128272419Y-114610401D01*
X128272419Y-114610401D02*
X128272419Y-114848496D01*
X125824800Y-116643734D02*
X125872419Y-116500877D01*
X125872419Y-116500877D02*
X125872419Y-116262782D01*
X125872419Y-116262782D02*
X125824800Y-116167544D01*
X125824800Y-116167544D02*
X125777180Y-116119925D01*
X125777180Y-116119925D02*
X125681942Y-116072306D01*
X125681942Y-116072306D02*
X125586704Y-116072306D01*
X125586704Y-116072306D02*
X125491466Y-116119925D01*
X125491466Y-116119925D02*
X125443847Y-116167544D01*
X125443847Y-116167544D02*
X125396228Y-116262782D01*
X125396228Y-116262782D02*
X125348609Y-116453258D01*
X125348609Y-116453258D02*
X125300990Y-116548496D01*
X125300990Y-116548496D02*
X125253371Y-116596115D01*
X125253371Y-116596115D02*
X125158133Y-116643734D01*
X125158133Y-116643734D02*
X125062895Y-116643734D01*
X125062895Y-116643734D02*
X124967657Y-116596115D01*
X124967657Y-116596115D02*
X124920038Y-116548496D01*
X124920038Y-116548496D02*
X124872419Y-116453258D01*
X124872419Y-116453258D02*
X124872419Y-116215163D01*
X124872419Y-116215163D02*
X124920038Y-116072306D01*
X125777180Y-115072306D02*
X125824800Y-115119925D01*
X125824800Y-115119925D02*
X125872419Y-115262782D01*
X125872419Y-115262782D02*
X125872419Y-115358020D01*
X125872419Y-115358020D02*
X125824800Y-115500877D01*
X125824800Y-115500877D02*
X125729561Y-115596115D01*
X125729561Y-115596115D02*
X125634323Y-115643734D01*
X125634323Y-115643734D02*
X125443847Y-115691353D01*
X125443847Y-115691353D02*
X125300990Y-115691353D01*
X125300990Y-115691353D02*
X125110514Y-115643734D01*
X125110514Y-115643734D02*
X125015276Y-115596115D01*
X125015276Y-115596115D02*
X124920038Y-115500877D01*
X124920038Y-115500877D02*
X124872419Y-115358020D01*
X124872419Y-115358020D02*
X124872419Y-115262782D01*
X124872419Y-115262782D02*
X124920038Y-115119925D01*
X124920038Y-115119925D02*
X124967657Y-115072306D01*
X125872419Y-114167544D02*
X125872419Y-114643734D01*
X125872419Y-114643734D02*
X124872419Y-114643734D01*
X123124800Y-116643734D02*
X123172419Y-116500877D01*
X123172419Y-116500877D02*
X123172419Y-116262782D01*
X123172419Y-116262782D02*
X123124800Y-116167544D01*
X123124800Y-116167544D02*
X123077180Y-116119925D01*
X123077180Y-116119925D02*
X122981942Y-116072306D01*
X122981942Y-116072306D02*
X122886704Y-116072306D01*
X122886704Y-116072306D02*
X122791466Y-116119925D01*
X122791466Y-116119925D02*
X122743847Y-116167544D01*
X122743847Y-116167544D02*
X122696228Y-116262782D01*
X122696228Y-116262782D02*
X122648609Y-116453258D01*
X122648609Y-116453258D02*
X122600990Y-116548496D01*
X122600990Y-116548496D02*
X122553371Y-116596115D01*
X122553371Y-116596115D02*
X122458133Y-116643734D01*
X122458133Y-116643734D02*
X122362895Y-116643734D01*
X122362895Y-116643734D02*
X122267657Y-116596115D01*
X122267657Y-116596115D02*
X122220038Y-116548496D01*
X122220038Y-116548496D02*
X122172419Y-116453258D01*
X122172419Y-116453258D02*
X122172419Y-116215163D01*
X122172419Y-116215163D02*
X122220038Y-116072306D01*
X123172419Y-115643734D02*
X122172419Y-115643734D01*
X122172419Y-115643734D02*
X122172419Y-115405639D01*
X122172419Y-115405639D02*
X122220038Y-115262782D01*
X122220038Y-115262782D02*
X122315276Y-115167544D01*
X122315276Y-115167544D02*
X122410514Y-115119925D01*
X122410514Y-115119925D02*
X122600990Y-115072306D01*
X122600990Y-115072306D02*
X122743847Y-115072306D01*
X122743847Y-115072306D02*
X122934323Y-115119925D01*
X122934323Y-115119925D02*
X123029561Y-115167544D01*
X123029561Y-115167544D02*
X123124800Y-115262782D01*
X123124800Y-115262782D02*
X123172419Y-115405639D01*
X123172419Y-115405639D02*
X123172419Y-115643734D01*
X122886704Y-114691353D02*
X122886704Y-114215163D01*
X123172419Y-114786591D02*
X122172419Y-114453258D01*
X122172419Y-114453258D02*
X123172419Y-114119925D01*
X120672419Y-116196115D02*
X119672419Y-116196115D01*
X120672419Y-115719925D02*
X119672419Y-115719925D01*
X119672419Y-115719925D02*
X120672419Y-115148497D01*
X120672419Y-115148497D02*
X119672419Y-115148497D01*
X119672419Y-114815163D02*
X119672419Y-114243735D01*
X120672419Y-114529449D02*
X119672419Y-114529449D01*
D12*
X167133333Y-113059580D02*
X167085714Y-113107200D01*
X167085714Y-113107200D02*
X166942857Y-113154819D01*
X166942857Y-113154819D02*
X166847619Y-113154819D01*
X166847619Y-113154819D02*
X166704762Y-113107200D01*
X166704762Y-113107200D02*
X166609524Y-113011961D01*
X166609524Y-113011961D02*
X166561905Y-112916723D01*
X166561905Y-112916723D02*
X166514286Y-112726247D01*
X166514286Y-112726247D02*
X166514286Y-112583390D01*
X166514286Y-112583390D02*
X166561905Y-112392914D01*
X166561905Y-112392914D02*
X166609524Y-112297676D01*
X166609524Y-112297676D02*
X166704762Y-112202438D01*
X166704762Y-112202438D02*
X166847619Y-112154819D01*
X166847619Y-112154819D02*
X166942857Y-112154819D01*
X166942857Y-112154819D02*
X167085714Y-112202438D01*
X167085714Y-112202438D02*
X167133333Y-112250057D01*
X167466667Y-112154819D02*
X168085714Y-112154819D01*
X168085714Y-112154819D02*
X167752381Y-112535771D01*
X167752381Y-112535771D02*
X167895238Y-112535771D01*
X167895238Y-112535771D02*
X167990476Y-112583390D01*
X167990476Y-112583390D02*
X168038095Y-112631009D01*
X168038095Y-112631009D02*
X168085714Y-112726247D01*
X168085714Y-112726247D02*
X168085714Y-112964342D01*
X168085714Y-112964342D02*
X168038095Y-113059580D01*
X168038095Y-113059580D02*
X167990476Y-113107200D01*
X167990476Y-113107200D02*
X167895238Y-113154819D01*
X167895238Y-113154819D02*
X167609524Y-113154819D01*
X167609524Y-113154819D02*
X167514286Y-113107200D01*
X167514286Y-113107200D02*
X167466667Y-113059580D01*
X167333333Y-93359580D02*
X167285714Y-93407200D01*
X167285714Y-93407200D02*
X167142857Y-93454819D01*
X167142857Y-93454819D02*
X167047619Y-93454819D01*
X167047619Y-93454819D02*
X166904762Y-93407200D01*
X166904762Y-93407200D02*
X166809524Y-93311961D01*
X166809524Y-93311961D02*
X166761905Y-93216723D01*
X166761905Y-93216723D02*
X166714286Y-93026247D01*
X166714286Y-93026247D02*
X166714286Y-92883390D01*
X166714286Y-92883390D02*
X166761905Y-92692914D01*
X166761905Y-92692914D02*
X166809524Y-92597676D01*
X166809524Y-92597676D02*
X166904762Y-92502438D01*
X166904762Y-92502438D02*
X167047619Y-92454819D01*
X167047619Y-92454819D02*
X167142857Y-92454819D01*
X167142857Y-92454819D02*
X167285714Y-92502438D01*
X167285714Y-92502438D02*
X167333333Y-92550057D01*
X168285714Y-93454819D02*
X167714286Y-93454819D01*
X168000000Y-93454819D02*
X168000000Y-92454819D01*
X168000000Y-92454819D02*
X167904762Y-92597676D01*
X167904762Y-92597676D02*
X167809524Y-92692914D01*
X167809524Y-92692914D02*
X167714286Y-92740533D01*
X151405714Y-125749104D02*
X151881904Y-125749104D01*
X151310476Y-126034819D02*
X151643809Y-125034819D01*
X151643809Y-125034819D02*
X151977142Y-126034819D01*
X152834285Y-126034819D02*
X152262857Y-126034819D01*
X152548571Y-126034819D02*
X152548571Y-125034819D01*
X152548571Y-125034819D02*
X152453333Y-125177676D01*
X152453333Y-125177676D02*
X152358095Y-125272914D01*
X152358095Y-125272914D02*
X152262857Y-125320533D01*
X153381904Y-85485180D02*
X153381904Y-84675657D01*
X153381904Y-84675657D02*
X153334285Y-84580419D01*
X153334285Y-84580419D02*
X153286666Y-84532800D01*
X153286666Y-84532800D02*
X153191428Y-84485180D01*
X153191428Y-84485180D02*
X153000952Y-84485180D01*
X153000952Y-84485180D02*
X152905714Y-84532800D01*
X152905714Y-84532800D02*
X152858095Y-84580419D01*
X152858095Y-84580419D02*
X152810476Y-84675657D01*
X152810476Y-84675657D02*
X152810476Y-85485180D01*
X152381904Y-84532800D02*
X152239047Y-84485180D01*
X152239047Y-84485180D02*
X152000952Y-84485180D01*
X152000952Y-84485180D02*
X151905714Y-84532800D01*
X151905714Y-84532800D02*
X151858095Y-84580419D01*
X151858095Y-84580419D02*
X151810476Y-84675657D01*
X151810476Y-84675657D02*
X151810476Y-84770895D01*
X151810476Y-84770895D02*
X151858095Y-84866133D01*
X151858095Y-84866133D02*
X151905714Y-84913752D01*
X151905714Y-84913752D02*
X152000952Y-84961371D01*
X152000952Y-84961371D02*
X152191428Y-85008990D01*
X152191428Y-85008990D02*
X152286666Y-85056609D01*
X152286666Y-85056609D02*
X152334285Y-85104228D01*
X152334285Y-85104228D02*
X152381904Y-85199466D01*
X152381904Y-85199466D02*
X152381904Y-85294704D01*
X152381904Y-85294704D02*
X152334285Y-85389942D01*
X152334285Y-85389942D02*
X152286666Y-85437561D01*
X152286666Y-85437561D02*
X152191428Y-85485180D01*
X152191428Y-85485180D02*
X151953333Y-85485180D01*
X151953333Y-85485180D02*
X151810476Y-85437561D01*
X151048571Y-85008990D02*
X150905714Y-84961371D01*
X150905714Y-84961371D02*
X150858095Y-84913752D01*
X150858095Y-84913752D02*
X150810476Y-84818514D01*
X150810476Y-84818514D02*
X150810476Y-84675657D01*
X150810476Y-84675657D02*
X150858095Y-84580419D01*
X150858095Y-84580419D02*
X150905714Y-84532800D01*
X150905714Y-84532800D02*
X151000952Y-84485180D01*
X151000952Y-84485180D02*
X151381904Y-84485180D01*
X151381904Y-84485180D02*
X151381904Y-85485180D01*
X151381904Y-85485180D02*
X151048571Y-85485180D01*
X151048571Y-85485180D02*
X150953333Y-85437561D01*
X150953333Y-85437561D02*
X150905714Y-85389942D01*
X150905714Y-85389942D02*
X150858095Y-85294704D01*
X150858095Y-85294704D02*
X150858095Y-85199466D01*
X150858095Y-85199466D02*
X150905714Y-85104228D01*
X150905714Y-85104228D02*
X150953333Y-85056609D01*
X150953333Y-85056609D02*
X151048571Y-85008990D01*
X151048571Y-85008990D02*
X151381904Y-85008990D01*
X180356905Y-82694819D02*
X180356905Y-81694819D01*
X180356905Y-81694819D02*
X180595000Y-81694819D01*
X180595000Y-81694819D02*
X180737857Y-81742438D01*
X180737857Y-81742438D02*
X180833095Y-81837676D01*
X180833095Y-81837676D02*
X180880714Y-81932914D01*
X180880714Y-81932914D02*
X180928333Y-82123390D01*
X180928333Y-82123390D02*
X180928333Y-82266247D01*
X180928333Y-82266247D02*
X180880714Y-82456723D01*
X180880714Y-82456723D02*
X180833095Y-82551961D01*
X180833095Y-82551961D02*
X180737857Y-82647200D01*
X180737857Y-82647200D02*
X180595000Y-82694819D01*
X180595000Y-82694819D02*
X180356905Y-82694819D01*
X181880714Y-82694819D02*
X181309286Y-82694819D01*
X181595000Y-82694819D02*
X181595000Y-81694819D01*
X181595000Y-81694819D02*
X181499762Y-81837676D01*
X181499762Y-81837676D02*
X181404524Y-81932914D01*
X181404524Y-81932914D02*
X181309286Y-81980533D01*
X167033333Y-102859580D02*
X166985714Y-102907200D01*
X166985714Y-102907200D02*
X166842857Y-102954819D01*
X166842857Y-102954819D02*
X166747619Y-102954819D01*
X166747619Y-102954819D02*
X166604762Y-102907200D01*
X166604762Y-102907200D02*
X166509524Y-102811961D01*
X166509524Y-102811961D02*
X166461905Y-102716723D01*
X166461905Y-102716723D02*
X166414286Y-102526247D01*
X166414286Y-102526247D02*
X166414286Y-102383390D01*
X166414286Y-102383390D02*
X166461905Y-102192914D01*
X166461905Y-102192914D02*
X166509524Y-102097676D01*
X166509524Y-102097676D02*
X166604762Y-102002438D01*
X166604762Y-102002438D02*
X166747619Y-101954819D01*
X166747619Y-101954819D02*
X166842857Y-101954819D01*
X166842857Y-101954819D02*
X166985714Y-102002438D01*
X166985714Y-102002438D02*
X167033333Y-102050057D01*
X167414286Y-102050057D02*
X167461905Y-102002438D01*
X167461905Y-102002438D02*
X167557143Y-101954819D01*
X167557143Y-101954819D02*
X167795238Y-101954819D01*
X167795238Y-101954819D02*
X167890476Y-102002438D01*
X167890476Y-102002438D02*
X167938095Y-102050057D01*
X167938095Y-102050057D02*
X167985714Y-102145295D01*
X167985714Y-102145295D02*
X167985714Y-102240533D01*
X167985714Y-102240533D02*
X167938095Y-102383390D01*
X167938095Y-102383390D02*
X167366667Y-102954819D01*
X167366667Y-102954819D02*
X167985714Y-102954819D01*
%TO.C,UP*%
D13*
X189100000Y-104350000D02*
X189100000Y-105850000D01*
X190350000Y-108350000D02*
X194850000Y-108350000D01*
X194850000Y-101850000D02*
X190350000Y-101850000D01*
X196100000Y-105850000D02*
X196100000Y-104350000D01*
%TO.C,U2*%
D10*
X112660000Y-79560000D02*
X140660000Y-79560000D01*
X140660000Y-107560000D01*
X112660000Y-107560000D01*
X112660000Y-79560000D01*
X140660000Y-107560000D02*
X112660000Y-107560000D01*
X140660000Y-79560000D02*
X140660000Y-107560000D01*
X112660000Y-107560000D02*
X112660000Y-79560000D01*
X112660000Y-79560000D02*
X140660000Y-79560000D01*
%TO.C,R1*%
D13*
X181270000Y-96870000D02*
X181270000Y-96540000D01*
X181270000Y-94130000D02*
X181270000Y-94460000D01*
X174730000Y-96870000D02*
X181270000Y-96870000D01*
X174730000Y-96540000D02*
X174730000Y-96870000D01*
X174730000Y-94460000D02*
X174730000Y-94130000D01*
X174730000Y-94130000D02*
X181270000Y-94130000D01*
%TO.C,R4*%
X171470000Y-87370000D02*
X171470000Y-87040000D01*
X171470000Y-84630000D02*
X171470000Y-84960000D01*
X164930000Y-87370000D02*
X171470000Y-87370000D01*
X164930000Y-87040000D02*
X164930000Y-87370000D01*
X164930000Y-84960000D02*
X164930000Y-84630000D01*
X164930000Y-84630000D02*
X171470000Y-84630000D01*
%TO.C,DOWN*%
X196050000Y-116600000D02*
X196050000Y-115100000D01*
X194800000Y-112600000D02*
X190300000Y-112600000D01*
X190300000Y-119100000D02*
X194800000Y-119100000D01*
X189050000Y-115100000D02*
X189050000Y-116600000D01*
%TO.C,R2*%
X181270000Y-106870000D02*
X181270000Y-106540000D01*
X181270000Y-104130000D02*
X181270000Y-104460000D01*
X174730000Y-106870000D02*
X181270000Y-106870000D01*
X174730000Y-106540000D02*
X174730000Y-106870000D01*
X174730000Y-104460000D02*
X174730000Y-104130000D01*
X174730000Y-104130000D02*
X181270000Y-104130000D01*
%TO.C,R3*%
X181170000Y-116870000D02*
X181170000Y-116540000D01*
X181170000Y-114130000D02*
X181170000Y-114460000D01*
X174630000Y-116870000D02*
X181170000Y-116870000D01*
X174630000Y-116540000D02*
X174630000Y-116870000D01*
X174630000Y-114460000D02*
X174630000Y-114130000D01*
X174630000Y-114130000D02*
X181170000Y-114130000D01*
%TO.C,MENU*%
X196250000Y-95800000D02*
X196250000Y-94300000D01*
X195000000Y-91800000D02*
X190500000Y-91800000D01*
X190500000Y-98300000D02*
X195000000Y-98300000D01*
X189250000Y-94300000D02*
X189250000Y-95800000D01*
%TO.C,U1*%
D10*
X132240000Y-124880000D02*
X118240000Y-124880000D01*
X132240000Y-110880000D02*
X132240000Y-124880000D01*
X118240000Y-124880000D02*
X118240000Y-110880000D01*
X118240000Y-110880000D02*
X132240000Y-110880000D01*
%TO.C,C3*%
D13*
X169770000Y-116570000D02*
X164830000Y-116570000D01*
X169770000Y-116240000D02*
X169770000Y-116570000D01*
X169770000Y-113830000D02*
X169770000Y-114160000D01*
X164830000Y-116570000D02*
X164830000Y-116240000D01*
X164830000Y-114160000D02*
X164830000Y-113830000D01*
X164830000Y-113830000D02*
X169770000Y-113830000D01*
%TO.C,C1*%
X169970000Y-96870000D02*
X165030000Y-96870000D01*
X169970000Y-96540000D02*
X169970000Y-96870000D01*
X169970000Y-94130000D02*
X169970000Y-94460000D01*
X165030000Y-96870000D02*
X165030000Y-96540000D01*
X165030000Y-94460000D02*
X165030000Y-94130000D01*
X165030000Y-94130000D02*
X169970000Y-94130000D01*
%TO.C,A1*%
X143100000Y-81000000D02*
X143100000Y-124440000D01*
X143100000Y-81000000D02*
X148180000Y-81000000D01*
X143100000Y-124440000D02*
X161140000Y-124440000D01*
X145770000Y-83670000D02*
X143100000Y-83670000D01*
X145770000Y-121770000D02*
X143100000Y-121770000D01*
X145770000Y-121770000D02*
X145770000Y-83670000D01*
X148180000Y-78460000D02*
X156060000Y-78460000D01*
X148180000Y-88880000D02*
X148180000Y-78460000D01*
X156060000Y-78460000D02*
X156060000Y-88880000D01*
X156060000Y-88880000D02*
X148180000Y-88880000D01*
X158470000Y-83670000D02*
X161140000Y-83670000D01*
X158470000Y-119230000D02*
X158470000Y-83670000D01*
X158470000Y-119230000D02*
X158470000Y-121770000D01*
X158470000Y-119230000D02*
X161140000Y-119230000D01*
X158470000Y-121770000D02*
X161140000Y-121770000D01*
X161140000Y-81000000D02*
X156060000Y-81000000D01*
X161140000Y-119230000D02*
X161140000Y-81000000D01*
X161140000Y-124440000D02*
X161140000Y-121770000D01*
%TO.C,D1*%
X183595000Y-86200000D02*
G75*
G02*
X178595000Y-86200000I-2500000J0D01*
G01*
X178595000Y-86200000D02*
G75*
G02*
X183595000Y-86200000I2500000J0D01*
G01*
X184085000Y-86200000D02*
G75*
G02*
X178535000Y-87744830I-2990000J0D01*
G01*
X178535000Y-84655170D02*
G75*
G02*
X184085000Y-86200000I2560000J-1544830D01*
G01*
X178535000Y-84655000D02*
X178535000Y-87745000D01*
%TO.C,C2*%
X169670000Y-106370000D02*
X164730000Y-106370000D01*
X169670000Y-106040000D02*
X169670000Y-106370000D01*
X169670000Y-103630000D02*
X169670000Y-103960000D01*
X164730000Y-106370000D02*
X164730000Y-106040000D01*
X164730000Y-103960000D02*
X164730000Y-103630000D01*
X164730000Y-103630000D02*
X169670000Y-103630000D01*
%TD*%
M02*
