%TF.GenerationSoftware,KiCad,Pcbnew,10.0.4*%
%TF.CreationDate,2026-07-20T14:33:13+05:30*%
%TF.ProjectId,Learn_1,4c656172-6e5f-4312-9e6b-696361645f70,rev?*%
%TF.SameCoordinates,Original*%
%TF.FileFunction,Drillmap*%
%TF.FilePolarity,Positive*%
%FSLAX45Y45*%
G04 Gerber Fmt 4.5, Leading zero omitted, Abs format (unit mm)*
G04 Created by KiCad (PCBNEW 10.0.4) date 2026-07-20 14:33:13*
%MOMM*%
%LPD*%
G01*
G04 APERTURE LIST*
%ADD10C,0.050000*%
%ADD11C,0.200000*%
%ADD12C,0.100000*%
%ADD13C,0.110000*%
G04 APERTURE END LIST*
D10*
X20310000Y-7690000D02*
X10960000Y-7690000D01*
X20310000Y-13010000D02*
X20310000Y-7690000D01*
X10960000Y-13010000D02*
X20310000Y-13010000D01*
X10960000Y-7690000D02*
X10960000Y-13010000D01*
D11*
D12*
X13017000Y-11265000D02*
X13047000Y-11295000D01*
X13047000Y-11265000D02*
X13017000Y-11295000D01*
X13667000Y-9375000D02*
X13697000Y-9405000D01*
X13697000Y-9375000D02*
X13667000Y-9405000D01*
X15959000Y-10511000D02*
X15989000Y-10541000D01*
X15989000Y-10511000D02*
X15959000Y-10541000D01*
X16965000Y-11505000D02*
X16995000Y-11535000D01*
X16995000Y-11505000D02*
X16965000Y-11535000D01*
X17404000Y-10535000D02*
X17434000Y-10565000D01*
X17434000Y-10535000D02*
X17404000Y-10565000D01*
X17967500Y-8605000D02*
X17997500Y-8635000D01*
X17997500Y-8605000D02*
X17967500Y-8635000D01*
X18156000Y-11535000D02*
X18186000Y-11565000D01*
X18186000Y-11535000D02*
X18156000Y-11565000D01*
X18920000Y-10270000D02*
X18950000Y-10300000D01*
X18950000Y-10270000D02*
X18920000Y-10300000D01*
X18935000Y-9265000D02*
X18965000Y-9295000D01*
X18965000Y-9265000D02*
X18935000Y-9295000D01*
X19565000Y-11345000D02*
X19595000Y-11375000D01*
X19595000Y-11345000D02*
X19565000Y-11375000D01*
X19585000Y-9265000D02*
X19615000Y-9295000D01*
X19615000Y-9265000D02*
X19585000Y-9295000D01*
X11690000Y-8340000D02*
G75*
G02*
X11610000Y-8340000I-40000J0D01*
G01*
X11610000Y-8340000D02*
G75*
G02*
X11690000Y-8340000I40000J0D01*
G01*
X12056000Y-11280000D02*
G75*
G02*
X11976000Y-11280000I-40000J0D01*
G01*
X11976000Y-11280000D02*
G75*
G02*
X12056000Y-11280000I40000J0D01*
G01*
X12198000Y-8340000D02*
G75*
G02*
X12118000Y-8340000I-40000J0D01*
G01*
X12118000Y-8340000D02*
G75*
G02*
X12198000Y-8340000I40000J0D01*
G01*
X12310000Y-11280000D02*
G75*
G02*
X12230000Y-11280000I-40000J0D01*
G01*
X12230000Y-11280000D02*
G75*
G02*
X12310000Y-11280000I40000J0D01*
G01*
X12564000Y-11280000D02*
G75*
G02*
X12484000Y-11280000I-40000J0D01*
G01*
X12484000Y-11280000D02*
G75*
G02*
X12564000Y-11280000I40000J0D01*
G01*
X12818000Y-11280000D02*
G75*
G02*
X12738000Y-11280000I-40000J0D01*
G01*
X12738000Y-11280000D02*
G75*
G02*
X12818000Y-11280000I40000J0D01*
G01*
X12960000Y-8340000D02*
G75*
G02*
X12880000Y-8340000I-40000J0D01*
G01*
X12880000Y-8340000D02*
G75*
G02*
X12960000Y-8340000I40000J0D01*
G01*
X13072000Y-11280000D02*
G75*
G02*
X12992000Y-11280000I-40000J0D01*
G01*
X12992000Y-11280000D02*
G75*
G02*
X13072000Y-11280000I40000J0D01*
G01*
X13722000Y-8340000D02*
G75*
G02*
X13642000Y-8340000I-40000J0D01*
G01*
X13642000Y-8340000D02*
G75*
G02*
X13722000Y-8340000I40000J0D01*
G01*
X16479000Y-8600000D02*
G75*
G02*
X16399000Y-8600000I-40000J0D01*
G01*
X16399000Y-8600000D02*
G75*
G02*
X16479000Y-8600000I40000J0D01*
G01*
X16510000Y-10500000D02*
G75*
G02*
X16430000Y-10500000I-40000J0D01*
G01*
X16430000Y-10500000D02*
G75*
G02*
X16510000Y-10500000I40000J0D01*
G01*
X16520000Y-11520000D02*
G75*
G02*
X16440000Y-11520000I-40000J0D01*
G01*
X16440000Y-11520000D02*
G75*
G02*
X16520000Y-11520000I40000J0D01*
G01*
X16540000Y-9550000D02*
G75*
G02*
X16460000Y-9550000I-40000J0D01*
G01*
X16460000Y-9550000D02*
G75*
G02*
X16540000Y-9550000I40000J0D01*
G01*
X17010000Y-10500000D02*
G75*
G02*
X16930000Y-10500000I-40000J0D01*
G01*
X16930000Y-10500000D02*
G75*
G02*
X17010000Y-10500000I40000J0D01*
G01*
X17020000Y-11520000D02*
G75*
G02*
X16940000Y-11520000I-40000J0D01*
G01*
X16940000Y-11520000D02*
G75*
G02*
X17020000Y-11520000I40000J0D01*
G01*
X17040000Y-9550000D02*
G75*
G02*
X16960000Y-9550000I-40000J0D01*
G01*
X16960000Y-9550000D02*
G75*
G02*
X17040000Y-9550000I40000J0D01*
G01*
X17241000Y-8600000D02*
G75*
G02*
X17161000Y-8600000I-40000J0D01*
G01*
X17161000Y-8600000D02*
G75*
G02*
X17241000Y-8600000I40000J0D01*
G01*
X17449000Y-11550000D02*
G75*
G02*
X17369000Y-11550000I-40000J0D01*
G01*
X17369000Y-11550000D02*
G75*
G02*
X17449000Y-11550000I40000J0D01*
G01*
X17459000Y-9550000D02*
G75*
G02*
X17379000Y-9550000I-40000J0D01*
G01*
X17379000Y-9550000D02*
G75*
G02*
X17459000Y-9550000I40000J0D01*
G01*
X17459000Y-10550000D02*
G75*
G02*
X17379000Y-10550000I-40000J0D01*
G01*
X17379000Y-10550000D02*
G75*
G02*
X17459000Y-10550000I40000J0D01*
G01*
X18211000Y-11550000D02*
G75*
G02*
X18131000Y-11550000I-40000J0D01*
G01*
X18131000Y-11550000D02*
G75*
G02*
X18211000Y-11550000I40000J0D01*
G01*
X18221000Y-9550000D02*
G75*
G02*
X18141000Y-9550000I-40000J0D01*
G01*
X18141000Y-9550000D02*
G75*
G02*
X18221000Y-9550000I40000J0D01*
G01*
X18221000Y-10550000D02*
G75*
G02*
X18141000Y-10550000I-40000J0D01*
G01*
X18141000Y-10550000D02*
G75*
G02*
X18221000Y-10550000I40000J0D01*
G01*
X17982500Y-8575000D02*
X17982500Y-8665000D01*
X17937500Y-8620000D02*
X18027500Y-8620000D01*
X18236500Y-8575000D02*
X18236500Y-8665000D01*
X18191500Y-8620000D02*
X18281500Y-8620000D01*
X14485356Y-8529356D02*
X14485356Y-8458644D01*
X14414644Y-8458644D01*
X14414644Y-8529356D01*
X14485356Y-8529356D01*
X14485356Y-8783356D02*
X14485356Y-8712644D01*
X14414644Y-8712644D01*
X14414644Y-8783356D01*
X14485356Y-8783356D01*
X14485356Y-9037356D02*
X14485356Y-8966644D01*
X14414644Y-8966644D01*
X14414644Y-9037356D01*
X14485356Y-9037356D01*
X14485356Y-9291356D02*
X14485356Y-9220644D01*
X14414644Y-9220644D01*
X14414644Y-9291356D01*
X14485356Y-9291356D01*
X14485356Y-9545356D02*
X14485356Y-9474644D01*
X14414644Y-9474644D01*
X14414644Y-9545356D01*
X14485356Y-9545356D01*
X14485356Y-9799356D02*
X14485356Y-9728644D01*
X14414644Y-9728644D01*
X14414644Y-9799356D01*
X14485356Y-9799356D01*
X14485356Y-10053356D02*
X14485356Y-9982644D01*
X14414644Y-9982644D01*
X14414644Y-10053356D01*
X14485356Y-10053356D01*
X14485356Y-10307356D02*
X14485356Y-10236644D01*
X14414644Y-10236644D01*
X14414644Y-10307356D01*
X14485356Y-10307356D01*
X14485356Y-10561356D02*
X14485356Y-10490644D01*
X14414644Y-10490644D01*
X14414644Y-10561356D01*
X14485356Y-10561356D01*
X14485356Y-10815356D02*
X14485356Y-10744644D01*
X14414644Y-10744644D01*
X14414644Y-10815356D01*
X14485356Y-10815356D01*
X14485356Y-11069356D02*
X14485356Y-10998644D01*
X14414644Y-10998644D01*
X14414644Y-11069356D01*
X14485356Y-11069356D01*
X14485356Y-11323356D02*
X14485356Y-11252644D01*
X14414644Y-11252644D01*
X14414644Y-11323356D01*
X14485356Y-11323356D01*
X14485356Y-11577356D02*
X14485356Y-11506644D01*
X14414644Y-11506644D01*
X14414644Y-11577356D01*
X14485356Y-11577356D01*
X14485356Y-11831356D02*
X14485356Y-11760644D01*
X14414644Y-11760644D01*
X14414644Y-11831356D01*
X14485356Y-11831356D01*
X14485356Y-12085356D02*
X14485356Y-12014644D01*
X14414644Y-12014644D01*
X14414644Y-12085356D01*
X14485356Y-12085356D01*
X16009356Y-8529356D02*
X16009356Y-8458644D01*
X15938644Y-8458644D01*
X15938644Y-8529356D01*
X16009356Y-8529356D01*
X16009356Y-8783356D02*
X16009356Y-8712644D01*
X15938644Y-8712644D01*
X15938644Y-8783356D01*
X16009356Y-8783356D01*
X16009356Y-9037356D02*
X16009356Y-8966644D01*
X15938644Y-8966644D01*
X15938644Y-9037356D01*
X16009356Y-9037356D01*
X16009356Y-9291356D02*
X16009356Y-9220644D01*
X15938644Y-9220644D01*
X15938644Y-9291356D01*
X16009356Y-9291356D01*
X16009356Y-9545356D02*
X16009356Y-9474644D01*
X15938644Y-9474644D01*
X15938644Y-9545356D01*
X16009356Y-9545356D01*
X16009356Y-9799356D02*
X16009356Y-9728644D01*
X15938644Y-9728644D01*
X15938644Y-9799356D01*
X16009356Y-9799356D01*
X16009356Y-10053356D02*
X16009356Y-9982644D01*
X15938644Y-9982644D01*
X15938644Y-10053356D01*
X16009356Y-10053356D01*
X16009356Y-10307356D02*
X16009356Y-10236644D01*
X15938644Y-10236644D01*
X15938644Y-10307356D01*
X16009356Y-10307356D01*
X16009356Y-10561356D02*
X16009356Y-10490644D01*
X15938644Y-10490644D01*
X15938644Y-10561356D01*
X16009356Y-10561356D01*
X16009356Y-10815356D02*
X16009356Y-10744644D01*
X15938644Y-10744644D01*
X15938644Y-10815356D01*
X16009356Y-10815356D01*
X16009356Y-11069356D02*
X16009356Y-10998644D01*
X15938644Y-10998644D01*
X15938644Y-11069356D01*
X16009356Y-11069356D01*
X16009356Y-11323356D02*
X16009356Y-11252644D01*
X15938644Y-11252644D01*
X15938644Y-11323356D01*
X16009356Y-11323356D01*
X16009356Y-11577356D02*
X16009356Y-11506644D01*
X15938644Y-11506644D01*
X15938644Y-11577356D01*
X16009356Y-11577356D01*
X16009356Y-11831356D02*
X16009356Y-11760644D01*
X15938644Y-11760644D01*
X15938644Y-11831356D01*
X16009356Y-11831356D01*
X16009356Y-12085356D02*
X16009356Y-12014644D01*
X15938644Y-12014644D01*
X15938644Y-12085356D01*
X16009356Y-12085356D01*
D13*
X18930000Y-11415000D02*
X18985000Y-11360000D01*
X18930000Y-11305000D01*
X18875000Y-11360000D01*
X18930000Y-11415000D01*
X18930000Y-11865000D02*
X18985000Y-11810000D01*
X18930000Y-11755000D01*
X18875000Y-11810000D01*
X18930000Y-11865000D01*
X18935000Y-10340000D02*
X18990000Y-10285000D01*
X18935000Y-10230000D01*
X18880000Y-10285000D01*
X18935000Y-10340000D01*
X18935000Y-10790000D02*
X18990000Y-10735000D01*
X18935000Y-10680000D01*
X18880000Y-10735000D01*
X18935000Y-10790000D01*
X18950000Y-9335000D02*
X19005000Y-9280000D01*
X18950000Y-9225000D01*
X18895000Y-9280000D01*
X18950000Y-9335000D01*
X18950000Y-9785000D02*
X19005000Y-9730000D01*
X18950000Y-9675000D01*
X18895000Y-9730000D01*
X18950000Y-9785000D01*
X19580000Y-11415000D02*
X19635000Y-11360000D01*
X19580000Y-11305000D01*
X19525000Y-11360000D01*
X19580000Y-11415000D01*
X19580000Y-11865000D02*
X19635000Y-11810000D01*
X19580000Y-11755000D01*
X19525000Y-11810000D01*
X19580000Y-11865000D01*
X19585000Y-10340000D02*
X19640000Y-10285000D01*
X19585000Y-10230000D01*
X19530000Y-10285000D01*
X19585000Y-10340000D01*
X19585000Y-10790000D02*
X19640000Y-10735000D01*
X19585000Y-10680000D01*
X19530000Y-10735000D01*
X19585000Y-10790000D01*
X19600000Y-9335000D02*
X19655000Y-9280000D01*
X19600000Y-9225000D01*
X19545000Y-9280000D01*
X19600000Y-9335000D01*
X19600000Y-9785000D02*
X19655000Y-9730000D01*
X19600000Y-9675000D01*
X19545000Y-9730000D01*
X19600000Y-9785000D01*
D11*
X11218277Y-13323984D02*
X11218277Y-13123984D01*
X11218277Y-13123984D02*
X11265896Y-13123984D01*
X11265896Y-13123984D02*
X11294467Y-13133508D01*
X11294467Y-13133508D02*
X11313515Y-13152555D01*
X11313515Y-13152555D02*
X11323039Y-13171603D01*
X11323039Y-13171603D02*
X11332562Y-13209698D01*
X11332562Y-13209698D02*
X11332562Y-13238269D01*
X11332562Y-13238269D02*
X11323039Y-13276365D01*
X11323039Y-13276365D02*
X11313515Y-13295412D01*
X11313515Y-13295412D02*
X11294467Y-13314460D01*
X11294467Y-13314460D02*
X11265896Y-13323984D01*
X11265896Y-13323984D02*
X11218277Y-13323984D01*
X11418277Y-13323984D02*
X11418277Y-13190650D01*
X11418277Y-13228746D02*
X11427801Y-13209698D01*
X11427801Y-13209698D02*
X11437324Y-13200174D01*
X11437324Y-13200174D02*
X11456372Y-13190650D01*
X11456372Y-13190650D02*
X11475420Y-13190650D01*
X11542086Y-13323984D02*
X11542086Y-13190650D01*
X11542086Y-13123984D02*
X11532562Y-13133508D01*
X11532562Y-13133508D02*
X11542086Y-13143031D01*
X11542086Y-13143031D02*
X11551610Y-13133508D01*
X11551610Y-13133508D02*
X11542086Y-13123984D01*
X11542086Y-13123984D02*
X11542086Y-13143031D01*
X11665896Y-13323984D02*
X11646848Y-13314460D01*
X11646848Y-13314460D02*
X11637324Y-13295412D01*
X11637324Y-13295412D02*
X11637324Y-13123984D01*
X11770658Y-13323984D02*
X11751610Y-13314460D01*
X11751610Y-13314460D02*
X11742086Y-13295412D01*
X11742086Y-13295412D02*
X11742086Y-13123984D01*
X11999229Y-13323984D02*
X11999229Y-13123984D01*
X11999229Y-13123984D02*
X12065896Y-13266841D01*
X12065896Y-13266841D02*
X12132562Y-13123984D01*
X12132562Y-13123984D02*
X12132562Y-13323984D01*
X12313515Y-13323984D02*
X12313515Y-13219222D01*
X12313515Y-13219222D02*
X12303991Y-13200174D01*
X12303991Y-13200174D02*
X12284943Y-13190650D01*
X12284943Y-13190650D02*
X12246848Y-13190650D01*
X12246848Y-13190650D02*
X12227801Y-13200174D01*
X12313515Y-13314460D02*
X12294467Y-13323984D01*
X12294467Y-13323984D02*
X12246848Y-13323984D01*
X12246848Y-13323984D02*
X12227801Y-13314460D01*
X12227801Y-13314460D02*
X12218277Y-13295412D01*
X12218277Y-13295412D02*
X12218277Y-13276365D01*
X12218277Y-13276365D02*
X12227801Y-13257317D01*
X12227801Y-13257317D02*
X12246848Y-13247793D01*
X12246848Y-13247793D02*
X12294467Y-13247793D01*
X12294467Y-13247793D02*
X12313515Y-13238269D01*
X12408753Y-13190650D02*
X12408753Y-13390650D01*
X12408753Y-13200174D02*
X12427801Y-13190650D01*
X12427801Y-13190650D02*
X12465896Y-13190650D01*
X12465896Y-13190650D02*
X12484943Y-13200174D01*
X12484943Y-13200174D02*
X12494467Y-13209698D01*
X12494467Y-13209698D02*
X12503991Y-13228746D01*
X12503991Y-13228746D02*
X12503991Y-13285888D01*
X12503991Y-13285888D02*
X12494467Y-13304936D01*
X12494467Y-13304936D02*
X12484943Y-13314460D01*
X12484943Y-13314460D02*
X12465896Y-13323984D01*
X12465896Y-13323984D02*
X12427801Y-13323984D01*
X12427801Y-13323984D02*
X12408753Y-13314460D01*
X12589705Y-13304936D02*
X12599229Y-13314460D01*
X12599229Y-13314460D02*
X12589705Y-13323984D01*
X12589705Y-13323984D02*
X12580182Y-13314460D01*
X12580182Y-13314460D02*
X12589705Y-13304936D01*
X12589705Y-13304936D02*
X12589705Y-13323984D01*
X12589705Y-13200174D02*
X12599229Y-13209698D01*
X12599229Y-13209698D02*
X12589705Y-13219222D01*
X12589705Y-13219222D02*
X12580182Y-13209698D01*
X12580182Y-13209698D02*
X12589705Y-13200174D01*
X12589705Y-13200174D02*
X12589705Y-13219222D01*
D12*
X10927500Y-13637500D02*
X10957500Y-13667500D01*
X10957500Y-13637500D02*
X10927500Y-13667500D01*
D11*
X11256372Y-13543984D02*
X11275420Y-13543984D01*
X11275420Y-13543984D02*
X11294467Y-13553508D01*
X11294467Y-13553508D02*
X11303991Y-13563031D01*
X11303991Y-13563031D02*
X11313515Y-13582079D01*
X11313515Y-13582079D02*
X11323039Y-13620174D01*
X11323039Y-13620174D02*
X11323039Y-13667793D01*
X11323039Y-13667793D02*
X11313515Y-13705888D01*
X11313515Y-13705888D02*
X11303991Y-13724936D01*
X11303991Y-13724936D02*
X11294467Y-13734460D01*
X11294467Y-13734460D02*
X11275420Y-13743984D01*
X11275420Y-13743984D02*
X11256372Y-13743984D01*
X11256372Y-13743984D02*
X11237324Y-13734460D01*
X11237324Y-13734460D02*
X11227801Y-13724936D01*
X11227801Y-13724936D02*
X11218277Y-13705888D01*
X11218277Y-13705888D02*
X11208753Y-13667793D01*
X11208753Y-13667793D02*
X11208753Y-13620174D01*
X11208753Y-13620174D02*
X11218277Y-13582079D01*
X11218277Y-13582079D02*
X11227801Y-13563031D01*
X11227801Y-13563031D02*
X11237324Y-13553508D01*
X11237324Y-13553508D02*
X11256372Y-13543984D01*
X11408753Y-13724936D02*
X11418277Y-13734460D01*
X11418277Y-13734460D02*
X11408753Y-13743984D01*
X11408753Y-13743984D02*
X11399229Y-13734460D01*
X11399229Y-13734460D02*
X11408753Y-13724936D01*
X11408753Y-13724936D02*
X11408753Y-13743984D01*
X11484943Y-13543984D02*
X11608753Y-13543984D01*
X11608753Y-13543984D02*
X11542086Y-13620174D01*
X11542086Y-13620174D02*
X11570658Y-13620174D01*
X11570658Y-13620174D02*
X11589705Y-13629698D01*
X11589705Y-13629698D02*
X11599229Y-13639222D01*
X11599229Y-13639222D02*
X11608753Y-13658269D01*
X11608753Y-13658269D02*
X11608753Y-13705888D01*
X11608753Y-13705888D02*
X11599229Y-13724936D01*
X11599229Y-13724936D02*
X11589705Y-13734460D01*
X11589705Y-13734460D02*
X11570658Y-13743984D01*
X11570658Y-13743984D02*
X11513515Y-13743984D01*
X11513515Y-13743984D02*
X11494467Y-13734460D01*
X11494467Y-13734460D02*
X11484943Y-13724936D01*
X11732562Y-13543984D02*
X11751610Y-13543984D01*
X11751610Y-13543984D02*
X11770658Y-13553508D01*
X11770658Y-13553508D02*
X11780182Y-13563031D01*
X11780182Y-13563031D02*
X11789705Y-13582079D01*
X11789705Y-13582079D02*
X11799229Y-13620174D01*
X11799229Y-13620174D02*
X11799229Y-13667793D01*
X11799229Y-13667793D02*
X11789705Y-13705888D01*
X11789705Y-13705888D02*
X11780182Y-13724936D01*
X11780182Y-13724936D02*
X11770658Y-13734460D01*
X11770658Y-13734460D02*
X11751610Y-13743984D01*
X11751610Y-13743984D02*
X11732562Y-13743984D01*
X11732562Y-13743984D02*
X11713515Y-13734460D01*
X11713515Y-13734460D02*
X11703991Y-13724936D01*
X11703991Y-13724936D02*
X11694467Y-13705888D01*
X11694467Y-13705888D02*
X11684943Y-13667793D01*
X11684943Y-13667793D02*
X11684943Y-13620174D01*
X11684943Y-13620174D02*
X11694467Y-13582079D01*
X11694467Y-13582079D02*
X11703991Y-13563031D01*
X11703991Y-13563031D02*
X11713515Y-13553508D01*
X11713515Y-13553508D02*
X11732562Y-13543984D01*
X11923039Y-13543984D02*
X11942086Y-13543984D01*
X11942086Y-13543984D02*
X11961134Y-13553508D01*
X11961134Y-13553508D02*
X11970658Y-13563031D01*
X11970658Y-13563031D02*
X11980182Y-13582079D01*
X11980182Y-13582079D02*
X11989705Y-13620174D01*
X11989705Y-13620174D02*
X11989705Y-13667793D01*
X11989705Y-13667793D02*
X11980182Y-13705888D01*
X11980182Y-13705888D02*
X11970658Y-13724936D01*
X11970658Y-13724936D02*
X11961134Y-13734460D01*
X11961134Y-13734460D02*
X11942086Y-13743984D01*
X11942086Y-13743984D02*
X11923039Y-13743984D01*
X11923039Y-13743984D02*
X11903991Y-13734460D01*
X11903991Y-13734460D02*
X11894467Y-13724936D01*
X11894467Y-13724936D02*
X11884943Y-13705888D01*
X11884943Y-13705888D02*
X11875420Y-13667793D01*
X11875420Y-13667793D02*
X11875420Y-13620174D01*
X11875420Y-13620174D02*
X11884943Y-13582079D01*
X11884943Y-13582079D02*
X11894467Y-13563031D01*
X11894467Y-13563031D02*
X11903991Y-13553508D01*
X11903991Y-13553508D02*
X11923039Y-13543984D01*
X12075420Y-13743984D02*
X12075420Y-13610650D01*
X12075420Y-13629698D02*
X12084943Y-13620174D01*
X12084943Y-13620174D02*
X12103991Y-13610650D01*
X12103991Y-13610650D02*
X12132563Y-13610650D01*
X12132563Y-13610650D02*
X12151610Y-13620174D01*
X12151610Y-13620174D02*
X12161134Y-13639222D01*
X12161134Y-13639222D02*
X12161134Y-13743984D01*
X12161134Y-13639222D02*
X12170658Y-13620174D01*
X12170658Y-13620174D02*
X12189705Y-13610650D01*
X12189705Y-13610650D02*
X12218277Y-13610650D01*
X12218277Y-13610650D02*
X12237324Y-13620174D01*
X12237324Y-13620174D02*
X12246848Y-13639222D01*
X12246848Y-13639222D02*
X12246848Y-13743984D01*
X12342086Y-13743984D02*
X12342086Y-13610650D01*
X12342086Y-13629698D02*
X12351610Y-13620174D01*
X12351610Y-13620174D02*
X12370658Y-13610650D01*
X12370658Y-13610650D02*
X12399229Y-13610650D01*
X12399229Y-13610650D02*
X12418277Y-13620174D01*
X12418277Y-13620174D02*
X12427801Y-13639222D01*
X12427801Y-13639222D02*
X12427801Y-13743984D01*
X12427801Y-13639222D02*
X12437324Y-13620174D01*
X12437324Y-13620174D02*
X12456372Y-13610650D01*
X12456372Y-13610650D02*
X12484943Y-13610650D01*
X12484943Y-13610650D02*
X12503991Y-13620174D01*
X12503991Y-13620174D02*
X12513515Y-13639222D01*
X12513515Y-13639222D02*
X12513515Y-13743984D01*
X12903991Y-13534460D02*
X12732563Y-13791603D01*
X13161134Y-13543984D02*
X13180182Y-13543984D01*
X13180182Y-13543984D02*
X13199229Y-13553508D01*
X13199229Y-13553508D02*
X13208753Y-13563031D01*
X13208753Y-13563031D02*
X13218277Y-13582079D01*
X13218277Y-13582079D02*
X13227801Y-13620174D01*
X13227801Y-13620174D02*
X13227801Y-13667793D01*
X13227801Y-13667793D02*
X13218277Y-13705888D01*
X13218277Y-13705888D02*
X13208753Y-13724936D01*
X13208753Y-13724936D02*
X13199229Y-13734460D01*
X13199229Y-13734460D02*
X13180182Y-13743984D01*
X13180182Y-13743984D02*
X13161134Y-13743984D01*
X13161134Y-13743984D02*
X13142086Y-13734460D01*
X13142086Y-13734460D02*
X13132563Y-13724936D01*
X13132563Y-13724936D02*
X13123039Y-13705888D01*
X13123039Y-13705888D02*
X13113515Y-13667793D01*
X13113515Y-13667793D02*
X13113515Y-13620174D01*
X13113515Y-13620174D02*
X13123039Y-13582079D01*
X13123039Y-13582079D02*
X13132563Y-13563031D01*
X13132563Y-13563031D02*
X13142086Y-13553508D01*
X13142086Y-13553508D02*
X13161134Y-13543984D01*
X13313515Y-13724936D02*
X13323039Y-13734460D01*
X13323039Y-13734460D02*
X13313515Y-13743984D01*
X13313515Y-13743984D02*
X13303991Y-13734460D01*
X13303991Y-13734460D02*
X13313515Y-13724936D01*
X13313515Y-13724936D02*
X13313515Y-13743984D01*
X13446848Y-13543984D02*
X13465896Y-13543984D01*
X13465896Y-13543984D02*
X13484944Y-13553508D01*
X13484944Y-13553508D02*
X13494467Y-13563031D01*
X13494467Y-13563031D02*
X13503991Y-13582079D01*
X13503991Y-13582079D02*
X13513515Y-13620174D01*
X13513515Y-13620174D02*
X13513515Y-13667793D01*
X13513515Y-13667793D02*
X13503991Y-13705888D01*
X13503991Y-13705888D02*
X13494467Y-13724936D01*
X13494467Y-13724936D02*
X13484944Y-13734460D01*
X13484944Y-13734460D02*
X13465896Y-13743984D01*
X13465896Y-13743984D02*
X13446848Y-13743984D01*
X13446848Y-13743984D02*
X13427801Y-13734460D01*
X13427801Y-13734460D02*
X13418277Y-13724936D01*
X13418277Y-13724936D02*
X13408753Y-13705888D01*
X13408753Y-13705888D02*
X13399229Y-13667793D01*
X13399229Y-13667793D02*
X13399229Y-13620174D01*
X13399229Y-13620174D02*
X13408753Y-13582079D01*
X13408753Y-13582079D02*
X13418277Y-13563031D01*
X13418277Y-13563031D02*
X13427801Y-13553508D01*
X13427801Y-13553508D02*
X13446848Y-13543984D01*
X13703991Y-13743984D02*
X13589706Y-13743984D01*
X13646848Y-13743984D02*
X13646848Y-13543984D01*
X13646848Y-13543984D02*
X13627801Y-13572555D01*
X13627801Y-13572555D02*
X13608753Y-13591603D01*
X13608753Y-13591603D02*
X13589706Y-13601127D01*
X13894467Y-13743984D02*
X13780182Y-13743984D01*
X13837325Y-13743984D02*
X13837325Y-13543984D01*
X13837325Y-13543984D02*
X13818277Y-13572555D01*
X13818277Y-13572555D02*
X13799229Y-13591603D01*
X13799229Y-13591603D02*
X13780182Y-13601127D01*
X14008753Y-13629698D02*
X13989706Y-13620174D01*
X13989706Y-13620174D02*
X13980182Y-13610650D01*
X13980182Y-13610650D02*
X13970658Y-13591603D01*
X13970658Y-13591603D02*
X13970658Y-13582079D01*
X13970658Y-13582079D02*
X13980182Y-13563031D01*
X13980182Y-13563031D02*
X13989706Y-13553508D01*
X13989706Y-13553508D02*
X14008753Y-13543984D01*
X14008753Y-13543984D02*
X14046848Y-13543984D01*
X14046848Y-13543984D02*
X14065896Y-13553508D01*
X14065896Y-13553508D02*
X14075420Y-13563031D01*
X14075420Y-13563031D02*
X14084944Y-13582079D01*
X14084944Y-13582079D02*
X14084944Y-13591603D01*
X14084944Y-13591603D02*
X14075420Y-13610650D01*
X14075420Y-13610650D02*
X14065896Y-13620174D01*
X14065896Y-13620174D02*
X14046848Y-13629698D01*
X14046848Y-13629698D02*
X14008753Y-13629698D01*
X14008753Y-13629698D02*
X13989706Y-13639222D01*
X13989706Y-13639222D02*
X13980182Y-13648746D01*
X13980182Y-13648746D02*
X13970658Y-13667793D01*
X13970658Y-13667793D02*
X13970658Y-13705888D01*
X13970658Y-13705888D02*
X13980182Y-13724936D01*
X13980182Y-13724936D02*
X13989706Y-13734460D01*
X13989706Y-13734460D02*
X14008753Y-13743984D01*
X14008753Y-13743984D02*
X14046848Y-13743984D01*
X14046848Y-13743984D02*
X14065896Y-13734460D01*
X14065896Y-13734460D02*
X14075420Y-13724936D01*
X14075420Y-13724936D02*
X14084944Y-13705888D01*
X14084944Y-13705888D02*
X14084944Y-13667793D01*
X14084944Y-13667793D02*
X14075420Y-13648746D01*
X14075420Y-13648746D02*
X14065896Y-13639222D01*
X14065896Y-13639222D02*
X14046848Y-13629698D01*
X14161134Y-13543984D02*
X14161134Y-13582079D01*
X14237325Y-13543984D02*
X14237325Y-13582079D01*
X14532563Y-13820174D02*
X14523039Y-13810650D01*
X14523039Y-13810650D02*
X14503991Y-13782079D01*
X14503991Y-13782079D02*
X14494468Y-13763031D01*
X14494468Y-13763031D02*
X14484944Y-13734460D01*
X14484944Y-13734460D02*
X14475420Y-13686841D01*
X14475420Y-13686841D02*
X14475420Y-13648746D01*
X14475420Y-13648746D02*
X14484944Y-13601127D01*
X14484944Y-13601127D02*
X14494468Y-13572555D01*
X14494468Y-13572555D02*
X14503991Y-13553508D01*
X14503991Y-13553508D02*
X14523039Y-13524936D01*
X14523039Y-13524936D02*
X14532563Y-13515412D01*
X14713515Y-13743984D02*
X14599229Y-13743984D01*
X14656372Y-13743984D02*
X14656372Y-13543984D01*
X14656372Y-13543984D02*
X14637325Y-13572555D01*
X14637325Y-13572555D02*
X14618277Y-13591603D01*
X14618277Y-13591603D02*
X14599229Y-13601127D01*
X14903991Y-13743984D02*
X14789706Y-13743984D01*
X14846848Y-13743984D02*
X14846848Y-13543984D01*
X14846848Y-13543984D02*
X14827801Y-13572555D01*
X14827801Y-13572555D02*
X14808753Y-13591603D01*
X14808753Y-13591603D02*
X14789706Y-13601127D01*
X15142087Y-13743984D02*
X15142087Y-13543984D01*
X15227801Y-13743984D02*
X15227801Y-13639222D01*
X15227801Y-13639222D02*
X15218277Y-13620174D01*
X15218277Y-13620174D02*
X15199230Y-13610650D01*
X15199230Y-13610650D02*
X15170658Y-13610650D01*
X15170658Y-13610650D02*
X15151610Y-13620174D01*
X15151610Y-13620174D02*
X15142087Y-13629698D01*
X15351610Y-13743984D02*
X15332563Y-13734460D01*
X15332563Y-13734460D02*
X15323039Y-13724936D01*
X15323039Y-13724936D02*
X15313515Y-13705888D01*
X15313515Y-13705888D02*
X15313515Y-13648746D01*
X15313515Y-13648746D02*
X15323039Y-13629698D01*
X15323039Y-13629698D02*
X15332563Y-13620174D01*
X15332563Y-13620174D02*
X15351610Y-13610650D01*
X15351610Y-13610650D02*
X15380182Y-13610650D01*
X15380182Y-13610650D02*
X15399230Y-13620174D01*
X15399230Y-13620174D02*
X15408753Y-13629698D01*
X15408753Y-13629698D02*
X15418277Y-13648746D01*
X15418277Y-13648746D02*
X15418277Y-13705888D01*
X15418277Y-13705888D02*
X15408753Y-13724936D01*
X15408753Y-13724936D02*
X15399230Y-13734460D01*
X15399230Y-13734460D02*
X15380182Y-13743984D01*
X15380182Y-13743984D02*
X15351610Y-13743984D01*
X15532563Y-13743984D02*
X15513515Y-13734460D01*
X15513515Y-13734460D02*
X15503991Y-13715412D01*
X15503991Y-13715412D02*
X15503991Y-13543984D01*
X15684944Y-13734460D02*
X15665896Y-13743984D01*
X15665896Y-13743984D02*
X15627801Y-13743984D01*
X15627801Y-13743984D02*
X15608753Y-13734460D01*
X15608753Y-13734460D02*
X15599230Y-13715412D01*
X15599230Y-13715412D02*
X15599230Y-13639222D01*
X15599230Y-13639222D02*
X15608753Y-13620174D01*
X15608753Y-13620174D02*
X15627801Y-13610650D01*
X15627801Y-13610650D02*
X15665896Y-13610650D01*
X15665896Y-13610650D02*
X15684944Y-13620174D01*
X15684944Y-13620174D02*
X15694468Y-13639222D01*
X15694468Y-13639222D02*
X15694468Y-13658269D01*
X15694468Y-13658269D02*
X15599230Y-13677317D01*
X15770658Y-13734460D02*
X15789706Y-13743984D01*
X15789706Y-13743984D02*
X15827801Y-13743984D01*
X15827801Y-13743984D02*
X15846849Y-13734460D01*
X15846849Y-13734460D02*
X15856372Y-13715412D01*
X15856372Y-13715412D02*
X15856372Y-13705888D01*
X15856372Y-13705888D02*
X15846849Y-13686841D01*
X15846849Y-13686841D02*
X15827801Y-13677317D01*
X15827801Y-13677317D02*
X15799230Y-13677317D01*
X15799230Y-13677317D02*
X15780182Y-13667793D01*
X15780182Y-13667793D02*
X15770658Y-13648746D01*
X15770658Y-13648746D02*
X15770658Y-13639222D01*
X15770658Y-13639222D02*
X15780182Y-13620174D01*
X15780182Y-13620174D02*
X15799230Y-13610650D01*
X15799230Y-13610650D02*
X15827801Y-13610650D01*
X15827801Y-13610650D02*
X15846849Y-13620174D01*
X15923039Y-13820174D02*
X15932563Y-13810650D01*
X15932563Y-13810650D02*
X15951611Y-13782079D01*
X15951611Y-13782079D02*
X15961134Y-13763031D01*
X15961134Y-13763031D02*
X15970658Y-13734460D01*
X15970658Y-13734460D02*
X15980182Y-13686841D01*
X15980182Y-13686841D02*
X15980182Y-13648746D01*
X15980182Y-13648746D02*
X15970658Y-13601127D01*
X15970658Y-13601127D02*
X15961134Y-13572555D01*
X15961134Y-13572555D02*
X15951611Y-13553508D01*
X15951611Y-13553508D02*
X15932563Y-13524936D01*
X15932563Y-13524936D02*
X15923039Y-13515412D01*
D12*
X10957500Y-13916500D02*
G75*
G02*
X10877500Y-13916500I-40000J0D01*
G01*
X10877500Y-13916500D02*
G75*
G02*
X10957500Y-13916500I40000J0D01*
G01*
D11*
X11256372Y-13807984D02*
X11275420Y-13807984D01*
X11275420Y-13807984D02*
X11294467Y-13817508D01*
X11294467Y-13817508D02*
X11303991Y-13827031D01*
X11303991Y-13827031D02*
X11313515Y-13846079D01*
X11313515Y-13846079D02*
X11323039Y-13884174D01*
X11323039Y-13884174D02*
X11323039Y-13931793D01*
X11323039Y-13931793D02*
X11313515Y-13969888D01*
X11313515Y-13969888D02*
X11303991Y-13988936D01*
X11303991Y-13988936D02*
X11294467Y-13998460D01*
X11294467Y-13998460D02*
X11275420Y-14007984D01*
X11275420Y-14007984D02*
X11256372Y-14007984D01*
X11256372Y-14007984D02*
X11237324Y-13998460D01*
X11237324Y-13998460D02*
X11227801Y-13988936D01*
X11227801Y-13988936D02*
X11218277Y-13969888D01*
X11218277Y-13969888D02*
X11208753Y-13931793D01*
X11208753Y-13931793D02*
X11208753Y-13884174D01*
X11208753Y-13884174D02*
X11218277Y-13846079D01*
X11218277Y-13846079D02*
X11227801Y-13827031D01*
X11227801Y-13827031D02*
X11237324Y-13817508D01*
X11237324Y-13817508D02*
X11256372Y-13807984D01*
X11408753Y-13988936D02*
X11418277Y-13998460D01*
X11418277Y-13998460D02*
X11408753Y-14007984D01*
X11408753Y-14007984D02*
X11399229Y-13998460D01*
X11399229Y-13998460D02*
X11408753Y-13988936D01*
X11408753Y-13988936D02*
X11408753Y-14007984D01*
X11532562Y-13893698D02*
X11513515Y-13884174D01*
X11513515Y-13884174D02*
X11503991Y-13874650D01*
X11503991Y-13874650D02*
X11494467Y-13855603D01*
X11494467Y-13855603D02*
X11494467Y-13846079D01*
X11494467Y-13846079D02*
X11503991Y-13827031D01*
X11503991Y-13827031D02*
X11513515Y-13817508D01*
X11513515Y-13817508D02*
X11532562Y-13807984D01*
X11532562Y-13807984D02*
X11570658Y-13807984D01*
X11570658Y-13807984D02*
X11589705Y-13817508D01*
X11589705Y-13817508D02*
X11599229Y-13827031D01*
X11599229Y-13827031D02*
X11608753Y-13846079D01*
X11608753Y-13846079D02*
X11608753Y-13855603D01*
X11608753Y-13855603D02*
X11599229Y-13874650D01*
X11599229Y-13874650D02*
X11589705Y-13884174D01*
X11589705Y-13884174D02*
X11570658Y-13893698D01*
X11570658Y-13893698D02*
X11532562Y-13893698D01*
X11532562Y-13893698D02*
X11513515Y-13903222D01*
X11513515Y-13903222D02*
X11503991Y-13912746D01*
X11503991Y-13912746D02*
X11494467Y-13931793D01*
X11494467Y-13931793D02*
X11494467Y-13969888D01*
X11494467Y-13969888D02*
X11503991Y-13988936D01*
X11503991Y-13988936D02*
X11513515Y-13998460D01*
X11513515Y-13998460D02*
X11532562Y-14007984D01*
X11532562Y-14007984D02*
X11570658Y-14007984D01*
X11570658Y-14007984D02*
X11589705Y-13998460D01*
X11589705Y-13998460D02*
X11599229Y-13988936D01*
X11599229Y-13988936D02*
X11608753Y-13969888D01*
X11608753Y-13969888D02*
X11608753Y-13931793D01*
X11608753Y-13931793D02*
X11599229Y-13912746D01*
X11599229Y-13912746D02*
X11589705Y-13903222D01*
X11589705Y-13903222D02*
X11570658Y-13893698D01*
X11732562Y-13807984D02*
X11751610Y-13807984D01*
X11751610Y-13807984D02*
X11770658Y-13817508D01*
X11770658Y-13817508D02*
X11780182Y-13827031D01*
X11780182Y-13827031D02*
X11789705Y-13846079D01*
X11789705Y-13846079D02*
X11799229Y-13884174D01*
X11799229Y-13884174D02*
X11799229Y-13931793D01*
X11799229Y-13931793D02*
X11789705Y-13969888D01*
X11789705Y-13969888D02*
X11780182Y-13988936D01*
X11780182Y-13988936D02*
X11770658Y-13998460D01*
X11770658Y-13998460D02*
X11751610Y-14007984D01*
X11751610Y-14007984D02*
X11732562Y-14007984D01*
X11732562Y-14007984D02*
X11713515Y-13998460D01*
X11713515Y-13998460D02*
X11703991Y-13988936D01*
X11703991Y-13988936D02*
X11694467Y-13969888D01*
X11694467Y-13969888D02*
X11684943Y-13931793D01*
X11684943Y-13931793D02*
X11684943Y-13884174D01*
X11684943Y-13884174D02*
X11694467Y-13846079D01*
X11694467Y-13846079D02*
X11703991Y-13827031D01*
X11703991Y-13827031D02*
X11713515Y-13817508D01*
X11713515Y-13817508D02*
X11732562Y-13807984D01*
X11923039Y-13807984D02*
X11942086Y-13807984D01*
X11942086Y-13807984D02*
X11961134Y-13817508D01*
X11961134Y-13817508D02*
X11970658Y-13827031D01*
X11970658Y-13827031D02*
X11980182Y-13846079D01*
X11980182Y-13846079D02*
X11989705Y-13884174D01*
X11989705Y-13884174D02*
X11989705Y-13931793D01*
X11989705Y-13931793D02*
X11980182Y-13969888D01*
X11980182Y-13969888D02*
X11970658Y-13988936D01*
X11970658Y-13988936D02*
X11961134Y-13998460D01*
X11961134Y-13998460D02*
X11942086Y-14007984D01*
X11942086Y-14007984D02*
X11923039Y-14007984D01*
X11923039Y-14007984D02*
X11903991Y-13998460D01*
X11903991Y-13998460D02*
X11894467Y-13988936D01*
X11894467Y-13988936D02*
X11884943Y-13969888D01*
X11884943Y-13969888D02*
X11875420Y-13931793D01*
X11875420Y-13931793D02*
X11875420Y-13884174D01*
X11875420Y-13884174D02*
X11884943Y-13846079D01*
X11884943Y-13846079D02*
X11894467Y-13827031D01*
X11894467Y-13827031D02*
X11903991Y-13817508D01*
X11903991Y-13817508D02*
X11923039Y-13807984D01*
X12075420Y-14007984D02*
X12075420Y-13874650D01*
X12075420Y-13893698D02*
X12084943Y-13884174D01*
X12084943Y-13884174D02*
X12103991Y-13874650D01*
X12103991Y-13874650D02*
X12132563Y-13874650D01*
X12132563Y-13874650D02*
X12151610Y-13884174D01*
X12151610Y-13884174D02*
X12161134Y-13903222D01*
X12161134Y-13903222D02*
X12161134Y-14007984D01*
X12161134Y-13903222D02*
X12170658Y-13884174D01*
X12170658Y-13884174D02*
X12189705Y-13874650D01*
X12189705Y-13874650D02*
X12218277Y-13874650D01*
X12218277Y-13874650D02*
X12237324Y-13884174D01*
X12237324Y-13884174D02*
X12246848Y-13903222D01*
X12246848Y-13903222D02*
X12246848Y-14007984D01*
X12342086Y-14007984D02*
X12342086Y-13874650D01*
X12342086Y-13893698D02*
X12351610Y-13884174D01*
X12351610Y-13884174D02*
X12370658Y-13874650D01*
X12370658Y-13874650D02*
X12399229Y-13874650D01*
X12399229Y-13874650D02*
X12418277Y-13884174D01*
X12418277Y-13884174D02*
X12427801Y-13903222D01*
X12427801Y-13903222D02*
X12427801Y-14007984D01*
X12427801Y-13903222D02*
X12437324Y-13884174D01*
X12437324Y-13884174D02*
X12456372Y-13874650D01*
X12456372Y-13874650D02*
X12484943Y-13874650D01*
X12484943Y-13874650D02*
X12503991Y-13884174D01*
X12503991Y-13884174D02*
X12513515Y-13903222D01*
X12513515Y-13903222D02*
X12513515Y-14007984D01*
X12903991Y-13798460D02*
X12732563Y-14055603D01*
X13161134Y-13807984D02*
X13180182Y-13807984D01*
X13180182Y-13807984D02*
X13199229Y-13817508D01*
X13199229Y-13817508D02*
X13208753Y-13827031D01*
X13208753Y-13827031D02*
X13218277Y-13846079D01*
X13218277Y-13846079D02*
X13227801Y-13884174D01*
X13227801Y-13884174D02*
X13227801Y-13931793D01*
X13227801Y-13931793D02*
X13218277Y-13969888D01*
X13218277Y-13969888D02*
X13208753Y-13988936D01*
X13208753Y-13988936D02*
X13199229Y-13998460D01*
X13199229Y-13998460D02*
X13180182Y-14007984D01*
X13180182Y-14007984D02*
X13161134Y-14007984D01*
X13161134Y-14007984D02*
X13142086Y-13998460D01*
X13142086Y-13998460D02*
X13132563Y-13988936D01*
X13132563Y-13988936D02*
X13123039Y-13969888D01*
X13123039Y-13969888D02*
X13113515Y-13931793D01*
X13113515Y-13931793D02*
X13113515Y-13884174D01*
X13113515Y-13884174D02*
X13123039Y-13846079D01*
X13123039Y-13846079D02*
X13132563Y-13827031D01*
X13132563Y-13827031D02*
X13142086Y-13817508D01*
X13142086Y-13817508D02*
X13161134Y-13807984D01*
X13313515Y-13988936D02*
X13323039Y-13998460D01*
X13323039Y-13998460D02*
X13313515Y-14007984D01*
X13313515Y-14007984D02*
X13303991Y-13998460D01*
X13303991Y-13998460D02*
X13313515Y-13988936D01*
X13313515Y-13988936D02*
X13313515Y-14007984D01*
X13446848Y-13807984D02*
X13465896Y-13807984D01*
X13465896Y-13807984D02*
X13484944Y-13817508D01*
X13484944Y-13817508D02*
X13494467Y-13827031D01*
X13494467Y-13827031D02*
X13503991Y-13846079D01*
X13503991Y-13846079D02*
X13513515Y-13884174D01*
X13513515Y-13884174D02*
X13513515Y-13931793D01*
X13513515Y-13931793D02*
X13503991Y-13969888D01*
X13503991Y-13969888D02*
X13494467Y-13988936D01*
X13494467Y-13988936D02*
X13484944Y-13998460D01*
X13484944Y-13998460D02*
X13465896Y-14007984D01*
X13465896Y-14007984D02*
X13446848Y-14007984D01*
X13446848Y-14007984D02*
X13427801Y-13998460D01*
X13427801Y-13998460D02*
X13418277Y-13988936D01*
X13418277Y-13988936D02*
X13408753Y-13969888D01*
X13408753Y-13969888D02*
X13399229Y-13931793D01*
X13399229Y-13931793D02*
X13399229Y-13884174D01*
X13399229Y-13884174D02*
X13408753Y-13846079D01*
X13408753Y-13846079D02*
X13418277Y-13827031D01*
X13418277Y-13827031D02*
X13427801Y-13817508D01*
X13427801Y-13817508D02*
X13446848Y-13807984D01*
X13580182Y-13807984D02*
X13703991Y-13807984D01*
X13703991Y-13807984D02*
X13637325Y-13884174D01*
X13637325Y-13884174D02*
X13665896Y-13884174D01*
X13665896Y-13884174D02*
X13684944Y-13893698D01*
X13684944Y-13893698D02*
X13694467Y-13903222D01*
X13694467Y-13903222D02*
X13703991Y-13922269D01*
X13703991Y-13922269D02*
X13703991Y-13969888D01*
X13703991Y-13969888D02*
X13694467Y-13988936D01*
X13694467Y-13988936D02*
X13684944Y-13998460D01*
X13684944Y-13998460D02*
X13665896Y-14007984D01*
X13665896Y-14007984D02*
X13608753Y-14007984D01*
X13608753Y-14007984D02*
X13589706Y-13998460D01*
X13589706Y-13998460D02*
X13580182Y-13988936D01*
X13894467Y-14007984D02*
X13780182Y-14007984D01*
X13837325Y-14007984D02*
X13837325Y-13807984D01*
X13837325Y-13807984D02*
X13818277Y-13836555D01*
X13818277Y-13836555D02*
X13799229Y-13855603D01*
X13799229Y-13855603D02*
X13780182Y-13865127D01*
X14075420Y-13807984D02*
X13980182Y-13807984D01*
X13980182Y-13807984D02*
X13970658Y-13903222D01*
X13970658Y-13903222D02*
X13980182Y-13893698D01*
X13980182Y-13893698D02*
X13999229Y-13884174D01*
X13999229Y-13884174D02*
X14046848Y-13884174D01*
X14046848Y-13884174D02*
X14065896Y-13893698D01*
X14065896Y-13893698D02*
X14075420Y-13903222D01*
X14075420Y-13903222D02*
X14084944Y-13922269D01*
X14084944Y-13922269D02*
X14084944Y-13969888D01*
X14084944Y-13969888D02*
X14075420Y-13988936D01*
X14075420Y-13988936D02*
X14065896Y-13998460D01*
X14065896Y-13998460D02*
X14046848Y-14007984D01*
X14046848Y-14007984D02*
X13999229Y-14007984D01*
X13999229Y-14007984D02*
X13980182Y-13998460D01*
X13980182Y-13998460D02*
X13970658Y-13988936D01*
X14161134Y-13807984D02*
X14161134Y-13846079D01*
X14237325Y-13807984D02*
X14237325Y-13846079D01*
X14532563Y-14084174D02*
X14523039Y-14074650D01*
X14523039Y-14074650D02*
X14503991Y-14046079D01*
X14503991Y-14046079D02*
X14494468Y-14027031D01*
X14494468Y-14027031D02*
X14484944Y-13998460D01*
X14484944Y-13998460D02*
X14475420Y-13950841D01*
X14475420Y-13950841D02*
X14475420Y-13912746D01*
X14475420Y-13912746D02*
X14484944Y-13865127D01*
X14484944Y-13865127D02*
X14494468Y-13836555D01*
X14494468Y-13836555D02*
X14503991Y-13817508D01*
X14503991Y-13817508D02*
X14523039Y-13788936D01*
X14523039Y-13788936D02*
X14532563Y-13779412D01*
X14599229Y-13827031D02*
X14608753Y-13817508D01*
X14608753Y-13817508D02*
X14627801Y-13807984D01*
X14627801Y-13807984D02*
X14675420Y-13807984D01*
X14675420Y-13807984D02*
X14694468Y-13817508D01*
X14694468Y-13817508D02*
X14703991Y-13827031D01*
X14703991Y-13827031D02*
X14713515Y-13846079D01*
X14713515Y-13846079D02*
X14713515Y-13865127D01*
X14713515Y-13865127D02*
X14703991Y-13893698D01*
X14703991Y-13893698D02*
X14589706Y-14007984D01*
X14589706Y-14007984D02*
X14713515Y-14007984D01*
X14780182Y-13807984D02*
X14903991Y-13807984D01*
X14903991Y-13807984D02*
X14837325Y-13884174D01*
X14837325Y-13884174D02*
X14865896Y-13884174D01*
X14865896Y-13884174D02*
X14884944Y-13893698D01*
X14884944Y-13893698D02*
X14894468Y-13903222D01*
X14894468Y-13903222D02*
X14903991Y-13922269D01*
X14903991Y-13922269D02*
X14903991Y-13969888D01*
X14903991Y-13969888D02*
X14894468Y-13988936D01*
X14894468Y-13988936D02*
X14884944Y-13998460D01*
X14884944Y-13998460D02*
X14865896Y-14007984D01*
X14865896Y-14007984D02*
X14808753Y-14007984D01*
X14808753Y-14007984D02*
X14789706Y-13998460D01*
X14789706Y-13998460D02*
X14780182Y-13988936D01*
X15142087Y-14007984D02*
X15142087Y-13807984D01*
X15227801Y-14007984D02*
X15227801Y-13903222D01*
X15227801Y-13903222D02*
X15218277Y-13884174D01*
X15218277Y-13884174D02*
X15199230Y-13874650D01*
X15199230Y-13874650D02*
X15170658Y-13874650D01*
X15170658Y-13874650D02*
X15151610Y-13884174D01*
X15151610Y-13884174D02*
X15142087Y-13893698D01*
X15351610Y-14007984D02*
X15332563Y-13998460D01*
X15332563Y-13998460D02*
X15323039Y-13988936D01*
X15323039Y-13988936D02*
X15313515Y-13969888D01*
X15313515Y-13969888D02*
X15313515Y-13912746D01*
X15313515Y-13912746D02*
X15323039Y-13893698D01*
X15323039Y-13893698D02*
X15332563Y-13884174D01*
X15332563Y-13884174D02*
X15351610Y-13874650D01*
X15351610Y-13874650D02*
X15380182Y-13874650D01*
X15380182Y-13874650D02*
X15399230Y-13884174D01*
X15399230Y-13884174D02*
X15408753Y-13893698D01*
X15408753Y-13893698D02*
X15418277Y-13912746D01*
X15418277Y-13912746D02*
X15418277Y-13969888D01*
X15418277Y-13969888D02*
X15408753Y-13988936D01*
X15408753Y-13988936D02*
X15399230Y-13998460D01*
X15399230Y-13998460D02*
X15380182Y-14007984D01*
X15380182Y-14007984D02*
X15351610Y-14007984D01*
X15532563Y-14007984D02*
X15513515Y-13998460D01*
X15513515Y-13998460D02*
X15503991Y-13979412D01*
X15503991Y-13979412D02*
X15503991Y-13807984D01*
X15684944Y-13998460D02*
X15665896Y-14007984D01*
X15665896Y-14007984D02*
X15627801Y-14007984D01*
X15627801Y-14007984D02*
X15608753Y-13998460D01*
X15608753Y-13998460D02*
X15599230Y-13979412D01*
X15599230Y-13979412D02*
X15599230Y-13903222D01*
X15599230Y-13903222D02*
X15608753Y-13884174D01*
X15608753Y-13884174D02*
X15627801Y-13874650D01*
X15627801Y-13874650D02*
X15665896Y-13874650D01*
X15665896Y-13874650D02*
X15684944Y-13884174D01*
X15684944Y-13884174D02*
X15694468Y-13903222D01*
X15694468Y-13903222D02*
X15694468Y-13922269D01*
X15694468Y-13922269D02*
X15599230Y-13941317D01*
X15770658Y-13998460D02*
X15789706Y-14007984D01*
X15789706Y-14007984D02*
X15827801Y-14007984D01*
X15827801Y-14007984D02*
X15846849Y-13998460D01*
X15846849Y-13998460D02*
X15856372Y-13979412D01*
X15856372Y-13979412D02*
X15856372Y-13969888D01*
X15856372Y-13969888D02*
X15846849Y-13950841D01*
X15846849Y-13950841D02*
X15827801Y-13941317D01*
X15827801Y-13941317D02*
X15799230Y-13941317D01*
X15799230Y-13941317D02*
X15780182Y-13931793D01*
X15780182Y-13931793D02*
X15770658Y-13912746D01*
X15770658Y-13912746D02*
X15770658Y-13903222D01*
X15770658Y-13903222D02*
X15780182Y-13884174D01*
X15780182Y-13884174D02*
X15799230Y-13874650D01*
X15799230Y-13874650D02*
X15827801Y-13874650D01*
X15827801Y-13874650D02*
X15846849Y-13884174D01*
X15923039Y-14084174D02*
X15932563Y-14074650D01*
X15932563Y-14074650D02*
X15951611Y-14046079D01*
X15951611Y-14046079D02*
X15961134Y-14027031D01*
X15961134Y-14027031D02*
X15970658Y-13998460D01*
X15970658Y-13998460D02*
X15980182Y-13950841D01*
X15980182Y-13950841D02*
X15980182Y-13912746D01*
X15980182Y-13912746D02*
X15970658Y-13865127D01*
X15970658Y-13865127D02*
X15961134Y-13836555D01*
X15961134Y-13836555D02*
X15951611Y-13817508D01*
X15951611Y-13817508D02*
X15932563Y-13788936D01*
X15932563Y-13788936D02*
X15923039Y-13779412D01*
D12*
X10912500Y-14135500D02*
X10912500Y-14225500D01*
X10867500Y-14180500D02*
X10957500Y-14180500D01*
D11*
X11256372Y-14071984D02*
X11275420Y-14071984D01*
X11275420Y-14071984D02*
X11294467Y-14081508D01*
X11294467Y-14081508D02*
X11303991Y-14091031D01*
X11303991Y-14091031D02*
X11313515Y-14110079D01*
X11313515Y-14110079D02*
X11323039Y-14148174D01*
X11323039Y-14148174D02*
X11323039Y-14195793D01*
X11323039Y-14195793D02*
X11313515Y-14233888D01*
X11313515Y-14233888D02*
X11303991Y-14252936D01*
X11303991Y-14252936D02*
X11294467Y-14262460D01*
X11294467Y-14262460D02*
X11275420Y-14271984D01*
X11275420Y-14271984D02*
X11256372Y-14271984D01*
X11256372Y-14271984D02*
X11237324Y-14262460D01*
X11237324Y-14262460D02*
X11227801Y-14252936D01*
X11227801Y-14252936D02*
X11218277Y-14233888D01*
X11218277Y-14233888D02*
X11208753Y-14195793D01*
X11208753Y-14195793D02*
X11208753Y-14148174D01*
X11208753Y-14148174D02*
X11218277Y-14110079D01*
X11218277Y-14110079D02*
X11227801Y-14091031D01*
X11227801Y-14091031D02*
X11237324Y-14081508D01*
X11237324Y-14081508D02*
X11256372Y-14071984D01*
X11408753Y-14252936D02*
X11418277Y-14262460D01*
X11418277Y-14262460D02*
X11408753Y-14271984D01*
X11408753Y-14271984D02*
X11399229Y-14262460D01*
X11399229Y-14262460D02*
X11408753Y-14252936D01*
X11408753Y-14252936D02*
X11408753Y-14271984D01*
X11513515Y-14271984D02*
X11551610Y-14271984D01*
X11551610Y-14271984D02*
X11570658Y-14262460D01*
X11570658Y-14262460D02*
X11580182Y-14252936D01*
X11580182Y-14252936D02*
X11599229Y-14224365D01*
X11599229Y-14224365D02*
X11608753Y-14186269D01*
X11608753Y-14186269D02*
X11608753Y-14110079D01*
X11608753Y-14110079D02*
X11599229Y-14091031D01*
X11599229Y-14091031D02*
X11589705Y-14081508D01*
X11589705Y-14081508D02*
X11570658Y-14071984D01*
X11570658Y-14071984D02*
X11532562Y-14071984D01*
X11532562Y-14071984D02*
X11513515Y-14081508D01*
X11513515Y-14081508D02*
X11503991Y-14091031D01*
X11503991Y-14091031D02*
X11494467Y-14110079D01*
X11494467Y-14110079D02*
X11494467Y-14157698D01*
X11494467Y-14157698D02*
X11503991Y-14176746D01*
X11503991Y-14176746D02*
X11513515Y-14186269D01*
X11513515Y-14186269D02*
X11532562Y-14195793D01*
X11532562Y-14195793D02*
X11570658Y-14195793D01*
X11570658Y-14195793D02*
X11589705Y-14186269D01*
X11589705Y-14186269D02*
X11599229Y-14176746D01*
X11599229Y-14176746D02*
X11608753Y-14157698D01*
X11732562Y-14071984D02*
X11751610Y-14071984D01*
X11751610Y-14071984D02*
X11770658Y-14081508D01*
X11770658Y-14081508D02*
X11780182Y-14091031D01*
X11780182Y-14091031D02*
X11789705Y-14110079D01*
X11789705Y-14110079D02*
X11799229Y-14148174D01*
X11799229Y-14148174D02*
X11799229Y-14195793D01*
X11799229Y-14195793D02*
X11789705Y-14233888D01*
X11789705Y-14233888D02*
X11780182Y-14252936D01*
X11780182Y-14252936D02*
X11770658Y-14262460D01*
X11770658Y-14262460D02*
X11751610Y-14271984D01*
X11751610Y-14271984D02*
X11732562Y-14271984D01*
X11732562Y-14271984D02*
X11713515Y-14262460D01*
X11713515Y-14262460D02*
X11703991Y-14252936D01*
X11703991Y-14252936D02*
X11694467Y-14233888D01*
X11694467Y-14233888D02*
X11684943Y-14195793D01*
X11684943Y-14195793D02*
X11684943Y-14148174D01*
X11684943Y-14148174D02*
X11694467Y-14110079D01*
X11694467Y-14110079D02*
X11703991Y-14091031D01*
X11703991Y-14091031D02*
X11713515Y-14081508D01*
X11713515Y-14081508D02*
X11732562Y-14071984D01*
X11923039Y-14071984D02*
X11942086Y-14071984D01*
X11942086Y-14071984D02*
X11961134Y-14081508D01*
X11961134Y-14081508D02*
X11970658Y-14091031D01*
X11970658Y-14091031D02*
X11980182Y-14110079D01*
X11980182Y-14110079D02*
X11989705Y-14148174D01*
X11989705Y-14148174D02*
X11989705Y-14195793D01*
X11989705Y-14195793D02*
X11980182Y-14233888D01*
X11980182Y-14233888D02*
X11970658Y-14252936D01*
X11970658Y-14252936D02*
X11961134Y-14262460D01*
X11961134Y-14262460D02*
X11942086Y-14271984D01*
X11942086Y-14271984D02*
X11923039Y-14271984D01*
X11923039Y-14271984D02*
X11903991Y-14262460D01*
X11903991Y-14262460D02*
X11894467Y-14252936D01*
X11894467Y-14252936D02*
X11884943Y-14233888D01*
X11884943Y-14233888D02*
X11875420Y-14195793D01*
X11875420Y-14195793D02*
X11875420Y-14148174D01*
X11875420Y-14148174D02*
X11884943Y-14110079D01*
X11884943Y-14110079D02*
X11894467Y-14091031D01*
X11894467Y-14091031D02*
X11903991Y-14081508D01*
X11903991Y-14081508D02*
X11923039Y-14071984D01*
X12075420Y-14271984D02*
X12075420Y-14138650D01*
X12075420Y-14157698D02*
X12084943Y-14148174D01*
X12084943Y-14148174D02*
X12103991Y-14138650D01*
X12103991Y-14138650D02*
X12132563Y-14138650D01*
X12132563Y-14138650D02*
X12151610Y-14148174D01*
X12151610Y-14148174D02*
X12161134Y-14167222D01*
X12161134Y-14167222D02*
X12161134Y-14271984D01*
X12161134Y-14167222D02*
X12170658Y-14148174D01*
X12170658Y-14148174D02*
X12189705Y-14138650D01*
X12189705Y-14138650D02*
X12218277Y-14138650D01*
X12218277Y-14138650D02*
X12237324Y-14148174D01*
X12237324Y-14148174D02*
X12246848Y-14167222D01*
X12246848Y-14167222D02*
X12246848Y-14271984D01*
X12342086Y-14271984D02*
X12342086Y-14138650D01*
X12342086Y-14157698D02*
X12351610Y-14148174D01*
X12351610Y-14148174D02*
X12370658Y-14138650D01*
X12370658Y-14138650D02*
X12399229Y-14138650D01*
X12399229Y-14138650D02*
X12418277Y-14148174D01*
X12418277Y-14148174D02*
X12427801Y-14167222D01*
X12427801Y-14167222D02*
X12427801Y-14271984D01*
X12427801Y-14167222D02*
X12437324Y-14148174D01*
X12437324Y-14148174D02*
X12456372Y-14138650D01*
X12456372Y-14138650D02*
X12484943Y-14138650D01*
X12484943Y-14138650D02*
X12503991Y-14148174D01*
X12503991Y-14148174D02*
X12513515Y-14167222D01*
X12513515Y-14167222D02*
X12513515Y-14271984D01*
X12903991Y-14062460D02*
X12732563Y-14319603D01*
X13161134Y-14071984D02*
X13180182Y-14071984D01*
X13180182Y-14071984D02*
X13199229Y-14081508D01*
X13199229Y-14081508D02*
X13208753Y-14091031D01*
X13208753Y-14091031D02*
X13218277Y-14110079D01*
X13218277Y-14110079D02*
X13227801Y-14148174D01*
X13227801Y-14148174D02*
X13227801Y-14195793D01*
X13227801Y-14195793D02*
X13218277Y-14233888D01*
X13218277Y-14233888D02*
X13208753Y-14252936D01*
X13208753Y-14252936D02*
X13199229Y-14262460D01*
X13199229Y-14262460D02*
X13180182Y-14271984D01*
X13180182Y-14271984D02*
X13161134Y-14271984D01*
X13161134Y-14271984D02*
X13142086Y-14262460D01*
X13142086Y-14262460D02*
X13132563Y-14252936D01*
X13132563Y-14252936D02*
X13123039Y-14233888D01*
X13123039Y-14233888D02*
X13113515Y-14195793D01*
X13113515Y-14195793D02*
X13113515Y-14148174D01*
X13113515Y-14148174D02*
X13123039Y-14110079D01*
X13123039Y-14110079D02*
X13132563Y-14091031D01*
X13132563Y-14091031D02*
X13142086Y-14081508D01*
X13142086Y-14081508D02*
X13161134Y-14071984D01*
X13313515Y-14252936D02*
X13323039Y-14262460D01*
X13323039Y-14262460D02*
X13313515Y-14271984D01*
X13313515Y-14271984D02*
X13303991Y-14262460D01*
X13303991Y-14262460D02*
X13313515Y-14252936D01*
X13313515Y-14252936D02*
X13313515Y-14271984D01*
X13446848Y-14071984D02*
X13465896Y-14071984D01*
X13465896Y-14071984D02*
X13484944Y-14081508D01*
X13484944Y-14081508D02*
X13494467Y-14091031D01*
X13494467Y-14091031D02*
X13503991Y-14110079D01*
X13503991Y-14110079D02*
X13513515Y-14148174D01*
X13513515Y-14148174D02*
X13513515Y-14195793D01*
X13513515Y-14195793D02*
X13503991Y-14233888D01*
X13503991Y-14233888D02*
X13494467Y-14252936D01*
X13494467Y-14252936D02*
X13484944Y-14262460D01*
X13484944Y-14262460D02*
X13465896Y-14271984D01*
X13465896Y-14271984D02*
X13446848Y-14271984D01*
X13446848Y-14271984D02*
X13427801Y-14262460D01*
X13427801Y-14262460D02*
X13418277Y-14252936D01*
X13418277Y-14252936D02*
X13408753Y-14233888D01*
X13408753Y-14233888D02*
X13399229Y-14195793D01*
X13399229Y-14195793D02*
X13399229Y-14148174D01*
X13399229Y-14148174D02*
X13408753Y-14110079D01*
X13408753Y-14110079D02*
X13418277Y-14091031D01*
X13418277Y-14091031D02*
X13427801Y-14081508D01*
X13427801Y-14081508D02*
X13446848Y-14071984D01*
X13580182Y-14071984D02*
X13703991Y-14071984D01*
X13703991Y-14071984D02*
X13637325Y-14148174D01*
X13637325Y-14148174D02*
X13665896Y-14148174D01*
X13665896Y-14148174D02*
X13684944Y-14157698D01*
X13684944Y-14157698D02*
X13694467Y-14167222D01*
X13694467Y-14167222D02*
X13703991Y-14186269D01*
X13703991Y-14186269D02*
X13703991Y-14233888D01*
X13703991Y-14233888D02*
X13694467Y-14252936D01*
X13694467Y-14252936D02*
X13684944Y-14262460D01*
X13684944Y-14262460D02*
X13665896Y-14271984D01*
X13665896Y-14271984D02*
X13608753Y-14271984D01*
X13608753Y-14271984D02*
X13589706Y-14262460D01*
X13589706Y-14262460D02*
X13580182Y-14252936D01*
X13884944Y-14071984D02*
X13789706Y-14071984D01*
X13789706Y-14071984D02*
X13780182Y-14167222D01*
X13780182Y-14167222D02*
X13789706Y-14157698D01*
X13789706Y-14157698D02*
X13808753Y-14148174D01*
X13808753Y-14148174D02*
X13856372Y-14148174D01*
X13856372Y-14148174D02*
X13875420Y-14157698D01*
X13875420Y-14157698D02*
X13884944Y-14167222D01*
X13884944Y-14167222D02*
X13894467Y-14186269D01*
X13894467Y-14186269D02*
X13894467Y-14233888D01*
X13894467Y-14233888D02*
X13884944Y-14252936D01*
X13884944Y-14252936D02*
X13875420Y-14262460D01*
X13875420Y-14262460D02*
X13856372Y-14271984D01*
X13856372Y-14271984D02*
X13808753Y-14271984D01*
X13808753Y-14271984D02*
X13789706Y-14262460D01*
X13789706Y-14262460D02*
X13780182Y-14252936D01*
X14065896Y-14138650D02*
X14065896Y-14271984D01*
X14018277Y-14062460D02*
X13970658Y-14205317D01*
X13970658Y-14205317D02*
X14094467Y-14205317D01*
X14161134Y-14071984D02*
X14161134Y-14110079D01*
X14237325Y-14071984D02*
X14237325Y-14110079D01*
X14532563Y-14348174D02*
X14523039Y-14338650D01*
X14523039Y-14338650D02*
X14503991Y-14310079D01*
X14503991Y-14310079D02*
X14494468Y-14291031D01*
X14494468Y-14291031D02*
X14484944Y-14262460D01*
X14484944Y-14262460D02*
X14475420Y-14214841D01*
X14475420Y-14214841D02*
X14475420Y-14176746D01*
X14475420Y-14176746D02*
X14484944Y-14129127D01*
X14484944Y-14129127D02*
X14494468Y-14100555D01*
X14494468Y-14100555D02*
X14503991Y-14081508D01*
X14503991Y-14081508D02*
X14523039Y-14052936D01*
X14523039Y-14052936D02*
X14532563Y-14043412D01*
X14599229Y-14091031D02*
X14608753Y-14081508D01*
X14608753Y-14081508D02*
X14627801Y-14071984D01*
X14627801Y-14071984D02*
X14675420Y-14071984D01*
X14675420Y-14071984D02*
X14694468Y-14081508D01*
X14694468Y-14081508D02*
X14703991Y-14091031D01*
X14703991Y-14091031D02*
X14713515Y-14110079D01*
X14713515Y-14110079D02*
X14713515Y-14129127D01*
X14713515Y-14129127D02*
X14703991Y-14157698D01*
X14703991Y-14157698D02*
X14589706Y-14271984D01*
X14589706Y-14271984D02*
X14713515Y-14271984D01*
X14951610Y-14271984D02*
X14951610Y-14071984D01*
X15037325Y-14271984D02*
X15037325Y-14167222D01*
X15037325Y-14167222D02*
X15027801Y-14148174D01*
X15027801Y-14148174D02*
X15008753Y-14138650D01*
X15008753Y-14138650D02*
X14980182Y-14138650D01*
X14980182Y-14138650D02*
X14961134Y-14148174D01*
X14961134Y-14148174D02*
X14951610Y-14157698D01*
X15161134Y-14271984D02*
X15142087Y-14262460D01*
X15142087Y-14262460D02*
X15132563Y-14252936D01*
X15132563Y-14252936D02*
X15123039Y-14233888D01*
X15123039Y-14233888D02*
X15123039Y-14176746D01*
X15123039Y-14176746D02*
X15132563Y-14157698D01*
X15132563Y-14157698D02*
X15142087Y-14148174D01*
X15142087Y-14148174D02*
X15161134Y-14138650D01*
X15161134Y-14138650D02*
X15189706Y-14138650D01*
X15189706Y-14138650D02*
X15208753Y-14148174D01*
X15208753Y-14148174D02*
X15218277Y-14157698D01*
X15218277Y-14157698D02*
X15227801Y-14176746D01*
X15227801Y-14176746D02*
X15227801Y-14233888D01*
X15227801Y-14233888D02*
X15218277Y-14252936D01*
X15218277Y-14252936D02*
X15208753Y-14262460D01*
X15208753Y-14262460D02*
X15189706Y-14271984D01*
X15189706Y-14271984D02*
X15161134Y-14271984D01*
X15342087Y-14271984D02*
X15323039Y-14262460D01*
X15323039Y-14262460D02*
X15313515Y-14243412D01*
X15313515Y-14243412D02*
X15313515Y-14071984D01*
X15494468Y-14262460D02*
X15475420Y-14271984D01*
X15475420Y-14271984D02*
X15437325Y-14271984D01*
X15437325Y-14271984D02*
X15418277Y-14262460D01*
X15418277Y-14262460D02*
X15408753Y-14243412D01*
X15408753Y-14243412D02*
X15408753Y-14167222D01*
X15408753Y-14167222D02*
X15418277Y-14148174D01*
X15418277Y-14148174D02*
X15437325Y-14138650D01*
X15437325Y-14138650D02*
X15475420Y-14138650D01*
X15475420Y-14138650D02*
X15494468Y-14148174D01*
X15494468Y-14148174D02*
X15503991Y-14167222D01*
X15503991Y-14167222D02*
X15503991Y-14186269D01*
X15503991Y-14186269D02*
X15408753Y-14205317D01*
X15580182Y-14262460D02*
X15599230Y-14271984D01*
X15599230Y-14271984D02*
X15637325Y-14271984D01*
X15637325Y-14271984D02*
X15656372Y-14262460D01*
X15656372Y-14262460D02*
X15665896Y-14243412D01*
X15665896Y-14243412D02*
X15665896Y-14233888D01*
X15665896Y-14233888D02*
X15656372Y-14214841D01*
X15656372Y-14214841D02*
X15637325Y-14205317D01*
X15637325Y-14205317D02*
X15608753Y-14205317D01*
X15608753Y-14205317D02*
X15589706Y-14195793D01*
X15589706Y-14195793D02*
X15580182Y-14176746D01*
X15580182Y-14176746D02*
X15580182Y-14167222D01*
X15580182Y-14167222D02*
X15589706Y-14148174D01*
X15589706Y-14148174D02*
X15608753Y-14138650D01*
X15608753Y-14138650D02*
X15637325Y-14138650D01*
X15637325Y-14138650D02*
X15656372Y-14148174D01*
X15732563Y-14348174D02*
X15742087Y-14338650D01*
X15742087Y-14338650D02*
X15761134Y-14310079D01*
X15761134Y-14310079D02*
X15770658Y-14291031D01*
X15770658Y-14291031D02*
X15780182Y-14262460D01*
X15780182Y-14262460D02*
X15789706Y-14214841D01*
X15789706Y-14214841D02*
X15789706Y-14176746D01*
X15789706Y-14176746D02*
X15780182Y-14129127D01*
X15780182Y-14129127D02*
X15770658Y-14100555D01*
X15770658Y-14100555D02*
X15761134Y-14081508D01*
X15761134Y-14081508D02*
X15742087Y-14052936D01*
X15742087Y-14052936D02*
X15732563Y-14043412D01*
D12*
X10942856Y-14479856D02*
X10942856Y-14409144D01*
X10872144Y-14409144D01*
X10872144Y-14479856D01*
X10942856Y-14479856D01*
D11*
X11323039Y-14535984D02*
X11208753Y-14535984D01*
X11265896Y-14535984D02*
X11265896Y-14335984D01*
X11265896Y-14335984D02*
X11246848Y-14364555D01*
X11246848Y-14364555D02*
X11227801Y-14383603D01*
X11227801Y-14383603D02*
X11208753Y-14393127D01*
X11408753Y-14516936D02*
X11418277Y-14526460D01*
X11418277Y-14526460D02*
X11408753Y-14535984D01*
X11408753Y-14535984D02*
X11399229Y-14526460D01*
X11399229Y-14526460D02*
X11408753Y-14516936D01*
X11408753Y-14516936D02*
X11408753Y-14535984D01*
X11542086Y-14335984D02*
X11561134Y-14335984D01*
X11561134Y-14335984D02*
X11580182Y-14345508D01*
X11580182Y-14345508D02*
X11589705Y-14355031D01*
X11589705Y-14355031D02*
X11599229Y-14374079D01*
X11599229Y-14374079D02*
X11608753Y-14412174D01*
X11608753Y-14412174D02*
X11608753Y-14459793D01*
X11608753Y-14459793D02*
X11599229Y-14497888D01*
X11599229Y-14497888D02*
X11589705Y-14516936D01*
X11589705Y-14516936D02*
X11580182Y-14526460D01*
X11580182Y-14526460D02*
X11561134Y-14535984D01*
X11561134Y-14535984D02*
X11542086Y-14535984D01*
X11542086Y-14535984D02*
X11523039Y-14526460D01*
X11523039Y-14526460D02*
X11513515Y-14516936D01*
X11513515Y-14516936D02*
X11503991Y-14497888D01*
X11503991Y-14497888D02*
X11494467Y-14459793D01*
X11494467Y-14459793D02*
X11494467Y-14412174D01*
X11494467Y-14412174D02*
X11503991Y-14374079D01*
X11503991Y-14374079D02*
X11513515Y-14355031D01*
X11513515Y-14355031D02*
X11523039Y-14345508D01*
X11523039Y-14345508D02*
X11542086Y-14335984D01*
X11732562Y-14335984D02*
X11751610Y-14335984D01*
X11751610Y-14335984D02*
X11770658Y-14345508D01*
X11770658Y-14345508D02*
X11780182Y-14355031D01*
X11780182Y-14355031D02*
X11789705Y-14374079D01*
X11789705Y-14374079D02*
X11799229Y-14412174D01*
X11799229Y-14412174D02*
X11799229Y-14459793D01*
X11799229Y-14459793D02*
X11789705Y-14497888D01*
X11789705Y-14497888D02*
X11780182Y-14516936D01*
X11780182Y-14516936D02*
X11770658Y-14526460D01*
X11770658Y-14526460D02*
X11751610Y-14535984D01*
X11751610Y-14535984D02*
X11732562Y-14535984D01*
X11732562Y-14535984D02*
X11713515Y-14526460D01*
X11713515Y-14526460D02*
X11703991Y-14516936D01*
X11703991Y-14516936D02*
X11694467Y-14497888D01*
X11694467Y-14497888D02*
X11684943Y-14459793D01*
X11684943Y-14459793D02*
X11684943Y-14412174D01*
X11684943Y-14412174D02*
X11694467Y-14374079D01*
X11694467Y-14374079D02*
X11703991Y-14355031D01*
X11703991Y-14355031D02*
X11713515Y-14345508D01*
X11713515Y-14345508D02*
X11732562Y-14335984D01*
X11923039Y-14335984D02*
X11942086Y-14335984D01*
X11942086Y-14335984D02*
X11961134Y-14345508D01*
X11961134Y-14345508D02*
X11970658Y-14355031D01*
X11970658Y-14355031D02*
X11980182Y-14374079D01*
X11980182Y-14374079D02*
X11989705Y-14412174D01*
X11989705Y-14412174D02*
X11989705Y-14459793D01*
X11989705Y-14459793D02*
X11980182Y-14497888D01*
X11980182Y-14497888D02*
X11970658Y-14516936D01*
X11970658Y-14516936D02*
X11961134Y-14526460D01*
X11961134Y-14526460D02*
X11942086Y-14535984D01*
X11942086Y-14535984D02*
X11923039Y-14535984D01*
X11923039Y-14535984D02*
X11903991Y-14526460D01*
X11903991Y-14526460D02*
X11894467Y-14516936D01*
X11894467Y-14516936D02*
X11884943Y-14497888D01*
X11884943Y-14497888D02*
X11875420Y-14459793D01*
X11875420Y-14459793D02*
X11875420Y-14412174D01*
X11875420Y-14412174D02*
X11884943Y-14374079D01*
X11884943Y-14374079D02*
X11894467Y-14355031D01*
X11894467Y-14355031D02*
X11903991Y-14345508D01*
X11903991Y-14345508D02*
X11923039Y-14335984D01*
X12075420Y-14535984D02*
X12075420Y-14402650D01*
X12075420Y-14421698D02*
X12084943Y-14412174D01*
X12084943Y-14412174D02*
X12103991Y-14402650D01*
X12103991Y-14402650D02*
X12132563Y-14402650D01*
X12132563Y-14402650D02*
X12151610Y-14412174D01*
X12151610Y-14412174D02*
X12161134Y-14431222D01*
X12161134Y-14431222D02*
X12161134Y-14535984D01*
X12161134Y-14431222D02*
X12170658Y-14412174D01*
X12170658Y-14412174D02*
X12189705Y-14402650D01*
X12189705Y-14402650D02*
X12218277Y-14402650D01*
X12218277Y-14402650D02*
X12237324Y-14412174D01*
X12237324Y-14412174D02*
X12246848Y-14431222D01*
X12246848Y-14431222D02*
X12246848Y-14535984D01*
X12342086Y-14535984D02*
X12342086Y-14402650D01*
X12342086Y-14421698D02*
X12351610Y-14412174D01*
X12351610Y-14412174D02*
X12370658Y-14402650D01*
X12370658Y-14402650D02*
X12399229Y-14402650D01*
X12399229Y-14402650D02*
X12418277Y-14412174D01*
X12418277Y-14412174D02*
X12427801Y-14431222D01*
X12427801Y-14431222D02*
X12427801Y-14535984D01*
X12427801Y-14431222D02*
X12437324Y-14412174D01*
X12437324Y-14412174D02*
X12456372Y-14402650D01*
X12456372Y-14402650D02*
X12484943Y-14402650D01*
X12484943Y-14402650D02*
X12503991Y-14412174D01*
X12503991Y-14412174D02*
X12513515Y-14431222D01*
X12513515Y-14431222D02*
X12513515Y-14535984D01*
X12903991Y-14326460D02*
X12732563Y-14583603D01*
X13161134Y-14335984D02*
X13180182Y-14335984D01*
X13180182Y-14335984D02*
X13199229Y-14345508D01*
X13199229Y-14345508D02*
X13208753Y-14355031D01*
X13208753Y-14355031D02*
X13218277Y-14374079D01*
X13218277Y-14374079D02*
X13227801Y-14412174D01*
X13227801Y-14412174D02*
X13227801Y-14459793D01*
X13227801Y-14459793D02*
X13218277Y-14497888D01*
X13218277Y-14497888D02*
X13208753Y-14516936D01*
X13208753Y-14516936D02*
X13199229Y-14526460D01*
X13199229Y-14526460D02*
X13180182Y-14535984D01*
X13180182Y-14535984D02*
X13161134Y-14535984D01*
X13161134Y-14535984D02*
X13142086Y-14526460D01*
X13142086Y-14526460D02*
X13132563Y-14516936D01*
X13132563Y-14516936D02*
X13123039Y-14497888D01*
X13123039Y-14497888D02*
X13113515Y-14459793D01*
X13113515Y-14459793D02*
X13113515Y-14412174D01*
X13113515Y-14412174D02*
X13123039Y-14374079D01*
X13123039Y-14374079D02*
X13132563Y-14355031D01*
X13132563Y-14355031D02*
X13142086Y-14345508D01*
X13142086Y-14345508D02*
X13161134Y-14335984D01*
X13313515Y-14516936D02*
X13323039Y-14526460D01*
X13323039Y-14526460D02*
X13313515Y-14535984D01*
X13313515Y-14535984D02*
X13303991Y-14526460D01*
X13303991Y-14526460D02*
X13313515Y-14516936D01*
X13313515Y-14516936D02*
X13313515Y-14535984D01*
X13446848Y-14335984D02*
X13465896Y-14335984D01*
X13465896Y-14335984D02*
X13484944Y-14345508D01*
X13484944Y-14345508D02*
X13494467Y-14355031D01*
X13494467Y-14355031D02*
X13503991Y-14374079D01*
X13503991Y-14374079D02*
X13513515Y-14412174D01*
X13513515Y-14412174D02*
X13513515Y-14459793D01*
X13513515Y-14459793D02*
X13503991Y-14497888D01*
X13503991Y-14497888D02*
X13494467Y-14516936D01*
X13494467Y-14516936D02*
X13484944Y-14526460D01*
X13484944Y-14526460D02*
X13465896Y-14535984D01*
X13465896Y-14535984D02*
X13446848Y-14535984D01*
X13446848Y-14535984D02*
X13427801Y-14526460D01*
X13427801Y-14526460D02*
X13418277Y-14516936D01*
X13418277Y-14516936D02*
X13408753Y-14497888D01*
X13408753Y-14497888D02*
X13399229Y-14459793D01*
X13399229Y-14459793D02*
X13399229Y-14412174D01*
X13399229Y-14412174D02*
X13408753Y-14374079D01*
X13408753Y-14374079D02*
X13418277Y-14355031D01*
X13418277Y-14355031D02*
X13427801Y-14345508D01*
X13427801Y-14345508D02*
X13446848Y-14335984D01*
X13580182Y-14335984D02*
X13703991Y-14335984D01*
X13703991Y-14335984D02*
X13637325Y-14412174D01*
X13637325Y-14412174D02*
X13665896Y-14412174D01*
X13665896Y-14412174D02*
X13684944Y-14421698D01*
X13684944Y-14421698D02*
X13694467Y-14431222D01*
X13694467Y-14431222D02*
X13703991Y-14450269D01*
X13703991Y-14450269D02*
X13703991Y-14497888D01*
X13703991Y-14497888D02*
X13694467Y-14516936D01*
X13694467Y-14516936D02*
X13684944Y-14526460D01*
X13684944Y-14526460D02*
X13665896Y-14535984D01*
X13665896Y-14535984D02*
X13608753Y-14535984D01*
X13608753Y-14535984D02*
X13589706Y-14526460D01*
X13589706Y-14526460D02*
X13580182Y-14516936D01*
X13799229Y-14535984D02*
X13837325Y-14535984D01*
X13837325Y-14535984D02*
X13856372Y-14526460D01*
X13856372Y-14526460D02*
X13865896Y-14516936D01*
X13865896Y-14516936D02*
X13884944Y-14488365D01*
X13884944Y-14488365D02*
X13894467Y-14450269D01*
X13894467Y-14450269D02*
X13894467Y-14374079D01*
X13894467Y-14374079D02*
X13884944Y-14355031D01*
X13884944Y-14355031D02*
X13875420Y-14345508D01*
X13875420Y-14345508D02*
X13856372Y-14335984D01*
X13856372Y-14335984D02*
X13818277Y-14335984D01*
X13818277Y-14335984D02*
X13799229Y-14345508D01*
X13799229Y-14345508D02*
X13789706Y-14355031D01*
X13789706Y-14355031D02*
X13780182Y-14374079D01*
X13780182Y-14374079D02*
X13780182Y-14421698D01*
X13780182Y-14421698D02*
X13789706Y-14440746D01*
X13789706Y-14440746D02*
X13799229Y-14450269D01*
X13799229Y-14450269D02*
X13818277Y-14459793D01*
X13818277Y-14459793D02*
X13856372Y-14459793D01*
X13856372Y-14459793D02*
X13875420Y-14450269D01*
X13875420Y-14450269D02*
X13884944Y-14440746D01*
X13884944Y-14440746D02*
X13894467Y-14421698D01*
X14065896Y-14402650D02*
X14065896Y-14535984D01*
X14018277Y-14326460D02*
X13970658Y-14469317D01*
X13970658Y-14469317D02*
X14094467Y-14469317D01*
X14161134Y-14335984D02*
X14161134Y-14374079D01*
X14237325Y-14335984D02*
X14237325Y-14374079D01*
X14532563Y-14612174D02*
X14523039Y-14602650D01*
X14523039Y-14602650D02*
X14503991Y-14574079D01*
X14503991Y-14574079D02*
X14494468Y-14555031D01*
X14494468Y-14555031D02*
X14484944Y-14526460D01*
X14484944Y-14526460D02*
X14475420Y-14478841D01*
X14475420Y-14478841D02*
X14475420Y-14440746D01*
X14475420Y-14440746D02*
X14484944Y-14393127D01*
X14484944Y-14393127D02*
X14494468Y-14364555D01*
X14494468Y-14364555D02*
X14503991Y-14345508D01*
X14503991Y-14345508D02*
X14523039Y-14316936D01*
X14523039Y-14316936D02*
X14532563Y-14307412D01*
X14589706Y-14335984D02*
X14713515Y-14335984D01*
X14713515Y-14335984D02*
X14646848Y-14412174D01*
X14646848Y-14412174D02*
X14675420Y-14412174D01*
X14675420Y-14412174D02*
X14694468Y-14421698D01*
X14694468Y-14421698D02*
X14703991Y-14431222D01*
X14703991Y-14431222D02*
X14713515Y-14450269D01*
X14713515Y-14450269D02*
X14713515Y-14497888D01*
X14713515Y-14497888D02*
X14703991Y-14516936D01*
X14703991Y-14516936D02*
X14694468Y-14526460D01*
X14694468Y-14526460D02*
X14675420Y-14535984D01*
X14675420Y-14535984D02*
X14618277Y-14535984D01*
X14618277Y-14535984D02*
X14599229Y-14526460D01*
X14599229Y-14526460D02*
X14589706Y-14516936D01*
X14837325Y-14335984D02*
X14856372Y-14335984D01*
X14856372Y-14335984D02*
X14875420Y-14345508D01*
X14875420Y-14345508D02*
X14884944Y-14355031D01*
X14884944Y-14355031D02*
X14894468Y-14374079D01*
X14894468Y-14374079D02*
X14903991Y-14412174D01*
X14903991Y-14412174D02*
X14903991Y-14459793D01*
X14903991Y-14459793D02*
X14894468Y-14497888D01*
X14894468Y-14497888D02*
X14884944Y-14516936D01*
X14884944Y-14516936D02*
X14875420Y-14526460D01*
X14875420Y-14526460D02*
X14856372Y-14535984D01*
X14856372Y-14535984D02*
X14837325Y-14535984D01*
X14837325Y-14535984D02*
X14818277Y-14526460D01*
X14818277Y-14526460D02*
X14808753Y-14516936D01*
X14808753Y-14516936D02*
X14799229Y-14497888D01*
X14799229Y-14497888D02*
X14789706Y-14459793D01*
X14789706Y-14459793D02*
X14789706Y-14412174D01*
X14789706Y-14412174D02*
X14799229Y-14374079D01*
X14799229Y-14374079D02*
X14808753Y-14355031D01*
X14808753Y-14355031D02*
X14818277Y-14345508D01*
X14818277Y-14345508D02*
X14837325Y-14335984D01*
X15142087Y-14535984D02*
X15142087Y-14335984D01*
X15227801Y-14535984D02*
X15227801Y-14431222D01*
X15227801Y-14431222D02*
X15218277Y-14412174D01*
X15218277Y-14412174D02*
X15199230Y-14402650D01*
X15199230Y-14402650D02*
X15170658Y-14402650D01*
X15170658Y-14402650D02*
X15151610Y-14412174D01*
X15151610Y-14412174D02*
X15142087Y-14421698D01*
X15351610Y-14535984D02*
X15332563Y-14526460D01*
X15332563Y-14526460D02*
X15323039Y-14516936D01*
X15323039Y-14516936D02*
X15313515Y-14497888D01*
X15313515Y-14497888D02*
X15313515Y-14440746D01*
X15313515Y-14440746D02*
X15323039Y-14421698D01*
X15323039Y-14421698D02*
X15332563Y-14412174D01*
X15332563Y-14412174D02*
X15351610Y-14402650D01*
X15351610Y-14402650D02*
X15380182Y-14402650D01*
X15380182Y-14402650D02*
X15399230Y-14412174D01*
X15399230Y-14412174D02*
X15408753Y-14421698D01*
X15408753Y-14421698D02*
X15418277Y-14440746D01*
X15418277Y-14440746D02*
X15418277Y-14497888D01*
X15418277Y-14497888D02*
X15408753Y-14516936D01*
X15408753Y-14516936D02*
X15399230Y-14526460D01*
X15399230Y-14526460D02*
X15380182Y-14535984D01*
X15380182Y-14535984D02*
X15351610Y-14535984D01*
X15532563Y-14535984D02*
X15513515Y-14526460D01*
X15513515Y-14526460D02*
X15503991Y-14507412D01*
X15503991Y-14507412D02*
X15503991Y-14335984D01*
X15684944Y-14526460D02*
X15665896Y-14535984D01*
X15665896Y-14535984D02*
X15627801Y-14535984D01*
X15627801Y-14535984D02*
X15608753Y-14526460D01*
X15608753Y-14526460D02*
X15599230Y-14507412D01*
X15599230Y-14507412D02*
X15599230Y-14431222D01*
X15599230Y-14431222D02*
X15608753Y-14412174D01*
X15608753Y-14412174D02*
X15627801Y-14402650D01*
X15627801Y-14402650D02*
X15665896Y-14402650D01*
X15665896Y-14402650D02*
X15684944Y-14412174D01*
X15684944Y-14412174D02*
X15694468Y-14431222D01*
X15694468Y-14431222D02*
X15694468Y-14450269D01*
X15694468Y-14450269D02*
X15599230Y-14469317D01*
X15770658Y-14526460D02*
X15789706Y-14535984D01*
X15789706Y-14535984D02*
X15827801Y-14535984D01*
X15827801Y-14535984D02*
X15846849Y-14526460D01*
X15846849Y-14526460D02*
X15856372Y-14507412D01*
X15856372Y-14507412D02*
X15856372Y-14497888D01*
X15856372Y-14497888D02*
X15846849Y-14478841D01*
X15846849Y-14478841D02*
X15827801Y-14469317D01*
X15827801Y-14469317D02*
X15799230Y-14469317D01*
X15799230Y-14469317D02*
X15780182Y-14459793D01*
X15780182Y-14459793D02*
X15770658Y-14440746D01*
X15770658Y-14440746D02*
X15770658Y-14431222D01*
X15770658Y-14431222D02*
X15780182Y-14412174D01*
X15780182Y-14412174D02*
X15799230Y-14402650D01*
X15799230Y-14402650D02*
X15827801Y-14402650D01*
X15827801Y-14402650D02*
X15846849Y-14412174D01*
X15923039Y-14612174D02*
X15932563Y-14602650D01*
X15932563Y-14602650D02*
X15951611Y-14574079D01*
X15951611Y-14574079D02*
X15961134Y-14555031D01*
X15961134Y-14555031D02*
X15970658Y-14526460D01*
X15970658Y-14526460D02*
X15980182Y-14478841D01*
X15980182Y-14478841D02*
X15980182Y-14440746D01*
X15980182Y-14440746D02*
X15970658Y-14393127D01*
X15970658Y-14393127D02*
X15961134Y-14364555D01*
X15961134Y-14364555D02*
X15951611Y-14345508D01*
X15951611Y-14345508D02*
X15932563Y-14316936D01*
X15932563Y-14316936D02*
X15923039Y-14307412D01*
D13*
X10902500Y-14763500D02*
X10957500Y-14708500D01*
X10902500Y-14653500D01*
X10847500Y-14708500D01*
X10902500Y-14763500D01*
D11*
X11323039Y-14799984D02*
X11208753Y-14799984D01*
X11265896Y-14799984D02*
X11265896Y-14599984D01*
X11265896Y-14599984D02*
X11246848Y-14628555D01*
X11246848Y-14628555D02*
X11227801Y-14647603D01*
X11227801Y-14647603D02*
X11208753Y-14657127D01*
X11408753Y-14780936D02*
X11418277Y-14790460D01*
X11418277Y-14790460D02*
X11408753Y-14799984D01*
X11408753Y-14799984D02*
X11399229Y-14790460D01*
X11399229Y-14790460D02*
X11408753Y-14780936D01*
X11408753Y-14780936D02*
X11408753Y-14799984D01*
X11608753Y-14799984D02*
X11494467Y-14799984D01*
X11551610Y-14799984D02*
X11551610Y-14599984D01*
X11551610Y-14599984D02*
X11532562Y-14628555D01*
X11532562Y-14628555D02*
X11513515Y-14647603D01*
X11513515Y-14647603D02*
X11494467Y-14657127D01*
X11732562Y-14599984D02*
X11751610Y-14599984D01*
X11751610Y-14599984D02*
X11770658Y-14609508D01*
X11770658Y-14609508D02*
X11780182Y-14619031D01*
X11780182Y-14619031D02*
X11789705Y-14638079D01*
X11789705Y-14638079D02*
X11799229Y-14676174D01*
X11799229Y-14676174D02*
X11799229Y-14723793D01*
X11799229Y-14723793D02*
X11789705Y-14761888D01*
X11789705Y-14761888D02*
X11780182Y-14780936D01*
X11780182Y-14780936D02*
X11770658Y-14790460D01*
X11770658Y-14790460D02*
X11751610Y-14799984D01*
X11751610Y-14799984D02*
X11732562Y-14799984D01*
X11732562Y-14799984D02*
X11713515Y-14790460D01*
X11713515Y-14790460D02*
X11703991Y-14780936D01*
X11703991Y-14780936D02*
X11694467Y-14761888D01*
X11694467Y-14761888D02*
X11684943Y-14723793D01*
X11684943Y-14723793D02*
X11684943Y-14676174D01*
X11684943Y-14676174D02*
X11694467Y-14638079D01*
X11694467Y-14638079D02*
X11703991Y-14619031D01*
X11703991Y-14619031D02*
X11713515Y-14609508D01*
X11713515Y-14609508D02*
X11732562Y-14599984D01*
X11923039Y-14599984D02*
X11942086Y-14599984D01*
X11942086Y-14599984D02*
X11961134Y-14609508D01*
X11961134Y-14609508D02*
X11970658Y-14619031D01*
X11970658Y-14619031D02*
X11980182Y-14638079D01*
X11980182Y-14638079D02*
X11989705Y-14676174D01*
X11989705Y-14676174D02*
X11989705Y-14723793D01*
X11989705Y-14723793D02*
X11980182Y-14761888D01*
X11980182Y-14761888D02*
X11970658Y-14780936D01*
X11970658Y-14780936D02*
X11961134Y-14790460D01*
X11961134Y-14790460D02*
X11942086Y-14799984D01*
X11942086Y-14799984D02*
X11923039Y-14799984D01*
X11923039Y-14799984D02*
X11903991Y-14790460D01*
X11903991Y-14790460D02*
X11894467Y-14780936D01*
X11894467Y-14780936D02*
X11884943Y-14761888D01*
X11884943Y-14761888D02*
X11875420Y-14723793D01*
X11875420Y-14723793D02*
X11875420Y-14676174D01*
X11875420Y-14676174D02*
X11884943Y-14638079D01*
X11884943Y-14638079D02*
X11894467Y-14619031D01*
X11894467Y-14619031D02*
X11903991Y-14609508D01*
X11903991Y-14609508D02*
X11923039Y-14599984D01*
X12075420Y-14799984D02*
X12075420Y-14666650D01*
X12075420Y-14685698D02*
X12084943Y-14676174D01*
X12084943Y-14676174D02*
X12103991Y-14666650D01*
X12103991Y-14666650D02*
X12132563Y-14666650D01*
X12132563Y-14666650D02*
X12151610Y-14676174D01*
X12151610Y-14676174D02*
X12161134Y-14695222D01*
X12161134Y-14695222D02*
X12161134Y-14799984D01*
X12161134Y-14695222D02*
X12170658Y-14676174D01*
X12170658Y-14676174D02*
X12189705Y-14666650D01*
X12189705Y-14666650D02*
X12218277Y-14666650D01*
X12218277Y-14666650D02*
X12237324Y-14676174D01*
X12237324Y-14676174D02*
X12246848Y-14695222D01*
X12246848Y-14695222D02*
X12246848Y-14799984D01*
X12342086Y-14799984D02*
X12342086Y-14666650D01*
X12342086Y-14685698D02*
X12351610Y-14676174D01*
X12351610Y-14676174D02*
X12370658Y-14666650D01*
X12370658Y-14666650D02*
X12399229Y-14666650D01*
X12399229Y-14666650D02*
X12418277Y-14676174D01*
X12418277Y-14676174D02*
X12427801Y-14695222D01*
X12427801Y-14695222D02*
X12427801Y-14799984D01*
X12427801Y-14695222D02*
X12437324Y-14676174D01*
X12437324Y-14676174D02*
X12456372Y-14666650D01*
X12456372Y-14666650D02*
X12484943Y-14666650D01*
X12484943Y-14666650D02*
X12503991Y-14676174D01*
X12503991Y-14676174D02*
X12513515Y-14695222D01*
X12513515Y-14695222D02*
X12513515Y-14799984D01*
X12903991Y-14590460D02*
X12732563Y-14847603D01*
X13161134Y-14599984D02*
X13180182Y-14599984D01*
X13180182Y-14599984D02*
X13199229Y-14609508D01*
X13199229Y-14609508D02*
X13208753Y-14619031D01*
X13208753Y-14619031D02*
X13218277Y-14638079D01*
X13218277Y-14638079D02*
X13227801Y-14676174D01*
X13227801Y-14676174D02*
X13227801Y-14723793D01*
X13227801Y-14723793D02*
X13218277Y-14761888D01*
X13218277Y-14761888D02*
X13208753Y-14780936D01*
X13208753Y-14780936D02*
X13199229Y-14790460D01*
X13199229Y-14790460D02*
X13180182Y-14799984D01*
X13180182Y-14799984D02*
X13161134Y-14799984D01*
X13161134Y-14799984D02*
X13142086Y-14790460D01*
X13142086Y-14790460D02*
X13132563Y-14780936D01*
X13132563Y-14780936D02*
X13123039Y-14761888D01*
X13123039Y-14761888D02*
X13113515Y-14723793D01*
X13113515Y-14723793D02*
X13113515Y-14676174D01*
X13113515Y-14676174D02*
X13123039Y-14638079D01*
X13123039Y-14638079D02*
X13132563Y-14619031D01*
X13132563Y-14619031D02*
X13142086Y-14609508D01*
X13142086Y-14609508D02*
X13161134Y-14599984D01*
X13313515Y-14780936D02*
X13323039Y-14790460D01*
X13323039Y-14790460D02*
X13313515Y-14799984D01*
X13313515Y-14799984D02*
X13303991Y-14790460D01*
X13303991Y-14790460D02*
X13313515Y-14780936D01*
X13313515Y-14780936D02*
X13313515Y-14799984D01*
X13446848Y-14599984D02*
X13465896Y-14599984D01*
X13465896Y-14599984D02*
X13484944Y-14609508D01*
X13484944Y-14609508D02*
X13494467Y-14619031D01*
X13494467Y-14619031D02*
X13503991Y-14638079D01*
X13503991Y-14638079D02*
X13513515Y-14676174D01*
X13513515Y-14676174D02*
X13513515Y-14723793D01*
X13513515Y-14723793D02*
X13503991Y-14761888D01*
X13503991Y-14761888D02*
X13494467Y-14780936D01*
X13494467Y-14780936D02*
X13484944Y-14790460D01*
X13484944Y-14790460D02*
X13465896Y-14799984D01*
X13465896Y-14799984D02*
X13446848Y-14799984D01*
X13446848Y-14799984D02*
X13427801Y-14790460D01*
X13427801Y-14790460D02*
X13418277Y-14780936D01*
X13418277Y-14780936D02*
X13408753Y-14761888D01*
X13408753Y-14761888D02*
X13399229Y-14723793D01*
X13399229Y-14723793D02*
X13399229Y-14676174D01*
X13399229Y-14676174D02*
X13408753Y-14638079D01*
X13408753Y-14638079D02*
X13418277Y-14619031D01*
X13418277Y-14619031D02*
X13427801Y-14609508D01*
X13427801Y-14609508D02*
X13446848Y-14599984D01*
X13684944Y-14666650D02*
X13684944Y-14799984D01*
X13637325Y-14590460D02*
X13589706Y-14733317D01*
X13589706Y-14733317D02*
X13713515Y-14733317D01*
X13770658Y-14599984D02*
X13894467Y-14599984D01*
X13894467Y-14599984D02*
X13827801Y-14676174D01*
X13827801Y-14676174D02*
X13856372Y-14676174D01*
X13856372Y-14676174D02*
X13875420Y-14685698D01*
X13875420Y-14685698D02*
X13884944Y-14695222D01*
X13884944Y-14695222D02*
X13894467Y-14714269D01*
X13894467Y-14714269D02*
X13894467Y-14761888D01*
X13894467Y-14761888D02*
X13884944Y-14780936D01*
X13884944Y-14780936D02*
X13875420Y-14790460D01*
X13875420Y-14790460D02*
X13856372Y-14799984D01*
X13856372Y-14799984D02*
X13799229Y-14799984D01*
X13799229Y-14799984D02*
X13780182Y-14790460D01*
X13780182Y-14790460D02*
X13770658Y-14780936D01*
X13961134Y-14599984D02*
X14084944Y-14599984D01*
X14084944Y-14599984D02*
X14018277Y-14676174D01*
X14018277Y-14676174D02*
X14046848Y-14676174D01*
X14046848Y-14676174D02*
X14065896Y-14685698D01*
X14065896Y-14685698D02*
X14075420Y-14695222D01*
X14075420Y-14695222D02*
X14084944Y-14714269D01*
X14084944Y-14714269D02*
X14084944Y-14761888D01*
X14084944Y-14761888D02*
X14075420Y-14780936D01*
X14075420Y-14780936D02*
X14065896Y-14790460D01*
X14065896Y-14790460D02*
X14046848Y-14799984D01*
X14046848Y-14799984D02*
X13989706Y-14799984D01*
X13989706Y-14799984D02*
X13970658Y-14790460D01*
X13970658Y-14790460D02*
X13961134Y-14780936D01*
X14161134Y-14599984D02*
X14161134Y-14638079D01*
X14237325Y-14599984D02*
X14237325Y-14638079D01*
X14532563Y-14876174D02*
X14523039Y-14866650D01*
X14523039Y-14866650D02*
X14503991Y-14838079D01*
X14503991Y-14838079D02*
X14494468Y-14819031D01*
X14494468Y-14819031D02*
X14484944Y-14790460D01*
X14484944Y-14790460D02*
X14475420Y-14742841D01*
X14475420Y-14742841D02*
X14475420Y-14704746D01*
X14475420Y-14704746D02*
X14484944Y-14657127D01*
X14484944Y-14657127D02*
X14494468Y-14628555D01*
X14494468Y-14628555D02*
X14503991Y-14609508D01*
X14503991Y-14609508D02*
X14523039Y-14580936D01*
X14523039Y-14580936D02*
X14532563Y-14571412D01*
X14713515Y-14799984D02*
X14599229Y-14799984D01*
X14656372Y-14799984D02*
X14656372Y-14599984D01*
X14656372Y-14599984D02*
X14637325Y-14628555D01*
X14637325Y-14628555D02*
X14618277Y-14647603D01*
X14618277Y-14647603D02*
X14599229Y-14657127D01*
X14789706Y-14619031D02*
X14799229Y-14609508D01*
X14799229Y-14609508D02*
X14818277Y-14599984D01*
X14818277Y-14599984D02*
X14865896Y-14599984D01*
X14865896Y-14599984D02*
X14884944Y-14609508D01*
X14884944Y-14609508D02*
X14894468Y-14619031D01*
X14894468Y-14619031D02*
X14903991Y-14638079D01*
X14903991Y-14638079D02*
X14903991Y-14657127D01*
X14903991Y-14657127D02*
X14894468Y-14685698D01*
X14894468Y-14685698D02*
X14780182Y-14799984D01*
X14780182Y-14799984D02*
X14903991Y-14799984D01*
X15142087Y-14799984D02*
X15142087Y-14599984D01*
X15227801Y-14799984D02*
X15227801Y-14695222D01*
X15227801Y-14695222D02*
X15218277Y-14676174D01*
X15218277Y-14676174D02*
X15199230Y-14666650D01*
X15199230Y-14666650D02*
X15170658Y-14666650D01*
X15170658Y-14666650D02*
X15151610Y-14676174D01*
X15151610Y-14676174D02*
X15142087Y-14685698D01*
X15351610Y-14799984D02*
X15332563Y-14790460D01*
X15332563Y-14790460D02*
X15323039Y-14780936D01*
X15323039Y-14780936D02*
X15313515Y-14761888D01*
X15313515Y-14761888D02*
X15313515Y-14704746D01*
X15313515Y-14704746D02*
X15323039Y-14685698D01*
X15323039Y-14685698D02*
X15332563Y-14676174D01*
X15332563Y-14676174D02*
X15351610Y-14666650D01*
X15351610Y-14666650D02*
X15380182Y-14666650D01*
X15380182Y-14666650D02*
X15399230Y-14676174D01*
X15399230Y-14676174D02*
X15408753Y-14685698D01*
X15408753Y-14685698D02*
X15418277Y-14704746D01*
X15418277Y-14704746D02*
X15418277Y-14761888D01*
X15418277Y-14761888D02*
X15408753Y-14780936D01*
X15408753Y-14780936D02*
X15399230Y-14790460D01*
X15399230Y-14790460D02*
X15380182Y-14799984D01*
X15380182Y-14799984D02*
X15351610Y-14799984D01*
X15532563Y-14799984D02*
X15513515Y-14790460D01*
X15513515Y-14790460D02*
X15503991Y-14771412D01*
X15503991Y-14771412D02*
X15503991Y-14599984D01*
X15684944Y-14790460D02*
X15665896Y-14799984D01*
X15665896Y-14799984D02*
X15627801Y-14799984D01*
X15627801Y-14799984D02*
X15608753Y-14790460D01*
X15608753Y-14790460D02*
X15599230Y-14771412D01*
X15599230Y-14771412D02*
X15599230Y-14695222D01*
X15599230Y-14695222D02*
X15608753Y-14676174D01*
X15608753Y-14676174D02*
X15627801Y-14666650D01*
X15627801Y-14666650D02*
X15665896Y-14666650D01*
X15665896Y-14666650D02*
X15684944Y-14676174D01*
X15684944Y-14676174D02*
X15694468Y-14695222D01*
X15694468Y-14695222D02*
X15694468Y-14714269D01*
X15694468Y-14714269D02*
X15599230Y-14733317D01*
X15770658Y-14790460D02*
X15789706Y-14799984D01*
X15789706Y-14799984D02*
X15827801Y-14799984D01*
X15827801Y-14799984D02*
X15846849Y-14790460D01*
X15846849Y-14790460D02*
X15856372Y-14771412D01*
X15856372Y-14771412D02*
X15856372Y-14761888D01*
X15856372Y-14761888D02*
X15846849Y-14742841D01*
X15846849Y-14742841D02*
X15827801Y-14733317D01*
X15827801Y-14733317D02*
X15799230Y-14733317D01*
X15799230Y-14733317D02*
X15780182Y-14723793D01*
X15780182Y-14723793D02*
X15770658Y-14704746D01*
X15770658Y-14704746D02*
X15770658Y-14695222D01*
X15770658Y-14695222D02*
X15780182Y-14676174D01*
X15780182Y-14676174D02*
X15799230Y-14666650D01*
X15799230Y-14666650D02*
X15827801Y-14666650D01*
X15827801Y-14666650D02*
X15846849Y-14676174D01*
X15923039Y-14876174D02*
X15932563Y-14866650D01*
X15932563Y-14866650D02*
X15951611Y-14838079D01*
X15951611Y-14838079D02*
X15961134Y-14819031D01*
X15961134Y-14819031D02*
X15970658Y-14790460D01*
X15970658Y-14790460D02*
X15980182Y-14742841D01*
X15980182Y-14742841D02*
X15980182Y-14704746D01*
X15980182Y-14704746D02*
X15970658Y-14657127D01*
X15970658Y-14657127D02*
X15961134Y-14628555D01*
X15961134Y-14628555D02*
X15951611Y-14609508D01*
X15951611Y-14609508D02*
X15932563Y-14580936D01*
X15932563Y-14580936D02*
X15923039Y-14571412D01*
M02*
